<?xml version="1.0" encoding="utf-8"?>
<!-- Generator: Adobe Illustrator 28.3.0, SVG Export Plug-In . SVG Version: 6.00 Build 0)  -->
<svg version="1.1" xmlns="http://www.w3.org/2000/svg" xmlns:xlink="http://www.w3.org/1999/xlink" x="0px" y="0px"
	 viewBox="0 0 32 32" style="enable-background:new 0 0 32 32;" xml:space="preserve">
<style type="text/css">
	.st0{fill:none;}
	.st1{opacity:0.7;fill:#19120B;}
	.st2{fill:#FFFFFF;}
	.st3{fill:none;stroke:#FFFFFF;stroke-linecap:round;stroke-linejoin:round;stroke-miterlimit:10;}
	.st4{fill:#BA110F;}
	.st5{fill:none;stroke:#94160F;stroke-miterlimit:10;}
	.st6{fill:#606060;}
	.st7{fill:#B29A8A;}
	.st8{fill:#94160F;}
	.st9{fill:none;stroke:#FFFFFF;stroke-width:2;stroke-linecap:round;stroke-linejoin:round;stroke-miterlimit:10;}
	.st10{fill:#8C1002;stroke:#FFFFFF;stroke-linecap:round;stroke-linejoin:round;stroke-miterlimit:10;}
	.st11{clip-path:url(#SVGID_00000073711575201222497150000004236029043258827165_);}
	.st12{clip-path:url(#SVGID_00000035506039998316035820000003887702265623665046_);}
	.st13{fill:none;stroke:#BA110F;stroke-miterlimit:10;}
	.st14{fill:#C4AF9B;}
	.st15{fill:url(#SVGID_00000166646369914756996590000001466468028745599422_);}
	.st16{fill:url(#SVGID_00000151521067770255304610000009339989793555616667_);}
	.st17{opacity:0.42;fill:url(#SVGID_00000045603714713152397510000016343073794988382631_);}
	.st18{fill:#FFFFFF;stroke:#D3D3D3;stroke-width:0.75;stroke-miterlimit:10;}
	.st19{fill:#605A56;}
	.st20{fill:none;stroke:#BA110F;stroke-width:1.5;stroke-miterlimit:10;}
	.st21{clip-path:url(#SVGID_00000077297524217559200420000006382259432455455132_);}
	.st22{fill:url(#SVGID_00000067953580262383748550000004248584521142633107_);}
	.st23{fill:url(#SVGID_00000079476019867283779130000007605261757192847031_);}
	.st24{fill:url(#SVGID_00000114048143030543433580000015489916729337652887_);}
	.st25{fill:url(#SVGID_00000034812699124999976450000005491044365819869356_);}
	.st26{fill:url(#SVGID_00000110463506481155196230000007718185596741875370_);}
	.st27{fill:none;stroke:#4E96DD;stroke-width:5;stroke-miterlimit:10;}
	.st28{fill:url(#SVGID_00000154422190725857512310000003360421456494735239_);}
	.st29{fill:#FCF2E1;}
</style>
<g id="Vrstva_1">
	<g>
		<rect class="st0" width="32" height="32"/>
		<g>
			<path class="st4" d="M11.4,22.1l-1.8-1.8l-2.8,2.8c-0.6-0.1-1.2,0.1-1.6,0.6c-0.8,0.8-0.8,2.1,0,2.8c0.8,0.8,2.1,0.8,2.8,0
				c0.4-0.4,0.6-1,0.6-1.6L11.4,22.1z"/>
			<path class="st4" d="M26.8,23.7c-0.4-0.4-1-0.6-1.6-0.6l-2.8-2.8l-1.8,1.8l2.8,2.8c-0.1,0.6,0.1,1.2,0.6,1.6
				c0.8,0.8,2.1,0.8,2.8,0C27.6,25.7,27.6,24.4,26.8,23.7z"/>
			<polygon class="st4" points="15.5,12.2 10.6,6.6 5.2,4.9 6.9,10.3 12.6,15.4 			"/>
			<g>
				<polygon class="st4" points="16,18.4 16,18.4 19.6,15.1 25,10.3 26.8,4.9 21.4,6.7 21.2,6.9 21.2,6.9 13.2,15.9 12.8,16.2 
					11.3,17.9 11.3,17.9 11,18.3 9,16.3 7.8,17.6 14.1,23.9 15.3,22.6 13.4,20.7 				"/>
				<polygon class="st4" points="21,18.3 19.3,16.4 16.5,18.9 18.6,20.7 16.6,22.6 17.8,23.9 24.2,17.6 22.9,16.3 				"/>
			</g>
		</g>
	</g>
</g>
<g id="BARVY_INFO">
</g>
</svg>
