<?xml version="1.0" encoding="utf-8"?>
<!-- Generator: Adobe Illustrator 28.3.0, SVG Export Plug-In . SVG Version: 6.00 Build 0)  -->
<svg version="1.1" xmlns="http://www.w3.org/2000/svg" xmlns:xlink="http://www.w3.org/1999/xlink" x="0px" y="0px"
	 viewBox="0 0 32 32" style="enable-background:new 0 0 32 32;" xml:space="preserve">
<style type="text/css">
	.st0{fill:none;}
	.st1{opacity:0.7;fill:#19120B;}
	.st2{fill:#FFFFFF;}
	.st3{fill:none;stroke:#FFFFFF;stroke-linecap:round;stroke-linejoin:round;stroke-miterlimit:10;}
	.st4{fill:#BA110F;}
	.st5{fill:none;stroke:#94160F;stroke-miterlimit:10;}
	.st6{fill:#606060;}
	.st7{fill:#B29A8A;}
	.st8{fill:#94160F;}
	.st9{fill:none;stroke:#FFFFFF;stroke-width:2;stroke-linecap:round;stroke-linejoin:round;stroke-miterlimit:10;}
	.st10{fill:#8C1002;stroke:#FFFFFF;stroke-linecap:round;stroke-linejoin:round;stroke-miterlimit:10;}
	.st11{clip-path:url(#SVGID_00000106124394462982932560000018035194756532547730_);}
	.st12{clip-path:url(#SVGID_00000180346106043950510560000012961264633509554068_);}
	.st13{fill:none;stroke:#BA110F;stroke-miterlimit:10;}
	.st14{fill:#C4AF9B;}
	.st15{fill:url(#SVGID_00000121995242721942378710000009425855816605831320_);}
	.st16{fill:url(#SVGID_00000006680986291548215650000001458314440778835087_);}
	.st17{opacity:0.42;fill:url(#SVGID_00000030486365569059889450000000043412437992197777_);}
	.st18{fill:#FFFFFF;stroke:#D3D3D3;stroke-width:0.75;stroke-miterlimit:10;}
	.st19{fill:#605A56;}
	.st20{fill:none;stroke:#BA110F;stroke-width:1.5;stroke-miterlimit:10;}
	.st21{clip-path:url(#SVGID_00000101799116033018503960000009741736602739139727_);}
	.st22{fill:url(#SVGID_00000029733893580920501700000007567779008647812002_);}
	.st23{fill:url(#SVGID_00000114755938810637703660000008490379095900350336_);}
	.st24{fill:url(#SVGID_00000016787101346800127530000008508709928386073522_);}
	.st25{fill:url(#SVGID_00000036240023598727405650000008997018040053117075_);}
	.st26{fill:url(#SVGID_00000054968666909075558260000003508138619965832365_);}
	.st27{fill:none;stroke:#4E96DD;stroke-width:5;stroke-miterlimit:10;}
	.st28{fill:url(#SVGID_00000110445497944008770540000014499140033981125776_);}
	.st29{fill:#FCF2E1;}
</style>
<g id="Vrstva_1">
	<g>
		<rect class="st0" width="32" height="32"/>
		<g>
			<path class="st4" d="M14.3,5.3c0.3,0.3,0.6,0.5,1,0.7c0.4,0.2,0.8,0.3,1.2,0.3c0.5,0,1-0.1,1.6-0.4c0.5-0.3,1-0.6,1.4-1
				c0.4-0.4,0.9-0.9,1.2-1.3c0.4-0.5,0.6-0.9,0.8-1.3c0,0,0-0.1,0-0.1c0,0-0.1,0-0.1,0c0,0,0,0,0,0c0,0,0,0,0,0l-0.2,0.1
				c0,0-0.1,0.1-0.1,0.1c0,0,0,0-0.1,0.1c-0.3,0.6-0.8,1.2-1.3,1.7c-0.5,0.5-1.1,0.7-1.9,0.7c-0.6,0-1.1-0.2-1.7-0.6
				c-0.6-0.4-1-1.2-1.4-2.3c0-0.1,0-0.1-0.1,0L13.1,3c0,0,0,0,0,0.1c0.1,0.4,0.2,0.8,0.4,1.2C13.7,4.7,14,5,14.3,5.3z"/>
			<path class="st4" d="M17.2,28.6L17.2,28.6C17.2,28.5,17.2,28.5,17.2,28.6C17.2,28.5,17.1,28.5,17.2,28.6L16.5,28
				c-0.2-0.2-0.2-0.4-0.2-0.5v-0.8h0v-0.3c0,0,0,0,0,0c-0.1,0-0.1,0-0.2,0c0,0-0.1,0-0.1,0v0.4h0v0.8c0,0.1-0.1,0.3-0.2,0.5
				l-0.6,0.5c0,0,0,0,0,0c0,0,0,0,0,0l0,0c0,0,0,0,0,0c0,0,0,0,0,0c0,0,0,0,0,0c0,0,0.1,0.1,0.2,0.3c0.1,0.1,0.2,0.3,0.2,0.4
				c0,0.1,0.1,0.1,0.1,0.2c0,0.1,0.1,0.1,0.1,0.2c0,0.1,0.1,0.1,0.1,0.2c0.1,0.2,0.2,0.3,0.2,0.4c0,0,0,0,0.1,0c0,0,0,0,0,0s0,0,0,0
				c0,0,0.1,0,0.1,0c0-0.1,0.1-0.3,0.2-0.4c0-0.1,0.1-0.1,0.1-0.2c0-0.1,0.1-0.1,0.1-0.2c0-0.1,0.1-0.1,0.1-0.2
				c0.1-0.2,0.2-0.3,0.2-0.4C17.1,28.8,17.1,28.7,17.2,28.6C17.2,28.6,17.2,28.6,17.2,28.6C17.2,28.6,17.2,28.6,17.2,28.6
				C17.2,28.6,17.2,28.6,17.2,28.6z"/>
			<path class="st4" d="M20.6,18c-0.6-0.4-1.3-0.8-2-1.2c-0.8-0.3-1.5-0.6-2.2-0.9v-2.2c0,0,0,0,0,0c-0.1,0-0.1,0-0.2,0c0,0,0,0,0,0
				v2.1c-0.5-0.2-1-0.4-1.4-0.6c-0.5-0.2-0.8-0.4-1.2-0.6c-0.3-0.2-0.6-0.5-0.8-0.7c-0.2-0.2-0.3-0.5-0.3-0.8c0-0.2,0.1-0.4,0.2-0.7
				c0.1-0.3,0.3-0.5,0.5-0.7c0.1,0,0.1,0,0.2,0c0.1,0,0.2,0,0.2,0.1c0.2,0.3,0.5,0.6,0.9,0.9c0.3,0.3,0.7,0.5,1.1,0.6c0,0,0,0,0.1,0
				c0.1,0,0.1,0,0.2,0.1c0,0,0,0,0,0c0.1,0,0.2,0,0.2,0.1v0c0.3,0.1,0.6,0.1,1,0.1c0.6,0,1.2-0.2,1.7-0.5c0.6-0.3,1-0.7,1.5-1.2
				c0.4-0.5,0.8-0.9,1-1.4c0.2-0.5,0.4-0.9,0.4-1.2c0-0.2-0.1-0.4-0.2-0.7c-0.2-0.2-0.4-0.3-0.7-0.3c-0.3,0-0.5,0.1-0.7,0.2
				c-0.2,0.1-0.3,0.3-0.3,0.6c0,0.1,0,0.1,0,0.2c0,0.1,0,0.1,0.1,0.1H20c0,0,0.1,0,0.1-0.1c0.1-0.1,0.1-0.2,0.1-0.3
				c0-0.2,0.1-0.4,0.3-0.4c0,0,0.1,0,0.2,0c0.2,0,0.3,0.1,0.4,0.2c0.1,0.1,0.2,0.3,0.2,0.5c0,0.2-0.1,0.4-0.2,0.7
				c-0.2,0.5-0.6,0.9-1,1.2c-0.5,0.3-1,0.5-1.5,0.5h-0.3c-0.4,0-0.8-0.1-1.1-0.2c-0.3-0.1-0.6-0.2-0.9-0.4V9c0-0.1,0-0.1,0.1-0.2
				c0.1-0.1,0.2-0.1,0.2-0.2c0.2-0.1,0.2-0.3,0.1-0.4c0-0.1-0.1-0.2-0.2-0.3c-0.1-0.1-0.2-0.2-0.2-0.3c0-0.1-0.1-0.1-0.2-0.1
				c-0.2,0-0.2,0-0.2,0.1c0,0.1-0.1,0.2-0.2,0.3c-0.1,0.1-0.2,0.2-0.2,0.3c-0.1,0.2,0,0.3,0.1,0.4c0.1,0.1,0.2,0.1,0.2,0.2
				C16,8.9,16,9,16,9v1.8c-0.3-0.2-0.5-0.4-0.7-0.5c-0.2-0.2-0.3-0.3-0.4-0.5c-0.1-0.1-0.1-0.2,0-0.3c0,0,0-0.1,0-0.1l-0.1-0.1
				c0,0,0,0-0.1,0c0,0,0,0-0.1,0c-0.1,0.1-0.4,0.4-0.9,0.9c-0.4,0.5-0.9,0.9-1.3,1.5c-0.5,0.5-0.9,1.1-1.2,1.6
				c-0.4,0.5-0.5,0.9-0.5,1.2c0,0.7,0.3,1.3,1,1.8c0.1,0.1,0.1,0.2,0,0.4l-0.6,0.6c0,0,0,0.1,0,0.1l0.1,0.1c0,0,0,0,0.1,0
				c0.1,0,0.2-0.1,0.4-0.1c0.2,0,0.5-0.1,0.8-0.1c0.2,0,0.5,0,0.8,0.1c0.3,0,0.6,0.1,0.9,0.3c0.3,0.1,0.6,0.2,0.9,0.3
				c0.2,0.1,0.5,0.2,0.7,0.3c0.3,0.1,0.6,0.2,0.9,0.4c0.5,0.2,0.9,0.4,1.4,0.6c0.6,0.3,1.1,0.6,1.5,1c0.4,0.4,0.8,0.8,1.1,1.3
				c0.3,0.5,0.4,1.1,0.4,1.7c0,0.2,0,0.3-0.1,0.5c0,0.1-0.1,0.3-0.3,0.4c-0.1,0.1-0.3,0.2-0.6,0.2c-0.2,0-0.6,0.1-1,0.1
				c-0.5,0-1,0-1.5-0.1c-0.5-0.1-0.9-0.2-1.4-0.4v-1.5l1.3-1.3l-1.3-1.3v-1.1c0,0,0,0,0,0c-0.1,0-0.1,0-0.2-0.1c0,0-0.1,0-0.1,0v1.1
				l-1.4,1.3l1.4,1.3v1.4c-1-0.4-2-0.9-2.8-1.6c-0.9-0.7-1.6-1.5-2.2-2.3c-0.6-0.9-1.1-1.8-1.4-2.7c-0.3-0.9-0.5-1.8-0.5-2.7
				c0-0.6,0.1-1.1,0.2-1.6c0.1-0.4,0.3-0.8,0.5-1.1c0.2-0.3,0.4-0.5,0.6-0.7c0.2-0.2,0.4-0.3,0.5-0.3c0,0,0.1,0,0.2,0
				c0.1,0,0.2,0,0.2,0c0.1,0,0.2,0.1,0.3,0.1c0.2,0,0.2-0.1,0.2-0.2c0-0.1,0-0.1-0.1-0.2c-0.1,0-0.2-0.1-0.3-0.1c-0.1,0-0.2,0-0.3,0
				c-0.2,0-0.6,0.2-1,0.6c-0.4,0.3-0.8,0.8-1.2,1.3c-0.4,0.5-0.7,1.2-1,1.9c-0.3,0.7-0.4,1.5-0.4,2.3c0,0.9,0.2,1.8,0.6,2.8
				c0.4,1,0.9,1.9,1.7,2.8c0.7,0.9,1.6,1.7,2.7,2.4c1,0.7,2.1,1.2,3.3,1.5c0.3,0.1,0.6,0.2,0.9,0.2c0.8,0.2,1.6,0.2,2.5,0.2
				c0.2,0,0.5-0.2,0.9-0.5c0.4-0.3,0.8-0.7,1.1-1.2c0.4-0.5,0.7-1,1-1.6c0.3-0.6,0.4-1.1,0.4-1.5c0-0.8-0.2-1.5-0.5-2.1
				C21.7,18.9,21.2,18.4,20.6,18z"/>
		</g>
	</g>
</g>
<g id="BARVY_INFO">
</g>
</svg>
