<?xml version="1.0" encoding="utf-8"?>
<!-- Generator: Adobe Illustrator 28.3.0, SVG Export Plug-In . SVG Version: 6.00 Build 0)  -->
<svg version="1.1" xmlns="http://www.w3.org/2000/svg" xmlns:xlink="http://www.w3.org/1999/xlink" x="0px" y="0px"
	 viewBox="0 0 32 32" style="enable-background:new 0 0 32 32;" xml:space="preserve">
<style type="text/css">
	.st0{fill:none;}
	.st1{opacity:0.7;fill:#19120B;}
	.st2{fill:#FFFFFF;}
	.st3{fill:none;stroke:#FFFFFF;stroke-linecap:round;stroke-linejoin:round;stroke-miterlimit:10;}
	.st4{fill:#BA110F;}
	.st5{fill:none;stroke:#94160F;stroke-miterlimit:10;}
	.st6{fill:#606060;}
	.st7{fill:#B29A8A;}
	.st8{fill:#94160F;}
	.st9{fill:none;stroke:#FFFFFF;stroke-width:2;stroke-linecap:round;stroke-linejoin:round;stroke-miterlimit:10;}
	.st10{fill:#8C1002;stroke:#FFFFFF;stroke-linecap:round;stroke-linejoin:round;stroke-miterlimit:10;}
	.st11{clip-path:url(#SVGID_00000085965518774922659540000013770462521258526888_);}
	.st12{clip-path:url(#SVGID_00000152973699837399997300000003248215541487503514_);}
	.st13{fill:none;stroke:#BA110F;stroke-miterlimit:10;}
	.st14{fill:#C4AF9B;}
	.st15{fill:url(#SVGID_00000022549572633006664290000014632203794845018531_);}
	.st16{fill:url(#SVGID_00000025417988065671775100000016517475297669642119_);}
	.st17{opacity:0.42;fill:url(#SVGID_00000146471248637895876930000012827156868570431671_);}
	.st18{fill:#FFFFFF;stroke:#D3D3D3;stroke-width:0.75;stroke-miterlimit:10;}
	.st19{fill:#605A56;}
	.st20{fill:none;stroke:#BA110F;stroke-width:1.5;stroke-miterlimit:10;}
	.st21{clip-path:url(#SVGID_00000127761307993432750270000014955815378961718975_);}
	.st22{fill:url(#SVGID_00000119804057104113016090000002412958555480507297_);}
	.st23{fill:url(#SVGID_00000181783153640479370360000009531172210943148477_);}
	.st24{fill:url(#SVGID_00000180363143588915928210000015436649641278956933_);}
	.st25{fill:url(#SVGID_00000060030170304046270140000013627173818926748075_);}
	.st26{fill:url(#SVGID_00000052783699703868990370000015645829795179713687_);}
	.st27{fill:none;stroke:#4E96DD;stroke-width:5;stroke-miterlimit:10;}
	.st28{fill:url(#SVGID_00000115482937917906692840000002339100419371915399_);}
	.st29{fill:#FCF2E1;}
</style>
<g id="Vrstva_1">
	<g>
		<path class="st29" d="M29,32H3c-1.7,0-3-1.3-3-3V3c0-1.7,1.3-3,3-3h26c1.7,0,3,1.3,3,3v26C32,30.7,30.7,32,29,32z"/>
		<g>
			<path class="st4" d="M24.8,13.8L21.6,17h-0.8v5.5c-0.3-0.1-0.6-0.1-0.9-0.1c0,0,0,0-0.1,0V8.9h0.7L16,4.4l-4.5,4.5h0.7v13.5
				c0,0,0,0,0,0c-0.4,0-0.7,0.1-1,0.1V17h-0.8l-3.2-3.2l-3.3,3.3h0.5v5.6l0,0v0.8c0.7,0,1.1,0.2,1.5,0.6c0.5,0.4,1.1,0.8,2.3,0.8
				s1.8-0.5,2.3-0.8c0.5-0.3,0.8-0.6,1.5-0.6s1.1,0.2,1.5,0.6c0.5,0.4,1.1,0.8,2.3,0.8s1.8-0.5,2.3-0.8c0.5-0.3,0.8-0.6,1.5-0.6
				c0.7,0,1.1,0.2,1.5,0.6c0.5,0.4,1.1,0.8,2.3,0.8s1.8-0.5,2.3-0.8c0.5-0.3,0.8-0.6,1.5-0.6v-0.8l0,0v-5.6h0.5L24.8,13.8z
				 M9.8,23.2c-0.5,0.3-0.8,0.6-1.5,0.6s-1.1-0.2-1.5-0.6c-0.3-0.2-0.6-0.4-1-0.6h5.1C10.4,22.8,10.1,23,9.8,23.2z M17.5,23.2
				c-0.5,0.3-0.8,0.6-1.5,0.6s-1.1-0.2-1.5-0.6c-0.3-0.2-0.6-0.4-1-0.6h1.2v-4h2.6v4h1.3C18.1,22.8,17.8,23,17.5,23.2z M25.2,23.2
				c-0.5,0.3-0.8,0.6-1.5,0.6c-0.7,0-1.1-0.2-1.5-0.6c-0.3-0.2-0.6-0.4-1-0.6h5.1C25.8,22.8,25.5,23,25.2,23.2z"/>
			<path class="st4" d="M23.7,26.5c-0.7,0-1.1-0.2-1.5-0.6c-0.5-0.4-1.1-0.8-2.3-0.8c-1.2,0-1.8,0.5-2.3,0.8
				c-0.5,0.3-0.8,0.6-1.5,0.6s-1.1-0.2-1.5-0.6c-0.5-0.4-1.1-0.8-2.3-0.8s-1.8,0.5-2.3,0.8c-0.5,0.3-0.8,0.6-1.5,0.6
				S7.3,26.3,6.8,26c-0.5-0.4-1.1-0.8-2.3-0.8v1.1c0.7,0,1.1,0.2,1.5,0.6c0.5,0.4,1.1,0.8,2.3,0.8s1.8-0.5,2.3-0.8
				c0.5-0.3,0.8-0.6,1.5-0.6s1.1,0.2,1.5,0.6c0.5,0.4,1.1,0.8,2.3,0.8s1.8-0.5,2.3-0.8c0.5-0.3,0.8-0.6,1.5-0.6
				c0.7,0,1.1,0.2,1.5,0.6c0.5,0.4,1.1,0.8,2.3,0.8s1.8-0.5,2.3-0.8c0.5-0.3,0.8-0.6,1.5-0.6v-1.1c-1.2,0-1.8,0.5-2.3,0.8
				C24.7,26.3,24.4,26.5,23.7,26.5z"/>
		</g>
	</g>
</g>
<g id="BARVY_INFO">
</g>
</svg>
