<?xml version="1.0" encoding="utf-8"?>
<!-- Generator: Adobe Illustrator 28.3.0, SVG Export Plug-In . SVG Version: 6.00 Build 0)  -->
<svg version="1.1" xmlns="http://www.w3.org/2000/svg" xmlns:xlink="http://www.w3.org/1999/xlink" x="0px" y="0px"
	 viewBox="0 0 721 329" style="enable-background:new 0 0 721 329;" xml:space="preserve">
<style type="text/css">
	.st0{fill:none;}
	.st1{opacity:0.7;fill:#19120B;}
	.st2{fill:#FFFFFF;}
	.st3{fill:none;stroke:#FFFFFF;stroke-linecap:round;stroke-linejoin:round;stroke-miterlimit:10;}
	.st4{fill:#BA110F;}
	.st5{fill:none;stroke:#94160F;stroke-miterlimit:10;}
	.st6{fill:#606060;}
	.st7{fill:#B29A8A;}
	.st8{fill:#94160F;}
	.st9{fill:none;stroke:#FFFFFF;stroke-width:2;stroke-linecap:round;stroke-linejoin:round;stroke-miterlimit:10;}
	.st10{fill:#8C1002;stroke:#FFFFFF;stroke-linecap:round;stroke-linejoin:round;stroke-miterlimit:10;}
	.st11{clip-path:url(#SVGID_00000137844096866320310750000004702786973600302523_);}
	.st12{clip-path:url(#SVGID_00000011728418913555579120000011346007434917691573_);}
	.st13{fill:none;stroke:#BA110F;stroke-miterlimit:10;}
	.st14{fill:#C4AF9B;}
	.st15{fill:url(#SVGID_00000030464585298829406810000006874101967339335830_);}
	.st16{fill:url(#SVGID_00000111173254372320991870000013660837729355895981_);}
	.st17{opacity:0.42;fill:url(#SVGID_00000080915743216419536810000000297917663062059414_);}
	.st18{fill:#FFFFFF;stroke:#D3D3D3;stroke-width:0.75;stroke-miterlimit:10;}
	.st19{fill:#605A56;}
	.st20{fill:none;stroke:#BA110F;stroke-width:1.5;stroke-miterlimit:10;}
	.st21{clip-path:url(#SVGID_00000078019270070922599570000010836268083164468096_);}
	.st22{fill:url(#SVGID_00000017508759233372028850000011037392670973894812_);}
	.st23{fill:url(#SVGID_00000114781604204915950200000005225651825060285323_);}
	.st24{fill:url(#SVGID_00000109738492708562780420000000691100594298462399_);}
	.st25{fill:url(#SVGID_00000183215207813384641590000009484283897146796979_);}
	.st26{fill:url(#SVGID_00000091720053523866017330000005896428357914176910_);}
	.st27{fill:none;stroke:#4E96DD;stroke-width:5;stroke-miterlimit:10;}
	.st28{fill:url(#SVGID_00000096739666143140853400000016294622696184197050_);}
</style>
<g id="Vrstva_1">
	<g>
		<rect x="0.5" y="0.5" class="st0" width="720" height="328"/>
		<g>
			<path class="st4" d="M385.3,41.6c2.2,1.3,4.7,2,7.6,2c2.2,0,4.2-0.4,5.9-1.1c1.7-0.7,3-1.7,4-2.9s1.7-2.5,2-3.8H403
				c-0.5,1.1-1.4,2.3-2.8,3.5c-1.4,1.2-3.6,1.8-6.4,1.8c-2.5,0-4.6-0.6-6.4-1.7s-3.1-2.7-4.1-4.9s-1.4-4.6-1.4-7.6
				c0-4,1-7.3,2.9-9.8c1.9-2.5,4.9-3.8,8.9-3.8c2.4,0,4.2,0.5,5.4,1.6c1.2,1.1,2,3,2.2,5.7h2v-7.4c-1.1-0.6-2.4-1.1-3.9-1.6
				c-1.5-0.4-3.2-0.7-5-0.7c-3.1,0-5.8,0.7-8.2,2.1c-2.4,1.4-4.3,3.4-5.6,5.9c-1.3,2.6-2,5.5-2,8.9c0,3.1,0.6,5.9,1.8,8.3
				S383.1,40.3,385.3,41.6z"/>
			<path class="st4" d="M415.6,41.6c2.2,1.3,4.8,2,7.8,2c3,0,5.7-0.7,8.1-2.1c2.4-1.4,4.3-3.4,5.7-6s2.1-5.6,2.1-9.2
				c0-3-0.6-5.7-1.8-8c-1.2-2.3-2.9-4.2-5.2-5.5c-2.2-1.3-4.8-2-7.8-2s-5.7,0.7-8.1,2.1s-4.3,3.4-5.7,6c-1.4,2.6-2.1,5.6-2.1,9.2
				c0,3,0.6,5.7,1.8,8C411.6,38.5,413.3,40.3,415.6,41.6z M413.2,20.3c0.9-2.1,2.2-3.8,4-5.1c1.8-1.3,3.9-1.9,6.4-1.9
				c2.5,0,4.7,0.5,6.5,1.6c1.8,1.1,3.2,2.6,4.2,4.6c1,2,1.5,4.4,1.6,7.2c0.1,2.9-0.3,5.5-1.2,7.7c-0.9,2.2-2.3,3.9-4.1,5.1
				c-1.8,1.2-3.9,1.8-6.3,1.8c-2.6,0-4.8-0.5-6.6-1.6c-1.8-1.1-3.2-2.7-4.1-4.7s-1.4-4.6-1.5-7.6C411.9,24.7,412.3,22.4,413.2,20.3z
				"/>
			<path class="st4" d="M453.8,40.7l-3.6-0.4c-0.3,0-0.5-0.1-0.6-0.2s-0.2-0.3-0.2-0.6s0-0.8,0-1.6V14.8l17,28.5h3.1V16.5
				c0-0.6,0-1.1,0-1.4s0.1-0.6,0.2-0.7c0.1-0.1,0.3-0.1,0.5-0.2l3.3-0.4v-2.2h-10.4v2.2l3.3,0.4c0.2,0,0.4,0.1,0.5,0.2
				c0.1,0.1,0.1,0.3,0.2,0.7c0,0.4,0,0.8,0,1.4v22l-16-26.8h-8.1v2.2l3.3,0.4c0.2,0,0.4,0.1,0.5,0.2c0.1,0.1,0.2,0.3,0.2,0.7
				s0,0.9,0,1.5V38c0,0.6,0,1.1,0,1.4s-0.1,0.6-0.2,0.7s-0.3,0.2-0.5,0.2l-3.3,0.4v2.2h10.8V40.7z"/>
			<path class="st4" d="M483.2,41.6c2.2,1.3,4.8,2,7.8,2c0.7,0,1.4,0,2.1-0.1c0.7,0.4,1.4,0.9,2.1,1.3c0.9,0.5,1.7,1,2.4,1.5
				c0.6,0.4,1.2,0.7,1.8,1c0.6,0.3,1.1,0.6,1.6,0.9c0,0,0.1,0,0.1,0s0.1,0,0.1,0c1.2,0.7,2.2,1.2,2.9,1.5c0.8,0.3,1.4,0.5,1.9,0.5
				c0.5,0,1-0.2,1.4-0.6c0.4-0.4,0.7-0.9,0.9-1.5l-12.9-5.1c1.3-0.3,2.5-0.8,3.7-1.5c2.4-1.4,4.3-3.4,5.7-6s2.1-5.6,2.1-9.2
				c0-3-0.6-5.7-1.8-8c-1.2-2.3-2.9-4.2-5.2-5.5c-2.2-1.3-4.8-2-7.8-2s-5.7,0.7-8.1,2.1s-4.3,3.4-5.7,6c-1.4,2.6-2.1,5.6-2.1,9.2
				c0,3,0.6,5.7,1.8,8C479.2,38.5,481,40.3,483.2,41.6z M480.8,20.3c0.9-2.1,2.2-3.8,4-5.1c1.8-1.3,3.9-1.9,6.4-1.9
				c2.5,0,4.7,0.5,6.5,1.6c1.8,1.1,3.2,2.6,4.2,4.6c1,2,1.5,4.4,1.6,7.2c0.1,2.9-0.3,5.5-1.2,7.7c-0.9,2.2-2.3,3.9-4.1,5.1
				c-1.8,1.2-3.9,1.8-6.3,1.8c-2.6,0-4.8-0.5-6.6-1.6c-1.8-1.1-3.2-2.7-4.1-4.7s-1.4-4.6-1.5-7.6C479.5,24.7,480,22.4,480.8,20.3z"
				/>
			<path class="st4" d="M513.7,14.5c0.1,0.1,0.1,0.3,0.1,0.6v16.4c0,4.1,1,7.1,2.9,9.1c1.9,2,4.7,3,8.2,3c3.7,0,6.5-1,8.5-3.1
				c2-2,3-5.1,3-9.1V16.5c0-0.6,0-1.1,0-1.4s0.1-0.6,0.2-0.7c0.1-0.1,0.3-0.1,0.5-0.2l3.3-0.4v-2.2h-10.3v2.2l3.3,0.4
				c0.2,0,0.4,0.1,0.5,0.2c0.1,0.1,0.2,0.3,0.2,0.7c0,0.4,0,0.8,0,1.4v14.2c0,3.3-0.7,5.9-2,7.7c-1.3,1.8-3.5,2.7-6.6,2.7
				c-1.7,0-3.2-0.3-4.5-1c-1.3-0.7-2.3-1.8-3.1-3.3c-0.8-1.5-1.2-3.6-1.2-6.1V15.1c0-0.3,0-0.5,0.1-0.6c0.1-0.1,0.3-0.1,0.6-0.2
				l3.3-0.4v-2.2h-11v2.2l3.3,0.4C513.4,14.3,513.6,14.4,513.7,14.5z"/>
			<path class="st4" d="M568.4,34.4h-1.8c-0.2,1.7-0.5,3-0.9,3.8c-0.3,0.8-0.9,1.4-1.6,1.8c-0.7,0.4-1.8,0.5-3.2,0.5h-10.5V28.1h6.4
				c1,0,1.7,0.1,2.3,0.3c0.5,0.2,0.9,0.6,1.2,1.1s0.5,1.4,0.6,2.4h1.8v-9.4h-1.8c-0.2,0.9-0.4,1.6-0.6,2.1c-0.3,0.5-0.6,0.8-1.1,0.9
				c-0.5,0.2-1.1,0.2-1.9,0.2h-6.9V14.1h10.1c1.3,0,2.3,0.2,3,0.7c0.7,0.5,1.1,1,1.4,1.7c0.2,0.7,0.5,1.7,0.6,2.9v0.1h1.9v-7.7h-24
				v2.2l3.3,0.4c0.3,0,0.5,0.1,0.6,0.2c0.1,0.1,0.1,0.3,0.1,0.6v24.4c0,0.3,0,0.5-0.1,0.6s-0.3,0.2-0.6,0.2l-3.3,0.4v2.2h25V34.4z"
				/>
			<path class="st4" d="M584.1,40.7l-3.6-0.4c-0.4,0-0.6-0.1-0.7-0.2s-0.1-0.3-0.1-0.6V28.9h5.3c0.3,0.4,0.6,0.8,0.9,1.1
				c0.5,0.7,1,1.4,1.6,2c2.6,3.4,5.1,6.4,7.2,9c0.8,1,1.4,1.6,1.9,1.9c0.5,0.3,0.9,0.5,1.4,0.5c0.4,0,0.9-0.1,1.2-0.3
				c0.4-0.2,0.7-0.5,1-0.9l-12-13.5c1.8-0.1,3.4-0.4,4.8-1c1.6-0.7,2.8-1.7,3.7-3.1c0.9-1.4,1.4-3,1.4-4.9c0-2.6-0.8-4.6-2.3-6
				c-1.6-1.4-4-2.1-7.2-2.1h-15.8v2.2l3.3,0.4c0.3,0,0.5,0.1,0.6,0.2c0.1,0.1,0.1,0.3,0.1,0.6v24.4c0,0.3,0,0.5-0.1,0.6
				s-0.3,0.2-0.6,0.2l-3.3,0.4v2.2h11.4V40.7z M579.7,14.1h8.3c1.6,0,3,0.2,4,0.7s1.7,1.2,2.1,2.1c0.4,0.9,0.6,2,0.6,3.3
				c0,1.4-0.3,2.6-0.9,3.5s-1.5,1.7-2.6,2.1c-1.1,0.5-2.4,0.7-3.9,0.7h-7.6V14.1z"/>
			<path class="st4" d="M613.9,40.7l-3.3-0.4c-0.3,0-0.5-0.1-0.6-0.2c-0.1-0.1-0.1-0.3-0.1-0.6V15.1c0-0.3,0-0.5,0.1-0.6
				c0.1-0.1,0.3-0.1,0.6-0.2l3.3-0.4v-2.2h-11v2.2l3.3,0.4c0.3,0,0.5,0.1,0.6,0.2c0.1,0.1,0.1,0.3,0.1,0.6v24.4c0,0.3,0,0.5-0.1,0.6
				c-0.1,0.1-0.3,0.2-0.6,0.2l-3.3,0.4v2.2h11V40.7z"/>
			<path class="st4" d="M628.8,40.7l-3.6-0.4c-0.3,0-0.5-0.1-0.6-0.2s-0.2-0.3-0.2-0.6c0-0.3,0-0.8,0-1.6V14.8l17,28.5h3.1V16.5
				c0-0.6,0-1.1,0-1.4c0-0.3,0.1-0.6,0.2-0.7c0.1-0.1,0.3-0.1,0.5-0.2l3.3-0.4v-2.2h-10.3v2.2l3.3,0.4c0.2,0,0.4,0.1,0.5,0.2
				c0.1,0.1,0.2,0.3,0.2,0.7c0,0.4,0,0.8,0,1.4v22l-16-26.8h-8.1v2.2l3.3,0.4c0.2,0,0.4,0.1,0.5,0.2c0.1,0.1,0.2,0.3,0.2,0.7
				c0,0.4,0,0.9,0,1.5V38c0,0.6,0,1.1,0,1.4c0,0.3-0.1,0.6-0.2,0.7c-0.1,0.1-0.3,0.2-0.5,0.2l-3.3,0.4v2.2h10.8V40.7z"/>
			<path class="st4" d="M657.7,41.8c2.1,1.2,4.5,1.8,7.4,1.8c1.2,0,2.4-0.2,3.7-0.5c1.2-0.3,2.3-0.7,3.3-1.3l4.3,1.2V31.5
				c0-0.3,0-0.5,0.1-0.6c0.1-0.1,0.2-0.2,0.5-0.2l3-0.4v-2.2h-11.3v2.2l4,0.4c0.4,0,0.6,0.1,0.7,0.2c0.1,0.1,0.1,0.3,0.1,0.6v7.2
				c-0.6,0.6-1.4,1.1-2.3,1.5c-1.4,0.7-3,1-4.8,1c-2.5,0-4.6-0.6-6.3-1.7c-1.8-1.2-3.1-2.8-4-5c-0.9-2.1-1.4-4.7-1.4-7.6
				c0-2.7,0.4-5,1.2-7.1c0.8-2,2-3.7,3.8-4.8c1.8-1.2,4-1.8,6.8-1.8c2.5,0,4.4,0.5,5.7,1.5s2.1,2.7,2.3,5.1h2v-7
				c-1.2-0.5-2.6-1-4.1-1.4c-1.6-0.4-3.4-0.6-5.4-0.6c-3,0-5.7,0.7-8,2.1c-2.4,1.4-4.2,3.4-5.6,5.9c-1.3,2.6-2,5.6-2,9.1
				c0,3.2,0.6,6,1.7,8.3C654.1,38.8,655.7,40.5,657.7,41.8z"/>
			<path class="st4" d="M472.2,93.6c1-1.2,1.7-2.5,2-3.8h-1.8c-0.4,1.1-1.4,2.3-2.8,3.5c-1.4,1.2-3.6,1.8-6.4,1.8
				c-2.5,0-4.6-0.6-6.4-1.7s-3.2-2.7-4.1-4.9s-1.4-4.6-1.4-7.6c0-4,1-7.3,2.9-9.8c1.9-2.5,4.9-3.8,8.9-3.8c2.4,0,4.2,0.5,5.4,1.6
				c1.2,1.1,2,3,2.2,5.7h2v-7.4c-1.1-0.6-2.4-1.1-3.9-1.6c-1.5-0.4-3.2-0.7-5-0.7c-3.1,0-5.8,0.7-8.2,2.1c-2.4,1.4-4.3,3.4-5.6,5.9
				c-1.3,2.6-2,5.5-2,8.9c0,3.1,0.6,5.9,1.8,8.3s2.8,4.2,5,5.6c2.2,1.3,4.7,2,7.6,2c2.2,0,4.2-0.4,5.9-1.1
				C469.9,95.8,471.2,94.8,472.2,93.6z"/>
			<path class="st4" d="M486,94.7l-3.5-0.4c-0.2,0-0.4-0.1-0.5-0.2s-0.1-0.3,0-0.6c0.1-0.3,0.2-0.8,0.4-1.4c0-0.1,0-0.1,0-0.2
				s0-0.1,0.1-0.2l2.1-6.3h11.6l2.8,8c0.1,0.2,0.1,0.3,0.1,0.4s0,0.2-0.2,0.2c-0.1,0-0.3,0.1-0.5,0.1l-3.6,0.4v2.2h11.7v-2.2
				l-3.3-0.4c-0.3,0-0.5-0.1-0.7-0.2s-0.2-0.3-0.3-0.6l-10.2-27.9h-3.2L480,91.9c-0.2,0.7-0.4,1.2-0.6,1.6c-0.2,0.4-0.3,0.6-0.4,0.7
				s-0.3,0.2-0.6,0.2l-3.3,0.4v2.2H486V94.7z M490.3,68.8l5.2,14.6h-10L490.3,68.8z"/>
			<path class="st4" d="M519.6,97.5c1.9,0,3.6-0.4,5.1-1.2c1.5-0.8,2.7-1.9,3.6-3.3s1.3-3,1.3-4.7c0-1.9-0.4-3.4-1.3-4.6
				c-0.9-1.2-1.9-2.2-3.2-2.8c-1.2-0.7-2.9-1.4-4.9-2.1c-1.7-0.6-3-1.1-3.9-1.6s-1.8-1.1-2.4-1.9c-0.6-0.8-1-1.8-1-2.9
				c0-1.4,0.6-2.7,1.8-3.6c1.2-1,2.7-1.5,4.5-1.5c1.6,0,2.9,0.3,3.9,0.8c1,0.5,1.8,1.2,2.4,2.2c0.5,0.9,0.8,2,0.8,3.2h1.8v-6.8
				c-0.9-0.4-2.2-0.7-3.7-1s-3-0.5-4.5-0.5c-1.7,0-3.3,0.3-4.7,0.9c-1.5,0.6-2.7,1.6-3.6,2.9c-0.9,1.3-1.4,2.8-1.4,4.7
				c0,1.6,0.4,2.8,1.1,3.8c0.8,1,1.7,1.8,2.8,2.4c1.1,0.6,2.6,1.2,4.5,1.9c1.8,0.7,3.2,1.3,4.3,1.8s2,1.3,2.7,2.2s1.1,2.1,1.1,3.5
				c0,1.9-0.7,3.4-2,4.5c-1.3,1.1-3,1.6-5.1,1.6c-1.6,0-3-0.2-4.1-0.7c-1.1-0.5-2-1.1-2.7-1.9c-0.6-0.8-1-1.7-1.2-2.8l-0.3-1.9h-1.8
				v7.4c1.6,0.7,3.1,1.2,4.7,1.6C515.7,97.3,517.5,97.5,519.6,97.5z"/>
			<path class="st4" d="M554.8,68.1c0.7,0,1.2,0.1,1.6,0.4c0.4,0.3,0.7,0.7,0.9,1.2c0.2,0.5,0.4,1.3,0.5,2.3l0.4,2.2h1.8v-8.4h-27.4
				v8.4h1.8l0.4-2.2c0.2-1,0.4-1.8,0.5-2.3c0.2-0.5,0.5-0.9,0.9-1.2c0.4-0.3,0.9-0.4,1.6-0.4h7v25.5c0,0.3,0,0.5-0.1,0.6
				s-0.3,0.2-0.7,0.2l-4,0.4v2.2h12.6v-2.2l-4-0.4c-0.4,0-0.6-0.1-0.7-0.2s-0.1-0.3-0.1-0.6V68.1H554.8z"/>
			<path class="st4" d="M567.6,94.1c-0.1,0.1-0.3,0.2-0.6,0.2l-3.3,0.4v2.2h23.4v-9.3h-1.8c-0.2,2-0.4,3.5-0.8,4.5
				c-0.3,1-0.8,1.7-1.5,2c-0.7,0.4-1.7,0.6-3.1,0.6h-9.2V69.1c0-0.3,0-0.5,0.1-0.6c0.1-0.1,0.3-0.1,0.6-0.2l3.3-0.4v-2.2h-11V68
				l3.3,0.4c0.3,0,0.5,0.1,0.6,0.2c0.1,0.1,0.1,0.3,0.1,0.6v24.4C567.7,93.9,567.6,94.1,567.6,94.1z"/>
			<path class="st4" d="M615.3,73.5v-7.7h-24V68l3.3,0.4c0.3,0,0.5,0.1,0.6,0.2c0.1,0.1,0.1,0.3,0.1,0.6v24.4c0,0.3,0,0.5-0.1,0.6
				s-0.3,0.2-0.6,0.2l-3.3,0.4v2.2h25v-8.4h-1.8c-0.2,1.7-0.5,3-0.9,3.8c-0.3,0.8-0.9,1.4-1.6,1.8c-0.7,0.4-1.8,0.5-3.2,0.5h-10.5
				V82.1h6.4c1,0,1.7,0.1,2.3,0.3c0.5,0.2,0.9,0.6,1.2,1.1s0.5,1.4,0.6,2.4h1.8v-9.4h-1.8c-0.2,0.9-0.4,1.6-0.6,2.1
				c-0.3,0.5-0.6,0.8-1.1,0.9c-0.5,0.2-1.1,0.2-1.9,0.2h-6.9V68.1h10.1c1.3,0,2.3,0.2,3,0.7c0.7,0.5,1.1,1,1.4,1.7
				c0.2,0.7,0.5,1.7,0.6,2.9v0.1H615.3z"/>
			<path class="st4" d="M301.1,131.5l17.1-16.8l-17.1-17.1l-9.9,10.1c-4.1,4.2-9.8,6.7-15.7,6.7c-3.9,0-7.6-0.2-11.1-0.6
				c1.2-1.1,2.2-1.9,2.9-2.5c0.7-0.7,0.7-1.4,0-2l-0.3-0.3c-0.7-0.4-1.3-0.5-1.7-0.3c-1.1,0.8-3,2.3-5.7,4.4
				c-19-3.3-31.4-12.6-37.5-22.6c-7.8-12.8-6.8-28,2.6-39.6c6.8-8.4,34.8-33.9,109.5-8.1c17.4,6,33,13.6,46.7,20.2
				c12,5.8,23.3,11.3,34.2,15c0.9,0.3,1.9-0.3,2-1.2c0.1-0.8-0.4-1.5-1.1-1.8c-10.6-3.6-21.9-9.1-33.8-14.9
				C368.4,53.6,352.7,46,335.2,40c-51.7-17.8-94-14.4-112.9,9.1c-10.2,12.7-11.3,29.2-2.8,43.1c6.2,10.2,18.4,19.7,36.9,23.6
				c0,0,0,0,0,0c1.6,0.3,3.3,0.7,5.1,0.9c0,0,0,0,0,0c0,0,0,0,0,0c0,0,0.1,0,0.1,0c0,0,0,0,0,0c4.1,0.6,8.6,0.9,13.3,0.9
				c0.7,0,1.5,0,2.2,0c6.2-0.1,12.2,2.2,16.6,6.6L301.1,131.5z"/>
			<path class="st4" d="M79.3,42.6c3.4,3.4,7.1,6,11.3,8c4.2,2,8.8,2.9,13.8,2.9c6,0,11.9-1.6,17.8-4.8c5.9-3.2,11.4-7.1,16.5-11.7
				c5.1-4.7,9.7-9.8,13.7-15.4c4-5.6,7.1-10.7,9.4-15.4c0.4-0.4,0.4-0.7,0.1-1.1c-0.3-0.4-0.6-0.6-1-0.6c-0.2,0-0.3,0-0.3,0.1
				c0,0.1-0.1,0.1-0.3,0.1l-2.5,1.4c-0.4,0.4-0.7,0.7-1,0.8c-0.3,0.2-0.5,0.5-0.7,0.8c-3.9,7.3-8.7,13.8-14.3,19.4
				c-5.6,5.7-12.9,8.5-21.8,8.5c-6.3,0-12.8-2.3-19.3-6.9C94.3,24.4,89,15.8,84.9,3.1c0-0.9-0.6-1.1-1.7-0.6L66.1,16.8
				c-0.2,0.2-0.3,0.6-0.3,1.1c1.1,4.5,2.8,8.9,5,13.1C73.1,35.4,75.9,39.2,79.3,42.6z"/>
			<path class="st4" d="M112.4,307.6c-0.1-0.3-0.2-0.4-0.4-0.4c-0.1-0.1-0.2-0.1-0.3-0.2l-7.1-6c-1.8-2.2-2.7-4.1-2.7-5.6v-9.3l0,0
				v-3.7c0-0.2-0.2-0.4-0.4-0.5c-0.6-0.1-1.2-0.3-1.9-0.4c-0.3-0.1-0.6,0.2-0.6,0.5v4.1h0v9.3c0,1.5-0.9,3.4-2.7,5.6l-7.1,6
				c-0.1,0.1-0.2,0.1-0.3,0.2c-0.2,0-0.3,0.1-0.4,0.4l0,0c0,0.1,0,0.1,0,0.2c0,0.1,0.1,0.3,0.2,0.4c0.1,0,0.1,0.1,0.2,0.1
				c0.6,0.6,1.3,1.5,2.1,2.9c0.8,1.4,1.8,3,2.8,4.8c0.4,0.6,0.7,1.2,1.1,1.9c0.3,0.6,0.7,1.2,1,1.8c0.3,0.6,0.7,1.2,1,1.8
				c1,1.9,1.8,3.4,2.4,4.8c0.2,0.4,0.6,0.6,1.1,0.6c0,0,0,0,0,0s0,0,0,0c0.6,0,0.9-0.2,1.1-0.6c0.6-1.3,1.4-2.9,2.4-4.8
				c0.3-0.6,0.6-1.2,1-1.7c0.4-0.6,0.7-1.3,1.1-1.9c0.3-0.6,0.7-1.2,1-1.8c1-1.8,2-3.4,2.8-4.8c0.8-1.4,1.5-2.4,2.1-2.9
				c0.1,0,0.2-0.1,0.2-0.1c0.1-0.1,0.2-0.2,0.2-0.4C112.4,307.7,112.4,307.7,112.4,307.6L112.4,307.6z"/>
			<path class="st4" d="M150.7,186.9c-7-5-14.8-9.4-23.4-13.1c-8.6-3.7-17.1-7.3-25.4-10.6v-25.5c0-0.2-0.2-0.4-0.4-0.5
				c-0.6-0.1-1.2-0.2-1.8-0.3c-0.3-0.1-0.6,0.2-0.6,0.5v24.4c-5.6-2.2-11-4.5-16.1-6.7c-5.1-2.2-9.6-4.6-13.3-7.1
				c-3.7-2.5-6.7-5.2-8.9-8c-2.2-2.8-3.4-6-3.4-9.5c0-2.2,0.7-4.8,2.1-7.8c1.4-3,3.4-5.5,6-7.6c0.7-0.4,1.4-0.6,2-0.6
				c0.9,0,1.8,0.4,2.5,1.1c2.2,3.2,5.7,6.7,10.5,10.6c3.5,2.9,7.8,5.1,12.8,6.8c0.2,0.1,0.5,0.2,0.7,0.2c0.7,0.2,1.4,0.4,2.2,0.6
				c0,0,0.1,0,0.1,0c0.9,0.2,1.8,0.5,2.8,0.7v0c3.2,0.7,7.1,1.3,11.7,1.4c7.1-0.1,13.7-2,19.9-5.9c6.3-3.9,11.9-8.5,16.8-13.8
				c4.8-5.3,8.7-10.8,11.5-16.4c2.8-5.6,4.2-10.1,4.2-13.4c0-2.6-0.9-5.1-2.7-7.6c-1.8-2.4-4.2-3.6-7.4-3.6c-3.2,0-5.7,0.8-7.7,2.5
				c-2,1.7-2.9,3.8-2.9,6.4c0,0.7,0,1.4,0.1,2.1c0.1,0.7,0.5,1.2,1.3,1.5h1c0.5,0,1-0.3,1.5-0.8c0.7-1.1,1.1-2.4,1.1-3.9
				c0-2.6,1.2-4.1,3.6-4.5c0.4-0.2,1-0.3,2-0.3c2,0,3.7,0.8,5,2.5c1.3,1.7,2,3.5,2,5.6c0,2.4-0.7,4.9-2.2,7.6
				c-2.6,5.8-6.6,10.4-11.9,14c-5.3,3.5-11.1,5.5-17.5,5.9h-3.4c-4.7,0-8.9-0.6-12.7-1.8c-3.8-1.2-7.3-2.7-10.5-4.6V85.1
				c0-0.7,0.5-1.5,1.4-2.2c0.9-0.7,1.9-1.5,2.8-2.2c2-1.3,2.6-3,1.7-5c-0.4-0.9-1.3-2-2.7-3.4c-1.4-1.3-2.1-2.6-2.1-3.9
				c0-1.1-0.8-1.7-2.5-1.7c-1.9,0-2.8,0.6-2.8,1.7c0,1.3-0.7,2.6-2,3.9c-1.3,1.3-2.1,2.4-2.5,3.4c-0.9,2.1-0.4,3.7,1.7,5
				c0.9,0.7,1.9,1.5,2.8,2.2c0.9,0.7,1.4,1.5,1.4,2.2v20.4c-3.2-2-5.8-4.1-7.8-6.2c-2.1-2-3.6-3.8-4.8-5.3c-0.9-1.3-0.9-2.6,0-3.9
				c0.6-0.6,0.6-1.1,0-1.7l-0.8-0.8c0-0.4-0.3-0.6-0.8-0.6c-0.2,0-0.5,0.2-0.8,0.6c-1.7,1.5-4.9,4.8-9.8,9.9
				c-4.9,5.1-9.9,10.8-15.2,16.9s-10,12.3-14.1,18.3c-4.1,6.1-6.2,10.8-6.2,14.1c0,7.6,3.8,14.5,11.5,20.4c1.5,1.1,1.6,2.5,0.3,4.2
				l-6.4,6.7c0,0.6,0.1,0.9,0.3,1.1l1.1,1.4c0.2,0.2,0.5,0.3,0.8,0.3c0.7-0.4,2.2-0.8,4.5-1.4c2.2-0.6,5.2-0.8,8.9-0.8
				c2.6,0,5.5,0.3,8.8,0.8c3.3,0.6,6.9,1.6,10.8,3.1c3.2,1.3,6.4,2.6,9.8,3.9c2.7,1,5.4,2.2,8.1,3.3c3,1.2,6.3,2.6,9.7,4.1
				c5.3,2.4,10.5,4.8,15.5,7.4c6.5,3.4,12.3,7.2,17.3,11.6c5,4.4,9.1,9.4,12.2,15.1c3.1,5.7,4.6,12.2,4.6,19.4
				c0,2.1-0.2,3.9-0.7,5.5c-0.5,1.6-1.4,2.9-2.9,4.1c-1.5,1.1-3.6,2-6.4,2.5c-2.8,0.6-6.5,0.8-11.2,0.8c-6,0-11.7-0.5-17.1-1.5
				c-5.4-1-10.8-2.5-16.2-4.3v-17.1l15.4-15.4l-15.4-15.4v-12.3c0-0.2-0.1-0.4-0.3-0.4c-0.6-0.3-1.2-0.5-1.9-0.8
				c-0.3-0.1-0.6,0.1-0.6,0.4v13l-15.7,15.4l15.7,15.4v15.9c-11.7-4.5-22.5-10.7-32.2-18.7c-9.7-8-18-16.9-24.9-26.7
				c-6.9-9.8-12.3-20-16.1-30.8c-3.8-10.7-5.7-20.9-5.7-30.6c0-6.9,0.8-12.9,2.5-18c1.7-5.1,3.7-9.4,6-12.9c2.3-3.4,4.7-6.2,7-8.1
				c2.3-2,4.1-3.2,5.5-3.8c0.6-0.2,1.3-0.3,2.2-0.3c1.3,0,2.2,0.2,2.8,0.6c1.1,0.6,2.1,0.8,3.1,0.8c1.9,0,2.8-0.7,2.8-2.2
				c0-0.7-0.4-1.5-1.1-2.2c-0.7-0.6-2-0.8-3.6-0.8c-1.5,0-2.8,0.2-3.9,0.6c-2.8,0.6-6.5,2.8-11.2,6.6c-4.7,3.8-9.2,8.8-13.7,15
				S10.2,135,7,143.1c-3.3,8.1-4.9,16.8-4.9,26.1c0,10.1,2.2,20.7,6.6,32c4.4,11.3,10.7,22,19,32.3c8.3,10.3,18.5,19.5,30.5,27.7
				c11,7.5,23.4,13.2,37.2,17.1c3.1,0.8,7.2,1.8,10.6,2.5c8.8,1.8,18.2,2.7,28.4,2.7c2.4,0,5.8-1.9,10.1-5.7
				c4.3-3.8,8.6-8.5,13-14.1c4.4-5.6,8.2-11.6,11.3-18c3.2-6.4,4.8-12.3,5-17.5c0.2-9.3-1.9-17.3-6.2-23.9
				C163.4,197.7,157.7,191.9,150.7,186.9z"/>
			<path class="st4" d="M263.9,180.4c-3-6.5-5.7-12.9-8.1-19.2c-2.4-6.2-3.6-12.1-3.6-17.5c0-4.8,0.6-9.1,1.8-12.9
				c1.2-3.7,2.7-6.9,4.3-9.6c0.2-0.3,0.4-0.6,0.6-0.9c0.6-0.9,0.1-2-1-2.2c-1-0.2-1.9-0.4-2.7-0.6c-0.5-0.1-0.9,0-1.3,0.3
				c-2.1,2-4.2,4.2-6.4,6.6c-3.7,4.2-7,9-9.9,14.3c-2.8,5.1-4.3,10.9-4.3,16.7c0,7.6,1.2,15,3.5,22.1c2.3,7.2,4.8,13.8,7.6,20
				c2.7,6.2,5.2,11.6,7.6,16.4c2.3,4.8,3.5,8.4,3.5,11c0,3.5-1.2,7.5-3.6,11.9c-2.4,4.4-5.2,8.5-8.2,12.4s-6,7.2-8.8,9.8
				c-2.8,2.6-4.7,3.9-5.6,3.9c-1.1,0-2.5-0.8-4.2-2.4c-1.7-1.6-3.2-3.7-4.6-6.3c-1.4-2.6-2.6-5.6-3.6-9.1c-1-3.4-1.5-7.1-1.5-11
				v-90.6c0-1.1,0.2-2.4,0.7-3.8c0.5-1.4,1.2-2.5,2.1-3.2c0.2-0.2,0.2-0.6,0-1.1l-0.8-1.1c-0.4-0.4-0.7-0.4-1.1,0l-33,28
				c-0.4,0.4-0.5,0.7-0.3,0.8l1.1,1.4c0.4,0.4,0.7,0.4,1.1,0l0.3-0.3c0.2-0.2,0.6-0.3,1.1-0.3c0.9,0,2,0.9,3.1,2.7
				c1.1,1.8,1.7,3.6,1.7,5.5v62.1c0,0.2-0.1,1.2-0.3,3.1c-0.2,1.9-0.5,4-0.8,6.4c-0.4,2.4-1,4.9-1.8,7.6c-0.8,2.6-2,4.8-3.5,6.4
				c-0.2,0.2-0.2,0.5,0,0.8l0.8,1.4c0.2,0.2,0.6,0.2,1.1,0c0.6-0.4,1.3-0.8,2.2-1.4c0.9-0.6,1.7-0.7,2.2-0.6
				c1.1,0.6,2.5,2.1,4.2,4.8c1.7,2.6,3.6,5.5,5.7,8.5c2.1,3.1,4.5,5.8,7.1,8.2c2.6,2.4,5.3,3.6,8.1,3.6c0.4,0,0.8-0.5,1.4-1.4
				c1.5-1.1,4-3.2,7.4-6.2c3.4-3,7.3-6.4,11.6-10.2c4.3-3.8,8.7-7.9,13.3-12.3c4.6-4.4,8.8-8.7,12.6-12.9c3.8-4.2,6.9-8.1,9.4-11.6
				c2.4-3.5,3.6-6.3,3.6-8.4c0-6.5-1.2-13.2-3.6-20C269.5,193.6,266.8,187,263.9,180.4z"/>
			<path class="st4" d="M709,104.5c-10.5-8-30.4-10.5-52.4,7.3c-0.9,0.7-8,6.6-13.1,12.8c-3.6,4.3-6.9,8.9-9.8,14.1
				c-1.2,2.1-2.1,4.3-2.8,6.5c-6-1.3-12.4-2.8-19.2-4.7c0.1-0.2,0.1-0.4,0.2-0.6c0.5-1.4,1.2-2.5,2.1-3.2c0.2-0.2,0.2-0.6,0-1.1
				l-0.8-1.1c-0.4-0.4-0.7-0.4-1.1,0l-5.4,4.6c-5.9-1.7-12.1-3.7-18.6-5.9c-19-6.5-36.9-12.7-54.7-18.9c-0.8-0.3-1.7,0.1-2,1
				c-0.3,0.8,0.1,1.7,1,2c17.8,6.2,35.7,12.4,54.7,18.9c2.5,0.8,4.9,1.6,7.3,2.4l21.3,6.2c27.4,7,47.7,8,48.4,8c0.7,0,3.4,0.1,5,0.1
				c3.3,0,6.5-0.1,9.5-0.4c18.8-1.6,32.2-8.1,37.7-18.5C721.6,124.1,718.6,111.9,709,104.5z M713.5,132.6
				c-6.7,12.4-27.1,20.8-65.1,15.7c-0.2-1.5-0.3-3-0.3-4.5c0-4.8,0.6-9.1,1.8-12.9c1.2-3.7,2.7-6.9,4.3-9.6c1.7-2.7,3.4-4.8,5-6.4
				c1.7-1.6,3-2.7,3.9-3.5c0.1-0.1,0.2-0.2,0.2-0.3c18.7-13.1,34.8-10.9,43.7-4.1C715.5,113.5,718.1,124,713.5,132.6z"/>
			<path class="st4" d="M659.9,180.4c-3-6.5-5.7-12.9-8.1-19.2c-0.9-2.4-1.7-4.8-2.3-7.1c-0.1-0.6-0.6-1-1.2-1.1
				c-4.8-0.6-10.6-1.4-17-2.6c-0.8-0.2-1.6,0.4-1.7,1.2c-0.1,1.3-0.2,2.5-0.2,3.8c0,7.6,1.2,15.1,3.5,22.2c2.3,7.2,4.8,13.8,7.6,20
				c2.7,6.2,5.2,11.6,7.6,16.4c2.3,4.8,3.5,8.4,3.5,11c0,3.5-1.2,7.5-3.6,11.9c-2.4,4.4-5.2,8.5-8.3,12.4c-3.1,3.9-6,7.2-8.8,9.8
				c-2.8,2.6-4.7,3.9-5.6,3.9c-1.1,0-2.5-0.8-4.2-2.4c-1.7-1.6-3.2-3.7-4.6-6.3c-1.4-2.6-2.6-5.6-3.6-9.1c-1-3.4-1.5-7.1-1.5-11
				v-86.6c0-1.3-0.8-2.4-2.1-2.8l-5.6-1.6c-0.9-0.3-1.9-0.1-2.7,0.6L579,162.5c-0.4,0.4-0.5,0.7-0.3,0.8l1.1,1.4
				c0.4,0.4,0.7,0.4,1.1,0l0.3-0.3c0.2-0.2,0.6-0.3,1.1-0.3c0.9,0,2,0.9,3.1,2.7c1.1,1.8,1.7,3.6,1.7,5.5v62.1
				c0,0.2-0.1,1.2-0.3,3.1c-0.2,1.9-0.5,4-0.8,6.4c-0.4,2.4-1,4.9-1.8,7.6c-0.8,2.6-2,4.8-3.5,6.4c-0.2,0.2-0.2,0.5,0,0.8l0.8,1.4
				c0.2,0.2,0.6,0.2,1.1,0c0.6-0.4,1.3-0.8,2.2-1.4c0.9-0.6,1.7-0.7,2.2-0.6c1.1,0.6,2.5,2.1,4.2,4.8c1.7,2.6,3.6,5.5,5.7,8.5
				c2.1,3.1,4.5,5.8,7.1,8.2c2.6,2.4,5.3,3.6,8.1,3.6c0.4,0,0.8-0.5,1.4-1.4c1.5-1.1,4-3.2,7.4-6.2c3.4-3,7.3-6.4,11.6-10.2
				c4.3-3.8,8.7-7.9,13.3-12.3c4.6-4.4,8.8-8.7,12.6-12.9c3.8-4.2,6.9-8.1,9.4-11.6c2.4-3.5,3.6-6.3,3.6-8.4c0-6.5-1.2-13.2-3.6-20
				C665.5,193.6,662.8,187,659.9,180.4z"/>
			<path class="st4" d="M461,237.2h-0.8c-0.6,0-0.8,0.3-0.8,0.8c-0.9,1.1-2.6,3.5-4.9,7.1c-2.3,3.6-4.8,6.9-7.4,9.9
				c-0.2,0.2-0.5,0.3-0.8,0.3c-0.6,0-0.9-0.2-1.1-0.6c-0.9-1.5-2.3-4-4.1-7.6c-1.8-3.5-2.7-7.8-2.7-12.9v-80.8
				c0-5.6,1.6-10.5,4.8-14.8c0.6-0.6,1.2-1.4,2-2.4c0.7-1,1.3-1.8,1.7-2.4c0.4-0.7,0.3-1.2-0.3-1.4l-1.4-1.4c-0.4-0.4-0.7-0.4-1.1,0
				l-1.4,1.1c-4.1,4.1-8.9,6.2-14.5,6.2h-20.1c-0.9-0.2-2.1-0.7-3.5-1.5c-1.4-0.8-2.1-2.7-2.1-5.5c0-0.6-0.2-0.8-0.6-0.8H400
				c-0.4,0-0.7,0.1-0.8,0.3l-19.6,31.6h0.3c-1.1,1.5-2.1,2.9-3.1,4.3c-0.9,1.4-1.9,2.8-2.8,4.3V113c0.4-2,0.9-4.1,1.7-6.2
				c0.4-1.7,1-3.4,1.8-5.2c0.8-1.8,1.8-3.2,2.9-4.3c0.4-0.4,0.4-0.7,0-1.1l-1.1-1.1c-0.2-0.4-0.5-0.4-0.8,0l-5.9,4.8
				c-0.6,0.2-0.9,0.1-1.1-0.3c-0.7-0.9-2.2-2.7-4.5-5.2c-2.2-2.5-4.9-3.8-8.1-3.8l-26.3,19c-0.4,0.7-0.5,1.3-0.3,1.7l0.8,1.1
				c0.2,0.6,0.7,0.7,1.4,0.3l1.1-0.3c1.1-0.6,2.3-0.8,3.6-0.8c2.6,0,5,1.1,7.3,3.2c2.2,2.1,3.4,4.5,3.4,7.1v112.4
				c-0.2,3.2-0.6,6.2-1.1,8.9c-0.4,2.6-1,5.2-1.8,7.8c-0.8,2.6-2,4.9-3.5,6.7c-0.2,0.2-0.2,0.5,0,0.8l0.8,1.4c0.2,0.2,0.6,0.2,1.1,0
				c0.6-0.4,1.3-0.8,2.2-1.4c0.9-0.6,1.7-0.7,2.2-0.6c1.1,0.6,2.4,2.1,3.8,4.8c1.4,2.6,3,5.5,4.8,8.5c1.8,3.1,3.8,5.8,6.2,8.2
				c2.3,2.4,4.9,3.6,7.7,3.6c0.6,0,2-2,4.5-6.2c2.4-4.1,5-8.8,7.8-14c2.8-5.2,5.5-10.2,8-15c2.5-4.8,4.1-7.8,4.9-9.1
				c0.9-1.3,0.6-2-1.1-2h-0.6c-0.4,0-0.7,0.3-1.1,0.8c-0.7,1.1-2.3,3.5-4.6,7.1c-2.3,3.6-4.8,6.9-7.4,9.9c-0.2,0.2-0.6,0.3-1.1,0.3
				c-0.6,0-0.9-0.2-1.1-0.6c-0.9-1.5-2.2-4-3.9-7.6c-1.7-3.5-2.5-7.8-2.5-12.9v-57.3c2.6-4.5,6.2-8,10.6-10.6
				c4.5-2.6,9.3-3.9,14.5-3.9h15.1v71.9c0,0.2,0,1.2-0.1,3.1c-0.1,1.9-0.4,4-0.8,6.4c-0.5,2.4-1.1,4.9-1.8,7.6
				c-0.7,2.6-1.9,4.8-3.4,6.4c-0.2,0.2-0.3,0.5-0.3,0.8l0.8,1.4c0.4,0.4,0.7,0.4,1.1,0c0.6-0.4,1.4-0.8,2.4-1.4
				c1-0.6,1.8-0.7,2.4-0.6c1.1,0.6,2.3,2.1,3.6,4.8c1.3,2.6,2.9,5.5,4.8,8.5c1.9,3.1,3.9,5.8,6.2,8.2c2.2,2.4,4.8,3.6,7.6,3.6
				c0.6,0,2-2,4.5-6.2c2.4-4.1,5-8.8,7.8-14c2.8-5.2,5.5-10.2,8.1-15c2.6-4.8,4.3-7.8,5-9.1C462.5,237.9,462.1,237.2,461,237.2z"/>
			<path class="st4" d="M336.3,237.2h-0.6c-0.4,0-0.7,0.3-1.1,0.8c-0.7,1.1-2.3,3.5-4.6,7.1c-2.3,3.6-4.9,6.9-7.7,9.9
				c-0.2,0.2-0.5,0.3-0.8,0.3c-0.6,0-0.9-0.2-1.1-0.6c-0.9-1.5-2.3-4-4.1-7.6c-1.8-3.5-2.7-7.8-2.7-12.9v-92c0-0.9,0.2-1.8,0.7-2.5
				c0.5-0.7,1-1.6,1.5-2.5v-0.8l-1.1-1.1c-0.2-0.2-0.6-0.3-1.1-0.3l-32.2,27.4c-0.2,0.2-0.2,0.5,0,0.8l1.1,1.4
				c0.4,0.2,0.7,0.2,0.8,0l0.3-0.3c0.2-0.2,0.6-0.3,1.1-0.3c1.1,0,2.2,0.9,3.4,2.7c1.1,1.8,1.7,3.6,1.7,5.5v62.1
				c0,0.2-0.1,1.2-0.3,3.1c-0.2,1.9-0.5,4-0.8,6.4c-0.4,2.4-1,4.9-1.8,7.6c-0.8,2.6-2,4.8-3.5,6.4c-0.2,0.2-0.2,0.5,0,0.8l0.8,1.4
				c0,0.6,0.3,0.6,0.8,0c0.7-0.4,1.6-0.8,2.5-1.4c0.9-0.6,1.7-0.7,2.2-0.6c1.1,0.6,2.3,2.1,3.6,4.8c1.3,2.6,2.9,5.5,4.8,8.5
				c1.9,3.1,3.9,5.8,6.2,8.2s4.8,3.6,7.6,3.6c0.6,0,2-2,4.5-6.2c2.4-4.1,5.1-8.8,8-14c2.9-5.2,5.6-10.2,8.1-15
				c2.5-4.8,4.1-7.8,4.9-9.1c0.4-0.4,0.4-0.8,0-1.3C337,237.4,336.7,237.2,336.3,237.2z"/>
			<path class="st4" d="M570.6,241.1c0-0.7-0.3-0.8-0.8-0.3c-0.4,0-0.9,0.2-1.7,0.6c-0.2,0.2-0.6,0.3-1.1,0.3c-1.9,0-2.8-1-2.8-3.1
				v-91.2c0-3.4,0.9-6.3,2.8-8.9c0.4-0.4,0.9-1.1,1.7-2.1c0.7-1,1.3-1.8,1.7-2.4c0.3-0.5,0.3-0.9,0.1-1.1l-2.2-0.9
				c-0.6-0.3-1.4-0.2-1.9,0.3l-0.2,0.1c-4.1,4.1-8.9,6.2-14.5,6.2h-26.8c-0.9-0.2-2.1-0.7-3.5-1.5c-1.4-0.8-2.1-2.7-2.1-5.5
				c0-0.5-0.4-0.8-0.8-0.8h-1.4c-0.4,0-0.7,0.1-0.8,0.3c-3.5,4.5-7.6,9.1-12.2,13.8c-4.6,4.8-9.2,9.3-14,13.6
				c-4.8,4.3-9.5,8.3-14.1,12.2c-4.7,3.8-8.9,7-12.9,9.6c-0.4,0.2-0.5,0.6-0.3,1.1l1.1,1.1c0.2,0.2,0.6,0.2,1.1,0v-0.3
				c0.2-0.2,0.6-0.3,1.1-0.3c1.1,0,2.2,0.9,3.4,2.7c1.1,1.8,1.7,3.7,1.7,5.7v43.9c-0.2,0-0.3,0.1-0.3,0.3c0.2,3,0.2,6,0,8.9
				c0,2.4-0.2,4.9-0.7,7.6c-0.5,2.6-1.2,4.9-2.1,7v0.8l0.8,1.4c0.4,0.4,0.7,0.4,1.1,0c0.6-0.4,1.8-1.4,3.8-3.2c2-1.8,3-2.5,3.2-2.1
				c0.9,1.1,3,3.1,6.2,6c3.2,2.9,6.9,5.9,11,8.9s8.5,6,13,8.7c4.5,2.7,8.4,4.5,11.7,5.5c1.7,0.4,2.1,1.3,1.4,2.8
				c-0.4,0.7-0.3,1.2,0.3,1.4l0.8,0.6c0.7,0,1.2-0.2,1.4-0.6c0.7-1.3,2.4-3.9,5-7.8c2.6-3.9,6-8.2,10.1-12.9
				c4.1-4.7,8.9-9.2,14.5-13.6c5.6-4.4,11.7-7.8,18.5-10.2c0.4-0.4,0.5-0.7,0.3-0.8L570.6,241.1z M540.2,250.1
				c0,0.7-0.5,1.7-1.5,2.9c-1,1.2-2.1,2.4-3.4,3.5c-1.2,1.1-2.5,2.1-3.8,2.9c-1.3,0.8-2.2,1.3-2.8,1.3c-1.1,0-3.5-0.8-7.1-2.5
				c-3.6-1.7-7.4-3.8-11.3-6.4c-3.9-2.6-7.5-5.4-10.6-8.4c-3.2-3-4.9-5.9-5-8.7l0.6-0.3v-71.9h45V250.1z"/>
		</g>
	</g>
</g>
<g id="BARVY_INFO">
</g>
</svg>
