<?xml version="1.0" encoding="utf-8"?>
<!-- Generator: Adobe Illustrator 28.3.0, SVG Export Plug-In . SVG Version: 6.00 Build 0)  -->
<svg version="1.1" xmlns="http://www.w3.org/2000/svg" xmlns:xlink="http://www.w3.org/1999/xlink" x="0px" y="0px"
	 viewBox="0 0 16 16" style="enable-background:new 0 0 16 16;" xml:space="preserve">
<style type="text/css">
	.st0{fill:none;}
	.st1{opacity:0.7;fill:#19120B;}
	.st2{fill:#FFFFFF;}
	.st3{fill:none;stroke:#FFFFFF;stroke-linecap:round;stroke-linejoin:round;stroke-miterlimit:10;}
	.st4{fill:#BA110F;}
	.st5{fill:none;stroke:#94160F;stroke-miterlimit:10;}
	.st6{fill:#606060;}
	.st7{fill:#B29A8A;}
	.st8{fill:#94160F;}
	.st9{fill:none;stroke:#FFFFFF;stroke-width:2;stroke-linecap:round;stroke-linejoin:round;stroke-miterlimit:10;}
	.st10{fill:#8C1002;stroke:#FFFFFF;stroke-linecap:round;stroke-linejoin:round;stroke-miterlimit:10;}
	.st11{clip-path:url(#SVGID_00000178199250316819577860000010401506133073040562_);}
	.st12{clip-path:url(#SVGID_00000009584058322665284350000017228850240445981626_);}
	.st13{fill:none;stroke:#BA110F;stroke-miterlimit:10;}
	.st14{fill:#C4AF9B;}
	.st15{fill:url(#SVGID_00000066480383492645227780000014305867738476893885_);}
	.st16{fill:url(#SVGID_00000152255187915545588840000013296942990061725062_);}
	.st17{opacity:0.42;fill:url(#SVGID_00000124869515928430605180000012989181551318041771_);}
	.st18{fill:#FFFFFF;stroke:#D3D3D3;stroke-width:0.75;stroke-miterlimit:10;}
	.st19{fill:#605A56;}
	.st20{fill:none;stroke:#BA110F;stroke-width:1.5;stroke-miterlimit:10;}
	.st21{clip-path:url(#SVGID_00000057108452248237031920000012518035263783058304_);}
	.st22{fill:url(#SVGID_00000005972854516655701030000001941963319306958494_);}
	.st23{fill:url(#SVGID_00000091004157399612892650000016643869854907280796_);}
	.st24{fill:url(#SVGID_00000091011677794721023350000015240143726892459154_);}
	.st25{fill:url(#SVGID_00000109012149924807434180000001399008911599636893_);}
	.st26{fill:url(#SVGID_00000065049839623350254090000003650879763689068983_);}
	.st27{fill:none;stroke:#4E96DD;stroke-width:5;stroke-miterlimit:10;}
	.st28{fill:url(#SVGID_00000003811257179684164250000015612682644396261283_);}
	.st29{fill:#FCF2E1;}
</style>
<g id="Vrstva_1">
	<g>
		<path class="st29" d="M14,16H2c-1.1,0-2-0.9-2-2V2c0-1.1,0.9-2,2-2h12c1.1,0,2,0.9,2,2v12C16,15.1,15.1,16,14,16z"/>
		<g>
			<path class="st4" d="M12.7,6.8L11,8.5h-0.4v2.9c-0.1,0-0.3-0.1-0.5-0.1c0,0,0,0,0,0V4.2h0.4L8,1.8L5.6,4.2H6v7.2c0,0,0,0,0,0
				c-0.2,0-0.4,0-0.5,0.1v-3H5L3.3,6.8L1.6,8.6h0.3v3l0,0V12c0.4,0,0.6,0.1,0.8,0.3c0.3,0.2,0.6,0.4,1.2,0.4s1-0.2,1.2-0.4
				C5.4,12.1,5.6,12,6,12s0.6,0.1,0.8,0.3C7,12.5,7.4,12.7,8,12.7s1-0.2,1.2-0.4C9.5,12.1,9.7,12,10,12c0.4,0,0.6,0.1,0.8,0.3
				c0.3,0.2,0.6,0.4,1.2,0.4s1-0.2,1.2-0.4c0.2-0.2,0.4-0.3,0.8-0.3v-0.4l0,0v-3h0.3L12.7,6.8z M4.7,11.9c-0.2,0.2-0.4,0.3-0.8,0.3
				S3.3,12,3.1,11.9c-0.1-0.1-0.3-0.2-0.5-0.3h2.7C5,11.6,4.9,11.7,4.7,11.9z M8.8,11.9C8.6,12,8.4,12.2,8,12.2S7.4,12,7.2,11.9
				c-0.1-0.1-0.3-0.2-0.5-0.3h0.6V9.4h1.4v2.1h0.7C9.1,11.6,9,11.7,8.8,11.9z M12.9,11.9c-0.2,0.2-0.4,0.3-0.8,0.3
				c-0.4,0-0.6-0.1-0.8-0.3c-0.1-0.1-0.3-0.2-0.5-0.3h2.7C13.2,11.6,13,11.7,12.9,11.9z"/>
			<path class="st4" d="M12.1,13.6c-0.4,0-0.6-0.1-0.8-0.3c-0.3-0.2-0.6-0.4-1.2-0.4c-0.6,0-1,0.2-1.2,0.4c-0.2,0.2-0.4,0.3-0.8,0.3
				s-0.6-0.1-0.8-0.3c-0.3-0.2-0.6-0.4-1.2-0.4s-1,0.2-1.2,0.4c-0.2,0.2-0.4,0.3-0.8,0.3s-0.6-0.1-0.8-0.3c-0.3-0.2-0.6-0.4-1.2-0.4
				v0.6c0.4,0,0.6,0.1,0.8,0.3c0.3,0.2,0.6,0.4,1.2,0.4s1-0.2,1.2-0.4c0.2-0.2,0.4-0.3,0.8-0.3s0.6,0.1,0.8,0.3
				C7,13.9,7.4,14.2,8,14.2s1-0.2,1.2-0.4c0.2-0.2,0.4-0.3,0.8-0.3c0.4,0,0.6,0.1,0.8,0.3c0.3,0.2,0.6,0.4,1.2,0.4s1-0.2,1.2-0.4
				c0.2-0.2,0.4-0.3,0.8-0.3v-0.6c-0.6,0-1,0.2-1.2,0.4C12.6,13.5,12.5,13.6,12.1,13.6z"/>
		</g>
	</g>
</g>
<g id="BARVY_INFO">
</g>
</svg>
