<?xml version="1.0" encoding="utf-8"?>
<!-- Generator: Adobe Illustrator 28.3.0, SVG Export Plug-In . SVG Version: 6.00 Build 0)  -->
<svg version="1.1" xmlns="http://www.w3.org/2000/svg" xmlns:xlink="http://www.w3.org/1999/xlink" x="0px" y="0px"
	 viewBox="0 0 16 16" style="enable-background:new 0 0 16 16;" xml:space="preserve">
<style type="text/css">
	.st0{fill:none;}
	.st1{opacity:0.7;fill:#19120B;}
	.st2{fill:#FFFFFF;}
	.st3{fill:none;stroke:#FFFFFF;stroke-linecap:round;stroke-linejoin:round;stroke-miterlimit:10;}
	.st4{fill:#BA110F;}
	.st5{fill:none;stroke:#94160F;stroke-miterlimit:10;}
	.st6{fill:#606060;}
	.st7{fill:#B29A8A;}
	.st8{fill:#94160F;}
	.st9{fill:none;stroke:#FFFFFF;stroke-width:2;stroke-linecap:round;stroke-linejoin:round;stroke-miterlimit:10;}
	.st10{fill:#8C1002;stroke:#FFFFFF;stroke-linecap:round;stroke-linejoin:round;stroke-miterlimit:10;}
	.st11{clip-path:url(#SVGID_00000062913173890116020690000012731052488994050965_);}
	.st12{clip-path:url(#SVGID_00000125592972413514131110000016473162510752170898_);}
	.st13{fill:none;stroke:#BA110F;stroke-miterlimit:10;}
	.st14{fill:#C4AF9B;}
	.st15{fill:url(#SVGID_00000093174326971840713080000014791642158179110280_);}
	.st16{fill:url(#SVGID_00000078725317986555303390000007228082415545773247_);}
	.st17{opacity:0.42;fill:url(#SVGID_00000049218317937043521850000003263560428545162385_);}
	.st18{fill:#FFFFFF;stroke:#D3D3D3;stroke-width:0.75;stroke-miterlimit:10;}
	.st19{fill:#605A56;}
	.st20{fill:none;stroke:#BA110F;stroke-width:1.5;stroke-miterlimit:10;}
	.st21{clip-path:url(#SVGID_00000078032710861797282520000016063571171033296521_);}
	.st22{fill:url(#SVGID_00000123433330582919100700000016152927291815875987_);}
	.st23{fill:url(#SVGID_00000036245223024911218170000007884610590727709852_);}
	.st24{fill:url(#SVGID_00000175281427622388659120000005399724827642844604_);}
	.st25{fill:url(#SVGID_00000043450536229398688600000003686480289940996527_);}
	.st26{fill:url(#SVGID_00000057150131896277334340000005463092156833822858_);}
	.st27{fill:none;stroke:#4E96DD;stroke-width:5;stroke-miterlimit:10;}
	.st28{fill:url(#SVGID_00000114775530949857137190000017498384696081564064_);}
	.st29{fill:#FCF2E1;}
</style>
<g id="Vrstva_1">
	<g>
		<path class="st4" d="M14,16H2c-1.1,0-2-0.9-2-2V2c0-1.1,0.9-2,2-2h12c1.1,0,2,0.9,2,2v12C16,15.1,15.1,16,14,16z"/>
		<g>
			<path class="st2" d="M7.1,2.4c0.2,0.2,0.3,0.3,0.5,0.4C7.8,2.8,8,2.9,8.2,2.9c0.3,0,0.5-0.1,0.8-0.2c0.3-0.1,0.5-0.3,0.8-0.5
				c0.2-0.2,0.4-0.5,0.6-0.7c0.2-0.3,0.3-0.5,0.4-0.7c0,0,0,0,0-0.1c0,0,0,0,0,0c0,0,0,0,0,0c0,0,0,0,0,0l-0.1,0.1c0,0,0,0,0,0
				c0,0,0,0,0,0c-0.2,0.3-0.4,0.6-0.7,0.9c-0.3,0.3-0.6,0.4-1,0.4C8.6,2.1,8.4,2,8.1,1.8C7.8,1.6,7.5,1.2,7.3,0.6c0,0,0-0.1-0.1,0
				L6.5,1.2c0,0,0,0,0,0.1c0.1,0.2,0.1,0.4,0.2,0.6C6.8,2.1,6.9,2.2,7.1,2.4z"/>
			<path class="st2" d="M8.6,14.6L8.6,14.6C8.6,14.6,8.6,14.6,8.6,14.6C8.6,14.6,8.6,14.6,8.6,14.6l-0.4-0.3
				c-0.1-0.1-0.1-0.2-0.1-0.3v-0.4h0v-0.2c0,0,0,0,0,0c0,0-0.1,0-0.1,0c0,0,0,0,0,0v0.2h0V14c0,0.1,0,0.2-0.1,0.3l-0.3,0.3
				c0,0,0,0,0,0c0,0,0,0,0,0l0,0c0,0,0,0,0,0c0,0,0,0,0,0c0,0,0,0,0,0c0,0,0.1,0.1,0.1,0.1c0,0.1,0.1,0.1,0.1,0.2c0,0,0,0.1,0,0.1
				c0,0,0,0.1,0,0.1c0,0,0,0.1,0,0.1c0,0.1,0.1,0.2,0.1,0.2c0,0,0,0,0.1,0c0,0,0,0,0,0s0,0,0,0c0,0,0,0,0.1,0c0-0.1,0.1-0.1,0.1-0.2
				c0,0,0-0.1,0-0.1c0,0,0-0.1,0-0.1c0,0,0-0.1,0-0.1c0-0.1,0.1-0.2,0.1-0.2C8.5,14.7,8.5,14.6,8.6,14.6C8.6,14.6,8.6,14.6,8.6,14.6
				C8.6,14.6,8.6,14.6,8.6,14.6C8.6,14.6,8.6,14.6,8.6,14.6z"/>
			<path class="st2" d="M10.4,9C10,8.8,9.7,8.6,9.3,8.4C8.9,8.3,8.5,8.1,8.1,7.9V6.8c0,0,0,0,0,0c0,0-0.1,0-0.1,0c0,0,0,0,0,0v1.1
				C7.7,7.8,7.5,7.7,7.2,7.6C7,7.5,6.8,7.3,6.6,7.2C6.5,7.1,6.3,7,6.2,6.9C6.1,6.7,6.1,6.6,6.1,6.4c0-0.1,0-0.2,0.1-0.4
				c0.1-0.1,0.2-0.3,0.3-0.3c0,0,0.1,0,0.1,0c0,0,0.1,0,0.1,0.1c0.1,0.1,0.3,0.3,0.5,0.5c0.2,0.1,0.4,0.2,0.6,0.3c0,0,0,0,0,0
				c0,0,0.1,0,0.1,0c0,0,0,0,0,0c0,0,0.1,0,0.1,0v0c0.1,0,0.3,0.1,0.5,0.1c0.3,0,0.6-0.1,0.9-0.3C9.7,6.2,10,6,10.2,5.8
				c0.2-0.2,0.4-0.5,0.5-0.8c0.1-0.3,0.2-0.5,0.2-0.6c0-0.1,0-0.2-0.1-0.3c-0.1-0.1-0.2-0.2-0.3-0.2c-0.1,0-0.3,0-0.4,0.1
				C10,4.1,10,4.2,10,4.3c0,0,0,0.1,0,0.1c0,0,0,0.1,0.1,0.1h0c0,0,0,0,0.1,0c0-0.1,0.1-0.1,0.1-0.2c0-0.1,0.1-0.2,0.2-0.2
				c0,0,0,0,0.1,0c0.1,0,0.2,0,0.2,0.1c0.1,0.1,0.1,0.2,0.1,0.3c0,0.1,0,0.2-0.1,0.3c-0.1,0.3-0.3,0.5-0.5,0.6
				C9.9,5.6,9.6,5.7,9.3,5.7H9.2c-0.2,0-0.4,0-0.6-0.1C8.4,5.5,8.3,5.5,8.1,5.4v-1c0,0,0-0.1,0.1-0.1c0,0,0.1-0.1,0.1-0.1
				C8.4,4.1,8.4,4,8.4,3.9c0,0-0.1-0.1-0.1-0.2C8.2,3.7,8.2,3.6,8.2,3.6c0-0.1,0-0.1-0.1-0.1c-0.1,0-0.1,0-0.1,0.1
				c0,0.1,0,0.1-0.1,0.2C7.8,3.8,7.7,3.9,7.7,3.9c0,0.1,0,0.2,0.1,0.2c0,0,0.1,0.1,0.1,0.1C8,4.3,8,4.3,8,4.3v0.9
				C7.8,5.2,7.7,5.1,7.6,5C7.5,4.9,7.4,4.8,7.4,4.8c0-0.1,0-0.1,0-0.2c0,0,0-0.1,0-0.1l0,0c0,0,0,0,0,0c0,0,0,0,0,0
				C7.2,4.5,7.1,4.7,6.8,4.9C6.6,5.2,6.4,5.4,6.1,5.7C5.9,6,5.7,6.3,5.5,6.5C5.3,6.8,5.2,7,5.2,7.2c0,0.4,0.2,0.7,0.5,0.9
				c0.1,0.1,0.1,0.1,0,0.2L5.4,8.6c0,0,0,0,0,0.1l0.1,0.1c0,0,0,0,0,0c0,0,0.1,0,0.2-0.1c0.1,0,0.2,0,0.4,0c0.1,0,0.3,0,0.4,0
				c0.2,0,0.3,0.1,0.5,0.1C7.2,8.9,7.4,9,7.5,9c0.1,0,0.2,0.1,0.4,0.2C8,9.2,8.2,9.3,8.3,9.4C8.6,9.5,8.8,9.6,9,9.7
				c0.3,0.2,0.6,0.3,0.8,0.5c0.2,0.2,0.4,0.4,0.6,0.7c0.1,0.3,0.2,0.6,0.2,0.9c0,0.1,0,0.2,0,0.3c0,0.1-0.1,0.1-0.1,0.2
				c-0.1,0.1-0.2,0.1-0.3,0.1c-0.1,0-0.3,0-0.5,0c-0.3,0-0.5,0-0.8-0.1c-0.2,0-0.5-0.1-0.7-0.2v-0.8l0.7-0.7L8.1,9.9V9.4
				c0,0,0,0,0,0c0,0-0.1,0-0.1,0c0,0,0,0,0,0v0.6l-0.7,0.7L8,11.4v0.7c-0.5-0.2-1-0.5-1.5-0.9C6,10.9,5.7,10.5,5.4,10
				C5,9.6,4.8,9.1,4.6,8.6c-0.2-0.5-0.3-1-0.3-1.4c0-0.3,0-0.6,0.1-0.8c0.1-0.2,0.2-0.4,0.3-0.6C4.8,5.6,5,5.5,5.1,5.4
				c0.1-0.1,0.2-0.1,0.3-0.2c0,0,0.1,0,0.1,0c0.1,0,0.1,0,0.1,0c0.1,0,0.1,0,0.1,0c0.1,0,0.1,0,0.1-0.1c0,0,0-0.1-0.1-0.1
				c0,0-0.1,0-0.2,0C5.5,5,5.5,5,5.4,5c-0.1,0-0.3,0.1-0.5,0.3C4.7,5.5,4.5,5.7,4.3,6C4.1,6.3,3.9,6.6,3.7,7
				C3.6,7.4,3.5,7.8,3.5,8.2c0,0.5,0.1,1,0.3,1.5c0.2,0.5,0.5,1,0.9,1.5c0.4,0.5,0.8,0.9,1.4,1.3c0.5,0.3,1.1,0.6,1.7,0.8
				c0.1,0,0.3,0.1,0.5,0.1c0.4,0.1,0.8,0.1,1.3,0.1c0.1,0,0.3-0.1,0.5-0.3c0.2-0.2,0.4-0.4,0.6-0.6c0.2-0.3,0.4-0.5,0.5-0.8
				c0.1-0.3,0.2-0.6,0.2-0.8c0-0.4-0.1-0.8-0.3-1.1C10.9,9.5,10.7,9.3,10.4,9z"/>
		</g>
	</g>
</g>
<g id="BARVY_INFO">
</g>
</svg>
