<?xml version="1.0" encoding="utf-8"?>
<!-- Generator: Adobe Illustrator 28.3.0, SVG Export Plug-In . SVG Version: 6.00 Build 0)  -->
<svg version="1.1" xmlns="http://www.w3.org/2000/svg" xmlns:xlink="http://www.w3.org/1999/xlink" x="0px" y="0px"
	 viewBox="0 0 16 16" style="enable-background:new 0 0 16 16;" xml:space="preserve">
<style type="text/css">
	.st0{fill:none;}
	.st1{opacity:0.7;fill:#19120B;}
	.st2{fill:#FFFFFF;}
	.st3{fill:none;stroke:#FFFFFF;stroke-linecap:round;stroke-linejoin:round;stroke-miterlimit:10;}
	.st4{fill:#BA110F;}
	.st5{fill:none;stroke:#94160F;stroke-miterlimit:10;}
	.st6{fill:#606060;}
	.st7{fill:#B29A8A;}
	.st8{fill:#94160F;}
	.st9{fill:none;stroke:#FFFFFF;stroke-width:2;stroke-linecap:round;stroke-linejoin:round;stroke-miterlimit:10;}
	.st10{fill:#8C1002;stroke:#FFFFFF;stroke-linecap:round;stroke-linejoin:round;stroke-miterlimit:10;}
	.st11{clip-path:url(#SVGID_00000090995861311480859360000004056845713681513395_);}
	.st12{clip-path:url(#SVGID_00000130647183423118667090000008948935722138465200_);}
	.st13{fill:none;stroke:#BA110F;stroke-miterlimit:10;}
	.st14{fill:#C4AF9B;}
	.st15{fill:url(#SVGID_00000150820635069128951070000003456871657030496432_);}
	.st16{fill:url(#SVGID_00000044900008455961096660000003409365644484660155_);}
	.st17{opacity:0.42;fill:url(#SVGID_00000043416600749950437430000005543408456196781986_);}
	.st18{fill:#FFFFFF;stroke:#D3D3D3;stroke-width:0.75;stroke-miterlimit:10;}
	.st19{fill:#605A56;}
	.st20{fill:none;stroke:#BA110F;stroke-width:1.5;stroke-miterlimit:10;}
	.st21{clip-path:url(#SVGID_00000083051517298385476490000003894723221378946972_);}
	.st22{fill:url(#SVGID_00000036253201227571964020000012213162418590471568_);}
	.st23{fill:url(#SVGID_00000142858192434502286910000018192447666111422617_);}
	.st24{fill:url(#SVGID_00000094588979076207049070000007891105803569701814_);}
	.st25{fill:url(#SVGID_00000115506570990722857100000015510619417700443790_);}
	.st26{fill:url(#SVGID_00000179648297742716120730000017112387488731151749_);}
	.st27{fill:none;stroke:#4E96DD;stroke-width:5;stroke-miterlimit:10;}
	.st28{fill:url(#SVGID_00000052077007455859779300000011206407907388293004_);}
	.st29{fill:#FCF2E1;}
</style>
<g id="Vrstva_1">
	<g>
		<rect x="0" y="0" class="st0" width="16" height="16"/>
		<g>
			<path class="st4" d="M5.5,11.3l-0.9-0.9l-1.5,1.5c-0.3,0-0.6,0.1-0.9,0.3c-0.4,0.4-0.4,1.1,0,1.5c0.4,0.4,1.1,0.4,1.5,0
				C4,13.4,4.1,13.1,4,12.8L5.5,11.3z"/>
			<path class="st4" d="M13.8,12.1c-0.2-0.2-0.6-0.3-0.9-0.3l-1.5-1.5l-0.9,0.9l1.5,1.5c0,0.3,0.1,0.6,0.3,0.9
				c0.4,0.4,1.1,0.4,1.5,0C14.2,13.2,14.2,12.5,13.8,12.1z"/>
			<polygon class="st4" points="7.7,6 5.1,3 2.2,2.1 3.2,4.9 6.2,7.7 			"/>
			<g>
				<polygon class="st4" points="8,9.3 8,9.3 9.9,7.5 12.8,5 13.8,2.1 10.9,3 10.8,3.1 10.8,3.1 6.5,7.9 6.3,8.1 5.5,9 5.5,9 
					5.3,9.2 4.3,8.2 3.6,8.8 7,12.2 7.7,11.5 6.6,10.5 				"/>
				<polygon class="st4" points="10.7,9.2 9.8,8.2 8.3,9.5 9.4,10.5 8.3,11.5 9,12.2 12.3,8.8 11.7,8.2 				"/>
			</g>
		</g>
	</g>
</g>
<g id="BARVY_INFO">
</g>
</svg>
