<?xml version="1.0" encoding="utf-8"?>
<!-- Generator: Adobe Illustrator 28.3.0, SVG Export Plug-In . SVG Version: 6.00 Build 0)  -->
<svg version="1.1" xmlns="http://www.w3.org/2000/svg" xmlns:xlink="http://www.w3.org/1999/xlink" x="0px" y="0px"
	 viewBox="0 0 35 35" style="enable-background:new 0 0 35 35;" xml:space="preserve">
<style type="text/css">
	.st0{fill:none;}
	.st1{opacity:0.7;fill:#19120B;}
	.st2{fill:#FFFFFF;}
	.st3{fill:none;stroke:#FFFFFF;stroke-linecap:round;stroke-linejoin:round;stroke-miterlimit:10;}
	.st4{fill:#BA110F;}
	.st5{fill:none;stroke:#94160F;stroke-miterlimit:10;}
	.st6{opacity:0.35;}
	.st7{fill:#606060;}
	.st8{fill:#B29A8A;}
	.st9{fill:#94160F;}
	.st10{fill:none;stroke:#FFFFFF;stroke-width:2;stroke-linecap:round;stroke-linejoin:round;stroke-miterlimit:10;}
	.st11{fill:#8C1002;stroke:#FFFFFF;stroke-linecap:round;stroke-linejoin:round;stroke-miterlimit:10;}
	.st12{clip-path:url(#SVGID_00000098922074214014871080000008339336796162490243_);}
	.st13{clip-path:url(#SVGID_00000181064235997284679710000007418373704079021703_);}
	.st14{fill:none;stroke:#BA110F;stroke-miterlimit:10;}
	.st15{fill:#C4AF9B;}
	.st16{fill:url(#SVGID_00000152986286677434185460000007232828235354509442_);}
	.st17{fill:url(#SVGID_00000152244605365694689620000011290110327659177346_);}
	.st18{opacity:0.42;fill:url(#SVGID_00000087383578624784477200000002374597641426727610_);}
	.st19{fill:#FFFFFF;stroke:#D3D3D3;stroke-width:0.75;stroke-miterlimit:10;}
	.st20{fill:#605A56;}
	.st21{fill:none;stroke:#BA110F;stroke-width:1.5;stroke-miterlimit:10;}
	.st22{clip-path:url(#SVGID_00000031165045518148603400000010832847080460189579_);}
	.st23{fill:url(#SVGID_00000071531936930395284600000016299125336711318963_);}
	.st24{fill:url(#SVGID_00000005240441625490430210000001626287516260805780_);}
	.st25{fill:url(#SVGID_00000106857024274051841990000016964467823906575780_);}
	.st26{fill:url(#SVGID_00000095307232621872086260000005464850952137521305_);}
	.st27{fill:url(#SVGID_00000091010508822083277300000016891616578644162734_);}
	.st28{fill:none;stroke:#4E96DD;stroke-width:5;stroke-miterlimit:10;}
	.st29{fill:url(#SVGID_00000073002780478750856520000003668345168855979146_);}
</style>
<g id="Vrstva_1">
	<g>
		<g>
			<path class="st2" d="M17.5,2.9c-5.3,0-9.6,4.3-9.6,9.6c0,5.1,8.8,18.7,9.2,19.3c0.1,0.1,0.2,0.2,0.4,0.2s0.3-0.1,0.4-0.2
				c0.4-0.6,9.2-14.2,9.2-19.3C27.1,7.2,22.8,2.9,17.5,2.9z M17.5,30.6c-1.8-2.8-8.6-13.9-8.6-18.1c0-4.7,3.8-8.6,8.6-8.6
				s8.6,3.8,8.6,8.6C26.1,16.7,19.3,27.8,17.5,30.6z"/>
			<path class="st2" d="M17.5,7.4c-2.8,0-5.1,2.3-5.1,5.1s2.3,5.1,5.1,5.1s5.1-2.3,5.1-5.1S20.3,7.4,17.5,7.4z M17.5,16.6
				c-2.3,0-4.1-1.8-4.1-4.1c0-2.3,1.8-4.1,4.1-4.1s4.1,1.8,4.1,4.1C21.6,14.8,19.8,16.6,17.5,16.6z"/>
		</g>
		<rect class="st0" width="35" height="35"/>
	</g>
</g>
<g id="BARVY_INFO">
</g>
</svg>
