<?xml version="1.0" encoding="utf-8"?>
<!-- Generator: Adobe Illustrator 28.3.0, SVG Export Plug-In . SVG Version: 6.00 Build 0)  -->
<svg version="1.1" xmlns="http://www.w3.org/2000/svg" xmlns:xlink="http://www.w3.org/1999/xlink" x="0px" y="0px"
	 viewBox="0 0 136 111" style="enable-background:new 0 0 136 111;" xml:space="preserve">
<style type="text/css">
	.st0{fill:#BA110F;}
	.st1{opacity:0.7;fill:#19120B;}
	.st2{fill:#FFFFFF;}
	.st3{fill:none;stroke:#FFFFFF;stroke-linecap:round;stroke-linejoin:round;stroke-miterlimit:10;}
	.st4{fill:none;stroke:#94160F;stroke-miterlimit:10;}
	.st5{fill:#606060;}
	.st6{fill:#B29A8A;}
	.st7{fill:#94160F;}
	.st8{fill:none;stroke:#FFFFFF;stroke-width:2;stroke-linecap:round;stroke-linejoin:round;stroke-miterlimit:10;}
	.st9{fill:#8C1002;stroke:#FFFFFF;stroke-linecap:round;stroke-linejoin:round;stroke-miterlimit:10;}
	.st10{clip-path:url(#SVGID_00000108272711222926066580000005216573160632003457_);}
	.st11{clip-path:url(#SVGID_00000031187399848164449390000005821706485549463218_);}
	.st12{fill:none;stroke:#BA110F;stroke-miterlimit:10;}
	.st13{fill:#C4AF9B;}
	.st14{fill:url(#SVGID_00000117658804111694339620000014497948102538268093_);}
	.st15{fill:url(#SVGID_00000123436338201543439830000006644658929219712666_);}
	.st16{opacity:0.42;fill:url(#SVGID_00000144301858922936820550000006148431103684685449_);}
	.st17{fill:#FFFFFF;stroke:#D3D3D3;stroke-width:0.75;stroke-miterlimit:10;}
	.st18{fill:none;}
	.st19{fill:none;stroke:#BA110F;stroke-width:1.5;stroke-miterlimit:10;}
	.st20{clip-path:url(#SVGID_00000157307127211845150670000004196797902193676166_);}
	.st21{fill:#605A56;}
	.st22{fill:url(#SVGID_00000053510402368547161330000010238680189696161165_);}
	.st23{fill:url(#SVGID_00000119829670641839686560000004458149759438268600_);}
	.st24{fill:url(#SVGID_00000054953320292428004780000007970358940974726561_);}
	.st25{fill:url(#SVGID_00000148642396856600852980000003359498444267710884_);}
	.st26{fill:url(#SVGID_00000018216623066475630300000002361090112549342889_);}
	.st27{fill:#FCF2E1;}
	.st28{fill:none;stroke:#FFFFFF;stroke-miterlimit:10;}
	.st29{fill:none;stroke:#94160F;stroke-width:1.5;stroke-miterlimit:10;}
	.st30{display:none;}
	.st31{display:inline;fill:none;stroke:#4E96DD;stroke-width:5;stroke-miterlimit:10;}
	.st32{display:inline;}
	.st33{fill:none;stroke:#4E96DD;stroke-width:5;stroke-miterlimit:10;}
	.st34{display:inline;fill:#BA110F;}
	.st35{display:inline;fill:#B29A8A;}
	.st36{display:inline;fill:#605A56;}
	.st37{display:inline;fill:url(#SVGID_00000142861172509162483530000013052881876903540372_);}
</style>
<g id="Vrstva_1">
	<g>
		<rect class="st18" width="136" height="111"/>
		<g>
			<g>
				<path class="st2" d="M55.8,91c-0.7,0.2-1.4,0.3-2.2,0.3c0.7,0.3,1.4,0.6,2.2,0.7c0.7-0.2,1.5-0.4,2.2-0.7
					C57.3,91.2,56.5,91.1,55.8,91z"/>
				<path class="st2" d="M49.9,90.5c-5.1-2.3-8.6-9.3-8.6-18.3V51.3c-0.3,0.2-0.7,0.4-1,0.5v20.3c0,10.9,4.9,19,11.8,20
					C51.3,91.7,50.6,91.1,49.9,90.5z"/>
			</g>
			<g>
				<path class="st2" d="M65.8,74.9c-0.6,6.9-3.2,12.3-7.1,14.8c0.8-0.1,1.6-0.3,2.3-0.6c3.2-3.1,5.4-8.3,5.8-14.7L65.8,74.9z"/>
			</g>
			<path class="st2" d="M33.9,39.7c-0.3,0.3-0.6,0.6-0.8,0.9c-2.4,2.4-2.4,6.2,0,8.6c2.4,2.4,6.2,2.4,8.6,0c0.5-0.5,1.1-1.6,1.1-1.6
				c0.2-0.3,0.4-0.7,0.7-1.1L33.9,39.7z"/>
			<g>
				<path class="st2" d="M36.2,36.2c-0.4,0.9-0.9,1.6-1.4,2.3l9.5,6.8c0.5-0.7,1.2-1.4,1.9-2L36.2,36.2z"/>
				<path class="st2" d="M94.7,54.7c-2.4-15.9-9.2-28.7-18.6-35c-6.9-4.7-15.1-6-24.4-3.9c-5.5-6.1-11.2-2.7-11.2-2.7s3.1,4,4.5,5.8
					l-7.1,6.6c0.5,3.7,0,6.8-1.1,9.3l10.6,7.6c0.3-0.2,0.5-0.3,0.8-0.4c5.7-2.3,6.9-6.4,6.9-6.4c6.6,11-7.6,21.4,1.6,41.4L84.1,66
					L94.7,55L94.7,54.7z M45.7,34.2c-1.3,0.5-2.7-0.1-3.2-1.4c-0.5-1.3,0.1-2.7,1.4-3.2c1.3-0.5,2.7,0.1,3.2,1.4
					C47.6,32.2,47,33.6,45.7,34.2z M54.7,16.2c5.3-0.8,10.3-0.4,14.8,1.2l-3.3,3.4C62.9,18.7,59.1,17.1,54.7,16.2z M67,21.4l3.4-3.6
					l-0.1-0.1c1.8,0.7,3.5,1.6,5.1,2.7c0.2,0.1,0.4,0.3,0.6,0.4l-4.4,4.6C70.3,24,68.8,22.7,67,21.4z M72.4,26.3l4.6-4.8
					c1.6,1.2,3.1,2.7,4.5,4.3l-5.4,5.6C75,29.6,73.8,27.9,72.4,26.3z M76.7,32.3l5.5-5.7c1.3,1.6,2.5,3.3,3.7,5.2l-6.3,6.6
					C78.7,36.3,77.8,34.3,76.7,32.3z M79.9,39.4l6.4-6.7c1.1,1.9,2.1,3.8,2.9,6L82,46.3C81.4,44,80.8,41.6,79.9,39.4z M82.2,47.4
					l7.5-7.8c0.8,2.1,1.6,4.4,2.2,6.7l-8.5,8.9C83.2,52.7,82.8,50.1,82.2,47.4z M83.6,65.1c0.1-2.6,0.1-5.5-0.1-8.5l8.7-9.1
					c0.6,2.3,1.1,4.7,1.5,7.1L83.6,65.1z"/>
			</g>
			<g>
				<path class="st2" d="M81.9,90c-0.3-0.1-0.5-0.2-0.8-0.3l-5.6-18.6l-5.1,2C70,83.7,65,91.3,58.1,91.3c-7.1,0-12.3-8.1-12.3-19.1
					V45.8c-0.4,0.4-0.7,0.9-1,1.4v24.9c0,11.7,5.6,20.1,13.3,20.1c7.1,0,12.4-7.2,13.2-17.4l4.9,16.3c-0.2,0.2-0.3,0.5-0.5,0.7
					c-0.9,1.1-1,2.1-0.1,3.1c0.4,0.5,1,0.9,2,1.4c0.9,0.5,1.5,1.1,1.8,1.9c0.2,0.6,0.8,0.8,1.8,0.5c1-0.3,1.5-0.8,1.3-1.4
					c-0.2-0.7-0.1-1.6,0.4-2.5c0.5-0.9,0.8-1.7,0.8-2.3C83.9,91.2,83.3,90.4,81.9,90z"/>
			</g>
		</g>
	</g>
</g>
<g id="BARVY_INFO" class="st30">
</g>
</svg>
