<?xml version="1.0" encoding="utf-8"?>
<!-- Generator: Adobe Illustrator 28.3.0, SVG Export Plug-In . SVG Version: 6.00 Build 0)  -->
<svg version="1.1" xmlns="http://www.w3.org/2000/svg" xmlns:xlink="http://www.w3.org/1999/xlink" x="0px" y="0px"
	 viewBox="0 0 136 111" style="enable-background:new 0 0 136 111;" xml:space="preserve">
<style type="text/css">
	.st0{fill:#BA110F;}
	.st1{opacity:0.7;fill:#19120B;}
	.st2{fill:#FFFFFF;}
	.st3{fill:none;stroke:#FFFFFF;stroke-linecap:round;stroke-linejoin:round;stroke-miterlimit:10;}
	.st4{fill:none;stroke:#94160F;stroke-miterlimit:10;}
	.st5{fill:#606060;}
	.st6{fill:#B29A8A;}
	.st7{fill:#94160F;}
	.st8{fill:none;stroke:#FFFFFF;stroke-width:2;stroke-linecap:round;stroke-linejoin:round;stroke-miterlimit:10;}
	.st9{fill:#8C1002;stroke:#FFFFFF;stroke-linecap:round;stroke-linejoin:round;stroke-miterlimit:10;}
	.st10{clip-path:url(#SVGID_00000160871861814679543690000011343761957342519726_);}
	.st11{clip-path:url(#SVGID_00000120546529653528218030000010816193457720584885_);}
	.st12{fill:none;stroke:#BA110F;stroke-miterlimit:10;}
	.st13{fill:#C4AF9B;}
	.st14{fill:url(#SVGID_00000139988031127026871320000000381202250721124757_);}
	.st15{fill:url(#SVGID_00000168080985827356125650000008608828415144169858_);}
	.st16{opacity:0.42;fill:url(#SVGID_00000036961638044165568780000010729185369301068712_);}
	.st17{fill:#FFFFFF;stroke:#D3D3D3;stroke-width:0.75;stroke-miterlimit:10;}
	.st18{fill:none;}
	.st19{fill:none;stroke:#BA110F;stroke-width:1.5;stroke-miterlimit:10;}
	.st20{clip-path:url(#SVGID_00000101084997873147753330000016323331172056464516_);}
	.st21{fill:#605A56;}
	.st22{fill:url(#SVGID_00000070830245355340782660000012385876446967449743_);}
	.st23{fill:url(#SVGID_00000181080610263998444560000010989502135007666589_);}
	.st24{fill:url(#SVGID_00000135677263769257173320000014160947235139435442_);}
	.st25{fill:url(#SVGID_00000158744321528591367390000001238241166370362774_);}
	.st26{fill:url(#SVGID_00000183248568518366815050000006076884621872081545_);}
	.st27{fill:none;stroke:#FFFFFF;stroke-miterlimit:10;}
	.st28{fill:#FCF2E1;}
	.st29{fill:none;stroke:#94160F;stroke-width:1.5;stroke-miterlimit:10;}
	.st30{fill:none;stroke:#BA110F;stroke-linecap:round;stroke-linejoin:round;stroke-miterlimit:10;}
	.st31{fill:none;stroke:#FFFFFF;stroke-width:6;stroke-miterlimit:10;}
	.st32{opacity:0.25;fill:#FFFFFF;}
	.st33{opacity:0.25;}
	.st34{clip-path:url(#SVGID_00000078029859986459825290000001298382384808617396_);}
	.st35{opacity:0.36;}
	.st36{filter:url(#Adobe_OpacityMaskFilter);}
	.st37{mask:url(#SVGID_00000129885829609834656590000011718316582924996024_);}
	.st38{fill:#2A2B2E;}
	.st39{fill:url(#SVGID_00000137113425035656316030000005362081352818964655_);}
	.st40{fill:url(#SVGID_00000063602173508410153950000000581499569043493526_);}
	.st41{fill:#FFFFFF;stroke:#BA110F;stroke-width:2;stroke-miterlimit:10;}
	.st42{fill:#9B1010;}
	.st43{fill:url(#SVGID_00000011008298878376047930000018240889199079528579_);}
	.st44{display:none;}
	.st45{display:inline;fill:none;stroke:#4E96DD;stroke-width:5;stroke-miterlimit:10;}
	.st46{display:inline;}
	.st47{fill:none;stroke:#4E96DD;stroke-width:5;stroke-miterlimit:10;}
	.st48{display:inline;fill:#BA110F;}
	.st49{display:inline;fill:#B29A8A;}
	.st50{display:inline;fill:#605A56;}
	.st51{display:inline;fill:url(#SVGID_00000132804633606069326470000018354616877377004702_);}
</style>
<g id="Vrstva_1">
	<g>
		<rect class="st18" width="136" height="111"/>
		<g>
			<path class="st2" d="M84.5,29l8.9,8.9l8.6-17.5L84.5,29z M93.1,36.2l-3.4-3.4l10.1-10.1L93.1,36.2z"/>
			
				<rect x="72.5" y="31.8" transform="matrix(0.7071 -0.7071 0.7071 0.7071 -2.9488 64.6432)" class="st2" width="8.1" height="8.1"/>
			<g>
				
					<rect x="82.5" y="41.8" transform="matrix(0.7071 -0.7071 0.7071 0.7071 -7.0881 74.6345)" class="st2" width="8.1" height="8.1"/>
			</g>
			<path class="st2" d="M106.5,85.5c-0.5,0-1-0.2-1.4-0.7c-0.5-0.5-0.9-0.8-1.2-0.9c-0.2-0.1-0.5-0.1-0.7-0.1l0,0h-1.8V63.2
				c0-4.3-1.7-8.4-4.7-11.4l-4.1-4.1l-4.2,4.2l4.1,4.1c1.9,1.9,3,4.5,3,7.2v20.2c0,0.9,0.2,1.8,0.6,2.6H40.7v-2.2l48.2-48.2
				l-2.1-2.1L38.6,81.7h-2.2V26.4c0.8,0.4,1.7,0.6,2.7,0.6h20.2c2.7,0,5.3,1.1,7.2,3l4.1,4.1l4.2-4.2l-4.1-4.1
				c-3-3-7.1-4.7-11.4-4.7H38.7v-1.8l0,0c0-0.2,0-0.4-0.1-0.7c-0.1-0.3-0.4-0.8-0.9-1.2c-0.5-0.5-0.7-1-0.7-1.4c0-0.4-0.3-0.6-1-0.6
				c-0.7,0-1,0.2-1,0.6c0,0.5-0.2,1-0.7,1.4c-0.5,0.5-0.8,0.9-0.9,1.2c-0.1,0.3-0.1,0.5-0.1,0.7l0,0v1.7c0,1.9,0.9,3.6,2.3,4.7v55.9
				h-2.5L25,89.6h7.9v7.9l7.9-7.9V87h55.9c1.1,1.4,2.8,2.4,4.8,2.4h1.7l0,0c0.2,0,0.5,0,0.7-0.1c0.3-0.1,0.8-0.4,1.2-0.9
				c0.5-0.5,1-0.7,1.4-0.7c0.4,0,0.6-0.3,0.6-1C107.1,85.8,106.9,85.5,106.5,85.5z"/>
		</g>
	</g>
</g>
<g id="Vrstva_3" class="st44">
</g>
<g id="BARVY_INFO" class="st44">
</g>
</svg>
