<?xml version="1.0" encoding="utf-8"?>
<!-- Generator: Adobe Illustrator 28.3.0, SVG Export Plug-In . SVG Version: 6.00 Build 0)  -->
<svg version="1.1" xmlns="http://www.w3.org/2000/svg" xmlns:xlink="http://www.w3.org/1999/xlink" x="0px" y="0px"
	 viewBox="0 0 136 111" style="enable-background:new 0 0 136 111;" xml:space="preserve">
<style type="text/css">
	.st0{opacity:0.7;fill:#19120B;}
	.st1{fill:#FFFFFF;}
	.st2{fill:none;stroke:#FFFFFF;stroke-linecap:round;stroke-linejoin:round;stroke-miterlimit:10;}
	.st3{fill:#BA110F;}
	.st4{fill:none;stroke:#94160F;stroke-miterlimit:10;}
	.st5{fill:#606060;}
	.st6{fill:#B29A8A;}
	.st7{fill:#94160F;}
	.st8{fill:none;stroke:#FFFFFF;stroke-width:2;stroke-linecap:round;stroke-linejoin:round;stroke-miterlimit:10;}
	.st9{fill:#8C1002;stroke:#FFFFFF;stroke-linecap:round;stroke-linejoin:round;stroke-miterlimit:10;}
	.st10{clip-path:url(#SVGID_00000009567291871111979200000008975991617186382010_);}
	.st11{clip-path:url(#SVGID_00000128445311518160847550000015665577229510321325_);}
	.st12{fill:none;stroke:#BA110F;stroke-miterlimit:10;}
	.st13{fill:#C4AF9B;}
	.st14{fill:url(#SVGID_00000005955585011422035840000010184572100094526889_);}
	.st15{fill:url(#SVGID_00000141424709108849040920000014853948581291240090_);}
	.st16{opacity:0.42;fill:url(#SVGID_00000153671431775039031210000014502045583639640709_);}
	.st17{fill:#FFFFFF;stroke:#D3D3D3;stroke-width:0.75;stroke-miterlimit:10;}
	.st18{fill:#605A56;}
	.st19{fill:none;}
	.st20{fill:none;stroke:#BA110F;stroke-width:1.5;stroke-miterlimit:10;}
	.st21{clip-path:url(#SVGID_00000150792927192946876640000016389175569723090102_);}
	.st22{fill:url(#SVGID_00000040534792574999348010000010552368646027214997_);}
	.st23{fill:url(#SVGID_00000014625873017473444500000016184190663220752555_);}
	.st24{fill:url(#SVGID_00000133511559699162329040000017637763324360948887_);}
	.st25{fill:url(#SVGID_00000036222826830382410740000012730283597141995655_);}
	.st26{fill:url(#SVGID_00000127745990750873232340000012804699660675630268_);}
	.st27{fill:none;stroke:#4E96DD;stroke-width:5;stroke-miterlimit:10;}
	.st28{fill:url(#SVGID_00000133513809256392940910000009040547885013580981_);}
	.st29{fill:#FCF2E1;}
</style>
<g id="Vrstva_1">
	<g>
		<rect class="st19" width="136" height="111"/>
		<g>
			<g>
				<path class="st1" d="M37.7,90.5l10.9-10.9l-3.8-3.8L33.9,86.7c-0.2,0-0.3,0-0.5-0.1c-1.3-0.3-2.2,0.1-2.6,1.3
					c-0.2,0.5-0.3,1.3-0.3,2.3c0,1-0.3,1.8-0.8,2.3c-0.4,0.4-0.3,1,0.4,1.7c0.7,0.7,1.3,0.9,1.7,0.4c0.5-0.5,1.3-0.8,2.3-0.8
					c1,0,1.8-0.1,2.3-0.3c1.2-0.4,1.6-1.3,1.3-2.6C37.7,90.8,37.7,90.7,37.7,90.5z"/>
				<path class="st1" d="M107.9,16.9c-0.1-0.1-0.4-0.2-0.5-0.1c-9.5,3.6-18,9.1-25.2,16.3L46.6,68.8c-2.7-2.1-4.8-4.3-2.9-6.2
					l-0.7-0.7l-5.7,5.7l0.6,0.6c0,0,0.4-1.3,8.3,6.6l3.8,3.8c7.9,7.9,6.6,8.3,6.6,8.3l0.6,0.6l5.7-5.7l-0.7-0.7
					c-2,2-4.3-0.5-6.6-3.4l36.6-36.6c6.8-6.8,12.1-14.8,15.7-23.8C108.1,17.3,108.1,17.1,107.9,16.9z M91.6,40.5L55.1,77
					c-1.1-1.5-2.2-3.1-3.2-4v0l54.7-54.7C103.1,26.6,98,34.1,91.6,40.5z"/>
				<path class="st1" d="M106.3,92.5c-0.5-0.5-0.8-1.3-0.8-2.3c0-1-0.1-1.8-0.3-2.3c-0.4-1.2-1.3-1.6-2.6-1.3c-0.2,0-0.3,0-0.5,0.1
					L91.2,75.8l-3.8,3.8l10.9,10.9c0,0.2,0,0.3-0.1,0.5c-0.3,1.3,0.1,2.2,1.3,2.6c0.5,0.2,1.3,0.3,2.3,0.3c1,0,1.8,0.3,2.3,0.8
					c0.4,0.4,1,0.3,1.7-0.4S106.7,92.9,106.3,92.5z"/>
				<g>
					<path class="st1" d="M58.6,54.7L44.4,40.5C38,34.1,32.9,26.6,29.4,18.2L62.2,51l4.8-4.8L53.8,33.1
						c-7.2-7.2-15.7-12.7-25.2-16.3c-0.2-0.1-0.4,0-0.5,0.1c-0.1,0.1-0.2,0.4-0.1,0.5c3.6,8.9,8.9,16.9,15.7,23.8l14.1,14.1
						L58.6,54.7z"/>
					<path class="st1" d="M93.1,61.9l-0.7,0.7c1.9,1.9-0.3,4.1-2.9,6.2L78.2,57.5l-4.8,4.8L84.1,73v0c-1,1-2.1,2.5-3.2,4L69.8,65.9
						l-0.7,0.7l11.2,11.2c-2.2,2.9-4.6,5.4-6.6,3.4L73,81.9l5.7,5.7l0.6-0.6c0,0-1.3-0.4,6.6-8.3l3.8-3.8c7.9-7.9,8.3-6.6,8.3-6.6
						l0.6-0.6L93.1,61.9z"/>
				</g>
			</g>
		</g>
	</g>
</g>
<g id="BARVY_INFO">
</g>
</svg>
