<?xml version="1.0" encoding="utf-8"?>
<!-- Generator: Adobe Illustrator 28.3.0, SVG Export Plug-In . SVG Version: 6.00 Build 0)  -->
<svg version="1.1" xmlns="http://www.w3.org/2000/svg" xmlns:xlink="http://www.w3.org/1999/xlink" x="0px" y="0px"
	 viewBox="0 0 136 111" style="enable-background:new 0 0 136 111;" xml:space="preserve">
<style type="text/css">
	.st0{fill:#BA110F;}
	.st1{opacity:0.7;fill:#19120B;}
	.st2{fill:#FFFFFF;}
	.st3{fill:none;stroke:#FFFFFF;stroke-linecap:round;stroke-linejoin:round;stroke-miterlimit:10;}
	.st4{fill:none;stroke:#94160F;stroke-miterlimit:10;}
	.st5{fill:#606060;}
	.st6{fill:#B29A8A;}
	.st7{fill:#94160F;}
	.st8{fill:none;stroke:#FFFFFF;stroke-width:2;stroke-linecap:round;stroke-linejoin:round;stroke-miterlimit:10;}
	.st9{fill:#8C1002;stroke:#FFFFFF;stroke-linecap:round;stroke-linejoin:round;stroke-miterlimit:10;}
	.st10{clip-path:url(#SVGID_00000034780348277929443190000008453914937644744866_);}
	.st11{clip-path:url(#SVGID_00000152251305243990715420000000517181824356776845_);}
	.st12{fill:none;stroke:#BA110F;stroke-miterlimit:10;}
	.st13{fill:#C4AF9B;}
	.st14{fill:url(#SVGID_00000139972494265758112400000016724875085777314720_);}
	.st15{fill:url(#SVGID_00000165918359294584214860000015615572213049357223_);}
	.st16{opacity:0.42;fill:url(#SVGID_00000047754373457611464640000017822509410636597152_);}
	.st17{fill:#FFFFFF;stroke:#D3D3D3;stroke-width:0.75;stroke-miterlimit:10;}
	.st18{fill:none;}
	.st19{fill:none;stroke:#BA110F;stroke-width:1.5;stroke-miterlimit:10;}
	.st20{clip-path:url(#SVGID_00000062872734971572849340000004816226635793705396_);}
	.st21{fill:#605A56;}
	.st22{fill:url(#SVGID_00000096059222080782049860000012091299853686592672_);}
	.st23{fill:url(#SVGID_00000065065576417618463500000007705767455333580172_);}
	.st24{fill:url(#SVGID_00000173150692142079862950000004055380378625513389_);}
	.st25{fill:url(#SVGID_00000074414149380037326610000000338762492429759129_);}
	.st26{fill:url(#SVGID_00000098210539524301645140000001367185267855770040_);}
	.st27{fill:none;stroke:#FFFFFF;stroke-miterlimit:10;}
	.st28{fill:#FCF2E1;}
	.st29{fill:none;stroke:#94160F;stroke-width:1.5;stroke-miterlimit:10;}
	.st30{fill:none;stroke:#BA110F;stroke-linecap:round;stroke-linejoin:round;stroke-miterlimit:10;}
	.st31{fill:none;stroke:#FFFFFF;stroke-width:6;stroke-miterlimit:10;}
	.st32{opacity:0.25;fill:#FFFFFF;}
	.st33{opacity:0.25;}
	.st34{clip-path:url(#SVGID_00000137108444472994813610000004982866638982311091_);}
	.st35{opacity:0.36;}
	.st36{filter:url(#Adobe_OpacityMaskFilter);}
	.st37{mask:url(#SVGID_00000167354528469901186370000009462506319442511250_);}
	.st38{fill:#2A2B2E;}
	.st39{fill:url(#SVGID_00000057848257892786241620000018038845608321000636_);}
	.st40{fill:url(#SVGID_00000152943279835116981710000009808393465802008713_);}
	.st41{fill:#FFFFFF;stroke:#BA110F;stroke-width:2;stroke-miterlimit:10;}
	.st42{fill:#9B1010;}
	.st43{fill:url(#SVGID_00000165216301828369497690000007456459356928957344_);}
	.st44{display:none;}
	.st45{display:inline;fill:none;stroke:#4E96DD;stroke-width:5;stroke-miterlimit:10;}
	.st46{display:inline;}
	.st47{fill:none;stroke:#4E96DD;stroke-width:5;stroke-miterlimit:10;}
	.st48{display:inline;fill:#BA110F;}
	.st49{display:inline;fill:#B29A8A;}
	.st50{display:inline;fill:#605A56;}
	.st51{display:inline;fill:url(#SVGID_00000058578737058017578510000016574765292966218144_);}
</style>
<g id="Vrstva_1">
	<g>
		<rect class="st18" width="136" height="111"/>
		<g>
			<path class="st2" d="M97.6,42c-0.2,0-0.4-0.2-0.5-0.4c-1.2-4.8-4.9-8.5-9.7-9.7c-0.2-0.1-0.4-0.3-0.4-0.5s0.2-0.4,0.4-0.5
				c4.8-1.2,8.5-4.9,9.7-9.7c0.1-0.2,0.3-0.4,0.5-0.4l0,0c0.2,0,0.4,0.2,0.5,0.4c1.2,4.8,4.9,8.5,9.7,9.7c0.2,0.1,0.4,0.3,0.4,0.5
				s-0.2,0.4-0.4,0.5c-4.8,1.2-8.5,4.9-9.7,9.7C98,41.8,97.8,42,97.6,42z M89.2,31.4c3.9,1.5,6.9,4.5,8.4,8.4
				c1.5-3.9,4.5-6.9,8.4-8.4c-3.9-1.5-6.9-4.5-8.4-8.4C96.1,26.9,93,30,89.2,31.4z"/>
			<path class="st2" d="M28,59.7c-0.2,0-0.4-0.2-0.5-0.4c-0.6-2.3-2.4-4.1-4.7-4.7c-0.2-0.1-0.4-0.3-0.4-0.5s0.2-0.4,0.4-0.5
				c2.3-0.6,4.1-2.4,4.7-4.7c0.1-0.4,0.9-0.4,1,0c0.6,2.3,2.4,4.1,4.7,4.7c0.2,0.1,0.4,0.3,0.4,0.5s-0.2,0.4-0.4,0.5
				c-2.3,0.6-4.1,2.4-4.7,4.7C28.5,59.5,28.3,59.7,28,59.7z M24.5,54.1c1.6,0.7,2.8,2,3.6,3.6c0.7-1.6,2-2.8,3.6-3.6
				c-1.6-0.7-2.8-2-3.6-3.6C27.3,52.1,26.1,53.4,24.5,54.1z"/>
			<path class="st2" d="M79.8,19.2c-0.2,0-0.4-0.2-0.5-0.4c-0.6-2.3-2.4-4.1-4.7-4.7c-0.2-0.1-0.4-0.3-0.4-0.5s0.2-0.4,0.4-0.5
				c2.3-0.6,4.1-2.4,4.7-4.7c0.1-0.4,0.9-0.4,1,0c0.6,2.3,2.4,4.1,4.7,4.7c0.2,0.1,0.4,0.3,0.4,0.5s-0.2,0.4-0.4,0.5
				c-2.3,0.6-4.1,2.4-4.7,4.7C80.3,19.1,80.1,19.2,79.8,19.2z M76.3,13.7c1.6,0.7,2.8,2,3.6,3.6c0.7-1.6,2-2.8,3.6-3.6
				c-1.6-0.7-2.8-2-3.6-3.6C79.1,11.7,77.9,13,76.3,13.7z"/>
			<g>
				<rect x="37.4" y="79.9" class="st2" width="42" height="7.1"/>
				<rect x="40.7" y="71.4" class="st2" width="42" height="7.1"/>
				<rect x="40.7" y="88.5" class="st2" width="42" height="7.1"/>
				<rect x="37.9" y="62.8" class="st2" width="42" height="7.1"/>
			</g>
			<path class="st2" d="M60.4,20c-11.6,0-21,9.4-21,21c0,11.6,9.4,21,21,21c11.6,0,21-9.4,21-21C81.4,29.4,72,20,60.4,20z
				 M60.4,56.5c-8.5,0-15.5-6.9-15.5-15.5c0-8.5,6.9-15.5,15.5-15.5c8.5,0,15.5,6.9,15.5,15.5C75.9,49.5,68.9,56.5,60.4,56.5z"/>
			
				<rect x="74.3" y="71.9" transform="matrix(0.6094 0.7928 -0.7928 0.6094 97.6646 -45.7647)" class="st2" width="42" height="8.8"/>
			
				<rect x="112.5" y="59.7" transform="matrix(0.5732 -0.8194 0.8194 0.5732 -16.5362 129.5237)" class="st2" width="7.1" height="42"/>
			<path class="st2" d="M69.1,35.6c-0.1,0.5-0.3,0.9-0.9,1.4c-0.5,0.4-0.9,0.8-1.1,1.1c-0.5,0.8-0.3,1.5,0.6,2.1c0,0,0,0,0,0.1
				l-1.6,2.4c-0.3,0.5-0.8,0.7-1.4,0.7h0c-0.8,0-1.4-0.5-1.6-1.2l-1.4-5.1c0,0,0,0,0-0.1c0.7-0.4,0.9-0.9,0.6-1.5
				c-0.1-0.3-0.3-0.6-0.7-1c-0.4-0.4-0.6-0.7-0.6-1.1c0-0.3-0.3-0.5-0.8-0.5c-0.5,0-0.8,0.2-0.8,0.5c0,0.4-0.2,0.7-0.6,1.1
				c-0.4,0.4-0.6,0.7-0.7,1C58,36,58.2,36.5,59,36.9c0,0,0,0,0,0.1L57.6,42c-0.2,0.7-0.9,1.2-1.6,1.2l0,0c-0.6,0-1.1-0.3-1.4-0.7
				l-1.6-2.4c0,0,0-0.1,0-0.1c0.9-0.6,1.1-1.3,0.6-2.1c-0.2-0.3-0.5-0.7-1.1-1.1c-0.5-0.4-0.8-0.9-0.9-1.4c0-0.4-0.4-0.6-1.1-0.5
				l2.3,14.2h15l2.3-14.2C69.5,35,69.1,35.2,69.1,35.6z"/>
		</g>
	</g>
</g>
<g id="Vrstva_3" class="st44">
</g>
<g id="BARVY_INFO" class="st44">
</g>
</svg>
