<?xml version="1.0" encoding="utf-8"?>
<!-- Generator: Adobe Illustrator 28.3.0, SVG Export Plug-In . SVG Version: 6.00 Build 0)  -->
<svg version="1.1" xmlns="http://www.w3.org/2000/svg" xmlns:xlink="http://www.w3.org/1999/xlink" x="0px" y="0px"
	 viewBox="0 0 35 35" style="enable-background:new 0 0 35 35;" xml:space="preserve">
<style type="text/css">
	.st0{fill:none;}
	.st1{opacity:0.7;fill:#19120B;}
	.st2{fill:#FFFFFF;}
	.st3{fill:none;stroke:#FFFFFF;stroke-linecap:round;stroke-linejoin:round;stroke-miterlimit:10;}
	.st4{fill:#BA110F;}
	.st5{fill:none;stroke:#94160F;stroke-miterlimit:10;}
	.st6{opacity:0.35;}
	.st7{fill:#606060;}
	.st8{fill:#B29A8A;}
	.st9{fill:#94160F;}
	.st10{fill:none;stroke:#FFFFFF;stroke-width:2;stroke-linecap:round;stroke-linejoin:round;stroke-miterlimit:10;}
	.st11{fill:#8C1002;stroke:#FFFFFF;stroke-linecap:round;stroke-linejoin:round;stroke-miterlimit:10;}
	.st12{clip-path:url(#SVGID_00000107546439860307569410000016938790296349738636_);}
	.st13{clip-path:url(#SVGID_00000182487824374928640290000002959904010116917126_);}
	.st14{fill:none;stroke:#BA110F;stroke-miterlimit:10;}
	.st15{fill:#C4AF9B;}
	.st16{fill:url(#SVGID_00000014616423557648167550000003621370642234224294_);}
	.st17{fill:url(#SVGID_00000085218984357758953460000014192852108416852901_);}
	.st18{opacity:0.42;fill:url(#SVGID_00000164482829828095466080000006351672966426459818_);}
	.st19{fill:#FFFFFF;stroke:#D3D3D3;stroke-width:0.75;stroke-miterlimit:10;}
	.st20{fill:#605A56;}
	.st21{fill:none;stroke:#BA110F;stroke-width:1.5;stroke-miterlimit:10;}
	.st22{clip-path:url(#SVGID_00000101103515631790768370000007539051349036306598_);}
	.st23{fill:url(#SVGID_00000163758005653006084650000015687383871884475795_);}
	.st24{fill:url(#SVGID_00000134948531770324075040000002131623938426278286_);}
	.st25{fill:url(#SVGID_00000088099022584269995640000007580601086165348769_);}
	.st26{fill:url(#SVGID_00000031907835998015757770000013840887855233417625_);}
	.st27{fill:url(#SVGID_00000087389466604288949720000017104838770189927075_);}
	.st28{fill:none;stroke:#4E96DD;stroke-width:5;stroke-miterlimit:10;}
	.st29{fill:url(#SVGID_00000088128809717586886630000005495470777405660596_);}
</style>
<g id="Vrstva_1">
	<g>
		<path class="st2" d="M18.7,28.3c-0.1,0-0.2,0-0.3-0.1c-0.1-0.1-0.2-0.2-0.2-0.4v-6.9c0-0.3,0.2-0.5,0.5-0.5h1.6l0.6-1.8h-2.2
			c-0.3,0-0.5-0.2-0.5-0.5v-0.2c0-3.2,0.5-3.6,2.9-3.7v-1.6c-4.3,0.1-4.7,1.1-4.7,5.3V18c0,0.3-0.2,0.5-0.5,0.5h-2v1.8h2
			c0.3,0,0.5,0.2,0.5,0.5v6.9c0,0.1-0.1,0.3-0.2,0.4c-0.1,0.1-0.3,0.1-0.4,0.1c-5.3-0.8-9.1-5.3-9.1-10.7c0-6,4.9-10.8,10.8-10.8
			s10.8,4.9,10.8,10.8C28.3,23,24.2,27.6,18.7,28.3C18.8,28.3,18.7,28.3,18.7,28.3z M19.2,21.3v5.9c4.7-0.8,8.1-4.9,8.1-9.7
			c0-5.4-4.4-9.8-9.8-9.8s-9.8,4.4-9.8,9.8c0,4.7,3.2,8.6,7.7,9.6v-5.8h-2c-0.3,0-0.5-0.2-0.5-0.5V18c0-0.3,0.2-0.5,0.5-0.5h2
			c0-4.6,0.9-6,6.2-6c0.3,0,0.5,0.2,0.5,0.5v2.6c0,0.3-0.2,0.5-0.5,0.5c-2.3,0-2.4,0-2.4,2.4h2.4c0.2,0,0.3,0.1,0.4,0.2
			c0.1,0.1,0.1,0.3,0.1,0.5L21.2,21c-0.1,0.2-0.3,0.3-0.5,0.3H19.2z"/>
		<rect class="st0" width="35" height="35"/>
	</g>
</g>
<g id="BARVY_INFO">
</g>
</svg>
