<?xml version="1.0" encoding="utf-8"?>
<!-- Generator: Adobe Illustrator 28.3.0, SVG Export Plug-In . SVG Version: 6.00 Build 0)  -->
<svg version="1.1" xmlns="http://www.w3.org/2000/svg" xmlns:xlink="http://www.w3.org/1999/xlink" x="0px" y="0px"
	 viewBox="0 0 35 35" style="enable-background:new 0 0 35 35;" xml:space="preserve">
<style type="text/css">
	.st0{fill:none;}
	.st1{opacity:0.7;fill:#19120B;}
	.st2{fill:#FFFFFF;}
	.st3{fill:none;stroke:#FFFFFF;stroke-linecap:round;stroke-linejoin:round;stroke-miterlimit:10;}
	.st4{fill:#BA110F;}
	.st5{fill:none;stroke:#94160F;stroke-miterlimit:10;}
	.st6{opacity:0.35;}
	.st7{fill:#606060;}
	.st8{fill:#B29A8A;}
	.st9{fill:#94160F;}
	.st10{fill:none;stroke:#FFFFFF;stroke-width:2;stroke-linecap:round;stroke-linejoin:round;stroke-miterlimit:10;}
	.st11{fill:#8C1002;stroke:#FFFFFF;stroke-linecap:round;stroke-linejoin:round;stroke-miterlimit:10;}
	.st12{clip-path:url(#SVGID_00000044159990796056478690000000630329308032330151_);}
	.st13{clip-path:url(#SVGID_00000158745237030132076410000015028328625829790630_);}
	.st14{fill:none;stroke:#BA110F;stroke-miterlimit:10;}
	.st15{fill:#C4AF9B;}
	.st16{fill:url(#SVGID_00000087407958882869233380000008603912661183707065_);}
	.st17{fill:url(#SVGID_00000083773724889948193560000015345797143689347723_);}
	.st18{opacity:0.42;fill:url(#SVGID_00000052096292471948379140000009040617270411647619_);}
	.st19{fill:#FFFFFF;stroke:#D3D3D3;stroke-width:0.75;stroke-miterlimit:10;}
	.st20{fill:#605A56;}
	.st21{fill:none;stroke:#BA110F;stroke-width:1.5;stroke-miterlimit:10;}
	.st22{clip-path:url(#SVGID_00000096757539423182976300000007262320410038446477_);}
	.st23{fill:url(#SVGID_00000018216445420461420010000014371873608919838348_);}
	.st24{fill:url(#SVGID_00000160154988725111080050000016091279727911825294_);}
	.st25{fill:url(#SVGID_00000101081546270923438040000011524069176084971945_);}
	.st26{fill:url(#SVGID_00000088096469205024093080000015818840929984042674_);}
	.st27{fill:url(#SVGID_00000178195978168877319910000009712966166707038100_);}
	.st28{fill:none;stroke:#4E96DD;stroke-width:5;stroke-miterlimit:10;}
	.st29{fill:url(#SVGID_00000106139156677788438910000008773396552571809464_);}
</style>
<g id="Vrstva_1">
	<g>
		<path class="st2" d="M30.3,5.7c-0.1-0.1-0.3-0.1-0.5,0l-8.1,4.2l-8.1-4.2c0,0-0.1,0-0.1,0c0,0-0.1,0-0.1,0c0,0-0.1,0-0.1,0
			c0,0-0.1,0-0.1,0L4.7,9.9c-0.2,0.1-0.3,0.3-0.3,0.4v18.5c0,0.2,0.1,0.3,0.2,0.4c0.1,0,0.2,0.1,0.3,0.1c0.1,0,0.2,0,0.2-0.1
			l8.1-4.2l8.1,4.2c0.1,0,0.2,0.1,0.2,0.1s0.2,0,0.2-0.1l8.4-4.3c0.2-0.1,0.3-0.3,0.3-0.4V6.1C30.6,5.9,30.5,5.8,30.3,5.7z
			 M5.4,10.7l7.4-3.8v17.4l-7.4,3.8V10.7z M13.8,6.9l7.4,3.8v17.4l-7.4-3.8V6.9z M29.6,24.3l-7.4,3.8V10.7l7.4-3.8V24.3z"/>
		<rect class="st0" width="35" height="35"/>
	</g>
</g>
<g id="BARVY_INFO">
</g>
</svg>
