<?xml version="1.0" encoding="utf-8"?>
<!-- Generator: Adobe Illustrator 28.3.0, SVG Export Plug-In . SVG Version: 6.00 Build 0)  -->
<svg version="1.1" xmlns="http://www.w3.org/2000/svg" xmlns:xlink="http://www.w3.org/1999/xlink" x="0px" y="0px"
	 viewBox="0 0 35 35" style="enable-background:new 0 0 35 35;" xml:space="preserve">
<style type="text/css">
	.st0{fill:none;}
	.st1{opacity:0.7;fill:#19120B;}
	.st2{fill:#FFFFFF;}
	.st3{fill:none;stroke:#FFFFFF;stroke-linecap:round;stroke-linejoin:round;stroke-miterlimit:10;}
	.st4{fill:#BA110F;}
	.st5{fill:none;stroke:#94160F;stroke-miterlimit:10;}
	.st6{opacity:0.35;}
	.st7{fill:#606060;}
	.st8{fill:#B29A8A;}
	.st9{fill:#94160F;}
	.st10{fill:none;stroke:#FFFFFF;stroke-width:2;stroke-linecap:round;stroke-linejoin:round;stroke-miterlimit:10;}
	.st11{fill:#8C1002;stroke:#FFFFFF;stroke-linecap:round;stroke-linejoin:round;stroke-miterlimit:10;}
	.st12{clip-path:url(#SVGID_00000121972411433856151130000001765315714192854435_);}
	.st13{clip-path:url(#SVGID_00000069361294303418715700000007485970087432144551_);}
	.st14{fill:none;stroke:#BA110F;stroke-miterlimit:10;}
	.st15{fill:#C4AF9B;}
	.st16{fill:url(#SVGID_00000013890616395488770350000004939763152921366939_);}
	.st17{fill:url(#SVGID_00000168088971098456314830000012803018429923752619_);}
	.st18{opacity:0.42;fill:url(#SVGID_00000111894742615323794250000001050177959037275539_);}
	.st19{fill:#FFFFFF;stroke:#D3D3D3;stroke-width:0.75;stroke-miterlimit:10;}
	.st20{fill:#605A56;}
	.st21{fill:none;stroke:#BA110F;stroke-width:1.5;stroke-miterlimit:10;}
	.st22{clip-path:url(#SVGID_00000134935599948641939670000018033571058458247310_);}
	.st23{fill:url(#SVGID_00000154403937683645064580000013635707696647107994_);}
	.st24{fill:url(#SVGID_00000153694098924210060260000001920222411101991572_);}
	.st25{fill:url(#SVGID_00000048474095495136396000000012349652750553694902_);}
	.st26{fill:url(#SVGID_00000112601252140544306840000010809611683798990506_);}
	.st27{fill:url(#SVGID_00000024721065155915163220000013015054760005939624_);}
	.st28{fill:none;stroke:#4E96DD;stroke-width:5;stroke-miterlimit:10;}
	.st29{fill:url(#SVGID_00000093152340224061676150000006903589010576085424_);}
</style>
<g id="Vrstva_1">
	<g>
		<g>
			<path class="st2" d="M28.8,8.8h-3.3V6.9c0-0.3-0.2-0.5-0.5-0.5s-0.5,0.2-0.5,0.5v1.9h-4V6.9c0-0.3-0.2-0.5-0.5-0.5
				s-0.5,0.2-0.5,0.5v1.9h-4V6.9c0-0.3-0.2-0.5-0.5-0.5s-0.5,0.2-0.5,0.5v1.9h-4V6.9c0-0.3-0.2-0.5-0.5-0.5S9.5,6.7,9.5,6.9v1.9H6.2
				C6,8.8,5.7,9.1,5.7,9.3v18.7c0,0.3,0.2,0.5,0.5,0.5h22.5c0.3,0,0.5-0.2,0.5-0.5V9.3C29.3,9.1,29,8.8,28.8,8.8z M6.7,9.8h2.8v1.9
				c0,0.3,0.2,0.5,0.5,0.5s0.5-0.2,0.5-0.5V9.8h4v1.9c0,0.3,0.2,0.5,0.5,0.5s0.5-0.2,0.5-0.5V9.8h4v1.9c0,0.3,0.2,0.5,0.5,0.5
				s0.5-0.2,0.5-0.5V9.8h4v1.9c0,0.3,0.2,0.5,0.5,0.5s0.5-0.2,0.5-0.5V9.8h2.8v3.8H6.7V9.8z M28.3,27.6H6.7V14.7h21.5V27.6z"/>
			<path class="st2" d="M15.2,24.6c0.1,0.1,0.2,0.1,0.4,0.1s0.3,0,0.4-0.1l7.5-7.5c0.2-0.2,0.2-0.5,0-0.7s-0.5-0.2-0.7,0l-7.1,7.1
				l-2.7-2.7c-0.2-0.2-0.5-0.2-0.7,0s-0.2,0.5,0,0.7L15.2,24.6z"/>
		</g>
		<rect class="st0" width="35" height="35"/>
	</g>
</g>
<g id="BARVY_INFO">
</g>
</svg>
