<?xml version="1.0" encoding="utf-8"?>
<!-- Generator: Adobe Illustrator 28.3.0, SVG Export Plug-In . SVG Version: 6.00 Build 0)  -->
<svg version="1.1" xmlns="http://www.w3.org/2000/svg" xmlns:xlink="http://www.w3.org/1999/xlink" x="0px" y="0px"
	 viewBox="0 0 136 111" style="enable-background:new 0 0 136 111;" xml:space="preserve">
<style type="text/css">
	.st0{opacity:0.7;fill:#19120B;}
	.st1{fill:#FFFFFF;}
	.st2{fill:none;stroke:#FFFFFF;stroke-linecap:round;stroke-linejoin:round;stroke-miterlimit:10;}
	.st3{fill:#BA110F;}
	.st4{fill:none;stroke:#94160F;stroke-miterlimit:10;}
	.st5{fill:#606060;}
	.st6{fill:#B29A8A;}
	.st7{fill:#94160F;}
	.st8{fill:none;stroke:#FFFFFF;stroke-width:2;stroke-linecap:round;stroke-linejoin:round;stroke-miterlimit:10;}
	.st9{fill:#8C1002;stroke:#FFFFFF;stroke-linecap:round;stroke-linejoin:round;stroke-miterlimit:10;}
	.st10{clip-path:url(#SVGID_00000129918880260781360100000006827969072313418908_);}
	.st11{clip-path:url(#SVGID_00000181775064771581291980000012272752979859859370_);}
	.st12{fill:none;stroke:#BA110F;stroke-miterlimit:10;}
	.st13{fill:#C4AF9B;}
	.st14{fill:url(#SVGID_00000023989256612165170490000001889118198349230779_);}
	.st15{fill:url(#SVGID_00000062894338236052797640000001423756885665915524_);}
	.st16{opacity:0.42;fill:url(#SVGID_00000035528238962669098900000006145141703514507690_);}
	.st17{fill:#FFFFFF;stroke:#D3D3D3;stroke-width:0.75;stroke-miterlimit:10;}
	.st18{fill:#605A56;}
	.st19{fill:none;}
	.st20{fill:none;stroke:#BA110F;stroke-width:1.5;stroke-miterlimit:10;}
	.st21{clip-path:url(#SVGID_00000023261936479118219250000014483513538465885853_);}
	.st22{fill:url(#SVGID_00000163065809135307566450000004320702753906936740_);}
	.st23{fill:url(#SVGID_00000066490551411863058970000013592620704563908492_);}
	.st24{fill:url(#SVGID_00000150060059496427453670000017661892005647803037_);}
	.st25{fill:url(#SVGID_00000163035595492945507630000018225867378106883745_);}
	.st26{fill:url(#SVGID_00000109722052179992887060000003500713307627147428_);}
	.st27{fill:none;stroke:#4E96DD;stroke-width:5;stroke-miterlimit:10;}
	.st28{fill:url(#SVGID_00000083047377475304703560000010778702774725779859_);}
	.st29{fill:#FCF2E1;}
</style>
<g id="Vrstva_1">
	<g>
		<rect x="0" class="st19" width="136" height="111"/>
		<g>
			<g>
				<path class="st1" d="M48.8,48.1c-0.1,0-0.2,0-0.3-0.1c-2.9-2-7.6-3.8-13.2-1.3c-0.2,0.1-0.3,0.2-0.4,0.2
					c-0.3,0.1-0.5-0.1-0.6-0.4c-0.1-0.3,0.1-0.5,0.4-0.6c0,0,0.1-0.1,0.2-0.1c6-2.8,11-0.8,14.2,1.3c0.2,0.2,0.3,0.5,0.1,0.7
					C49.1,48,49,48.1,48.8,48.1z"/>
				<path class="st1" d="M47.6,42.5c-0.2,0-0.4-0.1-0.5-0.3c-0.8-1.8-2.5-2.7-5-2.7c-0.1,0-0.2,0-0.3,0c-0.3,0-0.5-0.3-0.4-0.6
					c0-0.3,0.3-0.5,0.6-0.4l0.1,0c3.7,0,5.3,1.8,5.9,3.3c0.1,0.3,0,0.5-0.3,0.7C47.8,42.5,47.7,42.5,47.6,42.5z"/>
				<path class="st1" d="M83.5,48.6c-0.2,0-0.3-0.1-0.4-0.2c-0.1-0.2-0.1-0.5,0.2-0.7c3.2-1.9,6.5-2.1,9.8-0.6
					c0.3,0.1,0.4,0.4,0.3,0.7c-0.1,0.3-0.4,0.4-0.7,0.3c-3-1.3-6-1.1-8.9,0.6C83.7,48.6,83.6,48.6,83.5,48.6z"/>
				
					<rect x="70.3" y="24.6" transform="matrix(0.898 -0.4399 0.4399 0.898 -3.3311 42.7523)" class="st1" width="40.4" height="7.9"/>
				<path class="st1" d="M44.7,74.6c-10.8-0.9-18.3-5.8-21.1-11.5h21.1v-4.8H21.3c0,0.4,0,0.7,0.1,1.1c0,0.1,0,0.2,0,0.2
					c0.1,0.7,0.3,1.5,0.5,2.2c0,0.1,0,0.1,0,0.2c2.2,6.6,10.4,12.7,22.7,13.6V74.6z"/>
				<g>
					
						<rect x="53.7" y="41.7" transform="matrix(0.898 -0.4399 0.4399 0.898 -14.4469 29.0984)" class="st1" width="3.6" height="7.9"/>
					<path class="st1" d="M89.5,72.3C92.4,64.3,99.7,59,111,59v-4.3H66.9l9.9-4.9L65.3,26.4l-12.5,6.1l10.8,22.1h-15v3.6h-2.4v4.8h0
						v11.6c0,0,0,0,0,0v1c0.6,0,1.2,0.1,1.9,0.1c3.6,0,5.9,1.6,7.1,3.7c0.1,0.2,0.2,0.4,0.3,0.6c1.1,2.4,0.2,5-1.5,7.1
						c-1.2,1.5-2.8,2.5-4.7,3.8v3.7h-6.2c-0.3,0-0.5,0.2-0.5,0.5s0.2,0.5,0.5,0.5h57.9c0.3,0,0.5-0.2,0.5-0.5s-0.2-0.5-0.5-0.5h-6.2
						v-3.7l0,0c-2.5-2-4.5-4.6-5.5-7.6c-1.2-3.5-1.2-7.3,0.1-10.9C89.4,72.3,89.5,72.3,89.5,72.3z M63.1,94.6c0.8-4,4.2-7,8.4-7
						c4.2,0,7.7,3,8.4,7H63.1z"/>
				</g>
			</g>
		</g>
	</g>
</g>
<g id="BARVY_INFO">
</g>
</svg>
