<?xml version="1.0" encoding="utf-8"?>
<!-- Generator: Adobe Illustrator 28.3.0, SVG Export Plug-In . SVG Version: 6.00 Build 0)  -->
<svg version="1.1" xmlns="http://www.w3.org/2000/svg" xmlns:xlink="http://www.w3.org/1999/xlink" x="0px" y="0px"
	 viewBox="0 0 136 111" style="enable-background:new 0 0 136 111;" xml:space="preserve">
<style type="text/css">
	.st0{opacity:0.7;fill:#19120B;}
	.st1{fill:#FFFFFF;}
	.st2{fill:none;stroke:#FFFFFF;stroke-linecap:round;stroke-linejoin:round;stroke-miterlimit:10;}
	.st3{fill:#BA110F;}
	.st4{fill:none;stroke:#94160F;stroke-miterlimit:10;}
	.st5{fill:#606060;}
	.st6{fill:#B29A8A;}
	.st7{fill:#94160F;}
	.st8{fill:none;stroke:#FFFFFF;stroke-width:2;stroke-linecap:round;stroke-linejoin:round;stroke-miterlimit:10;}
	.st9{fill:#8C1002;stroke:#FFFFFF;stroke-linecap:round;stroke-linejoin:round;stroke-miterlimit:10;}
	.st10{clip-path:url(#SVGID_00000054266553014447309850000014355466602040738707_);}
	.st11{clip-path:url(#SVGID_00000053513806015894701590000009913334510529671350_);}
	.st12{fill:none;stroke:#BA110F;stroke-miterlimit:10;}
	.st13{fill:#C4AF9B;}
	.st14{fill:url(#SVGID_00000124844454576884300660000015520021735498113969_);}
	.st15{fill:url(#SVGID_00000049918870198829173600000011677210466904608703_);}
	.st16{opacity:0.42;fill:url(#SVGID_00000027602579782368998560000008948249155654401921_);}
	.st17{fill:#FFFFFF;stroke:#D3D3D3;stroke-width:0.75;stroke-miterlimit:10;}
	.st18{fill:#605A56;}
	.st19{fill:none;}
	.st20{fill:none;stroke:#BA110F;stroke-width:1.5;stroke-miterlimit:10;}
	.st21{clip-path:url(#SVGID_00000117671921700183490370000004253429995127162290_);}
	.st22{fill:url(#SVGID_00000136393498801844801510000005782814484030527631_);}
	.st23{fill:url(#SVGID_00000070828033023110018050000015436284711290299300_);}
	.st24{fill:url(#SVGID_00000119818273040706840710000014790981057706611861_);}
	.st25{fill:url(#SVGID_00000025423245761262625880000004870503388095130752_);}
	.st26{fill:url(#SVGID_00000109740752312359450930000001402685084646351025_);}
	.st27{fill:none;stroke:#4E96DD;stroke-width:5;stroke-miterlimit:10;}
	.st28{fill:url(#SVGID_00000048468733023041150470000015081326831465047223_);}
	.st29{fill:#FCF2E1;}
</style>
<g id="Vrstva_1">
	<g>
		<rect x="0" class="st19" width="136" height="111"/>
		<g>
			<path class="st1" d="M113.7,94.6h-3.4L93.1,65.4c-0.8-0.4-4.9-2.8-12.5-10.8c-4.3-4.2-8.3-8.8-11.8-13.7c0-0.3-0.1-0.9-0.1-1.6
				h11.8v-7.9h2.1c0.3,0,0.5-0.2,0.5-0.5s-0.2-0.5-0.5-0.5h-14c0-0.9,0.1-1.5,0.2-1.5c0,0,0,0,0,0c0.3-0.2,0.6-0.5,0.9-0.7
				c0.6-0.4,0.8-0.9,0.5-1.6c-0.1-0.3-0.4-0.6-0.8-1c-0.4-0.4-0.6-0.8-0.6-1.2c0-0.3-0.3-0.5-0.9-0.5S67,24.1,67,24.4
				c0,0.4-0.2,0.8-0.6,1.2c-0.4,0.4-0.7,0.8-0.8,1c-0.3,0.6-0.1,1.2,0.5,1.6c0.3,0.2,0.6,0.5,0.9,0.7c0,0,0,0,0,0
				c0.3,0.2,0.2,10.2,0,12c-3.5,4.9-7.5,9.5-11.8,13.7C47.6,62.6,43.4,65,42.7,65.4L25.4,94.6h-3.1c-0.3,0-0.5,0.2-0.5,0.5
				s0.2,0.5,0.5,0.5h91.5c0.3,0,0.5-0.2,0.5-0.5S114,94.6,113.7,94.6z M56.1,94.6l0.4-0.4c4.4-5.2,9.6-15.3,11.4-21.9
				c1.8,6.6,7,16.7,11.4,21.9l0.4,0.4H56.1z M99.4,94.6l-5.1-20.3c0,0-1.2-4.6-1.3-5c-0.5-1.8-2.2-3.1-4.1-3.1
				c-2.3,0-4.2,1.9-4.2,4.2c0,0.6-0.4,1-1,1s-1-0.4-1-1c0-2.3-1.9-4.2-4.2-4.2c-2.3,0-4.2,1.9-4.2,4.2c0,0.6-0.4,1-1,1s-1-0.4-1-1
				c0-2.3-1.9-4.2-4.2-4.2c-2.3,0-4.2,1.9-4.2,4.2c0,0.6-0.4,1-1,1s-1-0.4-1-1c0-2.3-1.9-4.2-4.2-4.2s-4.2,1.9-4.2,4.2
				c0,0.6-0.4,1-1,1s-1-0.4-1-1c0-2.3-1.9-4.2-4.2-4.2c-1.9,0-3.6,1.3-4.1,3.1c-0.1,0.4-1.3,5-1.3,5l-5.1,20.3h-9.8l15.6-26.4l0,0
				c0.9-1.8,2.7-3,4.7-3c2.9,0,5.2,2.4,5.2,5.2c0-2.9,2.4-5.2,5.2-5.2s5.2,2.4,5.2,5.2c0-2.9,2.4-5.2,5.2-5.2c2.9,0,5.2,2.4,5.2,5.2
				c0-2.9,2.4-5.2,5.2-5.2c2.9,0,5.2,2.4,5.2,5.2c0-2.9,2.4-5.2,5.2-5.2c2,0,3.9,1.2,4.7,3l0,0l15.6,26.4H99.4z"/>
		</g>
	</g>
</g>
<g id="BARVY_INFO">
</g>
</svg>
