<?xml version="1.0" encoding="utf-8"?>
<!-- Generator: Adobe Illustrator 28.3.0, SVG Export Plug-In . SVG Version: 6.00 Build 0)  -->
<svg version="1.1" xmlns="http://www.w3.org/2000/svg" xmlns:xlink="http://www.w3.org/1999/xlink" x="0px" y="0px"
	 viewBox="0 0 136 111" style="enable-background:new 0 0 136 111;" xml:space="preserve">
<style type="text/css">
	.st0{opacity:0.7;fill:#19120B;}
	.st1{fill:#FFFFFF;}
	.st2{fill:none;stroke:#FFFFFF;stroke-linecap:round;stroke-linejoin:round;stroke-miterlimit:10;}
	.st3{fill:#BA110F;}
	.st4{fill:none;stroke:#94160F;stroke-miterlimit:10;}
	.st5{fill:#606060;}
	.st6{fill:#B29A8A;}
	.st7{fill:#94160F;}
	.st8{fill:none;stroke:#FFFFFF;stroke-width:2;stroke-linecap:round;stroke-linejoin:round;stroke-miterlimit:10;}
	.st9{fill:#8C1002;stroke:#FFFFFF;stroke-linecap:round;stroke-linejoin:round;stroke-miterlimit:10;}
	.st10{clip-path:url(#SVGID_00000085248047508840317980000014462270961673546883_);}
	.st11{clip-path:url(#SVGID_00000063603045803318426750000000633246866119225512_);}
	.st12{fill:none;stroke:#BA110F;stroke-miterlimit:10;}
	.st13{fill:#C4AF9B;}
	.st14{fill:url(#SVGID_00000015333603727402219170000002731021167255604369_);}
	.st15{fill:url(#SVGID_00000103243264560049137910000015703023054061113531_);}
	.st16{opacity:0.42;fill:url(#SVGID_00000178186607237017799670000015781560997550342557_);}
	.st17{fill:#FFFFFF;stroke:#D3D3D3;stroke-width:0.75;stroke-miterlimit:10;}
	.st18{fill:#605A56;}
	.st19{fill:none;}
	.st20{fill:none;stroke:#BA110F;stroke-width:1.5;stroke-miterlimit:10;}
	.st21{clip-path:url(#SVGID_00000027597458984364056240000015899914116715143043_);}
	.st22{fill:url(#SVGID_00000046330027660418257920000012917095588055624327_);}
	.st23{fill:url(#SVGID_00000065071857601128815630000002680005303737973890_);}
	.st24{fill:url(#SVGID_00000095319314966031661920000002043534809068835242_);}
	.st25{fill:url(#SVGID_00000035501066189758571960000017948175991206177942_);}
	.st26{fill:url(#SVGID_00000160907724830668430020000002956169833629785778_);}
	.st27{fill:none;stroke:#4E96DD;stroke-width:5;stroke-miterlimit:10;}
	.st28{fill:url(#SVGID_00000003801633530352681290000007456244713179155870_);}
	.st29{fill:#FCF2E1;}
</style>
<g id="Vrstva_1">
	<g>
		<rect x="0" class="st19" width="136" height="111"/>
		<g>
			<g>
				<path class="st1" d="M97.2,80.4l1.4,1.4c0.8,0.8,2,0.8,2.8,0l1.4-1.4c7-1.3,12.3-7.5,12.3-14.9H84.9
					C84.9,73,90.2,79.1,97.2,80.4z M100.1,79.7c-6.3,0-11.7-4.2-13.5-10h27C111.8,75.5,106.4,79.7,100.1,79.7z"/>
				<path class="st1" d="M33.1,80.4l1.4,1.4c0.8,0.8,2,0.8,2.8,0l1.4-1.4c7-1.3,12.3-7.5,12.3-14.9H20.8
					C20.8,73,26.1,79.1,33.1,80.4z M35.9,79.7c-6.3,0-11.7-4.2-13.5-10h27C47.6,75.5,42.3,79.7,35.9,79.7z"/>
				<path class="st1" d="M88.1,94.6h-5.5v-4H53.4v4h-5.5c-0.3,0-0.5,0.2-0.5,0.5s0.2,0.5,0.5,0.5h40.1c0.3,0,0.5-0.2,0.5-0.5
					S88.3,94.6,88.1,94.6z"/>
				<path class="st1" d="M63.8,29.4V89h8.3V29.4c-1.1-1.1-1.9-1.9-2.8-2.8c-0.3-0.6-0.3-1.3,0.2-1.7c0,0,0,0,0,0
					c0.5-0.4,1-0.8,1.5-1.2c1.1-0.7,1.4-1.6,0.9-2.7c-0.2-0.5-0.6-1.1-1.3-1.8c-0.7-0.7-1-1.4-1-2.1c0-0.6-0.5-0.9-1.5-0.9
					s-1.5,0.3-1.5,0.9c0,0.7-0.3,1.4-1,2.1c-0.7,0.7-1.1,1.3-1.3,1.8c-0.5,1.1-0.2,2,0.9,2.7c0.5,0.4,1,0.8,1.5,1.2c0,0,0,0,0,0
					c0.5,0.4,0.4,1,0.2,1.7C65.8,27.5,65,28.3,63.8,29.4z"/>
				<path class="st1" d="M37.6,36c0.5-0.3,0.8-0.6,0.9-1.1l17,7.4h6.9v-8.5H38.2c-0.2-0.2-0.4-0.5-0.6-0.8c-0.4-0.4-0.7-0.9-0.7-1.3
					c0-0.4-0.3-0.6-0.9-0.6S35,31.3,35,31.7c0,0.4-0.2,0.9-0.7,1.3c-0.4,0.4-0.7,0.8-0.9,1.1c-0.3,0.7-0.1,1.4,0.7,1.8
					c0.5,0.2,0.7,0.8,0.5,1.3L24.2,64.1h1.1l10.1-25.9v25.9h1V38.1l10.1,25.9h1.1L37.1,37.2C36.9,36.8,37.2,36.2,37.6,36z"/>
				<path class="st1" d="M101.3,37.2c-0.2-0.5,0-1,0.5-1.3c0.8-0.5,1.1-1.1,0.7-1.8c-0.1-0.3-0.4-0.7-0.9-1.1
					c-0.4-0.4-0.7-0.9-0.7-1.3c0-0.4-0.3-0.6-0.9-0.6s-0.9,0.2-0.9,0.6c0,0.4-0.2,0.9-0.7,1.3c-0.3,0.3-0.5,0.5-0.6,0.8H73.7v8.5
					h6.9l17-7.4c0.1,0.4,0.3,0.8,0.9,1.1c0.5,0.3,0.7,0.8,0.5,1.3L88.4,64.1h1.1l10.1-25.9v25.9h1V38.1l10.1,25.9h1.1L101.3,37.2z"
					/>
			</g>
		</g>
	</g>
</g>
<g id="BARVY_INFO">
</g>
</svg>
