<?xml version="1.0" encoding="utf-8"?>
<!-- Generator: Adobe Illustrator 28.3.0, SVG Export Plug-In . SVG Version: 6.00 Build 0)  -->
<svg version="1.1" xmlns="http://www.w3.org/2000/svg" xmlns:xlink="http://www.w3.org/1999/xlink" x="0px" y="0px"
	 viewBox="0 0 136 111" style="enable-background:new 0 0 136 111;" xml:space="preserve">
<style type="text/css">
	.st0{opacity:0.7;fill:#19120B;}
	.st1{fill:#FFFFFF;}
	.st2{fill:none;stroke:#FFFFFF;stroke-linecap:round;stroke-linejoin:round;stroke-miterlimit:10;}
	.st3{fill:#BA110F;}
	.st4{fill:none;stroke:#94160F;stroke-miterlimit:10;}
	.st5{fill:#606060;}
	.st6{fill:#B29A8A;}
	.st7{fill:#94160F;}
	.st8{fill:none;stroke:#FFFFFF;stroke-width:2;stroke-linecap:round;stroke-linejoin:round;stroke-miterlimit:10;}
	.st9{fill:#8C1002;stroke:#FFFFFF;stroke-linecap:round;stroke-linejoin:round;stroke-miterlimit:10;}
	.st10{clip-path:url(#SVGID_00000000222530859409949310000017920584585571469726_);}
	.st11{clip-path:url(#SVGID_00000180362150613973273750000005990247287040017296_);}
	.st12{fill:none;stroke:#BA110F;stroke-miterlimit:10;}
	.st13{fill:#C4AF9B;}
	.st14{fill:url(#SVGID_00000078022220743175230370000016928053686415650481_);}
	.st15{fill:url(#SVGID_00000124154745965550124160000000146274348010942866_);}
	.st16{opacity:0.42;fill:url(#SVGID_00000007420611910219757970000015696757915206552736_);}
	.st17{fill:#FFFFFF;stroke:#D3D3D3;stroke-width:0.75;stroke-miterlimit:10;}
	.st18{fill:#605A56;}
	.st19{fill:none;}
	.st20{fill:none;stroke:#BA110F;stroke-width:1.5;stroke-miterlimit:10;}
	.st21{clip-path:url(#SVGID_00000066474952668260777990000004203914200160414128_);}
	.st22{fill:url(#SVGID_00000041284036538048734470000005239869430081171135_);}
	.st23{fill:url(#SVGID_00000070110185494678826100000016327880072872320151_);}
	.st24{fill:url(#SVGID_00000022534172623544634580000003983390558734776729_);}
	.st25{fill:url(#SVGID_00000113326700889624685940000010999339698794693053_);}
	.st26{fill:url(#SVGID_00000172419570120448765290000015483922201589443771_);}
	.st27{fill:none;stroke:#4E96DD;stroke-width:5;stroke-miterlimit:10;}
	.st28{fill:url(#SVGID_00000137102717711340039270000002564190667123233963_);}
	.st29{fill:#FCF2E1;}
</style>
<g id="Vrstva_1">
	<g>
		<rect x="0" class="st19" width="136" height="111"/>
		<g>
			<g>
				<path class="st1" d="M107,46.9h-6.5c-0.3,0-0.5-0.2-0.5-0.5s0.2-0.5,0.5-0.5h6.5c0.3,0,0.5,0.2,0.5,0.5S107.3,46.9,107,46.9z"/>
				<path class="st1" d="M107,53.2h-6.5c-0.3,0-0.5-0.2-0.5-0.5s0.2-0.5,0.5-0.5h6.5c0.3,0,0.5,0.2,0.5,0.5S107.3,53.2,107,53.2z"/>
				<path class="st1" d="M107,59.5h-6.5c-0.3,0-0.5-0.2-0.5-0.5s0.2-0.5,0.5-0.5h6.5c0.3,0,0.5,0.2,0.5,0.5S107.3,59.5,107,59.5z"/>
				<path class="st1" d="M43,46.9H29c-0.3,0-0.5-0.2-0.5-0.5s0.2-0.5,0.5-0.5H43c0.3,0,0.5,0.2,0.5,0.5S43.2,46.9,43,46.9z"/>
				<path class="st1" d="M35.6,53.2H29c-0.3,0-0.5-0.2-0.5-0.5s0.2-0.5,0.5-0.5h6.5c0.3,0,0.5,0.2,0.5,0.5S35.8,53.2,35.6,53.2z"/>
				<path class="st1" d="M35.6,59.5H29c-0.3,0-0.5-0.2-0.5-0.5s0.2-0.5,0.5-0.5h6.5c0.3,0,0.5,0.2,0.5,0.5S35.8,59.5,35.6,59.5z"/>
				<path class="st1" d="M107,65.7h-6.5c-0.3,0-0.5-0.2-0.5-0.5s0.2-0.5,0.5-0.5h6.5c0.3,0,0.5,0.2,0.5,0.5S107.3,65.7,107,65.7z"/>
				<path class="st1" d="M107,72h-6.5c-0.3,0-0.5-0.2-0.5-0.5s0.2-0.5,0.5-0.5h6.5c0.3,0,0.5,0.2,0.5,0.5S107.3,72,107,72z"/>
				<path class="st1" d="M95,12.3c0.4-0.6,0.1-1.2-0.9-1.8s-1.6-0.6-2,0c-0.4,0.7-1.2,1.1-2.3,1.4c-1.1,0.3-1.9,0.6-2.4,0.9
					c-0.8,0.5-1.1,1.2-1.1,2c0.2,2.2-0.4,4.5-1.6,6.4l-0.8,1.4l4,2.5l0.8-1.4c1.2-1.9,2.9-3.4,5-4.3c0.7-0.3,1.1-0.9,1.3-1.8
					c0.1-0.6,0-1.4-0.2-2.5C94.5,13.9,94.6,13,95,12.3z"/>
				<path class="st1" d="M51.3,35.5c-1.5-1.8-2.8-3.3-2.8-6.5c0-0.3-0.2-0.6-0.5-0.6s-0.5,0.2-0.5,0.6v24.3c-0.7-1.6-2.2-2.7-4-2.7
					c-2.5,0-4.5,2.2-4.5,5c0,2.7,2,5,4.5,5c3.6,0,5-3.4,5-6.8V33.4c0.6,1.1,1.3,2,2.1,2.9c1.7,2,3.4,4,3.4,8.8
					c0,0.3,0.2,0.6,0.5,0.6s0.5-0.2,0.5-0.6C55,39.9,53,37.6,51.3,35.5z"/>
				<path class="st1" d="M95.8,44.9c-0.1-0.1-0.3-0.1-0.5,0l-14.1,5.9c-0.2,0.1-0.3,0.3-0.3,0.5l0,20.9c-0.7-1.5-2.2-2.5-4-2.5
					c-2.5,0-4.5,2-4.5,4.5c0,2.5,2,4.5,4.5,4.5c3.6,0,5-3,5-6.2l0-15L95.1,52v14.3c-0.7-1.5-2.2-2.5-4-2.5c-2.5,0-4.5,2-4.5,4.5
					c0,2.5,2,4.5,4.5,4.5c3.6,0,5-3,5-6.2V45.3C96.1,45.1,96,45,95.8,44.9z"/>
				
					<rect x="83.4" y="23.9" transform="matrix(0.5255 -0.8508 0.8508 0.5255 17.9363 84.2581)" class="st1" width="2.3" height="4.3"/>
				<path class="st1" d="M55.3,84.7l-10.1-6.3c-4.5,3.5-9.4,6.3-14.8,8.2l24.2,14.9C53.9,95.9,54.2,90.2,55.3,84.7z"/>
				<g>
					<path class="st1" d="M81.4,27.1L61.5,59.3l-4.9,7.1c-1.8,2.6-3.9,5-6.1,7.3l6.7,4.1c1-3,2.3-5.9,3.8-8.6l4.1-7.6L85,29.3
						L81.4,27.1z"/>
					<g>
						<path class="st1" d="M59.2,46.9h8.2l0.6-1h-8.8c-0.3,0-0.5,0.2-0.5,0.5S58.9,46.9,59.2,46.9z"/>
						<path class="st1" d="M53.2,53.2h10.2l0.6-1H53.2c-0.3,0-0.5,0.2-0.5,0.5S52.9,53.2,53.2,53.2z"/>
						<path class="st1" d="M76.7,52.2h-4l-0.6,1h4.7c0.3,0,0.5-0.2,0.5-0.5S77,52.2,76.7,52.2z"/>
						<path class="st1" d="M76.7,58.5h-7.9l-0.6,1h8.5c0.3,0,0.5-0.2,0.5-0.5S77,58.5,76.7,58.5z"/>
						<path class="st1" d="M76.7,64.7H65.1l-0.5,1h12.2c0.3,0,0.5-0.2,0.5-0.5S77,64.7,76.7,64.7z"/>
						<path class="st1" d="M82.7,45.9h-6.2l-0.6,1h6.8c0.3,0,0.5-0.2,0.5-0.5S83,45.9,82.7,45.9z"/>
						<path class="st1" d="M68.7,71h-7c-0.2,0.3-0.3,0.7-0.5,1h7.5c0.3,0,0.5-0.2,0.5-0.5S69,71,68.7,71z"/>
						<path class="st1" d="M29,65.7h26.1c0-0.1,0.1-0.1,0.1-0.2l0.6-0.8H29c-0.3,0-0.5,0.2-0.5,0.5S28.7,65.7,29,65.7z"/>
						<path class="st1" d="M52.2,59.5h7.3l0.7-1l0,0h-8c-0.3,0-0.5,0.2-0.5,0.5S51.9,59.5,52.2,59.5z"/>
						<path class="st1" d="M50.9,71H29c-0.3,0-0.5,0.2-0.5,0.5S28.7,72,29,72H50C50.3,71.7,50.6,71.3,50.9,71z"/>
					</g>
					<path class="st1" d="M49.4,74.7c-1,0.9-2,1.8-3,2.7l9.2,5.7c0.3-1.3,0.7-2.6,1-3.9L49.4,74.7z"/>
				</g>
			</g>
		</g>
	</g>
</g>
<g id="BARVY_INFO">
</g>
</svg>
