<?xml version="1.0" encoding="utf-8"?>
<!-- Generator: Adobe Illustrator 28.3.0, SVG Export Plug-In . SVG Version: 6.00 Build 0)  -->
<svg version="1.1" xmlns="http://www.w3.org/2000/svg" xmlns:xlink="http://www.w3.org/1999/xlink" x="0px" y="0px"
	 viewBox="0 0 35 35" style="enable-background:new 0 0 35 35;" xml:space="preserve">
<style type="text/css">
	.st0{fill:none;}
	.st1{opacity:0.7;fill:#19120B;}
	.st2{fill:#FFFFFF;}
	.st3{fill:none;stroke:#FFFFFF;stroke-linecap:round;stroke-linejoin:round;stroke-miterlimit:10;}
	.st4{fill:#BA110F;}
	.st5{fill:none;stroke:#94160F;stroke-miterlimit:10;}
	.st6{opacity:0.35;}
	.st7{fill:#606060;}
	.st8{fill:#B29A8A;}
	.st9{fill:#94160F;}
	.st10{fill:none;stroke:#FFFFFF;stroke-width:2;stroke-linecap:round;stroke-linejoin:round;stroke-miterlimit:10;}
	.st11{fill:#8C1002;stroke:#FFFFFF;stroke-linecap:round;stroke-linejoin:round;stroke-miterlimit:10;}
	.st12{clip-path:url(#SVGID_00000166648263306086528880000004638517954405052041_);}
	.st13{clip-path:url(#SVGID_00000127022327130595767980000005961182410744043711_);}
	.st14{fill:none;stroke:#BA110F;stroke-miterlimit:10;}
	.st15{fill:#C4AF9B;}
	.st16{fill:url(#SVGID_00000115511219690410923920000005274218368188766629_);}
	.st17{fill:url(#SVGID_00000091693841083899978370000015012064264041478549_);}
	.st18{opacity:0.42;fill:url(#SVGID_00000088849992285310765070000005114712898507389847_);}
	.st19{fill:#FFFFFF;stroke:#D3D3D3;stroke-width:0.75;stroke-miterlimit:10;}
	.st20{fill:#605A56;}
	.st21{fill:none;stroke:#BA110F;stroke-width:1.5;stroke-miterlimit:10;}
	.st22{clip-path:url(#SVGID_00000005233125559212248480000013623364442155159690_);}
	.st23{fill:url(#SVGID_00000115503757584576476510000015036442327803966352_);}
	.st24{fill:url(#SVGID_00000124853566991278635080000012075303284246474427_);}
	.st25{fill:url(#SVGID_00000039134129355398568120000015754569205160252815_);}
	.st26{fill:url(#SVGID_00000135660836206031142050000007830833707386979494_);}
	.st27{fill:url(#SVGID_00000094618768111037267080000009439763222790624437_);}
	.st28{fill:none;stroke:#4E96DD;stroke-width:5;stroke-miterlimit:10;}
	.st29{fill:url(#SVGID_00000114753553481605823230000004011893433605401506_);}
</style>
<g id="Vrstva_1">
	<g>
		<path class="st2" d="M17.5,6.7c-6,0-10.8,4.8-10.8,10.8s4.8,10.8,10.8,10.8s10.8-4.8,10.8-10.8S23.5,6.7,17.5,6.7z M27.3,17h-3.7
			c-0.1-3.8-1.2-7-2.9-8.8C24.4,9.5,27.1,12.9,27.3,17z M17,7.8V17h-4.6C12.6,12.2,14.6,8.2,17,7.8z M17,18v9.2
			c-2.4-0.5-4.4-4.5-4.6-9.2H17z M18,27.2V18h4.6C22.4,22.8,20.4,26.8,18,27.2z M18,17V7.8c2.4,0.5,4.4,4.5,4.6,9.2H18z M14.4,8.2
			c-1.7,1.8-2.8,5-2.9,8.8H7.7C7.9,12.9,10.6,9.5,14.4,8.2z M7.7,18h3.7c0.1,3.8,1.2,7,2.9,8.8C10.6,25.5,7.9,22.1,7.7,18z
			 M20.6,26.8c1.7-1.8,2.8-5,2.9-8.8h3.7C27.1,22.1,24.4,25.5,20.6,26.8z"/>
		<rect class="st0" width="35" height="35"/>
	</g>
</g>
<g id="BARVY_INFO">
</g>
</svg>
