<?xml version="1.0" encoding="utf-8"?>
<!-- Generator: Adobe Illustrator 28.3.0, SVG Export Plug-In . SVG Version: 6.00 Build 0)  -->
<svg version="1.1" xmlns="http://www.w3.org/2000/svg" xmlns:xlink="http://www.w3.org/1999/xlink" x="0px" y="0px"
	 viewBox="0 0 136 111" style="enable-background:new 0 0 136 111;" xml:space="preserve">
<style type="text/css">
	.st0{opacity:0.7;fill:#19120B;}
	.st1{fill:#FFFFFF;}
	.st2{fill:none;stroke:#FFFFFF;stroke-linecap:round;stroke-linejoin:round;stroke-miterlimit:10;}
	.st3{fill:#BA110F;}
	.st4{fill:none;stroke:#94160F;stroke-miterlimit:10;}
	.st5{fill:#606060;}
	.st6{fill:#B29A8A;}
	.st7{fill:#94160F;}
	.st8{fill:none;stroke:#FFFFFF;stroke-width:2;stroke-linecap:round;stroke-linejoin:round;stroke-miterlimit:10;}
	.st9{fill:#8C1002;stroke:#FFFFFF;stroke-linecap:round;stroke-linejoin:round;stroke-miterlimit:10;}
	.st10{clip-path:url(#SVGID_00000056398638118439098020000004361333300133616773_);}
	.st11{clip-path:url(#SVGID_00000103981091889142942150000004657942416900424888_);}
	.st12{fill:none;stroke:#BA110F;stroke-miterlimit:10;}
	.st13{fill:#C4AF9B;}
	.st14{fill:url(#SVGID_00000145023935505470316970000012410760749062648217_);}
	.st15{fill:url(#SVGID_00000130641319423091568650000008992421836594566816_);}
	.st16{opacity:0.42;fill:url(#SVGID_00000046321203942035983430000008267138413160865199_);}
	.st17{fill:#FFFFFF;stroke:#D3D3D3;stroke-width:0.75;stroke-miterlimit:10;}
	.st18{fill:#605A56;}
	.st19{fill:none;}
	.st20{fill:none;stroke:#BA110F;stroke-width:1.5;stroke-miterlimit:10;}
	.st21{clip-path:url(#SVGID_00000129885854716297239820000016788495698606471054_);}
	.st22{fill:url(#SVGID_00000049929630770050255650000017887966218543734955_);}
	.st23{fill:url(#SVGID_00000078760078486442231960000012454765091244035234_);}
	.st24{fill:url(#SVGID_00000141448715140531838920000002511307455918940339_);}
	.st25{fill:url(#SVGID_00000175288641070913350210000005095761235197246623_);}
	.st26{fill:url(#SVGID_00000038388145364637679190000011106893825255690901_);}
	.st27{fill:none;stroke:#4E96DD;stroke-width:5;stroke-miterlimit:10;}
	.st28{fill:url(#SVGID_00000143615351916950673950000000636200883964696452_);}
	.st29{fill:#FCF2E1;}
</style>
<g id="Vrstva_1">
	<g>
		<g>
			<g>
				<path class="st1" d="M113.7,89c-4,0-6,1.5-7.9,2.9c-1.9,1.4-3.7,2.7-7.3,2.7s-5.4-1.3-7.3-2.7c-1.9-1.4-3.9-2.9-7.9-2.9
					s-6,1.5-7.9,2.9c-1.9,1.4-3.7,2.7-7.3,2.7s-5.4-1.3-7.3-2.7c-1.9-1.4-3.9-2.9-7.9-2.9c-4,0-6,1.5-7.9,2.9
					c-1.9,1.4-3.7,2.7-7.3,2.7c-3.6,0-5.4-1.3-7.3-2.7c-1.9-1.4-3.9-2.9-7.9-2.9c-0.3,0-0.5,0.2-0.5,0.5S22,90,22.3,90
					c3.6,0,5.4,1.3,7.3,2.7c1.9,1.4,3.9,2.9,7.9,2.9c4,0,6-1.5,7.9-2.9c1.9-1.4,3.7-2.7,7.3-2.7c3.6,0,5.4,1.3,7.3,2.7
					c1.9,1.4,3.9,2.9,7.9,2.9s6-1.5,7.9-2.9c1.9-1.4,3.7-2.7,7.3-2.7s5.4,1.3,7.3,2.7c1.9,1.4,3.9,2.9,7.9,2.9c4,0,6-1.5,7.9-2.9
					c1.9-1.4,3.7-2.7,7.3-2.7c0.3,0,0.5-0.2,0.5-0.5S114,89,113.7,89z"/>
				<path class="st1" d="M113.7,95.3c-4,0-6,1.5-7.9,2.9c-1.9,1.4-3.7,2.7-7.3,2.7s-5.4-1.3-7.3-2.7c-1.9-1.4-3.9-2.9-7.9-2.9
					s-6,1.5-7.9,2.9c-1.9,1.4-3.7,2.7-7.3,2.7s-5.4-1.3-7.3-2.7c-1.9-1.4-3.9-2.9-7.9-2.9c-4,0-6,1.5-7.9,2.9
					c-1.9,1.4-3.7,2.7-7.3,2.7c-3.6,0-5.4-1.3-7.3-2.7c-1.9-1.4-3.9-2.9-7.9-2.9c-0.3,0-0.5,0.2-0.5,0.5s0.2,0.5,0.5,0.5
					c3.6,0,5.4,1.3,7.3,2.7c1.9,1.4,3.9,2.9,7.9,2.9c4,0,6-1.5,7.9-2.9c1.9-1.4,3.7-2.7,7.3-2.7c3.6,0,5.4,1.3,7.3,2.7
					c1.9,1.4,3.9,2.9,7.9,2.9s6-1.5,7.9-2.9c1.9-1.4,3.7-2.7,7.3-2.7s5.4,1.3,7.3,2.7c1.9,1.4,3.9,2.9,7.9,2.9c4,0,6-1.5,7.9-2.9
					c1.9-1.4,3.7-2.7,7.3-2.7c0.3,0,0.5-0.2,0.5-0.5S114,95.3,113.7,95.3z"/>
				<path class="st1" d="M101.3,51.4v-4.2c0-0.3-0.2-0.5-0.5-0.5s-0.5,0.2-0.5,0.5v3.3H96v-3.3c0-0.3-0.2-0.5-0.5-0.5
					S95,46.9,95,47.2v4.2l-8,14.3h22.2L101.3,51.4z"/>
				<path class="st1" d="M73.7,22h-2.5l-2-4.7c-0.4-0.9-0.5-1.8-0.4-2.7c0-0.2,0-0.3,0.1-0.3c0,0,0,0,0,0c0.3-0.2,0.5-0.4,0.8-0.6
					c0.6-0.4,0.7-0.8,0.5-1.4c-0.1-0.3-0.3-0.6-0.7-0.9c-0.4-0.4-0.5-0.7-0.5-1.1c0-0.3-0.3-0.5-0.8-0.5c-0.5,0-0.8,0.2-0.8,0.5
					c0,0.4-0.2,0.7-0.5,1.1c-0.4,0.4-0.6,0.7-0.7,0.9c-0.3,0.6-0.1,1,0.5,1.4c0.3,0.2,0.5,0.4,0.8,0.6c0,0,0,0,0,0
					c0,0,0.1,0.1,0.1,0.3c0.1,0.9-0.1,1.9-0.4,2.7l-2,4.7h-2.5l-10,14.4h31.3L73.7,22z"/>
				<path class="st1" d="M41,51.4v-4.2c0-0.3-0.2-0.5-0.5-0.5S40,46.9,40,47.2v3.3h-4.3v-3.3c0-0.3-0.2-0.5-0.5-0.5
					s-0.5,0.2-0.5,0.5v4.2l-8,14.3H49L41,51.4z"/>
			</g>
			<path class="st1" d="M113.7,82.6c-2.8,0-4.6,0.7-6.1,1.7V67.2H88.7v4.3h-5.6v11.1c-0.7,0-1.4,0.1-2,0.2v-45H54.9v45
				c-0.6-0.1-1.3-0.2-2-0.2V71.5h-5.6v-4.3H28.4v17.1c-1.5-0.9-3.3-1.7-6.1-1.7c-0.3,0-0.5,0.2-0.5,0.5s0.2,0.5,0.5,0.5
				c3.6,0,5.4,1.3,7.3,2.7c1.9,1.4,3.9,2.9,7.9,2.9c4,0,6-1.5,7.9-2.9c1.9-1.4,3.7-2.7,7.3-2.7c3.6,0,5.4,1.3,7.3,2.7
				c1.9,1.4,3.9,2.9,7.9,2.9s6-1.5,7.9-2.9c1.9-1.4,3.7-2.7,7.3-2.7s5.4,1.3,7.3,2.7c1.9,1.4,3.9,2.9,7.9,2.9c4,0,6-1.5,7.9-2.9
				c1.9-1.4,3.7-2.7,7.3-2.7c0.3,0,0.5-0.2,0.5-0.5S114,82.6,113.7,82.6z M44.8,85.6c-1.9,1.4-3.7,2.7-7.3,2.7
				c-3.6,0-5.4-1.3-7.3-2.7c-0.3-0.2-0.7-0.5-1-0.7h16.7C45.5,85.1,45.2,85.3,44.8,85.6z M75.3,85.6c-1.9,1.4-3.7,2.7-7.3,2.7
				s-5.4-1.3-7.3-2.7c-0.3-0.2-0.7-0.5-1-0.7h3.8V71.1h9v13.8h3.8C76,85.1,75.6,85.3,75.3,85.6z M105.8,85.6
				c-1.9,1.4-3.7,2.7-7.3,2.7S93,87,91.2,85.6c-0.3-0.2-0.7-0.5-1-0.7h16.7C106.5,85.1,106.1,85.3,105.8,85.6z"/>
		</g>
		<rect class="st19" width="136" height="111"/>
	</g>
</g>
<g id="BARVY_INFO">
</g>
</svg>
