<?xml version="1.0" encoding="UTF-8"?>
<svg id="Vrstva_1" data-name="Vrstva 1" xmlns="http://www.w3.org/2000/svg" version="1.1" xmlns:xlink="http://www.w3.org/1999/xlink" viewBox="0 0 225 150">
  <defs>
    <style>
      .cls-1 {
        filter: url(#outer-glow-4);
      }

      .cls-2 {
        fill: none;
        opacity: 0;
      }

      .cls-2, .cls-3 {
        stroke-width: 0px;
      }

      .cls-3 {
        fill: #fff;
      }
    </style>
    <filter id="outer-glow-4" filterUnits="userSpaceOnUse">
      <feOffset dx="0" dy="0"/>
      <feGaussianBlur result="blur" stdDeviation="20"/>
      <feFlood flood-color="#1d1d1b" flood-opacity="1"/>
      <feComposite in2="blur" operator="in"/>
      <feComposite in="SourceGraphic"/>
    </filter>
  </defs>
  <g class="cls-1">
    <path class="cls-3" d="M73.7,75.3c0-.7,0-1.4,0-2,0-.7,0-1.4.1-2.1,0-.6.3-1.2.4-1.7,0,0,0-.2,0-.3,0-.5.2-1,.3-1.5,0-.4.2-.8.3-1.2,0-.3.2-.5.3-.8.4-1,.7-1.9,1.2-2.9.3-.7.7-1.4,1.1-2.1.4-.8.9-1.6,1.4-2.4.2-.4.5-.7.9-.9.4-.4.8-.9,1.2-1.3.5-.5.9-1,1.4-1.4.7-.7,1.4-1.3,2.1-1.9.5-.5,1-.9,1.7-1.1.4-.1.7-.4,1.1-.6.3-.2.5-.3.8-.5.3-.2.5-.3.8-.5.3-.2.6-.3,1-.4.3-.1.5-.2.8-.3.4-.1.9-.2,1.3-.3,0,0,0,0,.1,0,.4-.3.8-.4,1.2-.6.4-.1.7-.2,1.1-.3.4-.2.9-.4,1.3-.5.4-.1.9-.3,1.3-.4.2,0,.4-.1.6-.2,0,0,0,0,.1,0,.5,0,1,0,1.4-.1.6,0,1.2-.2,1.8-.2.5,0,1,0,1.4,0,.4,0,.8,0,1.1,0,.4,0,.8.1,1.1.2.3,0,.6,0,.9,0,.4,0,.8,0,1.2.2.2.1.5,0,.7,0,.2,0,.4.1.6.2,0,0,.1,0,.2,0,.6,0,1.2.2,1.8.3,0,0,.1,0,.2,0,0,0,.2,0,.3,0,.4.1.8.2,1.2.4.2,0,.5.1.7.2.3,0,.6.1.9.3.4.3.8.3,1.2.5.5.2.9.4,1.4.6.3.2.6.4.9.6.3.2.7.3,1,.6.4.3.8.7,1.2,1,.3.2.6.4.8.6,0,0,.2.2.3.3.5.4,1.1.8,1.6,1.2.5.4.9.9,1.4,1.4.4.4.9.8,1.4,1.3.5.6,1,1.2,1.5,1.8.4.5.7,1,1,1.5.3.4.5.9.7,1.3.3.5.5,1,.7,1.5.1.2.2.5.3.7.2.5.4.9.6,1.4.2.4.3.9.4,1.3,0,.2.2.4.2.6.2.5.3,1,.4,1.5,0,.3,0,.7.2,1.1.1.6.2,1.1.3,1.7,0,.2,0,.5.1.7.2,1.5.2,3,.1,4.5,0,.5,0,1-.1,1.5,0,0,0,.2,0,.3,0,.3-.1.7-.2,1,0,.4-.1.8-.2,1.2,0,.3-.1.5-.1.8,0,.8-.5,1.6-.7,2.4,0,.3,0,.5-.2.8,0,.3-.2.5-.3.8-.2.6-.4,1.2-.6,1.8-.2.6-.5,1.1-.8,1.6-.6,1-1.1,2-1.8,2.9-.5.8-1.2,1.6-1.8,2.4-.4.5-.8,1-1.3,1.5-.4.4-.9.8-1.3,1.1-.1.1-.2.2-.3.3-.3.3-.7.7-1,1-.4.3-.8.6-1.2.9-.5.5-1.1.7-1.7,1-.2,0-.4.2-.5.3-.5.3-1,.7-1.5,1-.2.2-.5.3-.7.4-.4.2-.8.4-1.2.6-.4.2-.8.2-1.2.4-.3.1-.7.2-1,.3-.4.1-.8.2-1.1.4-.7.3-1.4.3-2.1.5-.2,0-.5,0-.8,0-.5.1-1,.3-1.5.4,0,0,0,0-.1,0-.5,0-.9.2-1.4.2-.6,0-1.2,0-1.9.1-.3,0-.7.1-1,0-.4,0-.9-.1-1.3-.2,0,0,0,0,0,0-.6,0-1.3-.1-1.9-.2-.1,0-.3,0-.4,0-.3-.2-.7-.2-1-.2-.5,0-.9-.1-1.3-.2-.3,0-.6,0-.9-.2-.2,0-.3-.1-.5-.2,0,0-.2,0-.2,0-.2,0-.3,0-.5-.2,0,0-.1,0-.2,0-.2,0-.3-.1-.5-.2-.1,0-.3,0-.4-.1-.4-.1-.7-.2-1.1-.4-.2-.1-.5-.3-.7-.4-.4-.2-.7-.4-1.1-.6-.3-.2-.7-.3-1-.4-.4-.2-.8-.4-1.2-.7-.4-.3-.8-.5-1.2-.8-.3-.2-.7-.5-1-.8-.5-.4-.9-.8-1.4-1.2-.4-.3-.9-.7-1.3-1-.2-.2-.4-.4-.6-.6-.2-.2-.4-.4-.6-.6-.5-.6-1-1.1-1.5-1.7-.2-.3-.5-.6-.7-.9-.5-.7-1-1.4-1.4-2.2-.3-.5-.6-1-.8-1.5-.3-.6-.6-1.3-.9-1.9-.1-.3-.2-.6-.3-.9-.2-.5-.4-1-.5-1.4,0,0,0-.2,0-.3,0-.2-.1-.3-.2-.5,0,0,0,0,0,0,0-.4-.2-.8-.3-1.2-.1-.5-.2-1-.3-1.5,0,0,0,0,0,0,0-.6-.2-1.1-.3-1.7,0-1.2-.1-2.5-.2-3.7,0,0,0,0,0,0ZM116.2,60.9s0,0,0,.1c.3.3.6.6.9.8,0,0,.3,0,.4,0,0,0,0-.1,0-.2,0,0-.2-.1-.3-.2-.2,0-.3-.2-.5-.2-.2-.1-.4-.2-.6-.3,0,0,0-.1-.1-.2-.2-.2-.4-.2-.5.1,0,0,0,.1-.1.2-.3-.3-.4,0-.6.1.1.1.2.2.3.3.3.3.6.1.8-.2,0-.1.2-.2.3-.3ZM85.8,81.8c0-.2-.1-.4-.2-.6-.2-.4-.5-.7-.5-1.2,0,0-.2-.3-.3-.3-.2,0-.5.6-.4.8,0,.2.1.4.2.6,0,0,.1.1.2.1.4,0,.4.1.2.5,0,0,0,.2,0,.3,0,0,.2,0,.3,0,.1,0,.2,0,.3,0-.2.3-.3.6-.3.9h.6s0,0,0,.1c-.1,0-.3.2-.4.2,0,0,0,.1,0,.2,0,0,.1.1.2.1,0,0,.2,0,.3,0,.1,0,.3,0,.4,0,0,0-.1.2-.2.2,0,.2-.2.4-.2.5,0,.2,0,.2.3.2.2,0,.3,0,.5,0,0,0,0,0,0,0-.3.3-.3.6,0,.7.2,0,.3-.1.5-.2,0,0,0,0,0,0,0,.1-.2.3-.3.4.2.1.2.5.6.2,0,0,.2,0,.2,0,0,0,0,.1,0,.2,0,.1-.1.2-.2.3,0,.2.3.3.5.1.2-.1.3,0,.4.1,0,0-.2.2-.3.3.3.2.6.5.8.7.1,0,.2.2.4,0,0,0,.3,0,.3,0,0,0,0,.2,0,.3,0,0,0,.1,0,.1-.1.2,0,.3.1.4,0,0,0,0,.1,0,.1,0,.2-.1.3-.2,0,.1.2.3.2.4,0,.3.2.5.5.6.2-.3.2-.7,0-.9-.2-.2-.4-.4-.7-.6-.3-.3-.7-.6-1.2-.7-.2,0-.2-.2-.3-.3-.1-.3-.3-.6-.5-.8-.1-.2-.4-.3-.5-.5-.2-.5-.5-.9-.9-1.2,0,0-.2-.1-.2-.2,0-.2-.2-.3-.4-.4,0-.2,0-.3,0-.5,0-.2-.2-.4-.3-.6-.1-.2,0-.5-.3-.5ZM118.8,95.5c-.4.2-.8.4-1.1.7-.4.4-.8.9-1.5,1,0,0-.1,0-.1.1-.2.3-.4.6-.8.7-.5.1-.9.5-1.3.9-.3.2-.5.4-.9.4,0,0-.2,0-.3,0-.4.1-.7.3-1.1.4-.2,0-.3.2-.5.3-.3.2,0,.3,0,.5,0,.4.3.6.8.6.5,0,.6-.3.4-.7,0-.1,0-.2-.2-.4.1,0,.2,0,.2,0,.2.3.5.3.9.3.4,0,.4-.1.3-.4,0-.2-.1-.4.1-.5.2,0,.4.1.4.3,0,.2.2.2.4,0,0,0,.2-.2.2-.3.1-.1.2-.3.3-.4,0,0,.2.1.3.1.2,0,.4,0,.5-.2,0,0,0-.2,0-.4,0-.2,0-.4,0-.6.2,0,.4,0,.5.1.4.1.7.1,1-.2,0,0,.2-.2.3-.2.5-.2.5-.3.4-.8,0-.1,0-.3,0-.5.1,0,.3,0,.4,0,0,0,.1,0,.2,0,.2,0,.4,0,.4-.1,0-.1.1-.3,0-.4,0-.2-.3-.4-.4-.7.1,0,.3,0,.3.1.2.3.5.3.8.3.4,0,.5-.2.3-.6,0-.2-.1-.4,0-.5.2-.2.3,0,.4.2.1,0,.3.1.4,0,.1-.1.2-.3.2-.4,0-.2-.2-.4-.3-.6,0,0,0-.2,0-.3,0,0,.2,0,.3,0,.2,0,.4.3.5.3.2,0,.4,0,.5-.1,0,0,0-.3,0-.4,0-.2-.1-.3-.2-.4,0-.1,0-.3,0-.4.1,0,.3,0,.4,0,.2,0,.3.2.5,0,.4-.3.4-.4,0-.7,0,0,0-.3,0-.4.1,0,.2,0,.3,0,.5.3.5.4.9,0,.2-.2.2-.3,0-.5-.1-.1-.3-.2-.4-.3-.2-.2-.2-.4,0-.5.1-.1.5,0,.6,0,.1.1.2.3.3.4,0,0,.2,0,.2,0,.3-.2.3-.7,0-.9-.3-.1-.4-.3-.3-.6,0-.1,0-.2,0-.4,0,0,.2.1.3.2,0,0,0,0,.2.1.3.2.6.1.7-.2,0-.2,0-.3-.1-.4-.5,0-.4-.4-.5-.7,0,0,0-.2.2-.3,0,0,.2,0,.2.1.2.2.4.4.6.5,0,0,.2,0,.2,0,0,0,0-.2,0-.3,0,0,0-.1-.1-.2-.2-.3-.3-.5-.5-.8,0,0,0-.2,0-.2,0,0,.2,0,.2,0,.1,0,.2.2.4.3.1,0,.3,0,.4,0,.2-.1.2-.6,0-.8-.2-.1-.3-.2-.5-.3-.1,0-.3-.2-.1-.4.1-.2.2-.3.5-.1.1,0,.3,0,.4.2.2.1.3,0,.4,0,0-.1,0-.3-.1-.4-.3-.1-.4-.3-.5-.6,0-.1,0-.3,0-.3,0,0,.2,0,.3,0,.1,0,.2.2.3.2.3.2.5,0,.5-.2,0-.1,0-.3,0-.4,0-.1.2-.3.2-.4,0,0,0-.2,0-.3.2-.6.3-1.3.7-1.8,0-.1,0-.3,0-.3-.2,0-.4-.2-.5,0-.2.2,0,.3.1.4.2.2.2.3,0,.5-.1,0-.2.2-.4.2,0,0,0,0,.1,0,0,.2.1.3,0,.4-.2.4-.5.4-.9.2,0,.2.2.3.3.4.2.2.3.4.3.7,0,0-.1,0-.1,0-.4.2-.6,0-.7-.4,0-.2-.2-.3-.3-.4,0,.1-.2.3-.2.4,0,.2-.1.4-.2.6-.2.4-.5.8-.8,1.1-.2.3-.5.4-.9.4-.1,0-.3,0-.4,0-.3,0-.4,0-.5-.3,0-.1-.1-.3-.2-.4,0,0-.1,0-.2,0,0,0,0,0,0,.1,0,.2-.1.4-.2.6-.2,0-.2-.2-.4-.2-.1,0-.3,0-.4,0,0,0,0,.2,0,.3,0,.1.1.2.1.3.1.3,0,.5-.2.6-.2.2-.3,0-.5-.1-.3-.3-.6-.6-.8-.9-.1-.1-.3-.3-.3-.4-.1-.4-.2-.7-.2-1.1,0-.3,0-.6,0-.9,0-.1-.2-.2-.3-.3,0,.1-.3.2-.3.3-.1.4-.2.9-.3,1.3,0,.5-.3.8-.8,1-.3.1-.5.3-.8.5-.1,0-.2.3-.3.4-.1.1-.3.3-.1.4.1,0,.3.1.5,0,.3,0,.6-.3,1-.4.3,0,.6,0,.8,0,.5.4,1,.8,1.5,1.3.5.6.4.8,0,1.4,0,0-.2,0-.2,0-.3-.2-.5-.3-.7-.5-.2-.2-.6-.2-.7.1,0,.2-.2.3-.3.5-.1.2-.1.4.1.5.1,0,.3,0,.5.1.3,0,.5.2.8.2,0,0,.3,0,.3,0,.3-.5.8-.9,1-1.4.2-.6.6-1.2,1-1.7,0,0,.2-.1.3-.2.1,0,.3-.2.4-.2.2,0,.3-.2.5-.3.1,0,.3-.1.4-.2.2-.4.6-.3,1-.4,0,0,0,0,.1,0,.3.2.3.4,0,.7-.3.3-.5.6-.7,1-.2.3-.3.7-.5,1,0,.2-.2.3-.4.4-.3.2-.3-.2-.4-.3-.3.2-.3.3,0,.6.1.2.1.3,0,.5,0,.1-.2.3-.3.5,0,.1-.2.3-.3.4-.2.2-.4.3-.6.5-.3.3-.6.7-.7,1.1-.2.4-.7.6-.7,1.1,0,0-.1.2-.2.2-.2.1-.3.2-.5.4-.3.3-.6.6-.9.9,0,0-.2.2-.2.2-.3,0-.3.2-.4.4ZM77.1,87.2c0,.2,0,.4,0,.7,0,.5.3.6.7.4.1,0,.3-.1.4-.2,0,.1,0,.2,0,.2-.2.1-.2.3-.2.6,0,.3.1.6.3.9.1.1.2.3.3.5,0,.2.2.4.4.4.1,0,.3.1.4.2,0,0-.1.2-.1.3,0,.2,0,.4.2.5,0,0,.2.1.2,0,.2,0,.4-.1.5,0,0,.1.1.4,0,.6,0,.2,0,.4.1.5.2.2.4.3.4.7,0,.3.3.3.6.3.2,0,.4,0,.7,0,0,.1,0,.2,0,.3-.2.4-.1.7.3.9.2.1.4.3.5.5.1.1.2.4.3.4.1,0,.3-.2.5-.2.1,0,.3,0,.4,0,0,.1,0,.2-.1.3-.2.3-.2.5,0,.7.1,0,.3,0,.5,0,.2,0,.4-.2.5-.3,0,.2,0,.4-.1.5-.2.3,0,.4,0,.6.1.2.3.2.5.1.1,0,.2-.2.3-.2.1,0,.3,0,.4,0,0,.1,0,.2,0,.3,0,.2-.1.3,0,.5.1.2.3.4.6.3,0,0,.2-.1.3-.2,0,0,.2-.1.2-.2,0,.3-.1.6,0,.8,0,.2.3.4.5.5.2.1.3-.2.5-.3,0-.1.2-.2.3-.3,0,0,.2,0,.2,0,0,0,0,.2,0,.2-.1.2-.2.3-.4.4-.1.1-.1.2,0,.3.3.3.8.3,1,0,.1-.2.2-.4.6-.3,0,.2-.2.3-.3.5-.1.1-.2.3,0,.4,0,0,0,.1.1.2.1,0,.3.1.5.1,0,0,.2-.2.2-.3.1-.4.3-.5.7-.3-.2.2-.3.4-.5.5-.1.2-.2.3,0,.5.1.2.3,0,.4,0,0,0,.1,0,.2-.1.2-.1.4-.3.6-.4,0,0,0,0,0,0,0,0,0,.2-.1.3-.2.3,0,.6.3.7.4.1.7,0,.8-.5,0,0,0-.2,0-.2,0,0,.2-.1.2,0,0,0,.1.2.1.2,0,.1,0,.2-.1.4,0,.2,0,.4.2.5.2,0,.4.1.5-.2,0-.1.1-.3.3-.4,0,0,.2,0,.3,0,0,0,0,.2,0,.2,0,0,0,0-.1.1,0,.1-.2.3-.1.4,0,.1.2.2.4.3.2,0,.4.1.6.2.3.1.5,0,.6-.2,0-.2.2-.3.4-.2.2,0,0,.3,0,.4,0,0,0,0,0,0-.2.4,0,.4.3.4.2,0,.5,0,.7,0,.3.1.6.1.9.1.4,0,.6,0,.7-.4,0,0,.2,0,.2-.1,0,0,0,.1,0,.2,0,.4,0,.4.4.4.5,0,.9-.2,1.3.2,0,0,0,0,0,0,0-.4,0-.7.2-.7,0,0,.2,0,.2,0,0,.2.1.4.2.6.1,0,.3,0,.4.1.5.1.6,0,.6-.5,0,0,0,0,0-.1,0,0,.1-.2.2-.2,0,0,.1.2.2.2,0,.2,0,.5.1.6.1.1.4,0,.6,0,0,0,.2,0,.2,0,.3,0,.7,0,1-.1.1,0,.2-.1.2-.3,0-.1.1-.3.2-.4.1,0,.3.2.3.3,0,.2.2.2.3.2.3,0,.6,0,.9.1.2,0,.4,0,.4-.3,0-.2,0-.3,0-.5,0-.2.1-.2.3-.2,0,0,.2,0,.3.1.3.2.7.2,1,.2,0,0,.2-.1.2-.2-.2-.2-.4-.6-.7-.7-.2-.1-.5,0-.8,0-.3,0-.5.1-.8.1-.7,0-1.4.2-2,.6-.2.1-.4.1-.5,0-.1-.2-.3-.2-.4,0,0,0-.2,0-.3.1-.2.1-.3.1-.4-.1,0-.2-.2-.3-.5-.2-.2,0-.5.2-.7.1-.4-.1-.7-.2-1.1-.2-.1,0-.2,0-.3,0-.7,0-1.3-.2-2-.2-.2,0-.4.2-.5.3,0,0-.1.2-.2.3h-.1c0-.2-.1-.3-.1-.4,0-.3-.2-.6-.6-.5-.4,0-.8-.3-1.3,0,0,0-.2,0-.2,0-.2-.1-.4-.3-.6-.4-.1,0-.3-.1-.4-.1-.2,0-.4,0-.6-.1-.2,0-.4-.1-.6-.2-.3-.2-.7-.3-1-.5,0,0-.2-.1-.3-.2-.4-.2-.9-.3-1.3-.5-.6-.3-1.2-.5-1.7-1,0,0-.3,0-.4-.2-.2,0-.5-.2-.5-.3,0-.4-.4-.4-.7-.5-.1,0-.2-.2-.4-.3,0,0-.2-.2-.3-.3-.2-.2-.5-.3-.7-.5,0,0-.1-.1-.2-.1-.3,0-.4-.2-.5-.5,0,0,0-.2-.1-.2-.4-.3-.7-.7-1.1-1-.5-.5-1-.9-1.5-1.4-.1,0-.3-.2-.3-.3,0-.5-.4-.7-.7-1-.3-.4-.8-.6-1.1-1,0-.1-.2-.3-.3-.4-.4-.5-.8-.8-.9-1.5-.1-.5-.5-1-.8-1.5-.2-.4-.3-.4-.7-.2-.1,0-.2,0-.3,0,.1-.1.2-.3.4-.4.2-.1.3-.3.1-.5-.1-.3-.3-.5-.4-.8,0-.2-.2-.4-.2-.6,0-.2-.2-.4-.4-.3-.2,0-.3.2-.4.3-.1.2-.2.4-.2.5,0,.1,0,.3,0,.4,0,0,.3,0,.4,0,0,0,.2,0,.3,0-.1.2-.2.4-.3.5-.2.6,0,1,.6,1ZM91.7,76.9c0,0-.1-.2-.2-.3-.4.1-.6.3-.5.8,0,.1.1.3.2.4.5,1.3,1.1,2.5,1.8,3.7.5.8,1,1.5,1.9,1.9,0,0,.1,0,.1.2.2.4.6.6,1,.8.6.2,1.2.5,1.7.7.3.1.5.2.8.3.6.2,1.1.3,1.7.4.6.1,1.2.3,1.8.3.9,0,1.7,0,2.6,0,.7,0,1.4-.3,2-.4.2,0,.4-.1.5-.2.4-.2.7-.4,1.1-.6.6-.3,1.2-.7,1.8-1,.2,0,.3-.2.4-.3.5-.4.9-.8,1.2-1.3.3-.4.6-.7.9-1,.2-.2.3-.4.2-.7,0-.2-.2-.5-.3-.8-.1.1-.2.2-.3.4,0,.1,0,.2-.1.3-.4.6-.7,1.1-1.1,1.7,0,0-.1,0-.2.1,0,0,0-.2,0-.3.2-.3.4-.6.5-.9.2-.3.4-.6.6-.9,0-.2,0-.5.1-.7.1-.5.3-1,.5-1.5.1-.5.2-1.1.3-1.6,0-.5,0-.9,0-1.4,0,0,0-.2,0-.3,0-.6,0-1.3,0-1.9,0-.4-.2-.9-.1-1.3,0,0,0-.1,0-.2,0-.4-.2-.8-.2-1.2,0,0,0,0-.1-.2,0,0,0,.1,0,.2,0,.6-.2,1.2-.2,1.8,0,.7-.2,1.5-.3,2.2,0,0,0,.2,0,.2-.1.7-.3,1.4-.4,2.1,0,.3,0,.6-.1.9-.1.6-.2,1.2-.3,1.9,0,.3,0,.7-.1,1,0,.4-.2.8-.2,1.2,0,.4-.2.6-.6.7-.2,0-.5.1-.7.1-.4,0-.8.2-1.2.2-.7,0-1.5,0-2.2.1-.7.2-1.5.2-2.2.2-1.4,0-2.8,0-4.2,0-.2,0-.4,0-.6,0-1,0-2.1,0-3.1.1,0,0-.1,0-.2,0-.2,0-.5,0-.7,0-.3-.2-.6-.5-.8-.7-.2-.1-.1-.3.1-.3,0,0,.2,0,.2-.1,0-.3,0-.6,0-.8,0-.6-.2-1.2-.3-1.7,0-.3,0-.6-.1-.9-.1-.6-.2-1.2-.3-1.8-.1-.5-.2-1-.3-1.5,0-.4-.2-.9-.3-1.3-.1-.5-.2-1.1-.4-1.6,0-.4-.2-.7-.3-1.1,0-.3-.2-.6-.3-1,0,.1-.1.2-.2.2-.4.5-.4,1.2-.5,1.8,0,1.1,0,2.3.1,3.4,0,0,0,0,0,.1,0,.5.1,1,.2,1.5h0ZM95,72.1c.2-.4-.2-.5-.4-.7-.1-.1-.3-.2-.4-.4,0-.3-.1-.7-.1-1.1,0,0,0-.2,0-.3,0,0,.2.1.3.2.1.2.3.3.4.6.2-.2.3-.3.4-.5.1-.3.4-.5.8-.6.3,0,.6.2.8.5.1.2.4.3.6.3.1,0,.3-.2.4-.4.2-.3.4-.6.6-.8.2-.2.5-.3.8-.2.6.1,1,0,1.3-.6.1-.3.3-.6.4-.9.1-.4.2-.9,0-1.3-.2-.3-.4-.6-.5-1,0-.4.2-.8.7-.7,0,0,.2.1.2.2,0,.3.2.5.4.7.5.4.8.3,1-.3,0,0,0-.1,0-.2,0-.2.2-.2.3,0,.3.2.4.6.3,1-.3.7-.2,1.4,0,2.1.1.4.2.8.2,1.3,0,.1,0,.3.1.5,0-.1.1-.2.2-.2.3-.4.5-.4.9,0,.2.2.5.4.7.4.3,0,.5.1.8.2.5.2.4.3.8-.1,0,0,.2-.1.3-.2,0,.1,0,.2.1.3.1.6.4,1.1,1,1.3.4.2.7,0,.7-.4,0-.3,0-.6-.2-.8,0-.1-.1-.2-.2-.4,0,0,0,0,0,0,0,0,0,0,0,0,.3.2.4,0,.6-.2.1-.2.2-.3.4-.5.2-.2.3-.1.4,0,0,0,0,0,0,.1.3.4.5.8.8,1.1,0,0,.2,0,.3,0,0,0,0,0,0-.1,0-.2.1-.4.2-.6.2-.3.3-.7.5-1,0-.2.1-.3-.1-.3-.1,0-.2,0-.3-.2-.4-.4-.7-.8-1-1.2-.2-.3-.4-.6-.7-.9-.6-.6-1.3-1.1-2-1.4-.6-.3-1.2-.6-1.8-.9-.6-.4-1.4-.5-2.1-.6-.6-.1-1.2-.2-1.8,0-.9,0-1.7.3-2.5.4-.7,0-1.2.3-1.8.6-.5.2-1,.4-1.4.8-.3.3-.6.5-.9.8-.3.3-.7.5-1,.8-.4.5-.8,1-1.2,1.5-.3.4-.4.8-.7,1.2,0,0-.1.1-.2.1-.2,0-.2.2,0,.3,0,0,.2.1.3.2.2.2.5.4.6.7.2.6.4,1.2.5,1.8.1.6.4,1.2.4,1.8,0,.3.1.6.3.9.2.2.4.4.7.5.4.1.7.3,1,.6,0,0,.1,0,.2,0,.3,0,.5-.2.6-.5,0-.3,0-.6-.2-.9-.2-.2-.5-.2-.7-.1-.2,0-.5.2-.7.2-.1,0-.3,0-.4-.2-.3-.3-.4-.6-.4-.9,0-.4,0-.8.5-.9.2,0,.4,0,.6.1.1,0,.2,0,.3,0,0,0,0-.2-.2-.3-.2-.1-.4-.2-.6-.3ZM109.7,76.4s0,0,0-.1c-.2-.4-.4-.3-.6,0-.3.4-.8.7-1.3.8-.1,0-.2,0-.3.1-.3.1-.6.2-1,.1-.1,0-.3,0-.4,0-.4,0-.9,0-1.3-.2-.2-.1-.5-.2-.7-.4-.4-.3-.8-.7-1.1-1-.2-.2-.4-.2-.6-.1-.3,0-.4.4-.6.7-.5.6-1.1,1-1.9,1.2-.3,0-.6.2-.9.2-.6,0-1.3,0-1.9,0-.5,0-.9-.2-1.4-.3-.1,0-.2,0-.3-.2,0-.2-.1-.4-.2-.6,0-.2-.1-.4-.2-.5,0,0-.2,0-.3,0,0,0-.1.2-.1.3,0,.5.1,1,.3,1.4.3.8.3,1.6.4,2.4,0,.1,0,.3,0,.4.1.4.3.8.4,1.2.1.4.4.6.8.6,1.2,0,2.4,0,3.6-.1,0,0,0,0,0,0,.9,0,1.7-.2,2.6-.2,1.3,0,2.6,0,3.9-.1,0,0,.1,0,.2,0,.7-.2,1.3-.2,2-.2.3,0,.6-.1.9-.2,0,0,0-.1.1-.2,0,0-.1,0-.2,0-.2,0-.5,0-.7,0-.5.2-1.1.3-1.6.3-.6,0-1.2.2-1.9.2-1.4,0-2.8,0-4.3.1-.7,0-1.4,0-2.1.1-.6,0-1.2,0-1.9,0-.5,0-1.1-.5-1.2-1.1,0-.3,0-.7-.1-1,0,0,0-.1-.1-.2,0-.2-.2-.3-.1-.5.1-.2.3-.1.5,0,0,0,.1,0,.2.1.4.3.8.5,1.2.8.4.3.9.2,1.4.2.7,0,1.4,0,2,0,.5.1,1,0,1.5,0,.6,0,1.2-.2,1.9-.2.3,0,.6,0,.9,0,.3,0,.6,0,.9,0,.9,0,1.8,0,2.7-.2.4,0,.7-.2.8-.6,0-.2,0-.4,0-.6.1-.6.3-1.1.5-1.7,0,0,0,0,.1-.1,0,0,0,0,.1.1,0,0,0,.2,0,.3,0,.4,0,.9-.1,1.3,0,.5,0,1-.1,1.5,0,0,0,.1,0,.2,0,.2,0,.3,0,.5,0,0,0,0,.1.1,0,0,0,0,0-.1.1-.6.2-1.2.3-1.9,0-.3,0-.5,0-.8,0-.4.1-.8.2-1.3,0-.1,0-.2,0-.4,0-.4,0-.7,0-1.1,0,0,0-.2,0-.3-.3.5-.2,1.2-.8,1.5ZM93,93.8c0-.5,0-1-.2-1.4-.2-.3-.5-.5-.7-.7-.2-.1-.5-.1-.8-.3-.5-.2-.9-.5-1.3-1-.1-.2-.4-.3-.7-.2-.3.1-.4,0-.5-.2-.3-.4-.6-.8-.9-1.2-.1-.2-.3-.2-.5,0-.4.3-.8.5-1.3.4-.2,0-.4,0-.7,0-.2,0-.5,0-.6-.2-.2-.4-.2-.5.1-.8,0,0,.2-.2.2-.3,0-.2.2-.2.4-.2.3,0,.5,0,.8,0,0,0,.3-.2.3-.2,0-.2-.1-.4-.3-.4-.5-.2-.6-.7-.8-1.1-.1-.3-.3-.5-.4-.7-.1-.2-.4-.1-.4,0,0,.3,0,.6-.1,1,0,.3-.1.6-.2.9,0,.3-.1.5-.2.8,0,.2,0,.3-.1.5-.1.3-.3.3-.6.2-.4-.1-.8-.3-1.2-.4-.2,0-.4,0-.5.3,0,0-.2.2-.2.2-.2.1-.3.3-.5.4,0,0,0,.2,0,.3.3.3.5.7.8,1,0,0,.3.2.3.2.1,0,.2-.2.3-.4,0,0,0,0,0-.1,0-.3.1-.6.5-.7.4,0,.7,0,1.1-.1,0,0,.2,0,.2.1.2.2.3.5.3.8,0,.3,0,.7-.2,1-.2.6-.3.6-.8.6,0,0,0,0,0,0-.1,0-.2.2-.3.2,0,.1.2.3.3.3.4,0,.7.3.9.6,0,0,.1.2.2.2.2.2.6.1.6-.2,0-.3.1-.6.1-1,0-.3,0-.5,0-.8,0-.2,0-.3.2-.4.3-.2.6-.1.9,0,.4,0,.8,0,1.3,0,.4,0,.8-.2,1.3-.3,0,0,.2,0,.3.1.2.2.3.4.5.6.2.2.3.4,0,.6-.3.3-.4.6-.6,1,0,.1-.2.3-.2.4-.2.3-.7.5-.6,1,0,0-.2.2-.3.2,0,0-.2-.1-.2-.2-.1-.6-.4-.7-1-.5-.4.2-.5.3-.5.6,0,.4.4.7.7.6.3-.1.5,0,.7.2.3.4.7.8,1.1,1.1.3.2.7.3,1.1.5,1,.4,2.1-.2,2.5-.9.5-.7.7-1.5.6-2.3ZM102.3,95.1c-.2-.1-.4-.3-.6-.3-.5,0-1.1,0-1.6-.1-.5,0-.9-.2-1.4-.2-.4,0-.7-.3-1.1,0,0,0-.2.1-.2.2,0,.1,0,.2.1.3.3.3.6.5.8.7.3.3.4.6.3,1,0,.3-.1.5-.2.8,0,0-.1.1-.2.2,0,0-.2-.2-.3-.3,0-.2-.2-.4-.2-.6,0-.1-.2-.3-.2-.4-.2-.5-.5-.9-1-1.3-.2-.2-.5-.4-.7-.6-.3-.3-.6-.5-1-.5-.4,0-.5.2-.4.5,0,.1.1.2.2.3.3.4.4.7.1,1.1,0,.1-.2.2-.3.3,0,0,0,.2,0,.2,0,0,.2.1.3,0,.5-.1.9,0,1.3.2.1,0,.2.2.3.3,0,0-.2.2-.3.3-.3.2-.6.4-.9.6-.3.2-.6.3-.9.5-.1,0-.3.1-.3.2,0,.2,0,.3.2.4.1.1.3.2.4.3.4.4.8.7,1.3.9.5.2,1.1.1,1.6,0,.7-.2,1.4,0,2.1,0,.6.1,1.1.3,1.6.6.2.1.5.1.5-.1,0-.3,0-.6,0-.8,0,0-.3,0-.4-.1,0,0-.1,0-.2,0-.4,0-.8-.3-.8-.6,0-.8,0-1.6.2-2.3,0-.2,0-.4.1-.6.1-.4.5-.5.9-.6.3-.1.7,0,.9-.5ZM107.8,99.9c0,0,0-.2,0-.3,0-.2,0-.3.3-.4.4-.2.7-.3,1.1-.6.5-.4,1.1-.6,1.8-.7.5,0,1,0,1.6,0,.3,0,.6,0,.9,0,.2,0,.4,0,.5-.2-.2-.1-.3-.3-.2-.5,0-.2,0-.4.1-.6,0-.2.1-.5-.1-.5-.6,0-1.2-.2-1.7.3-.1.1-.3.1-.5.2-.2,0-.2,0-.2-.2,0-.4,0-.7.2-1.1.1-.2.2-.5.3-.7.3-.6.5-1.2.8-1.9,0-.2,0-.3.1-.5-.2,0-.3,0-.5,0-.7.3-1.3.6-2.1.6-.2,0-.5.2-.6.3,0,.1,0,.4.1.6.4.4.5,1,.8,1.5,0,0,0,.2,0,.3-.2.2-.7.3-.9,0-.3-.3-.6-.7-.9-1,0-.1,0-.3-.1-.5,0,0,0-.2-.1-.2-.3,0-.7-.2-1-.1-.4,0-.8.2-1.2.4-.3,0-.5.2-.8.2-.2,0-.3.2-.2.4,0,.1.2.2.3.3.3.1.7.2,1,.4,0,0,.1,0,.2,0,.5-.2,1,0,1.3.4.1.2.3.4.5.6.1.2.3.4.4.5.3.3,0,.4,0,.6-.1,0-.3.1-.4.2-.1,0-.3.1-.4.2-.4.2-.8.4-1.2.5-.2,0-.3.1-.1.3,0,0,.1.2.2.3.3.3.6.6.9,1ZM81.4,78.3s0,0,0,0c-.1,0-.3,0-.4,0-.4.2-.9.4-1,1,0,0,0,0,0,.1-.1.2-.3.4-.3.6,0,.2-.2.3-.4.3-.4,0-.8,0-1.3.1,0,0-.2,0-.2.1,0,.3-.3.7-.2,1,.1.8.5,1.4,1.1,1.9.5.4,1.1.5,1.7.4.3,0,.5-.1.8-.4.4-.4.9-.4,1.4-.4.1,0,.3,0,.4,0,.5,0,.9,0,1.3.4,0,0,.1,0,.2,0,0,0,0-.2,0-.2-.3-.3-.4-.7-.5-1.1-.1-.5-.3-.9-.4-1.4-.2-.9-.5-1.6-1.1-2.2-.1-.1-.3-.2-.5-.3-.2-.1-.3-.2-.5-.3ZM80.6,70.7s0,0,0,0c.1,0,.2,0,.4,0,.4,0,.9-.4,1.1-.8.2-.5.4-1,.6-1.5,0-.2,0-.4.1-.6,0-.2,0-.4.2-.6.2-.3.4-.5.6-.8.2-.2,0-.4-.2-.4-.3,0-.6,0-.8.4-.1.3-.4.2-.6,0,0,0-.2-.2-.3-.2-.6-.2-1.2-.4-1.9-.4-.2,0-.4,0-.2-.3,0-.2.1-.4.1-.5,0-.1,0-.3-.1-.4-.1-.1-.2-.2-.4-.3-.1,0-.3,0-.4,0-.2,0-.4.3-.4.4,0,.4,0,.7.2,1.1.1.4,0,.7-.2.9-.2.1-.2.4-.4.5-.3.3-.1.7-.2,1.1,0,.2,0,.5,0,.8,0,.4.2.7.5.9.3.2.7.4,1,.5.4.1.9.2,1.4.3ZM76.5,75s0,0,0,0c0,.2,0,.4,0,.6,0,.3.1.6.3.8.3.3.6.5,1,.5.3,0,.6,0,.9.1.6.3,1.2,0,1.7-.1.5-.2,1-.5,1.1-1,0-.2.2-.5.3-.7.1-.5.2-.9,0-1.4-.1-.4-.2-.7-.4-1.1,0,0-.1-.2-.2-.3-.1-.1-.3-.2-.5-.3-.3-.4-.8-.4-1.2-.5-.4-.1-.7,0-1.1.2-.3,0-.6.3-.8.5-.3.4-.5.8-.8,1.2-.3.4-.5.8-.5,1.3,0,0,0,.1,0,.2ZM126.3,67.4c0,0-.2,0-.3,0-.2,0-.3.3-.5.3-.5.1-1,.3-1.5.4-.8,0-1.6,0-2.4.1,0,0-.1,0-.2,0-.3,0-.4.1-.2.4.2.2.4.4.6.7.1.1.2.2.3.4.3.5.6.8,1.2.7.2,0,.4,0,.7,0q.5,0,.4.4s0,0,0,.1c0,.5-.2.7-.5,1-.4.3-.7.6-1,1-.3.4-.3.8-.2,1.3,0,.2.2.2.4,0,.1-.1.3-.2.4-.3.5-.2.7-.4.7-1,0-.5.1-.9.6-1.1.2,0,.2-.2.1-.3-.2-.5,0-.9.3-1.2,0,0,0,0,0-.1.2-.2.3-.2.5,0,.2.3.5.6.8.9.1.2.3.4.4.6.1.3,0,.5-.3.6-.3.2-.6.3-1,.2,0,0-.1,0-.2,0,0,0,0,.2,0,.2.2.2.3.3.5.5.1,0,.3.1.4.1.5,0,.8-.2.8-.7,0,0,0,0,0,0,0-.4,0-.8,0-1.1-.2-.6-.6-1-.9-1.6-.2-.4-.5-.9-.3-1.5.1-.4.2-.8.3-1.2ZM121.7,64.8c0,0-.1,0-.2,0-.4,0-.8,0-1-.5-.2-.3,0-.6,0-.9,0-.1.3-.1.5-.1.4,0,.7,0,1.1-.3.3-.2.7-.5,1-.7.2-.1.6-.1.8,0,.2.2.4.3.5.5.3.3.5.6.5,1.1,0,.3,0,.6-.1.9,0,.6-.4,1.1-1,1.4-.3.1-.5.4-.8.6,0,0,0,.1,0,.2,0,0,.1,0,.2,0,.5,0,1.1-.2,1.6-.3.2,0,.2,0,.2-.3,0-.2,0-.4,0-.6.2-.7.4-1.3.4-2,0,0,0-.2,0-.3-.3-.9-.9-1.6-1.8-2.1-.3-.1-.5-.3-.8-.4-.1,0-.2-.1-.3-.1-.5,0-1,.1-1.5.3-.6.2-.8.8-.9,1.3,0,.4-.1.8-.2,1.2,0,.1-.1.3,0,.4.3.6.6,1.3,1.3,1.6.8.4,1.6.2,2.1-.5.1-.2.3-.4.3-.7,0-.2,0-.5,0-.8,0-.2,0-.3-.3-.2-.1,0-.3,0-.3.2-.1.7-.6,1-1.3,1.1ZM82.8,59.1c0-.4,0-.7-.1-1.1,0,0-.2-.1-.2-.1-.2,0-.3,0-.5,0-.3,0-.5-.2-.8-.3,0,0-.2,0-.2,0-.1.2,0,.5.3.5.5,0,.7.4.4.8,0,.1,0,.3,0,.4.2.2.2.4.2.6,0,.3,0,.5,0,.8,0,.4-.1.7-.5,1-.2.1-.3.4-.5.6,0,0,0,.2,0,.3.1.1.2.3.4.3.5.3,1,.5,1.5.7.3.1.6.3.6.7,0,0,.1.2.2.2,0,0,.2,0,.2-.1.1-.1.2-.3.3-.4.5-.4,1-.8,1.5-1.2,0,0,.1,0,.2-.1.2-.2.2-.3,0-.4-.2-.1-.4-.2-.6-.3-.5-.3-1-.7-1.5-1-.2-.1-.5-.3-.8-.1-.1,0-.4,0-.4,0,0-.2,0-.4,0-.5.4-.3.2-.8.4-1ZM114.1,91h0c.4,0,.7,0,1.1.1.2,0,.4.2.6.4.4.6.8,1.1,1.2,1.7.1.2.1.3,0,.4-.3.2-.5.5-.7.7-.2.2-.3.5-.4.7,0,0,0,.1,0,.2,0,0,.2,0,.2-.1,0-.3.3-.4.5-.5.3-.2.5-.3.7-.5.4-.3.7-.6,1.1-.9.1-.1.3-.2.4-.3.5,0,.9-.2,1.4-.2.2,0,.4,0,.4-.3,0-.3-.2-.3-.4-.3-.2,0-.4,0-.6-.1-.2,0-.4,0-.5,0-.4,0-.6,0-.8-.3-.1-.2-.3-.4-.4-.5-.3-.4-.7-.8-.6-1.4,0-.4.2-.9.2-1.3,0-.1,0-.3,0-.4,0,0-.2,0-.2,0-.7.4-1.3.8-1.9,1.4-.4.3-.8.7-1.3.8-.3,0-.2.3-.3.4.1,0,.2,0,.4.1,0,0,.1,0,.2,0ZM107.7,52s0-.1,0-.1c0-.7-.2-1.3-.9-1.6-.5-.2-1.1-.4-1.6-.5-.7-.2-1.3-.3-2-.5-.1,0-.3,0-.4-.1-.2,0-.2.1-.2.3,0,.2.2.5.4.6.3.3.5.7.5,1.2,0,.5,0,1-.1,1.5,0,.3,0,.6,0,.9,0,.1,0,.3.2.3.4,0,.9.2,1.4.1.6,0,1.2-.1,1.8-.4.8-.4,1.1-.8,1.1-1.6ZM89.4,83c-.6,0-.7.1-.6.7,0,0,0,.2,0,.3,0,.4.1.7.3,1,.2.3.4.5.7.7.4.3.9.7,1.3,1.1.4.3.7.3.9-.3.1-.4.2-.9.6-1.1.6-.4,1.2-.6,1.9-.7,0,0,.2,0,.2-.1,0,0,0-.2-.1-.2-.1,0-.3-.1-.4-.2-.2,0-.3-.2-.4-.3-.2-.3-.5-.6-.8-.9-.2-.2-.4,0-.4.2,0,.1,0,.3.2.4.1.2.1.4-.1.5-.2.1-.3,0-.5-.2-.3-.7-.4-1.4-.3-2.2,0-.6-.1-.9-.5-1.2-.2-.1-.3,0-.3.1,0,.8,0,1.5.2,2.3,0,.2,0,.4-.1.6-.1,0-.3,0-.4-.1,0,0,0,0,0,0-.4-.1-.7-.5-1.1-.4ZM109.7,51c0,.1.2.2.2.4,0,.2.2.4.1.6-.2.4-.2.8-.3,1.2-.2,1,0,2,.9,2.6.1,0,.2.1.3.2.5.2,1.1.3,1.6.5.3.1.3,0,.3-.2,0-.2,0-.4,0-.6.2-.4.4-.8.7-1.2.3-.4.5-.6.9-.8.3-.2.5-.4.7-.6,0,0,0,0,0,0-.2,0-.5-.1-.7,0,0,0-.3,0-.3,0-.3-.3-.6-.6-.9-.9,0-.1-.2-.3-.3-.3-.3-.1-.6-.2-.9-.4-.7-.3-1.5-.2-2.3-.3,0,0,0,0-.2,0ZM96,49.8s0,0-.1,0c0,.2-.2.4-.3.5-.2.3-.4.4-.7.2-.1,0-.3-.1-.5-.2-.8-.1-1.6.4-1.9,1.3,0,.1,0,.2-.2.3-.1.2-.3.4-.4.6,0,.1,0,.3,0,.4.4.3.4.7.6,1,.4.9,1,1.4,2.1,1.1.7-.2,1.4-.5,2.1-.5,0,0,.2-.1.2-.2,0-.4-.2-.5-.4-.6-.2-.1-.2,0-.4.2,0,0,0,0-.2,0,0-.1-.1-.2-.1-.3,0-.5-.2-.9-.3-1.4-.2-.6-.1-1.2.4-1.6,0,0,0-.2,0-.2,0-.2,0-.3,0-.5,0,0,0-.2-.1-.3ZM110.9,89.8c0,.1-.1.2,0,.3,0,.2,0,.3-.2.2-.2,0-.3,0-.3.2,0,0-.1.1-.2.1,0,0-.1,0-.2-.1,0,0,0-.2-.1-.3-.3.1-.2.3-.2.5,0,0,0,.2-.1.2,0,0-.2-.1-.2-.2,0,0,0-.2,0-.3,0-.1,0-.3,0-.4-.5.1-1,.3-1.4.4-.2,0-.4.2-.6.3-.1.2-.3.2-.5.2-.4,0-.9.1-1.3.3-.2,0-.3,0-.5,0,0,0-.2,0-.3,0-.4.3-.7.4-1.2.2,0,0-.2,0-.3,0-.5,0-1,0-1.5.1-.1,0-.2.2-.3.3,0,.1,0,.3.1.5,0,.1.2.2.3.2,0,0,.2-.1.3-.2.1-.1.2-.2.3-.4,0,.1.2.2.3.3,0,0,.2.1.3.1,0,0,.1-.1.2-.2,0,0,0-.2,0-.2,0,0,.1-.1.2-.2,0,0,0,.1.1.2,0,.2.1.3.2.5,0,0,.2,0,.3,0,0,0,0-.1,0-.2,0-.1,0-.2,0-.4,0,0,.1-.2.2-.3,0,0,.2.1.3.2,0,.1,0,.3,0,.4,0,.2,0,.2.2.1.2,0,.2-.2.2-.4,0-.3,0-.5.4-.6,0,.2,0,.4,0,.5,0,.3.3.2.4.2.2,0,0-.2,0-.3,0,0,0-.2,0-.2,0-.1.2-.3.3-.3.2,0,.2.2.2.3,0,0,0,.2,0,.3,0,.1,0,.2,0,.3,0,0,0,0,.1,0,.1-.3.2-.7.3-1,0,0,0,0,.1,0,0,.1,0,.3,0,.4,0,.2.2.3.4.2.2-.1.2-.3.1-.5,0,0,0-.2,0-.3,0,0,0-.1.2-.2,0,0,.2.1.2.2,0,0,0,.2.1.3,0,0,.1.1.2,0,0,0,0-.1.1-.2,0,0,0-.1,0-.2,0-.2,0-.4.2-.4.2,0,.2.2.2.4,0,.3,0,.3.3.2.4-.2.7-.3,1.1-.5.3-.1.5-.2.8-.3.1,0,.2-.2.3-.3,0-.2.2-.1.3,0,0,0,.2.1.3.1.3,0,.5-.3.5-.7,0-.1,0-.2.1-.3.1,0,.2.1.3.2,0,0,0,0,0,0,.1.2.2.1.3,0,.2-.3,0-.5,0-.8,0-.1,0-.3,0-.4.1,0,.2,0,.3.1,0,0,.2.1.3.2.4.2.5.1.7-.2-.1-.2-.3-.3-.3-.5,0,0,0-.2,0-.4.1,0,.3,0,.4,0,.1,0,.2.2.3.3.5-.4.5-.6.3-.9,0,0,0-.2,0-.3,0-.1,0-.3,0-.4-.1,0-.3.1-.4.2,0,0,0,0,0,.1-.3.4-.6.7-1,1-.3.3-.7.4-1.1.6-.4.2-.4.3-.3.7,0,0,0,.2,0,.3,0,0,0,.2-.1.3,0,0-.2,0-.2,0-.1-.2-.2-.4-.3-.6-.3.2-.5.4-.8.6.1,0,.2.1.3.2ZM94.9,86.6c-.2,0-.5,0-.7,0-.5,0-.8.6-.5,1,0,0,0,.2,0,.4,0,.1,0,.3,0,.4.6.7,1.4,1.1,2.2,1.3.6.2,1.3.2,1.9.6,0,0,0,0,.1,0,0,0,.2,0,.3-.1,0,0,0-.2-.1-.2,0-.2-.2-.3-.2-.5,0-.5,0-.9,0-1.4,0-.4.2-.8.4-1.1.1-.1.3-.3.5-.3.1,0,.3,0,.3-.2,0-.2-.1-.3-.3-.3-.3,0-.6-.2-.9-.3-.4-.1-.9-.1-1.3-.5,0,0-.3,0-.4-.1,0,.2,0,.3,0,.5,0,0,0,0,.1.1.3.2.6.5.9.7.2.2.2.6,0,.8-.2.2-.4,0-.6,0,0,0,0,0,0,0-.5-.5-1.1-.8-1.8-.7ZM109.1,87.4c0,.5,0,.9,0,1.3,0,.2.1.3.3.2.3-.2.6-.4.9-.6,0,0,0-.1,0-.2,0-.6,0-1.1.1-1.7,0-.3.1-.4.4-.3.5.2,1.1.4,1.6.5.4,0,.8.1,1.1-.1.2-.2.5-.4.7-.6,0,0,.2-.2.1-.3,0,0-.2-.1-.3-.2-.3,0-.5,0-.8-.2-.2,0-.4-.2-.6-.3-.4-.2-.9-.3-1.3-.4-.6-.2-1.1-.5-1.8-.4-.2,0-.4.1-.4.3,0,.2,0,.4,0,.5,0,.1,0,.3,0,.4,0,.1,0,.3,0,.4,0,.4,0,.9,0,1.3,0,.1,0,.2,0,.3,0,0-.1,0-.2-.2ZM103.6,90.8c.2,0,.4,0,.5-.1.2,0,.4-.1.7-.2.4,0,.8,0,1.1-.2.5,0,1-.2,1.1-.9.1-.6,0-.9-.5-1.1-.4-.2-.9-.4-1.4-.5-.2,0-.5-.1-.8-.2,0,0-.1-.1-.2-.2,0,0,0-.2.1-.2.4-.1.8-.2,1.1-.3.3,0,.5,0,.8.1.2,0,.5.2.7.3,0,0,.1,0,.2,0,0,0,0-.1,0-.2,0-.5.1-.9.3-1.3,0,0,0-.2,0-.2,0,0-.2,0-.2,0-.6.1-1.2.3-1.7.4-.6.1-1.2.3-1.7.6-.2.1-.4.6-.4.8.2.4.4.8.8,1,.5.2,1,.4,1.5.6,0,0,.1,0,.1.2,0,.3,0,.5-.4.5-.7,0-1.3,0-2-.3-.2,0-.3,0-.4.2,0,.2-.1.4-.1.6,0,.5,0,.5.5.5ZM118.5,70.4s0,0,0,0c0-.4-.2-.7-.3-1.1-.1-.5-.3-.9-.4-1.4,0-.3-.2-.6-.4-.8-.2-.2-.3-.2-.5,0-.1.2-.3.3-.4.4,0,0-.2.1-.3.2-.6.3-1.1.6-1.8.4-.1,0-.3,0-.4,0,0,.1,0,.3,0,.4.2.3.4.7.5,1,.1.3.2.3.5.2.2-.1.4-.2.6-.3.4-.2.6,0,.6.4,0,.5-.3,1-.6,1.3-.4.4-.7.9-.6,1.5,0,0,0,.2.1.2,0,0,.2,0,.2,0,.4-.5.9-.9,1.3-1.4.3-.4.3-.4.8-.2,0,0,0,0,0,0,.4.2.8,0,.8-.5,0,0,0-.2,0-.2ZM101.5,51.3c-.3-.1-.5,0-.7.2-.2.3-.8.3-1.1,0-.2-.2-.2-.8,0-1,.2-.3.4-.7.6-1.1,0,0,0,0,0,0-.2,0-.4,0-.5,0-.4.2-.9.2-1.3.2-.4,0-.9.2-1.3-.1,0,0-.1,0-.2,0,.2.2.3.3.5.3.5.2.8.6,1,1.1,0,.2.1.3,0,.4-.1,0-.3,0-.4,0-.3-.1-.5-.4-.8-.5,0,0-.2,0-.3,0,0,0,0,.1,0,.2.1.3.2.7.6.9.1,0,.3.2.2.4,0,0,0,.2.1.2,0,0,.2,0,.3,0,.6-.2,1,0,1,.7,0,.2,0,.4-.2.5-.1,0-.2.2-.4.2-.2.1-.4.3-.2.5.1.2.4.2.6,0,0,0,0,0,.1,0,.5-.4.7-.3,1.2,0,.2.1.3,0,.4,0,.2-.1.1-.3,0-.4,0,0-.1-.1-.2-.2-.2,0-.2-.2-.2-.4,0-.1,0-.2,0-.3,0-.4,0-.4.5-.4.3,0,.6,0,.9,0,.1,0,.2-.1.3-.2,0,0,0-.2,0-.3-.2-.2-.3-.4-.2-.7ZM113.7,83.6c0-.1,0-.2,0-.2,0-.4,0-.9,0-1.3-.1-.5.1-.8.4-1.1.3-.3.8-.3,1.1,0,.1.1.2.3.3.4.2.4.4.7.7,1.1,0,0,.2.1.3,0,.1,0,.2-.2.2-.3.3-.6.7-1.3,1-1.9.2-.3,0-.4-.3-.5,0,0-.1,0-.2,0-.4.2-.8,0-1.2,0-.7-.2-1.1-.7-1.5-1.3,0-.1,0-.3-.1-.4,0,0-.1,0-.2-.1,0,0-.1.2-.1.2,0,.2,0,.3,0,.5,0,.3-.1.6-.2.9,0,.2-.1.4-.2.5-.5.6-1,1.1-1.4,1.6-.1.1-.2.3,0,.3,0,0,.2,0,.2.2.4.3.7.7,1.2,1.1ZM91.3,54.5s0-.1,0-.2c0-.2-.2-.4-.2-.6,0,0-.1-.2-.1-.1,0,0-.1,0-.2.2,0,0,0,.2,0,.2,0,0-.1.1-.1.1,0,0-.1,0-.2-.1,0,0,0-.1,0-.2,0-.1-.1-.3-.2-.4-.1,0-.3,0-.4.2-.3.2-.6.3-.8.2.1-.3.3-.5.4-.8,0,0,0-.2,0-.3-.1,0-.2,0-.3.1,0,0-.1.2-.2.3-.4.5-.9.8-1.6.9,0,0-.2.1-.2.2,0,0,.1.2.2.2.3,0,.6,0,1,0,.2.3.5.6.8,1,0,0,0,0,0,.1.2.4.5.8.7,1.2.1.2.3.4,0,.6,0,0,0,.2,0,.2,0,0,.1,0,.2,0,.4-.3.7-.5,1.2-.5.3,0,.7-.2,1-.2.2,0,.3-.1.3-.3-.2,0-.5-.2-.7-.1-.4,0-.4-.1-.5-.3-.2-.3-.3-.7-.5-1,0-.1,0-.3,0-.5.1,0,.2,0,.4,0ZM118.9,75.9c.1-.5,0-1-.5-1.3,0,0,0,0-.1-.1-.5-.4-1.1-.8-1.8-.6-.6.2-1,.5-1.2,1-.4.9-.2,1.7.5,2.4.6.7,1.5.7,2.2.6.1,0,.3-.1.4-.2.3-.5.7-1.1.6-1.8ZM87,80.8s0,0,.1,0c.1-.2.3-.3.4-.5.3-.6.9-.6,1.4-.8.3,0,.7,0,1,.2.1,0,.3,0,.5,0,0-.1,0-.3,0-.4-.2-.5-.5-.9-.7-1.4-.2-.4-.3-.8-.2-1.2,0-.2,0-.3-.3-.3-.3,0-.4.2-.4.4-.3.9-.9,1.5-1.9.9-.1,0-.3,0-.4,0-.2,0-.4,0-.6.1-.2,0-.3.2-.2.3.1.2.3.5.5.7.3.3.7.6.8,1.1,0,.3,0,.6,0,.9ZM88.5,59c0,0,0-.1,0-.2-.2,0-.3-.1-.5-.2-.1,0-.3-.2-.4-.3-.3-.3-.5-.7-.8-1-.3-.3-.5-.7-.5-1.1,0-.1-.1-.3-.2-.4-.1,0-.3.1-.4.2-.3.6-.8.9-1.4,1.1-.3.1-.5.3-.5.7,0,.4,0,.9,0,1.3,0,.2,0,.3.2.4,0,0,0-.2,0-.2,0-.3,0-.5,0-.8,0-.3.2-.4.4-.5.2,0,.4,0,.6.2.3.3.6.5.9.7.3.2.6.4.7.8,0,.1,0,.3,0,.4,0,.1.1.3.2.3.1,0,.3,0,.4-.1.3-.4.6-.8,1.1-1,.1,0,.2-.1.3-.2ZM112.7,65.8c0,.3.4.9.5.8.2,0,.3-.3.5-.4,0,0,0,0,0-.1.1-.5.3-1,.4-1.5,0-.1.1-.2.2-.3,0,0,.3,0,.3,0,.1.1.2.3.3.4,0,0,.2.1.2.1.1-.1.3-.3.4-.4,0,0-.1-.2-.2-.3-.3-.3-.7-.5-1-.7-.6-.5-1.1-1.2-1.6-2,0-.1-.2-.2-.4-.1-.2,0-.5.1-.7.2-.2,0-.3.2-.1.4.1.1.3.2.4.3.2,0,.3.1.3.3,0,.2,0,.3-.3.4-.6.2-1.2.5-1.8.7,0,0-.2,0-.2.1,0,0,0,.1.1.2.3.2.6.3.8.5.2.1.4,0,.6,0,.4-.4.9-.8,1.3-1.1,0,0,.2-.1.3,0,.2.1.5.2.7.4.3.2.3.4,0,.6-.2.1-.4,0-.7,0,0,0-.2,0-.4,0,0,.1.1.2.2.3,0,.1.2.2.2.3,0,.3-.2.5-.3.8,0,.1-.1.3-.2.4ZM116.5,54.1c0,.2,0,.3,0,.4,0,.6-.3,1.1-.8,1.4-.3.2-.6.4-.9.5-.4.2-.4.6,0,.9.5.3,1.1.7,1.3,1.3,0,.1.2.2.3.2,0,0,.2-.2.2-.3.2-.3.5-.7.7-1,.2-.2.5-.4.7-.6.1-.2.4-.5.3-.6-.3-.4-.6-.8-1-1.2-.3-.3-.7-.6-.9-1.1ZM125.1,82.4s0,0,0,0c0,.2,0,.4,0,.5,0,.1.1.2.2.3,0,0,.2-.2.3-.3.2-.7.3-1.3.4-2,0-.1,0-.4-.2-.4-.3,0-.6-.1-.8-.2,0,0-.2,0-.2.1-.2.2-.4.2-.6,0,0,0-.1-.2-.2-.2-.4-.6-.9-.9-1.6-.9-.4,0-.6.2-.5.6,0,.4,0,.8,0,1.2,0,.1-.1.3-.2.4-.1.1-.3.2-.5.3,0,0,0,.2-.1.3.1,0,.2.1.3.1.4-.1.8-.3,1.2-.4.2,0,.4,0,.5,0,.6-.2,1.2-.2,1.8-.2.2,0,.3,0,.3.3,0,.2,0,.4,0,.6ZM87.1,72c-1-.2-1.5.2-1.5,1.2,0,.4,0,.8.1,1.3,0,.1,0,.3.1.4,0,0,.2.1.4.1.2,0,.4-.1.6-.1.4,0,.8,0,1.2.1.4,0,.7.3,1.1.4,0-.2,0-.4,0-.6,0-.6,0-1.2,0-1.8,0-.1,0-.3.1-.4,0,0,0-.2,0-.2,0,0-.1,0-.2,0-.3,0-.5,0-.8.2-.5.2-1.1.4-1.7.5-.1,0-.3,0-.3-.1,0,0,0-.2,0-.3.2-.3.5-.4.9-.5ZM101.4,61.1c.1-.1.1-.3,0-.5,0-.1-.2-.3-.1-.4,0-.2.2-.3.5-.3.2,0,.4.1.6.2,0,0,.2,0,.3,0,.2,0,.3,0,.2-.3,0-.3-.1-.6-.1-.8,0-.2,0-.5,0-.7,0-.1,0-.3-.2-.3-.2,0-.3,0-.4.2,0,.4-.3.7-.7.7-.2,0-.4,0-.4-.3,0-.4.2-.7.4-1,0-.2-.2-.2-.4-.1-.3,0-.7.1-1,.2-.1,0-.3,0-.3,0,0,.1,0,.3,0,.4,0,.2.2.3.3.5,0,.1,0,.3,0,.4,0,0-.3.2-.4.2-.3,0-.5,0-.8-.1,0,0-.2,0-.2.1,0,.2,0,.5,0,.7,0,.2.1.3.3.2.1,0,.3-.2.4-.2.3,0,.5,0,.7.1,0,0,0,.3,0,.5,0,0,0,.1,0,.2,0,.3.1.4.4.3.3,0,.6,0,.9-.1ZM108.8,60.1s0,0,0,0c0,0,.2,0,.2,0,.3,0,.6-.3.6-.7,0,0,0-.2-.1-.2-.3-.2-.7-.4-1-.6-.3-.1-.5,0-.5.2,0,.2-.3.6-.6.7-.2,0-.4,0-.5-.2-.1-.2-.1-.5,0-.7.2-.2,0-.4-.1-.5-.5-.1-.9-.2-1.3-.3,0,0-.3,0-.3.1,0,.2,0,.4,0,.5,0,.4.2.7.2,1.1,0,0,0,0,0,.1-.2.3-.3.5-.5.8-.2.3-.2.5.2.6.2,0,.4.1.5.2.6.2.9,0,.9-.6,0,0,0-.1,0-.2,0-.4.3-.6.6-.5.6,0,1.1,0,1.7,0ZM90.7,63.9c0,.4,0,.4-.4.5-.2,0-.4,0-.6-.1-.4-.1-.8,0-1,.2-.2.2-.4.4-.6.7,0,0,0,.2-.1.3.1,0,.3,0,.4,0,.2,0,.3,0,.5,0,.2,0,.4,0,.6,0,.4,0,.8,0,1.1,0,.3,0,.5,0,.8,0,.4,0,.6-.3.5-.6,0-.2,0-.5-.1-.8,0-.6-.2-1.2-.2-1.8,0-.2,0-.3-.1-.5,0-.1,0-.3-.2-.3-.1,0-.3,0-.4.1-.2.5-.9,1-.4,1.6,0,0,0,.2,0,.4ZM95.1,61s0,0,0,0c-.1,0-.2,0-.4,0-.3,0-.4-.2-.4-.4,0-.3.1-.5.5-.5.1,0,.2,0,.3,0,.2,0,.3,0,.5,0,.2,0,.4,0,.6,0,.2,0,.4-.1.4-.4,0-.3,0-.6,0-.9,0,0-.1-.2-.2-.2,0,0-.2,0-.3.1-.3.2-.6.4-.9.6-.3.2-.7.2-1,.4-.3.2-.6.5-.8.9,0,.1,0,.4.1.6,0,.2.3.3.5.3.3.1.6.2.8.3.2,0,.5,0,.7,0,.2,0,.4.2.3.5,0,.1-.2.4-.3.4-.5,0-1.1.2-1.6-.2,0,0-.2,0-.3,0,0,.1,0,.2,0,.3,0,.2.1.3.2.5,0,.1,0,.3.1.4,0,0,.2.1.3,0,.5-.3,1-.5,1.5-.8.4-.2.9-.4,1-1,0-.3,0-.6-.2-.6-.5-.1-1.1-.2-1.6-.3ZM126.4,76.6s0,0-.1,0c0,.2-.1.3,0,.5.2.5,0,.9-.2,1.4-.2.4-.6.5-.9.1-.1-.2-.2-.4-.3-.6-.5-.8-.9-1.5-1.4-2.2,0,0-.2,0-.2-.1,0,0,0,.2,0,.2,0,0,0,.2,0,.2.3.4.2.8.2,1.2,0,.3,0,.5-.3.6-.2.1-.1.2,0,.3.3.2.7.5,1,.7.1,0,.3.2.4.2.2.2.5.4.7.5.4,0,.7.3.9.7.1-.2.3-.3.4-.5.3-.5.5-1,.9-1.4.2-.1.1-.3,0-.4-.4-.2-.5-.7-.7-1,0,0,0-.2-.1-.3ZM86.6,68.9c0,0,0,.2.1.2,0,0,.2,0,.2,0,.1,0,.3-.1.4-.1.2,0,.5.2.7.3.3.2.7.3,1,.5.2.1.3.1.5,0,.2-.2.2-.5.4-.8.2-.4.5-.7.7-1.1,0,0,0-.1,0-.2,0,0,0,0-.1,0-.2,0-.5,0-.7.1-.3.2-.6.3-.9,0-.3-.2-.6-.4-.9-.6-.2-.2-.4-.4-.7-.6,0,0-.2,0-.3,0,0,0-.1.2-.2.3,0,0,0,.2,0,.3,0,.4,0,.7,0,1.1,0,.2-.1.3-.2.5,0,0-.1.2-.2.3ZM112.6,67.8s0,0,0,0c0-.2-.2-.4-.3-.6-.3-.4-.7-.8-1-1.2-.3-.3-.7-.6-1-1-.8-.8-1.6-1.5-2.7-1.9-.5-.2-1-.5-1.5-.7-.2,0-.5-.1-.8-.2-.1,0-.2,0-.4,0-.5-.1-.9-.2-1.4-.4,0,0-.1,0-.2,0-.2,0-.4,0-.5,0-.3,0-.6-.1-.8-.1-.4,0-.9.2-1.3.2-.6,0-1.2,0-1.8.1-.2,0-.3.1-.3.4,0,0,0,.2.1.2.3,0,.7,0,1-.1.1,0,.3-.1.4-.1,1.5,0,2.9-.2,4.4.2.3,0,.6,0,.8.2.7.3,1.4.5,2.2.8.2,0,.4.3.7.4.8.4,1.5,1,2.1,1.6.6.6,1.2,1.1,1.6,1.8,0,.2.3.3.4.5,0,0,.2,0,.3.1ZM100.3,89.8s0,0,0,0c.4.1.6-.2.8-.3.3-.2.6-.5.9-.8.2-.2,0-.6-.2-.6q-.5,0-.6-.5c0,0,0-.2,0-.2,0-.1-.2-.3-.3-.3-.3,0-.7,0-1,0-.2,0-.3.2-.5.2-.4.1-.5.3-.3.7,0,.1,0,.2,0,.3-.1.4,0,.8.4,1,.1,0,.2.2.4.2.2,0,.3.2.5.2ZM102,70c-.1.2-.3.3-.3.4,0,.4-.3.5-.5.7-.1,0-.3.2-.4.3.1.1.2.2.4.4,0,0,0,0,0,0,.3.2.4.3.2.6-.2.3-.3.6-.4.9,0,.3,0,.5.3.7.2.1.4.3.6.4.2.1.4,0,.5,0,.1-.2.3-.3.4-.5.2-.2.2-.3,0-.5-.1-.2-.3-.3-.5-.5-.2-.2-.2-.9,0-1.1,0,0,.1-.1.2-.2.1,0,.3,0,.4-.1.2,0,.3-.2.2-.4,0,0-.2-.2-.3-.2-.5,0-.5,0-.6-.5,0-.1-.1-.2-.3-.4ZM75.9,79.8c-.3-.3-.5-.6-.7-.8-.2-.1-.4-.2-.6,0-.2.1-.1.3-.1.5,0,.2.1.5,0,.7,0,.2,0,.4,0,.6,0,.1,0,.3.1.4,0,.2,0,.4.1.6,0,.2,0,.4,0,.5,0,.3.2.6.5.6.4,0,.4,0,.3.4,0,0,0,0,0,0-.1.3-.3.7-.1,1,.1.3.3.3.5,0,0,0,.1-.2.2-.3.3-.2.3-.4.2-.7,0-.2-.1-.3-.2-.5-.2-.6-.2-1.3-.7-1.8,0,0,0,0,0,0,0,0,.1,0,.2,0,0,0,.2-.1.2-.2,0,0-.2-.2-.3-.2,0,0-.2,0-.2,0-.3,0-.5-.3-.4-.7.3,0,.6.2.9-.1ZM109.1,71.5s0,0,0,0c.3.2.5.4.8.6.3.2.4.6.3.9-.1.4-.4.6-.7.6-.5,0-.9,0-1.4-.1-.1,0-.3,0-.3.1,0,0,0,.2,0,.3.1.1.1.3.1.4,0,.2.1.5.4.5.4,0,.7.1,1.1.3.2.1.3,0,.4-.2.3-.5.4-1,.8-1.4,0,0,0-.2,0-.3,0-.3,0-.6,0-.8,0-.5,0-.9-.1-1.4,0,0-.1,0-.1.1-.1.3-.3.3-.6.3-.3,0-.5,0-.8,0ZM91.2,75.2c-.6.2-.7.4-.6.9,0,.3.3.4.8.3,0-.5,0-1-.1-1.5,0-.6-.2-1.2-.2-1.8,0-.6,0-1.3,0-1.9,0-.2,0-.3,0-.5,0-.3.2-.5.2-.8,0,0,0-.2-.1-.3-.3-.2-.5,0-.6.3,0,0,0,0,0,.1-.4.3-.3.8-.3,1.2,0,1.1,0,2.3,0,3.4,0,.3.1.5.4.5.1,0,.2,0,.4.2ZM76.2,72.3c-.2-.2-.3-.3-.5-.2-.1,0-.3,0-.4,0-.2,0-.4-.2-.6-.3-.2.2-.2.4-.1.7,0,.2,0,.3.3.2.3-.1.4,0,.4.3,0,.3-.2.4-.5.5-.4.1-.5.2-.5.6,0,.6,0,1.1,0,1.7,0,.3,0,.6,0,.9,0,.2,0,.3.3.4.2,0,.4,0,.6,0,.2,0,.3-.1.3-.3,0-.4,0-.8,0-1.2,0-.4,0-.5-.5-.6-.3,0-.3-.2-.3-.4,0-.2.3-.4.5-.4.3,0,.3,0,.3-.3,0-.4.2-.7.3-1.1,0,0,.1-.1.2-.2,0,0,.1-.1.2-.2ZM116.6,86c.4,0,.5-.2.4-.5,0-.2-.1-.4-.2-.5,0-.1,0-.3,0-.4.1,0,.3,0,.4,0,.1,0,.3.1.4.1.1,0,.3-.2.3-.2,0-.2-.1-.4-.2-.5-.1-.2-.3-.3-.4-.5,0,0,0,0,0-.1,0,0,0,0-.1,0-.2.2-.4.5-.6.7-.2.2-.4.3-.6.5-.2.3-.5.6-.7.9,0,0-.1.2-.1.3.1.4.3.7.5,1.1,0,0,0,0,.1,0,.2,0,.6-.4.4-.7,0-.1-.2-.3-.3-.4-.1-.2-.1-.3,0-.4.2-.2.2,0,.3.1.1.1.3.2.4.3ZM81.3,56.2c.1.2.2.4.3.6,0,.3.2.3.5.3.2,0,.4,0,.5.3,0,0,.2.1.3,0,.5-.3,1.1-.4,1.5-.8.4-.4.7-.7,1.1-1.1.1-.1.3-.2.5-.2,0,0,.2,0,.2,0,0-.2,0-.4-.2-.6,0,0-.3,0-.3,0,0,.3-.4.4-.6.5-.2.1-.4.2-.5.5,0,.1-.2.2-.4.3-.3.2-.6.4-.8.6-.3.3-.5.3-.8,0-.2-.2-.6-.3-.9-.5,0,0,0,0-.1,0ZM97.3,63.1s0,0,0-.1c-.2,0-.4,0-.5.2-.6.3-1.1.6-1.7,1-.4.2-.8.5-1.1.8-.4.4-.8.9-1.2,1.3-.1.2-.3.3-.4.5,0,.3-.2.5-.5.5,0,0-.2.1-.2.2,0,.2,0,.4.1.5,0,0,.2.2.3.2.1,0,.2-.1.3-.2.3-.5.5-.9.7-1.4.1-.3.3-.5.5-.7.6-.7,1.4-1.3,2.2-1.8.4-.3.8-.5,1.2-.7.1,0,.2-.2.3-.3ZM98.4,76.5c.2,0,.3,0,.5-.1.2,0,.4-.2.6-.2.3,0,.5-.1.6-.3.1-.2.2-.3,0-.4-.2,0-.3,0-.5-.1-.1,0-.3-.1-.3-.2,0-.2-.1-.5,0-.7,0-.3-.1-.5-.3-.6,0,0-.2,0-.3,0,0,0-.2.2-.2.3,0,.3,0,.6.2.9,0,.2,0,.3,0,.4-.1,0-.3,0-.4,0,0,0-.3,0-.3,0,0,.1-.1.3,0,.4.2.2.3.7.8.6ZM110.4,56.7s0,0,0,0c0,0,.1.2.2.3,0,.1.1.2.1.4,0,.4,0,.7.5.9.4.1.7.5,1.2.6.2,0,.3,0,.3-.2,0-.2,0-.4.3-.3.2,0,.3.2.2.4-.1.4,0,.8.3,1,.2.1.3,0,.4-.2,0-.2.1-.4.2-.5.1-.2.1-.2,0-.3-.3-.2-.6-.4-.9-.6-.4-.4-.9-.4-1.3,0,0,0,0,.1,0,.2,0,0,0,0-.1,0,0-.2,0-.4-.1-.6,0-.1,0-.3,0-.3-.2-.2-.4-.4-.6-.5-.1,0-.3-.1-.4-.2ZM83.9,85.9c0-.3-.2-.4-.3-.6-.2-.1-.4-.4-.7-.2-.3.2-.6.4-.6.8,0,.2,0,.4-.2.6,0,.2-.2.4,0,.5.2.1.5.2.7.2.5-.2,1-.7,1-1.4ZM110.7,101.8c.2-.1.4-.2.5-.3.1-.2,0-.4-.1-.5-.1-.1-.2-.2-.3-.4-.1-.2-.3-.2-.5-.2-.5.1-.9.3-1.4.5-.4.1-.5.5-.2.7.2.1.4.2.5.3.2.1.3.3.5,0,0,0,0-.3,0-.4,0,0,0,0,0,0,0,0,0-.2,0-.3,0,0,.1,0,.2.1.2.1.4.3.7.4ZM104.5,74.6c0,0-.2.2-.3.3,0,.2,0,.5.3.5.4,0,.8.2,1.2.2,0,0,.1,0,.2,0,.3,0,.7-.1,1-.2.1,0,.3-.1.4-.2,0,0,0-.3,0-.4-.1,0-.3,0-.4,0-.1,0-.2,0-.3.1-.2,0-.3,0-.3-.3,0-.2,0-.4,0-.6,0-.2,0-.3-.2-.4-.2,0-.2.2-.3.3,0,0,0,.2,0,.3,0,.2,0,.3,0,.5,0,.3-.2.3-.4.2-.1,0-.3-.1-.5-.2ZM102.6,68.3s0,0,0,0c0,0,0-.1,0-.2-.2-.5-.4-1-.6-1.5,0,0-.2-.2-.2-.2,0,0-.2.2-.2.3,0,.3-.2.6-.3.8-.1.5-.3,1,.3,1.3.2.1.5.3.7.2.2-.1.2-.4.4-.6ZM93.7,90.6s0,0,.1,0c0-.2.1-.3.2-.5,0,0,.1,0,.2-.1,0,0,0,.1,0,.2,0,.5.2.7.6.8,0,0,.2,0,.2,0,.2.2.4.2.6,0,.2-.1.3,0,.4.2,0,.1.2.2.3.2,0,0,.1-.1.2-.2.3-.4.3-.5-.2-.6-.4-.1-.7-.2-1.1-.3-.1,0-.2,0-.3,0-.3-.4-.7-.6-1.1-.7-.1,0-.3-.1-.4,0-.1.1-.2.3-.2.5,0,.2.2.4.3.5ZM102.3,55.5c-.3,0-.6-.2-.9,0-.3.2-.5.2-.8.1-.2,0-.5,0-.7,0-.2.2-.7.1-.8-.2,0-.2-.3-.2-.4-.1-.1.1-.3.3-.3.4,0,.2.2.5.3.5.3,0,.6.2.9-.2,0,0,0,0,.1,0,.5,0,1.1,0,1.6,0,.6,0,.7-.1.9-.7ZM118.6,60.7c.4,0,.6-.4.5-.7-.1-.2-.2-.5-.4-.7-.1-.3-.8-.6-1.1-.4-.3.2-.6.6-.6,1,0,.1,0,.3.2.4,0,0,.1-.2.2-.3,0,0,0-.1,0-.1,0-.1.2-.2.3-.3,0,.1.1.2.2.3.2.5.4.8.8.8ZM113.8,76c0-.4-.2-.5-.4-.4-.3,0-.6.5-.6.7,0,.6,0,1.1-.1,1.7,0,0-.1.2-.1.3,0,.2-.1.4,0,.6,0,.2.2.2.4,0,.3-.2.5-.5.4-.9,0-.2,0-.5,0-.7,0-.3,0-.5.3-.8.1-.2.2-.4.3-.6ZM84,71.4c.2-.5.6-.9.5-1.5,0,0,0-.1.1-.2,0-.1,0-.2,0-.4,0-.2,0-.5,0-.7.4-.8.4-1.7,1-2.4.1-.1,0-.3-.2-.3-.2,0-.4.2-.5.4,0,.3,0,.6-.2.8-.1.4-.4.9-.5,1.3-.1.4-.3.8-.1,1.3,0,0,0,.2,0,.2-.4.4-.2.9-.3,1.3,0,0,0,0,.1,0ZM103.8,98.3c-.3,0-.7.4-.5.7.2.3.5.5.8.8,0,0,.3,0,.4.1.2.1.7,0,.7-.3,0-.3-.2-.7-.4-.9-.3-.2-.7-.3-1-.4ZM105.1,95.7s0-.1,0-.3c0-.4-.3-.6-.7-.5-.2,0-.4.1-.6.2-.5.2-.6.6-.2,1,.2.3.5.4.9.3.5-.1.6-.2.6-.7ZM120.2,71.3c-.5,0-.6.1-.5.5,0,.3.1.5.1.8,0,.5,0,.9,0,1.4,0,.3.1.5.4.7.3.2.4,0,.5-.2.1-.2,0-.2-.1-.3,0,0-.2-.1-.3-.2-.2-.2-.2-.3,0-.5.2-.1.2-.5.1-.7-.3-.3-.3-.9,0-1.2.1-.2,0-.2,0-.3,0,0-.2,0-.2,0ZM97.6,71.7c-.5.6-.6.6-1.3.8-.2,0-.2.2,0,.3.2.2.4.3.6.4,0,0,.2,0,.3,0,.3-.3.6-.6.7-1,0,0,.2-.1.2,0,.1,0,.2,0,.3.1.2.2.3.3.5.5.1.1.2.2.3,0,.2-.3.4-.6.5-.9,0,0,0-.1,0-.2,0,0-.1,0-.2,0-.3.2-.6.6-1,.2,0,0,0,0,0,0-.2,0-.5-.1-.8-.2ZM104.9,70.2c.1-.4-.2-.5-.4-.6-.4-.2-1.1,0-1.1.6,0,.4.3.9.7,1.1.1,0,.3,0,.4,0,.2-.3.5-.6.4-1ZM108.9,62.9c-.3-.4-.3-.8-.1-1.2,0,0,0-.2,0-.3-.2-.2-.3-.4-.6-.6-.1,0-.3-.1-.5-.2-.2,0-.2,0-.2.2,0,.5,0,1.1.4,1.5.3.2.5.5,1,.5ZM97.8,92s0,0,0,0c.3.3.3.3.6,0,.1-.2.3-.2.4,0,0,0,0,.1,0,.2,0,0,.2.2.2.2,0,0,.2,0,.2-.2.3-.4,0-.8-.4-.8-.5,0-1,0-1.5-.3-.2,0-.5,0-.4.2,0,.2.2.5.3.7.1.1.3.1.5.2ZM79.1,62s-.2,0-.2,0c0,.2,0,.4.2.5.2,0,.3,0,.4-.1.1-.2.2-.3.4-.5.2-.4.5-.7.7-1.1.2-.3.3-.7.5-1,0,0,0-.2,0-.3,0,0,0-.1,0-.2,0,0-.2,0-.2.2,0,.1-.1.3-.2.3-.5,0-.6.5-.7.9,0,.2-.2.5-.2.7,0,.3-.3.6-.6.5ZM100,70.3s0,0,0,0c0-.1,0-.2,0-.3,0-.3-.2-.6-.5-.7-.3,0-.6,0-.8.2-.3.3-.1,1,.3,1.2.1,0,.3.1.4.2.3.1.5,0,.5-.3,0-.1,0-.2,0-.4ZM80.5,88.4c.1,0,.3,0,.3-.1.2-.4.5-.7.3-1.2,0-.2,0-.4-.3-.4-.3,0-.5,0-.7.2-.1.2-.2.4-.3.6-.1.4.3,1,.7,1ZM120.3,57.8c-.2,0-.4,0-.6.2-.2,0-.2.2,0,.4,0,.1.2.2.3.3.2.2.4.4.7.6.3.2.7,0,.7-.4,0-.6-.4-1-1-1.1ZM96.6,70.6h0c0-.1,0-.3,0-.4,0-.2-.1-.4-.3-.4-.2,0-.4,0-.6,0,0,0,0,.2-.1.3,0,.2,0,.3-.1.5-.2.5,0,1,.7,1,.2,0,.3,0,.3-.2,0-.3,0-.5.1-.8ZM108.7,56.3c-.3,0-.4.1-.4.3,0,.2-.2.4,0,.5.2.1.4.4.7.1,0,0,.3,0,.3,0,0,.4.4.4.6.5.2.1.2-.1.3-.2,0,0,0-.3,0-.3-.4-.1-.6-.5-.8-.8-.2-.3-.3-.3-.6-.1,0,0-.1,0-.1,0ZM107.5,56.9c.2,0,.4,0,.4-.3,0-.3-.2-.2-.3-.2-.2,0-.4,0-.5-.1-.5-.4-1-.5-1.6-.5-.3,0-.4.2-.5.3,0,0,.2.2.3.2.1,0,.2,0,.3,0,.4,0,.8.2,1.2.3.2,0,.4.1.7.2ZM104.5,72s0,0,0,0c.1.2.4.4.6.5,0,0,.2,0,.2,0,.2-.2.4-.5.6-.7.2-.2.3-.3.5,0,.2.2.3.4.4.6.2.3.5.3.7,0,.1-.2,0-.2-.1-.3,0,0-.1,0-.2,0,0,0,0,0,0,0-.3-.3-.7-.5-1-.8-.1-.1-.3,0-.4,0-.2.3-.4.5-.6.8,0,.1-.2.2-.3,0-.1,0-.3-.1-.5-.2ZM117.7,82.4h-.2c0,.2-.1.4,0,.5.1.2.3.4.5.5.1,0,.3,0,.4,0,0,0,.2-.2.1-.2-.2-.3,0-.4.2-.6,0,0,.2-.2.3-.3.2-.3,0-.5-.2-.6-.1,0-.2-.2-.3-.2,0,0-.1-.1-.2-.2-.2.2-.3.4-.1.6.3.3.2.6.2.8,0,.1-.2.3-.3.3,0,0-.2-.2-.3-.3,0,0,0-.1,0-.2ZM88.7,61.6c.1,0,.3-.1.3-.2.4-.3.7-.6,1.1-.9.2-.1.3-.2.5-.4,0,0,.1-.3.1-.3-.1-.1-.3-.2-.5-.3,0,0-.2.2-.2.3-.1.3,0,.6-.5.7,0,0,0,.1-.1.2-.2.2-.3.4-.6.5,0,0-.2.2-.2.3,0,0,.1.2.2.3ZM92.8,58c0,.5.1.6.5.4,0,0,.1,0,.2-.1.2-.1.5-.2.7-.4.2-.1.4-.3.4-.5,0-.1-.5-.5-.7-.4-.2,0-.3.3-.3.6,0,.1,0,.2,0,.3-.1,0-.2,0-.3-.1,0,0,0,0,0,0,0,0-.2-.1-.2-.1,0,0-.2.1-.2.2,0,0,0,.2,0,.2ZM87.6,71.6c0,0,.1,0,.2,0,.3,0,.4-.2.4-.4,0,0-.2-.2-.3-.3-.1,0-.3-.1-.4-.2-.4-.2-.7-.5-1.1-.7,0,0-.2,0-.3,0,0,.1,0,.3,0,.3.2.2.4.3.5.5.1.1.3.3.4.4.1.2.3.3.5.3ZM101.3,91.7c-.1,0-.2,0-.3,0-.4,0-.8-.1-1.2-.2,0,0-.2,0-.2.1,0,.4,0,.6.5.9.1-.2.3-.4.4-.6,0,.2,0,.3.1.4,0,.1.1.2.2.3,0,0,.2-.2.3-.3,0-.2.1-.4.2-.6ZM84.2,77.1c-.5.3-.5.5-.3,1,0,0,0,.2,0,.3,0,.2,0,.3.2.4.3.1.3.2,0,.4,0,0-.1.1-.1.2,0,0,0,.2,0,.2.2.1.6-.1.6-.4,0-.1,0-.3,0-.4,0-.2-.2-.5-.3-.7,0-.3-.1-.6-.2-1ZM92.1,89.7c.1-.2.2-.4.4-.6,0,.2,0,.4.1.5,0,.1.1.3.2.4.2.2.3,0,.4-.1,0-.1,0-.2,0-.3,0-.1,0-.3-.1-.4-.3-.2-.7-.4-1-.6,0,0-.2,0-.2,0-.1.2,0,.7.2,1ZM116.7,63.2s0,.1,0,.2c.2.3.4.6.6.9.1.2.2.4.4.6,0,0,.1,0,.2.1,0,0,.1-.2,0-.3-.1-.3-.3-.5-.4-.8,0-.1-.1-.2-.1-.3,0-.4,0-.6-.4-.6,0,0,0,0-.1,0-.2-.1-.3,0-.3.2ZM120,78c.4,0,.5,0,.5-.5,0-.3,0-.7,0-1,0-.2,0-.4.2-.6,0,0,0-.2.1-.3,0,0-.2,0-.2,0,0,0-.2.1-.2.2,0,.3-.2.6-.3.9,0,.3-.2.5-.3.8,0,.1-.2.3-.1.4,0,0,.2.1.3.2ZM119,79.6h0c0,.1,0,.2,0,.2,0,.2.3.4.5.4.1,0,.3-.3.3-.3,0-.3,0-.6.2-.9,0,0,0-.2,0-.3,0,0-.2-.2-.3-.2,0,0-.1.2-.2.3,0,0,0,0,0,0,0,.3-.2.4-.4.5-.1,0-.2.2-.3.3ZM76.5,70c-.3-.4-.2-.8-.1-1.3,0-.3,0-.3-.3-.4,0,.2,0,.3,0,.4,0,.3-.2.7-.5.7-.2,0-.4,0-.6,0,0,0-.2.2-.2.3,0,0,0,.2.1.2.5,0,1,0,1.6,0ZM113.9,72.5s0,0,0,0c0-.2,0-.5-.1-.7,0,0-.1,0-.2-.1,0,0-.1.1-.1.2,0,.5,0,1,0,1.5,0,.1,0,.3.1.3,0,0,.3,0,.3,0,0,0,0-.2,0-.3,0-.3,0-.5-.1-.8ZM111.5,49.9c.1,0,.2-.1.3-.2-.1-.1-.2-.2-.3-.3,0,0,0,0-.1,0-.3,0-.6-.1-.7-.4,0,0-.3-.1-.4-.1,0,0-.2,0-.2.1,0,.2.3.7.5.6.2,0,.4,0,.6.1.1,0,.3.1.5.2ZM115.2,59.6c-.1,0-.2-.2-.4-.2-.3.3-.6.5-.8.8,0,0,0,.2,0,.2.2.1.4.3.6.4.2-.4.4-.8.6-1.2ZM86.8,64.1c-.1,0-.2-.2-.3-.1-.2,0-.4,0-.4.2,0,.4,0,.8-.4,1,0,0,0,.2,0,.3,0,0,.2,0,.2,0,.1-.2.2-.3.4-.5.1-.2.2-.3.3-.5,0,0,.1-.2.2-.4ZM107.7,48.5s0,0,0,0c0,0-.1,0-.2,0,0,0-.2,0-.2.1,0,0,.2,0,.2.1.4.1.7.2,1.1.3.2,0,.4,0,.6.1.2,0,.2-.1.2-.2,0-.1-.1-.3-.2-.3-.5,0-1,0-1.5-.1ZM129.7,73.7c0,0-.1,0-.1,0,0,.7,0,1.3-.1,2,0,0,0,.2,0,.2,0,0,.2.2.3.2,0,0,.2-.2.1-.2,0-.2,0-.4,0-.6,0-.2-.1-.4-.1-.6,0-.3,0-.7,0-1ZM104.7,48.1c-.2-.3-3.4-.5-4-.3.1,0,.2,0,.3,0,.9,0,1.8,0,2.6.1,0,0,.1,0,.2,0,.3,0,.6,0,.9,0ZM74.9,70.7s0,0,0,0c0,0-.2.1-.2.2,0,0,0,.3.1.3.4,0,.7.1,1.1.1,0,0,.2-.1.3-.2,0,0-.1-.3-.2-.3-.3,0-.7,0-1,0ZM100.9,50.2c.3.2.5.3.7.1.1-.1.3-.4.2-.5-.1-.2-.4-.4-.6-.5,0,.2.1.4,0,.6,0,.1-.3.2-.4.4ZM87.7,61.9c-.2.4-.3.7-.5,1,0,.1-.2.3,0,.4.2.1.4,0,.4-.2,0-.3.2-.7.2-1,0,0,0-.2-.1-.3ZM117.5,52.3c0,.3,0,.5.2.6.2.2.4.4.6.6,0,0,.2,0,.3,0,0,0,.1-.2,0-.2,0,0-.2-.1-.2-.2-.1,0-.3-.1-.4-.2-.2-.2-.4-.5-.6-.7ZM84.2,54.9s0,0,0,0c0,0-.1-.2-.2-.2,0,0-.2,0-.3,0,0,0,.1.1.2.2,0,0,.1,0,.2,0ZM127,82.1c.4,0,.5-.1.4-.3-.1,0-.3.2-.4.3ZM84.1,76.7s0,0,0,0c-.1,0-.3,0-.4,0,0,0,0,0,0,.1,0,0,.1,0,.1,0,.1,0,.2,0,.3-.1Z"/>
    <path class="cls-3" d="M69.6,80.3c-.2-.8-.4-1.6-.5-2.3-.2-1.5.5-2,1.8-2.3,0,0,.2,0,.2,0,0,0,0,.2,0,.3-.7.4-.5,1.1-.4,1.7.3,1.5.7,2.9,1.1,4.4.7,2.5-.4,4.1-2.5,4.9-1.3.5-2.6.8-4,1.2-.7.2-1.3.3-2,.5-.1,0-.3,0-.4,0-.6-.5-1.3-1-1.9-1.5,0,0-.1-.3-.1-.4.1-1.2.1-2.3,0-3.5-.2-1.6-1-2.9-2.1-4,0,0-.1-.2,0-.3,0-.2.2-.2.4,0,.8.8,1.6,1.5,2.4,2.2.5.5,1.2.8,1.9.9.7,0,1.3,0,2-.2,1-.2,2-.4,3-.6.4,0,.7,0,1.1,0,.1,0,.2,0,.4,0-.3-.6-1.3-1.2-1.9-1.1-1.1.2-2.2.5-3.3.7-1,.2-1.9,0-2.7-.5-.9-.6-1.7-1.3-2.5-1.9,0,0,0-.1-.1-.2.2-.3.3-.3.6-.1.6.5,1.2,1,2,1.1.5,0,1,0,1.4-.3.7-.5.6-1.1,0-1.5,0,0-.1,0-.2-.1,0-.3.2-.3.5-.3,1,.2,1.4.7,1.4,1.7,0,.2,0,.3.3.2.7-.2,1.4-.3,2.1-.2.8,0,1.5.6,2.1,1.1,0,0,.1.1.2.2ZM70.2,83.4c0-.2,0-.4,0-.5,0-.2-.1-.3-.4-.3-.8.2-1.6.3-2.5.5-.1,0-.3.2-.4.3-.4.9-.2,1.8.6,2.4,0,0,.2,0,.3,0,.4-.1.7-.3,1.1-.4.9-.4,1.3-1.1,1.3-2.1ZM62.1,81.9c.1.5.3,1,.4,1.5,0,0,.2.1.3.1,2.3-.5,4.6-.9,6.9-1.4.1,0,.3-.1.3-.2,0-.2,0-.3-.3-.3-.6,0-1.1-.1-1.7,0-.9.1-1.8.4-2.7.6-.6.1-1.3.3-1.9.1-.4-.1-.8-.2-1.2-.4ZM62.6,87.2c.6-.1,1.2-.3,1.8-.4,0,0,.1,0,.2-.2.5-.8.3-1.8-.3-2.4-.2-.3-.5-.4-.9-.3-.2,0-.3,0-.5.1-.3,0-.3.2-.3.4,0,.6,0,1.3,0,1.9,0,.3,0,.5,0,.8ZM67.1,86.1c-.9-.8-1.1-1.7-.6-2.8-.7.1-1.3.3-2,.4.9.8,1.1,1.8.6,2.9.7-.2,1.3-.3,2-.5Z"/>
    <path class="cls-3" d="M127.1,103.7c-.6-.6-1.2-1.1-2-.9-.5,0-.8.4-.8.9,0,0-.1.2-.2.3,0,0-.2-.1-.2-.2-.3-.8,0-1.5.8-1.8.1,0,.3,0,.5-.2-1.3-.9-1.4-2.4-1.5-3.8,0,.3-.2.6-.3.8-.2.5-.5.9-.9,1.2,0,0-.1,0-.2.1-.6.4-.8.9-.6,1.6,0,.2.1.3.1.5,0,0,0,.2,0,.2,0,0-.2,0-.2,0-.5-.8-.9-1.6-.7-2.6.1-.5.4-.8.8-1.1.2-.1.4-.2.6-.3.6-.3,1.1-.8,1.2-1.4,0-.2.1-.3.3-.3,0,0,.2.2.2.3.6,1.7,1.6,3,2.8,4.2.4.4.8.8,1.3,1.2.7.6.9,1.4.9,2.3,0,.7,0,1.5,0,2.3.2-.7.4-1.3.6-2,.3-1.1,0-2-.8-2.8-.7-.7-1.4-1.3-2-2-1.1-1.1-1.9-2.5-2.4-4,0,0,0,0,0-.2.2-.1.4-.1.5.2.4,1.1.9,2.2,1.7,3.1,0,0,.2.2.3.3,0-.3,0-.6,0-.9,0-.8,0-1.6,0-2.4,0-.3,0-.4.4-.3.7.1,1.5.2,2.2.3.2,0,.3.1.2.3,0,1-.2,1.9-.3,2.9,0,0,0,.2,0,.3,0,0,.1.2.2.1,1.2-.2,2.4.1,3.5.5.4.1.9.3,1.3.4.4,0,.5,0,.5-.4,0-.1,0-.3,0-.4,0-.1,0-.3.1-.3.2,0,.3,0,.3.3,0,.3,0,.6,0,.8,0,.5,0,.9,0,1.4,0,.2,0,.3-.3.3-.5,0-1-.2-1.5-.3-.3,0-.6-.2-1-.3,0,.7.2,1.3.3,1.9,0,.3,0,.6.1.8,0,.2,0,.3-.2.4-.6.3-1.3.6-1.8,1-1,.7-1.6,1.7-1.9,2.8,0,.2-.1.3-.4.2-.2,0-.2-.1-.2-.3,0-.9,0-1.9-.2-2.8-.1-.5-.4-1-1-1.2-.5-.1-.8.1-.9.6,0,0-.1.2-.2.3,0,0-.2-.1-.2-.2-.3-.7,0-1.4.8-1.7.1,0,.2,0,.4-.1ZM130.1,104.7c0,0,.1,0,.2,0,.6-.5,1.3-1,2.1-1.2,0,0,.1-.2.1-.2,0-.4,0-.8-.2-1.1,0-.1-.2-.3-.3-.3-.4-.1-.8-.2-1.3-.2-.6,0-1.2,0-1.7.5.7.7,1.1,1.6,1,2.7ZM128.7,101.6s0,0,0,0c.1-1.2.2-2.4.4-3.6-.6,0-1.1-.2-1.7-.2,0,0-.2.1-.2.2,0,.7,0,1.4,0,2,0,0,0,.1,0,.2.5.5,1,1,1.5,1.5Z"/>
    <path class="cls-3" d="M60.9,62.5c-.4-1.2-.7-2.3-1.1-3.4.1,0,.2,0,.3-.1,1.2-.3,2.5-.6,3.7-.9.2,0,.3,0,.4.2.2.7.4,1.4.7,2.1,0,.1,0,.2.1.3.3-.2.6-.3.9-.5,1-.5,2-.6,3-.5.5,0,1,0,1.4.1,0,0,.2,0,.3,0,.6,0,.6-.1.4-.6,0-.1-.1-.3-.2-.4.3-.3.4-.2.5,0,.3.6.5,1.1.8,1.7.1.2,0,.3-.2.4-.6.4-1.3.3-1.9.2-.9,0-1.9-.2-2.8,0-.6.1-1.1.5-1.5.9-.3.3-.2.7.2.8.9.3,1.8.7,2.7,1,.2,0,.3,0,.4,0,.2-.2.5-.5.7-.7.1-.1.2-.2,0-.4-.1-.2-.2-.5-.3-.7.3-.2.4-.2.5.1.3.6.5,1.2.8,1.8.1.3,0,.4-.1.6-.5.4-.9.8-1.3,1.3-.8,1.2-1.2,2.5-.7,3.9,0,0,0,.2,0,.3,0,0-.2,0-.3-.1-.7-1-1.1-2.1-.9-3.3,0-.2,0-.3-.2-.3-1.6-.6-2.9-.2-4.1.9-.1,0-.2.2-.3.3-.2.1-.4,0-.5-.1-.3-1-.5-1.9-.8-2.9,0-.1-.2-.3-.3-.3-.4-.1-.9-.3-1.3-.3-1,0-1.6.7-1.3,1.7,0,0,0,.2,0,.2,0,0,0,.2-.2.2,0,0-.2,0-.2,0-.5-.7-.6-1.5-.3-2.4.3-.8.9-1.2,1.7-1.3.2,0,.4,0,.7,0,.1,0,.2,0,.5,0ZM65.1,62.8c-.3-1.1-.6-2-.9-3,0,0-.2-.2-.3-.2-1,.2-2,.5-3,.7,0,0-.1,0-.2.1,0,.2.3.8.4.9.4.1.8.3,1.1.4.9.3,1.8.7,2.8,1ZM61.1,61.8c0,.2.1.4.2.6,0,.2.2.4.4.5.4.1.8.3,1.2.4,1.6.6,3.2,1.2,4.9,1.8,0,0,.3,0,.3,0,.1-.1.2-.3.4-.5-2.5-.9-4.9-1.8-7.4-2.7ZM62.1,64.6s0,0,0,0c.2.5.3,1.1.5,1.6.5-.3,1.1-.6,1.6-.9-.7-.3-1.4-.5-2-.8Z"/>
    <path class="cls-3" d="M89.6,41.4c.2-.4.3-.7.2-1.1-.4-1.4-.8-2.8-1.2-4.1,0-.3,0-.5,0-.8.6-1,1.2-2,1.7-3,.1-.2.2-.3.4-.2,1,.2,2,.1,2.9-.2.2,0,.4.1.3.4-.2.5-.4.9-.7,1.4,0,0-.2.1-.3.1-.8.1-1.5,0-2.2-.1,0,0-.1,0-.2,0,0,0,0,0,0,0,0,0,0,.2,0,.2.8,2.7,1.7,5.5,2.5,8.2,0,.3.2.3.5.2,1.1-.4,1.9-1.1,2.5-2.1,0-.1.1-.2.2-.3,0,0,.2-.1.2-.1,0,0,.2.2.2.3-.3,1.3-.9,2.4-2,3.2-.8.6-1.8,1-2.8,1-1.3,0-2.4-.4-3.3-1.3-1.5-1.4-2.2-3.2-2.1-5.3.1-1.5.8-2.7,1.7-3.8,0,0,.2,0,.2,0,0,.1,0,.2,0,.3-.4.6-.7,1.3-.9,2-.4,2.1.2,3.9,1.8,5.3,0,0,0,0,0,0ZM90.3,33.7c-.4.5-.6.9-.3,1.5.4,1,.6,2.1,1,3.2.2.5.2,1,0,1.5-.2.5-.5,1-.7,1.5-.1.2,0,.3.1.4.3.1.6.3.9.4.6.2,1.2.3,1.8.1-.9-2.9-1.8-5.8-2.7-8.8Z"/>
    <path class="cls-3" d="M74.1,45c.5.5.9.9,1.4,1.3-.4.3-.7.5-1.1.8.2.2.4.4.6.5.8.7,1.5,1.4,2.3,2.1.5.5,1.2.8,1.9.9.3,0,.6.1.9.2.5.2.8.5.7,1,0,.6-.2,1.3-.3,1.9,0,0-.1.2-.2.2-1.1.5-1.8,1.4-2.3,2.4,0,.1-.2.3-.3.3-.2,0-.2-.2-.3-.4-.1-.8-.3-1.6-.4-2.4-.5,0-1,0-1.6.2-.4,0-.7,0-1-.3-1.2-1.2-2.5-2.3-3.7-3.5-.2-.2-.2-.3,0-.5.4-.7.6-1.4.7-2.2,0-.2,0-.3.3-.3.6-.2,1.2-.4,1.8-.6.3,0,.4-.2.4-.5,0-.4.2-.7.3-1.2ZM76.7,52.5c0-.4-.1-.8-.2-1.2,0-.2-.1-.3-.2-.4-.8-.7-1.6-1.5-2.3-2.2-.5-.5-.5-.5-1.2-.2-.4.2-.7.3-1.1.5,0,0,0,0,0,.1,1.2,1.1,2.4,2.3,3.6,3.4,0,0,.2.1.2.1.4,0,.8,0,1.2-.1ZM77.5,54.8c0-.1.2-.2.2-.3.4-.6.9-1.2,1.6-1.5.2-.1.5-.2.7-.3,0,0,.1-.2.2-.2,0,0-.2,0-.2,0-1.1,0-2.1-.1-3.1-.8.2,1.1.4,2.2.5,3.3Z"/>
    <path class="cls-3" d="M131,57.3c0-.6.2-1.2.2-1.8,0-.2,0-.4.3-.5,1.5-1,3-1.9,4.6-2.9.2-.1.3-.1.5,0,.6.5,1.2.9,1.9,1.2.2,0,.3.2.3.4,0,.7,0,1.3.2,2,0,.1.1.3.3.4.3.2.7.4,1.1.6-.6.4-1.1.7-1.6,1-.2-.4-.3-.8-.4-1.2,0,0-.2,0-.2.1-1,.7-2.1,1.3-3.1,2-.6.4-1,.9-1.3,1.5-.1.3-.2.5-.4.8-.3.6-.8.7-1.4.5-.5-.2-1-.5-1.6-.7,0,0-.1-.1-.2-.2-.2-1.3-1-2.2-1.9-3,0,0-.1-.2-.1-.3,0,0,.2-.1.3-.2,0,0,0,0,.1,0,.8,0,1.6.1,2.4.2,0,0,0,0,.2,0ZM132.4,57.4c.5,0,.9,0,1.4,0,0,0,.1,0,.2,0,1.1-.7,2.2-1.4,3.3-2.1,0,0,.2-.2.1-.3,0-.6-.2-1.2-.3-1.8,0,0-.1,0-.1,0-1.4.9-2.8,1.8-4.2,2.7,0,0-.1.1-.1.2,0,.4-.1.8-.2,1.2ZM130.1,57.6s0,0,0,0c0,0,0,0,0,0,.8.8,1.3,1.8,1.3,2.9,0,0,0,.1.1.2,0,0,.1,0,.2-.2,0,0,0-.1,0-.2.3-.9.6-1.9,1.4-2.5,0,0,0,0,0,0-1,0-2.1-.2-3.1-.3Z"/>
    <path class="cls-3" d="M98.4,111.4c.8-.7,1.5-1.4,2.3-2.1,0,0,0,.1.1.2.4.5.7,1.1,1.1,1.6.1.2.1.3,0,.4-.4.4-.8.7-1.3,1.1,0,0-.2.2-.3.3,0,0,.1.2.2.2.6.7.8,1.5.8,2.4,0,.4,0,.7.1,1.1,0,.3.1.4.4.2,0,0,.1,0,.3-.2,0,.2,0,.4,0,.4-.5.4-1.1.8-1.7,1.2-.5-.5-.5-1.2-.5-1.9-.6.5-1.2.9-1.7,1.4-.4.3-.3.3-.6,0-.4-.4-.8-.7-1.2-1-.3-.2-.3-.2,0-.4.4-.4.4-.9.5-1.3.2-2.3.4-4.5.5-6.8,0-.6,0-1.1-.5-1.5,0,0,0-.2,0-.3,0,0,.2,0,.2,0,.3.2.7.5,1,.8,0,0,.2-.2.3-.3.4-.3.8-.5,1.3-.5,0,0,.2,0,.3,0,0,0,0,.2-.1.2-.7.5-.9,1.1-.9,1.9,0,.9-.2,1.8-.2,2.7,0,0,0,.1,0,.3ZM99.7,110.7c-.3.3-.6.6-.8.8-.4.3-.6.6-.6,1.1,0,.4,0,.9,0,1.4.8-.7,1.5-1.3,2.3-1.9,0,0,0-.2,0-.2-.2-.4-.5-.8-.8-1.2ZM98.1,115.9s0,.1,0,.2c.2.2.4.4.6.5,0,0,.2,0,.2,0,.3-.2.5-.4.8-.7,0,0,.1-.1.1-.2,0-.6-.2-1.3-.7-1.7,0,0-.2,0-.2,0-.3.3-.8.5-.8,1,0,.3,0,.6,0,.9Z"/>
    <path class="cls-3" d="M69.4,90.4c.8.3,1.6.6,2.3.9.4.2.4.1.2.5-.2.8-.7,1.4-1.5,1.7-1.4.7-2.8,1.4-4.2,2-.1,0-.3.1-.4,0-.5-.6-1.2-1-2-1.3-.2,0-.2-.2-.2-.4.3-.9.3-1.9,0-2.8,0-.2,0-.3.2-.2.4.2.8,0,1.2-.2,1.1-.5,2.2-1.1,3.4-1.6.3-.2.6-.4.7-.7.8-1.2,1.8-1.5,3.1-.9.2,0,.4.2.5.3,0,0,0,.2,0,.2,0,0-.1.1-.2,0-.2,0-.4-.1-.6-.2-.5-.1-.8,0-1.1.5-.1.2-.2.4-.3.6-.3.5-.7.9-1.3,1.2ZM65.4,94.3c0,0,.2,0,.2-.1.7-.3,1.4-.7,2.1-1,.6-.3,1.2-.6,1.8-.8.4-.2.8-.4.9-.9,0-.2,0-.3-.2-.3-.4-.1-.7-.3-1.1-.4,0,0-.2,0-.3,0-1.1.5-2.2,1-3.2,1.6,0,0-.2.1-.2.2,0,.6,0,1.2,0,1.9Z"/>
    <path class="cls-3" d="M141,66.7c-.1.5-.3,1-.4,1.5,0,.2-.2.4-.4.4-.9.2-1.8.5-2.7.8-.2,0-.3,0-.4-.2-.3-.6-.8-1-1.4-1.3-.2-.1-.3-.2-.2-.5,0-.4.1-.7.1-1.1,0-.6-.3-1.1-.9-1.4-.1,0-.3-.2-.2-.4.1-.2.3-.2.5-.1.9.3,1.8.6,2.7.9.3,0,.4,0,.4-.3,0-.4.2-.8.3-1.1,0-.1.2-.3.3-.3.8-.3,1.7-.5,2.5-.7.2,0,.3,0,.4.1.4.6.9,1,1.6,1.2.2,0,.2.2.2.4,0,.6-.3,1.3,0,1.9,0,.2.2.4.3.6.2.3.5.2.8,0,.2-.2.3-.4.6-.4.2,0,.4,0,.5.2,0,.1,0,.4-.1.5-.2.2-.5.3-.8.3-.4,0-.9,0-1.3-.2-.7-.2-1.3-.4-2-.6-.1,0-.2,0-.3,0ZM136.9,68c.2,0,.2,0,.3,0,.3,0,.6-.2,1-.3.7,0,1-.4,1.1-1.1,0-.2,0-.3-.2-.4-.8-.2-1.5-.5-2.3-.7,0,0-.1,0-.3,0,.6.8.6,1.6.4,2.5ZM142,64.3c-.7.2-1.3.4-2,.6,0,0-.1,0-.1.1,0,.3-.2.6-.3.9.8.3,1.7.5,2.6.8-.5-.8-.5-1.6-.2-2.4Z"/>
    <path class="cls-3" d="M85.9,106.8c-.5.1-.9.2-1.4.4,0,0-.2.1-.3.2-.7,1.2-1.3,2.4-1.9,3.5,0,.2,0,.5,0,.7,0,.2,0,.3-.2.4-.4,0-.8.2-1.2.3-.2,0-.2,0-.3-.1-.1-.4-.3-.9-.4-1.3,0-.2,0-.2.1-.3.5,0,.7-.4.9-.8.6-1.1,1.2-2.2,1.8-3.4.1-.2.2-.4.2-.7,0-.3,0-.4-.4-.4,0,0,0,0-.2,0-.1-.2-.1-.4.2-.4.5-.1,1-.3,1.6-.4.2,0,.3,0,.4.2.2.6.3,1.2,0,1.8,0,0,0,0,0,0,0,0,0,0,0,0,.8-.2,1.5-.4,2.3-.6,0,0,.1,0,.2,0,.2,0,.3,0,.3.2,0,.4.1.8.2,1.2.3-.1.6-.2.9-.3.2.2.1.4-.1.4-.6.2-1,.6-1.3,1.1-.6,1.2-1.3,2.3-1.9,3.5,0,.2-.2.4-.2.6,0,.3,0,.4.3.4,0,0,.2,0,.3,0,0,.2,0,.3-.2.4-.5.1-1.1.3-1.6.4-.2,0-.3,0-.3-.2-.2-.6-.2-1.1,0-1.6.6-1.2,1.3-2.3,1.9-3.5,0-.2.2-.4.3-.5.3-.4.2-.9,0-1.4Z"/>
    <path class="cls-3" d="M66.9,97.1c.3-.1.6-.2.8-.4.9-.6,1.7-1.2,2.5-1.8.4-.3.8-.6,1.3-.9,0,0,.3,0,.4,0,.6.4,1.3.7,2,.8.2,0,.3.1.3.3,0,.8.2,1.5.4,2.3,0,.2,0,.3-.1.4-1.5,1.1-3.1,2.2-4.6,3.3-.2.1-.3.1-.4,0-.7-.4-1.3-.7-2.1-.9,0,0-.2-.2-.2-.3,0-.5,0-1-.1-1.4,0-.4-.3-.8-.4-1.2,0-.1-.1-.2,0-.3,0,0,.2,0,.3-.1,0,0,0,0,0,.1ZM68.8,100c.1,0,.2-.2.3-.2,1.1-.8,2.2-1.6,3.4-2.4.3-.2.5-.5.4-.9-.1-.4-.2-.9-.3-1.3-.1,0-.1,0-.2,0-1.3.9-2.6,1.8-3.8,2.8,0,0-.1.2-.1.3,0,.5.2,1.1.3,1.7Z"/>
    <path class="cls-3" d="M115,37.2c-.2.6-.3,1.1-.5,1.6-.4,1.3-.8,2.6-1.1,3.9,0,.2-.2.4-.4.4-.7.1-1.4.2-2.1.6,0,0-.2,0-.3,0-.3-.3-.5-.5-.7-.8-.4-.4-.8-.7-1.4-1-.3-.1-.3-.2,0-.4.4-.2.5-.6.6-1,.4-1.3.8-2.6,1.1-3.9.1-.4.3-.6.7-.7.6,0,1.2-.3,1.8-.5.2,0,.2,0,.4,0,.5.6,1.1,1.1,1.8,1.6,0,0,.1.2.2.2ZM111.8,36.4c0,0,0,.1,0,.1-.4,1.5-.9,3-1.3,4.6,0,0,0,.2,0,.2.4.4.9.8,1.4,1.2,0-.2,0-.3.1-.4.4-1.3.7-2.6,1.1-3.9.2-.5,0-.8-.3-1.1-.3-.2-.6-.5-.9-.8Z"/>
    <path class="cls-3" d="M102.2,34.4c-.1.3-.3.7-.4,1,0,.7,0,1.4,0,2.1,0,.8.1,1.6.2,2.4,0,.3,0,.6.1.8,0,.4.3.5.6.2,0,0,0,0,.1-.1.2.1.3.3,0,.5-.4.4-.7.8-1.1,1.3-.1.1-.2.2-.4,0-.5-.4-.8-1-.9-1.7-.3.3-.5.5-.7.7-.4.4-.7.8-1.1,1.2,0,0-.2.1-.3,0-.8-.7-1.4-1.5-1.3-2.6,0-.8.3-1.6.8-2.2.4-.6.4-1.1,0-1.7-.2-.3-.3-.6-.5-1-.1-.3,0-.4.3-.4.6,0,1.1-.2,1.4-.7.1-.2.3-.2.5,0,.6.2,1.1.4,1.7.5.2,0,.4,0,.5-.2,0-.2.2-.2.4,0ZM98.7,37.6c-.6,1.4-.3,3.1.9,3.7.3-.3.5-.6.8-.9,0,0,0-.2,0-.3,0-.5,0-1.1,0-1.6,0-.1,0-.3-.2-.3-.5-.2-1-.5-1.5-.7ZM97.9,35.3c.3.7.6,1.3.9,1.8,0,0,0,0,0,.1.5.2,1,.5,1.5.7,0-.7,0-1.3-.1-1.8,0,0,0-.2-.1-.2-.7-.2-1.4-.4-2.2-.6Z"/>
    <path class="cls-3" d="M77.4,108c-.5,0-1.1.1-1.6.2-.3,0-.6,0-.9,0-.2,0-.3,0-.3-.2-.2-1.2,0-2.2,1-3,.7-.5,1.4-.9,2.2-1.1.3,0,.4-.2.5-.5.1-.5.3-1,.4-1.6,0-.4.2-.4.5-.2.4.4.9.5,1.5.4.2,0,.3,0,.4.2.3.5.6,1,.9,1.5.1.2.3.3.6.2.2,0,.3,0,.3.2-.1,0-.3.1-.4.2-.5.2-.9.6-1.2,1-.8,1.1-1.6,2.1-2.3,3.2-.1.2-.2.4-.3.6-.1.3,0,.4.3.4.1,0,.3,0,.3.1,0,0-.1.2-.2.2-.6.1-1.2.2-1.7.3-.2,0-.2,0-.3-.2-.1-.6,0-1.1.2-1.6,0,0,0,0,0-.1,0,0,0,0,0-.1ZM78.2,104.3c-.6.4-1,.7-1.4,1.2-.4.6-.5,1.3-.5,2,0,.2,0,.3.3.2.3,0,.6,0,.9-.1.1,0,.3,0,.4-.2.3-.4.6-.8.9-1.3,0,0,0-.2,0-.3-.2-.5-.5-1-.7-1.6ZM79.1,102c-.2.7-.3,1.3-.5,2,0,0,0,.1,0,.2.2.5.4,1,.7,1.5.4-.5.8-1,1.1-1.5,0,0,0-.2,0-.2-.4-.6-.8-1.2-1.3-1.9Z"/>
    <path class="cls-3" d="M137.2,96.2c.2.9.3,1.7.5,2.5,0,.3,0,.3-.3.4-1.5.4-2.6,0-3.5-1.4-.3-.5-.6-1-.8-1.6,0-.2-.2-.3-.4-.3-.6,0-1.2-.2-1.7-.3-.4,0-.4-.2-.2-.5.3-.5.4-1,.2-1.5,0-.2,0-.3.2-.5.5-.3.9-.7,1.3-1,.2-.2.2-.4.1-.6,0,0,0-.2,0-.3,0,0,.2,0,.2.1.4.7,1,1.2,1.6,1.5.9.5,1.9,1.1,2.8,1.7.2.1.5.3.7.4.3.1.4,0,.4-.3,0-.1-.1-.3.1-.3.2,0,.2.1.3.3.1.5.3,1.1.4,1.6,0,.2,0,.3-.2.4-.5.1-1.1.2-1.6-.1,0,0-.1,0-.3-.1ZM133.5,95.8c.3.6,1.1,1.2,1.8,1.5.5.2,1.1.2,1.6,0,0,0,.2-.1.2-.2,0-.4-.1-.7-.2-1.1,0,0-.1-.2-.2-.2-.4-.3-.9-.5-1.4-.8,0,0-.2,0-.2,0-.5.3-1,.6-1.5.9ZM134.7,94.7c-.5-.3-1-.6-1.5-.9-.2,0-.3,0-.4,0-.4.4-.9.8-1.4,1.1,0,0-.2.2-.3.3.7,0,1.3.2,1.9.3.1,0,.3,0,.3,0,.4-.2.9-.5,1.4-.8Z"/>
    <path class="cls-3" d="M114.2,114.6c.2.1.3.2.1.4-.3.5-.6.9-.9,1.4-.1.2-.2.2-.4,0-.6-.3-1-.8-1.1-1.5-.1.2-.2.3-.3.4-.4.6-.8,1.2-1.2,1.8-.1.2-.2.2-.4,0-1.3-.9-1.8-1.8-1.5-3.6.1-.5.3-1.1.5-1.6,0-.2,0-.4,0-.6-.3-.5-.7-.9-1-1.4-.2-.3-.1-.4.2-.5.5,0,.9-.3,1.2-.8.1-.2.3-.3.5-.2.5.1,1,.2,1.5.2.3,0,.6,0,.7-.4,0,0,.2,0,.3-.1,0,0,0,.2,0,.2-.3.9-.1,1.7.1,2.6.3,1.1.5,2.2.8,3.2,0,.1,0,.3.1.4.2.3.4.3.6,0,0,0,0-.1.1-.2ZM111.1,115.7c.2-.3.5-.7.7-1,0,0,0-.2,0-.3-.1-.5-.2-1-.3-1.5,0,0,0-.2-.1-.2-.6-.2-1.1-.3-1.7-.5-.4,1.5.3,3.2,1.5,3.6ZM108.5,110c0,0,0,.1,0,.1.4.5.7,1,1.1,1.5,0,0,0,0,.1.1.5.2,1,.3,1.6.5-.1-.5-.2-.9-.3-1.4-.1-.6-.1-.6-.7-.7-.6,0-1.2-.1-1.8-.2Z"/>
    <path class="cls-3" d="M136.6,77.7c.1,0,.2.1.3.2.5.4,1.1.6,1.8.7,1.3.2,2.5.3,3.8.5.1,0,.3,0,.4,0,.3,0,.4-.2.2-.5,0,0,0-.1-.1-.2.2-.2.3-.2.5,0,.4.5.8,1,1.2,1.5-.6.6-1.2.8-2,.7,0,.1,0,.2.1.2.4.6.8,1.3,1.3,1.9.1.2.1.3,0,.4-1.3.9-2.5,1-3.8.1-.5-.3-1-.8-1.4-1.1-.1-.1-.2-.2-.4-.1-.6.2-1.1.3-1.7.4-.4,0-.5,0-.4-.4,0-.5,0-1-.3-1.4-.2-.2-.1-.4,0-.6.3-.4.5-.9.7-1.4.1-.2.1-.5-.1-.7-.2-.1,0-.3,0-.4ZM142.9,81.8c-.2-.3-.4-.6-.7-.9,0-.1-.3-.2-.4-.3-.5,0-.9-.1-1.4-.2-.2,0-.3,0-.5.2-.2.4-.5.7-.8,1,0,0-.1.2-.2.2,1.4.9,2.8.9,3.8,0ZM139.7,80.3c-.6,0-1.2-.2-1.8-.3,0,0-.3,0-.3.2-.3.6-.6,1.2-.9,1.8,0,0,0,0,0,.2.7-.2,1.3-.3,2-.5,0,0,0,0,.1,0,.3-.4.6-.8,1-1.3Z"/>
    <path class="cls-3" d="M133.9,52c-.9-.1-1.8-.3-2.6-.4-.4,0-.8-.1-1.2-.2,0,0-.2,0-.3,0-.3.2-.6.5-.8.8,0,0,0,.2,0,.3.1.4.3.9.4,1.3,0,0,.1.2.2.2.3,0,.6.1,1,.2,0,0,.2.1.2.2,0,.2-.1.2-.3.2-.8-.1-1.7-.3-2.5-.4-.1,0-.2-.2-.3-.3-.1-.7-.4-1.4-.7-2.1-.2-.3,0-.3.2-.4.3,0,.5-.2.7-.3,1.1-1,2.2-1.9,3.3-2.9.5-.5.9-.6,1.5-.3.5.3,1.2.4,1.7.6.2,0,.3.2.2.4-.2.9-.4,1.9-.6,2.8,0,.1-.1.2-.2.3ZM133.2,48.6s0,0,0,0c-.9.8-1.7,1.6-2.7,2.4.6,0,1,.2,1.5.2.7.1.7.1.9-.6.1-.7.2-1.3.3-2Z"/>
    <path class="cls-3" d="M91.4,114.6c.2.2.1.3-.1.4-.8.3-1.6.6-2.4.9,0,0-.3,0-.4,0-.5-.6-1.1-1.1-1.7-1.5-.2-.1-.2-.2,0-.4.2-.2.4-.4.5-.6.5-1.4,1-2.8,1.4-4.2.3-.8.3-.8,1.1-.9.6,0,1.2-.2,1.7-.3.3,0,.4,0,.5.3.3.9.6,1.7.8,2.6,0,.2,0,.3-.2.4-1.1.4-2.2.8-3.3,1.2-.2,0-.3.2-.4.4-.1.4-.4.8-.3,1.1,0,.3.5.5.7.8.3.4.6.5,1.1.2.2-.1.5-.2.7-.3ZM90.7,108.5s0,0,0,0c-.4,1.1-.7,2.2-1.1,3.4.7-.3,1.3-.5,2-.7.2,0,.1-.2,0-.3-.2-.6-.4-1.2-.6-1.7,0-.2-.1-.4-.2-.6Z"/>
    <path class="cls-3" d="M123,110.5c.3,0,.3.2.2.4-.3.8-.7,1.5-1,2.3,0,.2-.2.2-.3.2-.8,0-1.5,0-2.3.2-.2,0-.3,0-.3-.3.1-.3,0-.6,0-.8-.5-.9-.9-1.9-1.4-2.8-.3-.6-.6-1.2-.9-1.8,0,0,0-.3,0-.4.5-.7,1-1.4,1.4-2.1.1-.2.2-.2.4-.1.8.4,1.7.8,2.5,1.2.3.1.3.2.2.5-.5,1-.9,2.1-1.4,3.1,0,.2,0,.3,0,.5.2.3.3.6.4.8,0,0,.2.2.3.2.4,0,.8,0,1.3,0,.2,0,.3,0,.4-.3.1-.3.3-.7.5-1ZM118.1,106.7s0,0,0,0c.5,1,1.1,2.1,1.6,3.2.3-.7.6-1.3.8-1.9,0,0,0-.2,0-.2-.8-.4-1.5-.7-2.3-1.1Z"/>
    <path class="cls-3" d="M73.7,54.6c.3-.1.4,0,.4.2.1.8.2,1.6.3,2.5,0,.2,0,.3-.2.4-.7.3-1.3.8-1.8,1.3-.2.2-.3.2-.4,0,0-.4-.4-.6-.7-.8-1.3-.8-2.6-1.6-3.9-2.3-.5-.3-.5-.3-.5-1,0-.7,0-1.4,0-2,0-.3,0-.3.3-.4.9,0,1.8-.2,2.7-.3.2,0,.4,0,.4.3.1,1.1.3,2.3.5,3.4,0,.2.1.4.3.5.3.1.5.3.7.4.2.1.3,0,.4,0,.3-.2.6-.5.9-.6.3-.1.3-.3.3-.6,0-.3,0-.6-.1-1ZM70.6,55.9c-.1-.8-.2-1.4-.3-2.1,0,0-.2-.2-.2-.1-.6,0-1.3.1-1.9.2-.2,0-.4,0-.6,0,0,0,0,0,0,0,1,.6,2,1.2,3.1,1.8Z"/>
    <path class="cls-3" d="M142.4,85.3c0-.1,0-.3-.1-.4.2-.2.4-.1.5.1.2.4.4.9.6,1.3,0,.2,0,.3-.1.4-.6.3-1.1.6-1.4,1.1-.1.2-.3.1-.3,0-.2-.4-.6-.6-1-.7-2.2-.7-4.4-1.3-6.6-2-.6-.2-1.2-.2-1.7.1,0,0-.2,0-.2,0,0,0,0-.2,0-.3.2-.2.4-.4.6-.5.1,0,.2-.1.3-.2-.2-.4-.3-.7-.5-1.1-.1-.4-.1-.7,0-1.2.1.1.2.2.3.3.2.7.8,1.1,1.5,1.4,1.2.4,2.3.7,3.5,1.1,1.2.4,2.3.7,3.5,1.1.3,0,.5,0,.7-.1.1-.1.3-.2.5-.3Z"/>
    <path class="cls-3" d="M117,44.3c.2.3.1.4-.1.5-.4.1-.9.3-1.3.4-.2,0-.3,0-.4-.2-.2-.6-.5-1.1-1-1.5-.2-.1-.1-.3,0-.3.4-.2.7-.6.8-1,.8-2.1,1.7-4.2,2.5-6.3.2-.6.4-1.2,0-1.8,0,0,0-.2,0-.2,0,0,.2,0,.2,0,.2.2.3.5.5.7,0,0,0,.2.2.3.2,0,.4-.2.6-.3.4-.2.9-.2,1.4,0,0,0,.1,0,.2.1,0,0-.1.2-.2.2-.8.2-1.3.8-1.6,1.5-.9,2.2-1.8,4.5-2.7,6.7,0,.1,0,.3,0,.5,0,0,0,.2.1.3.1.3.2.5.6.3Z"/>
    <path class="cls-3" d="M113.4,105.4c.1-.2.3-.5.4-.7.2-.4.5-.6.9-.8,0,0,.2,0,.2,0,0,0,0,.2,0,.3-.5.6-.5,1.3-.2,2,.8,2.4,1.5,4.7,2.3,7,0,.1.2.2.3.3,0,0,.2,0,.3.1.3.1.5.2.6-.2.3.1.4.2.2.5-.2.4-.5.8-.7,1.2-.1.2-.2.2-.4.1-.5-.3-1.1-.5-1.7-.5-.2,0-.3-.1-.2-.3.2-.4.1-.8,0-1.2-.7-2.2-1.5-4.4-2.2-6.6-.2-.6-.5-1-1.1-1.3,0,0,0-.1-.1-.2,0,0,.2-.1.3-.1.4,0,.7.2,1.1.3Z"/>
    <path class="cls-3" d="M102.7,111.2c-.2-.1-.2-.3,0-.4.4-.5.8-.9,1.2-1.4.5.4,1,.7,1.2,1.4.5-.6.9-1.1,1.4-1.6.3.3.5.6.8.9q.5.5,0,1.1c-.2.2-.4.4-.6.7-.3-.4-.6-.8-1-1.2-.5.4-.7.8-.6,1.4.1,1.2.2,2.4.3,3.7,0,.2,0,.4.3.5.2.1.4.2.6.4.2-.2.4-.5.6-.7.2.2.3.3,0,.5-.5.5-.9,1-1.3,1.5-.2.2-.3.2-.4,0-.5-.4-1-.8-1.6-.9-.2,0-.2-.2,0-.3.3-.3.4-.7.3-1.1-.1-1.4-.2-2.7-.3-4.1,0,0,0-.1,0-.2-.1-.4-.3-.4-.6-.1,0,0,0,0-.1.1Z"/>
    <path class="cls-3" d="M74.7,98.6c0-.3,0-.4.3-.4.6,0,1.1,0,1.7,0,.2,0,.2,0,.2.2,0,.5,0,1.1-.4,1.6h2.2c0,.4-.1.8-.2,1.2q-.1.8-.9.8c-.2,0-.4,0-.5,0-.2,0-.3-.1-.2-.3,0-.4.2-.8.3-1.2-.5,0-.9,0-1.3.3-.9.9-1.9,1.8-2.9,2.7-.2.2-.2.3-.2.5,0,.2,0,.5.1.6.1.1.4,0,.6.1,0,0,.2,0,.2.2,0,.2-.1.2-.3.2-.7,0-1.4,0-2.1-.1-.2,0-.2-.1-.2-.3,0-.3,0-.6,0-.9,0-.3-.1-.6-.2-.9,0-.3,0-.4.2-.4.4,0,.7-.2,1-.4.9-.9,1.9-1.8,2.8-2.6.1-.1.2-.2.3-.3,0-.1.1-.3,0-.4,0,0-.2,0-.4-.1,0,0,0,0-.1,0Z"/>
    <path class="cls-3" d="M104.1,35.6c-.2-.2-.2-.3,0-.4.4-.4.9-.7,1.3-1.1.1,0,.2-.1.3,0,.4.4.7.8.7,1.5.6-.5,1.1-.9,1.7-1.4.3.5.6,1,.9,1.5,0,0,0,.2,0,.2-.3.3-.7.6-1.1,1-.3-.5-.5-.9-.8-1.4-.4.3-.8.5-.8,1.1,0,1-.2,2-.3,3,0,.2,0,.5,0,.7-.1.4,0,.7.4,1,.2.2.3.2.5,0,.1-.1.3-.2.5-.4.2.2.2.3,0,.5-.5.4-1.1.8-1.6,1.2-.2.1-.3.1-.4,0-.4-.5-.8-.9-1.4-1.2-.2,0-.2-.2,0-.3.4-.3.5-.8.6-1.3.1-1.2.2-2.4.3-3.6,0-.1,0-.3,0-.4,0-.2-.1-.3-.2-.4,0,0-.3,0-.4.1,0,0,0,0-.1,0Z"/>
    <path class="cls-3" d="M129.2,46.9c0-.6,0-1,.1-1.6-.5,0-.9,0-1.2.4-.8,1-1.7,2.1-2.5,3.1-.2.2-.2.4-.2.6.2.7,0,.6.8.6,0,0,.2,0,.3,0,0,.3,0,.4-.3.4-.7,0-1.4,0-2,.1-.2,0-.2-.1-.3-.3,0-.4-.1-.8-.2-1.1,0-.2-.2-.4-.3-.6,0-.2,0-.3.1-.3.5,0,.9-.4,1.2-.7.8-.9,1.5-1.9,2.3-2.8.1-.1.2-.3.3-.5.1-.3,0-.5-.3-.5,0,0-.2,0-.2,0,0-.2,0-.3.2-.3.6,0,1.1-.1,1.7-.2.2,0,.3,0,.3.3,0,.5,0,1-.2,1.5.4,0,.8,0,1.2,0,.2,0,.5,0,.7,0,.2,0,.2,0,.2.2,0,.5,0,1-.1,1.5,0,0,0,.2-.2.2-.5,0-.9.1-1.4.2Z"/>
    <path class="cls-3" d="M140.5,89.4c.2-.1.4,0,.4.1.2.6.5,1.3.7,1.9,0,.2,0,.3-.1.3-.6.2-1.1.5-1.6,1-.1.2-.3.1-.3,0-.2-.4-.5-.6-.9-.8-1.2-.5-2.3-1-3.5-1.4-.2,0-.3-.1-.5-.1-.4,0-.5,0-.4.4,0,0,0,.1,0,.2-.2.1-.3.2-.4,0-.2-.5-.4-1-.7-1.6,0-.2,0-.2.1-.3.5-.2,1-.4,1.6-.3-.3-.7-.6-1.3-.8-2,.3,0,.6-.1.8-.2.3,0,.5-.1.8-.2,0,0,.3,0,.3,0,.2.4.4.9.6,1.3-.5.1-1,.2-1.5.3.2.5.3.9.9,1.1,1.2.4,2.3.9,3.5,1.4.3.1.5.1.8,0,.5-.3.5-.2.3-.8,0-.1,0-.3-.1-.4Z"/>
    <path class="cls-3" d="M84.4,45.9c.3,0,.3.1.3.4-.1.5-.3,1.1-.4,1.6,0,.2-.1.2-.3.2-.5,0-1-.3-1.3-.8-.7-1-1.4-2.1-2.1-3.2-.2-.3-.4-.6-.6-1-.2-.3-.4-.5-.8-.6-.2,0-.3-.2-.2-.4.1-.4.2-.8.3-1.2,0-.2.1-.3.3-.2.4,0,.9.2,1.3.3.2,0,.2.1.2.3-.2.5,0,.9.3,1.3.7,1,1.3,2.1,2,3.1.1.2.3.4.5.6.2.2.4.2.5-.1,0,0,0-.2,0-.3Z"/>
    <path class="cls-3" d="M77.6,43.9c-.1.3,0,.5.2.7.9,1.1,1.7,2.2,2.6,3.3.1.2.3.3.4.4.3.3.5.2.5-.2,0-.2,0-.3.3-.2,0,0,0,.2,0,.2,0,.5-.2,1.1-.2,1.6,0,.2-.1.3-.4.3-.6,0-1.1-.3-1.5-.8-.5-.7-1.1-1.4-1.6-2-.4-.5-.9-1.1-1.3-1.6-.2-.3-.5-.5-.9-.5-.2,0-.3,0-.2-.3,0-.4.1-.9.2-1.3,0,0,.2-.2.2-.2.5,0,.9,0,1.4.1.4,0,.2.3.2.5Z"/>
    <path class="cls-3" d="M120.3,45.4c.1.3,0,.4-.2.4-.5.1-1,.3-1.5.4-.2,0-.3,0-.4-.2-.2-.6-.2-1.2.1-1.7.5-.9,1-1.9,1.4-2.8.2-.5.5-.9.7-1.4.2-.3.2-.5.1-.8-.1-.4,0-.4.3-.5.4-.1.7-.2,1.1-.3.2,0,.2,0,.3.2.1.4.3.9.4,1.3,0,.2,0,.3-.2.3-.5,0-.7.5-.9.9-.6,1.1-1.2,2.2-1.7,3.3-.1.2-.2.5-.3.7,0,.3,0,.4.3.3.1,0,.2,0,.3,0Z"/>
    <path class="cls-3" d="M135.8,63.4c0,.3-.2.3-.4.2-.5-.2-1-.4-1.5-.6-.2,0-.2-.2-.2-.3.2-.6.6-1,1.1-1.3.9-.4,1.9-.9,2.8-1.3.5-.2.9-.4,1.4-.6.4-.1.6-.4.8-.7,0-.2.2-.3.4-.2.4.2.8.3,1.2.5.2,0,.2.2.2.4-.2.4-.3.8-.4,1.2,0,.2-.1.3-.3.2-.4-.2-.8-.1-1.2,0-1.2.6-2.4,1.1-3.6,1.6-.2,0-.4.2-.5.3-.3.2-.2.4,0,.5,0,0,.2,0,.3.1Z"/>
    <path class="cls-3" d="M138,73.3c.7-.6,1.3-1.1,1.9-1.6,0,0,.2,0,.2,0,.6.5,1.3,1.1,1.9,1.6-.5.4-.9.8-1.3,1.1-.2.2-.4.3-.6.5,0,0-.2,0-.3,0-.6-.5-1.3-1.1-1.9-1.6Z"/>
    <path class="cls-3" d="M67,73.3c-.7.6-1.3,1.1-1.9,1.6,0,0-.2,0-.2,0-.6-.5-1.3-1.1-1.9-1.7.5-.4.9-.8,1.4-1.2q.6-.5,1.3,0c.5.4.9.8,1.4,1.2Z"/>
    <path class="cls-3" d="M81.5,97.2c-.2,0-.3.1-.4.2-.6.3-1.2.6-1.9.8-.2,0-.3,0-.5,0-.2-.2-.6-.4-.7-.7,0-.3.1-.6.3-.9.2-.5.4-1,.5-1.6,0,0,0,0,0,0,.2,0,.3.2.3.4,0,.5,0,1,0,1.5,0,.2,0,.3.3.3.5,0,.9,0,1.4,0,.2,0,.4,0,.6.3Z"/>
    <path class="cls-3" d="M110.3,103.6c-.2.7-.4,1.3-.7,1.9-.1.4-.3.8-.4,1.3,0,0,0,.2,0,.2-.1,0-.2.1-.3.1,0,0-.1-.2-.1-.2,0-.9,0-1.8,0-2.6,0,0,0-.3.1-.3.5-.1,1-.2,1.6-.4Z"/>
    <path class="cls-3" d="M91.9,106.2c.3-.5.6-1,.8-1.5.2-.4.4-.7.6-1.1,0,0,.2-.2.2-.2.5.1,1,.3,1.5.5-.2.2-.3.3-.5.4-.7.6-1.4,1.2-2.1,1.8-.2.2-.4.2-.6,0Z"/>
    <path class="cls-3" d="M122.8,37.6c.4-.4.7-.9,1-1.3,0,0,.2,0,.2,0,.2.1.5.2.7.4-.2.1-.3.2-.4.3-.4.2-.7.5-1.1.7-.2.1-.3.1-.5,0Z"/>
    <path class="cls-3" d="M78.9,39.8c-.2-.5-.4-1.1-.6-1.6,0,0,0-.2,0-.2.2-.1.4-.3.7-.4,0,.1,0,.2,0,.3,0,.5,0,1,0,1.5,0,.1,0,.3-.2.4,0,0,0,0-.1,0Z"/>
    <path class="cls-3" d="M142.6,58.9c.5-.1,1.1-.2,1.6-.3,0,0,.2,0,.2.1.1.2.2.4.3.7-.3,0-.5,0-.8,0-.4,0-.7,0-1.1-.1-.1,0-.2-.1-.3-.2,0,0,0,0,0-.1Z"/>
    <path class="cls-3" d="M75.3,40.1c.1.6.2,1.2.3,1.8,0,0,0,.1,0,.1,0,0-.1.2-.2.3,0-.1-.2-.2-.2-.3-.2-.4-.4-.8-.6-1.2,0,0,0-.3,0-.3.2-.2.4-.3.6-.5Z"/>
    <path class="cls-3" d="M96.6,45.7c.3-.2.6,0,.9,0-.3.3-.6.3-.9,0Z"/>
    <path class="cls-3" d="M108,69.4c0,0-.1,0-.2,0-.1,0-.2,0-.3,0,0,0,0,0,0,0,.1,0,.2,0,.4,0,0,0,0,0,.1,0,0,0,0,0,0,0Z"/>
    <path class="cls-3" d="M108.7,83.8c-.3.2-.5.4-.8.5-.2,0-.4.2-.6.2-.4.2-.8.3-1.3.5-.8.3-1.6.4-2.4.6-.5,0-.9,0-1.4.1-.2,0-.4-.1-.5,0-.5.2-1,0-1.5-.2-.1,0-.2,0-.3,0-.4,0-.7-.1-1-.3-.4-.2-.9-.4-1.4-.6-.4-.2-.8-.4-1.2-.6,0,0,0-.1-.2-.3.2,0,.4,0,.5.1.8.3,1.6.7,2.3,1,.6.2,1.2.2,1.7.4.6.2,1.2,0,1.8.3,0,0,0,0,0,0,.5,0,1.1,0,1.6-.1,1-.2,2-.5,3-.8.2,0,.5-.3.7-.4.2-.1.5-.2.7-.3,0,0,.1,0,.2,0,0,0,0,0,0,.1Z"/>
    <path class="cls-3" d="M93.3,80.9c-.3-.2-.4-.4-.5-.7-.1-.5-.4-.9-.6-1.4-.2-.6-.5-1.2-.5-1.9,0,0,0,0,0,0,.1.3.2.6.3.9.4.8.5,1.8,1.1,2.5.1.2,0,.4.1.6h0Z"/>
    <path class="cls-3" d="M93.2,80.9c.1.1.3.3.4.4,0,0,0,0,0,0-.2,0-.3-.2-.3-.5,0,0,0,0,0,0Z"/>
    <path class="cls-3" d="M102.2,76c.2.1.4.2.5.4.4.3.8.6,1.2,1,.2.2.4.3.7.3.2,0,.5,0,.7.1.5.2,1,.2,1.6,0,.2,0,.4,0,.6,0,.2,0,.4-.1.6-.3.2-.2.5-.3.7,0-.3.4-.7.6-1.1.8-.4.1-.9.3-1.3.4,0,0-.1,0-.1,0-.5-.1-1.1-.2-1.6-.4-.4-.1-.7-.4-1.1-.5-.1,0-.3-.1-.4-.2,0,0-.2-.2-.3-.3-.1-.2-.2-.3-.5-.3-.2,0-.4,0-.5.3,0,0,0,.2-.1.2-.5.4-1,.9-1.6,1.1,0,0-.2.1-.3.2-.4.3-.9.4-1.4.4-.3,0-.6,0-.8,0-.6,0-1.1-.2-1.5-.5-.2,0-.4-.1-.5-.2-.1,0-.2-.1-.3-.2-.1-.1-.2-.3,0-.4.1-.2.3-.2.4,0,.4.3.9.4,1.4.4.4,0,.8.2,1.2.2.3,0,.7,0,1-.1.5,0,1-.2,1.4-.6.1-.1.3-.2.4-.3.2-.1.3-.3.5-.4.3-.2.6-.4.6-.9Z"/>
    <path class="cls-3" d="M90.7,95.3c-.1.1-.2.2-.3.3,0,0-.1,0-.2,0-.3.4-.6.2-.9,0-.3-.2-.7-.3-1-.5-.3-.2-.3-.3,0-.5.2-.2.3-.4.4-.6.2-.2.4-.3.6,0,.3.3.7.5,1,.8.1,0,.2.3.3.5Z"/>
    <path class="cls-3" d="M90.5,92.3c.6,0,1,.3,1.3.7.1.2,0,.4-.1.5-.2.1-.5.3-.7.4-.2,0-.4,0-.6-.1-.2,0-.3-.1-.5-.2-.1,0-.3,0-.3-.1,0-.1,0-.3,0-.4.1-.2.3-.5.5-.6,0,0,.3-.1.3-.1Z"/>
    <path class="cls-3" d="M96.1,99.1c-.2,0-.3,0-.5-.1,0-.2,0-.4.2-.5.4-.3.8-.5,1.2-.7,0,0,.2,0,.3.1.1,0,.2.2.3.2.2,0,.2.2.1.3-.2.2-.4.3-.6.4-.2,0-.4.1-.7.2-.1,0-.3,0-.4,0,0,0,0,0,0,0Z"/>
    <path class="cls-3" d="M81.2,79.8c0,0,.1,0,.2,0,.2.3.5.5.7.8.2.3,0,.9-.4,1,0,0-.3,0-.4,0-.3-.2-.5-.4-.7-.6-.3-.3-.2-.6.1-.8,0,0,.2-.1.2-.2,0,0,.2-.1.3-.2Z"/>
    <path class="cls-3" d="M78.9,81.4c.3,0,.6.2.7.6,0,.1,0,.2.1.3.1.2,0,.3,0,.5-.1.1-.3.2-.5,0-.3-.2-.6-.3-.9-.5-.1,0-.2-.3-.2-.5,0-.1.2-.2.3-.3.1,0,.3,0,.4,0Z"/>
    <path class="cls-3" d="M79,67.7c-.2.1-.4.2-.5.3-.1,0-.3,0-.4,0,0-.2,0-.4,0-.5.2-.3.5-.6.7-.9.1-.1.3-.2.5,0,.2.1.4.2.5.3.1.1.4.3.4.4,0,.4,0,.8-.3,1.1-.2.2-.5,0-.6-.2,0-.2-.1-.4-.2-.6Z"/>
    <path class="cls-3" d="M82.3,68.3c0,.3-.2.4-.4.5-.2,0-.4,0-.6-.2,0-.1-.3-.2-.5-.2-.3,0-.4-.1-.4-.4,0,0,0,0,0-.1,0-.5.3-.7.8-.6.2,0,.4,0,.6.2.3.2.4.5.4.9Z"/>
    <path class="cls-3" d="M79,73.4c.6,0,1.1,0,1.7.2.1,0,.2,0,.3.2.4.3.5,1.2.1,1.6,0,.1-.3.2-.4.2-.9,0-1.8,0-2.6-.4-.3-.2-.7-.4-1-.5-.2-.1-.2-.2,0-.5.3-.5.7-.7,1.3-.7.2,0,.4,0,.6,0,0,0,0,0,0,0Z"/>
    <path class="cls-3" d="M104.6,50.7c.2,0,.6,0,.9.1.2,0,.3.3.2.5-.2.3-.4.6-.5.9,0,.2,0,.5,0,.7,0,.1,0,.4,0,.4-.1,0-.3,0-.4,0-.1,0-.3,0-.4,0-.6,0-.7-.3-.6-.8,0-.4.1-.8.1-1.3,0-.5,0-.6.6-.5Z"/>
    <path class="cls-3" d="M91.3,85.7c-.5,0-.8-.3-1.2-.6-.2-.2-.5-.3-.5-.6,0-.1,0-.3,0-.4,0,0,.3-.1.4,0,.2,0,.4.2.6.4.2.1.4.2.5.3.5.2.5.3.3.7,0,0,0,.2-.2.3Z"/>
    <path class="cls-3" d="M111.1,53.5s0,0,.2,0c.3.2.5.3.8.3.4,0,.6.4.7.8,0,0,0,.1,0,.2,0,.2-.7.7-.9.6-.6-.2-1.1-.5-1.4-1.1-.2-.4.2-.9.6-.9Z"/>
    <path class="cls-3" d="M112.4,52.1c.7,0,1.3.5,1.4,1.1,0,0,0,.2-.2.3-.1,0-.3.1-.5.1,0,0-.1,0-.2-.1-.2-.2-.4-.4-.7-.2-.1,0-.3,0-.4,0-.2-.1-.4-.2-.4-.5,0-.2.3-.5.6-.6.1,0,.3,0,.3,0Z"/>
    <path class="cls-3" d="M93.6,53.9c0-.3.3-.7.6-.8.7-.2.9-.1,1.2.5.2.3.1.4-.1.5-.2,0-.3.2-.5.2-.2,0-.4,0-.6,0-.1,0-.3,0-.4-.2-.1,0-.2-.2-.2-.2Z"/>
    <path class="cls-3" d="M95.1,52c0,.5-.2.6-.7.5,0,0-.2,0-.3,0-.4,0-.5,0-.6-.4,0-.3,0-.6.4-.7.4-.2.7-.1,1,0,0,0,.2.2.2.3,0,.1,0,.3,0,.4Z"/>
    <path class="cls-3" d="M94.7,88c0-.3.2-.5.5-.4.2,0,.4,0,.5,0,.7,0,1,.4,1.2,1,0,.2-.2.4-.4.4-.5-.2-1.1-.4-1.6-.6-.2,0-.4-.2-.3-.5Z"/>
    <path class="cls-3" d="M117.9,69.5c0,.2,0,.4-.2.6,0,0-.1.1-.2.2-.3,0-.7-.3-.7-.6,0-.1,0-.3,0-.4,0-.4.2-.6.6-.6.4,0,.3.3.4.5,0,.1,0,.2,0,.4,0,0,0,0,0,0Z"/>
    <path class="cls-3" d="M118,76.9c-.7-.2-1.4-.3-2.1-.6-.1,0-.2-.3-.2-.4,0-.1.1-.3.2-.3.6-.3,1.2-.2,1.8,0,.2,0,.4.2.7.3.3.1.4.3.4.6,0,.3-.3.4-.7.5Z"/>
  </g>
  <rect class="cls-2" width="225" height="150"/>
</svg>