<?xml version="1.0" encoding="UTF-8"?>
<svg id="Vrstva_1" data-name="Vrstva 1" xmlns="http://www.w3.org/2000/svg" version="1.1" viewBox="0 0 225 150">
  <defs>
    <style>
      .cls-1 {
        fill: none;
        opacity: 0;
      }

      .cls-1, .cls-2 {
        stroke-width: 0px;
      }

      .cls-2 {
        fill: #fff;
      }
    </style>
  </defs>
  <g>
    <rect class="cls-2" x="113.5" y="34.7" width="2.5" height="57.8" rx="0" ry="0"/>
    <rect class="cls-2" x="118.4" y="41.5" width="2.5" height="11.8" rx=".1" ry=".1"/>
    <rect class="cls-2" x="108.6" y="41.7" width="2.5" height="6.9" rx=".1" ry=".1"/>
    <rect class="cls-2" x="123.4" y="45.8" width="2.5" height="46.7" rx="0" ry="0"/>
    <rect class="cls-2" x="103.7" y="49.1" width="2.3" height="6.7" rx=".1" ry=".1"/>
    <rect class="cls-2" x="108.6" y="50.7" width="2.5" height="41.8" rx="0" ry="0"/>
    <rect class="cls-2" x="118.4" y="57.9" width="2.5" height="4.8" rx=".1" ry=".1" transform="translate(-.1 .2) rotate(0)"/>
    <rect class="cls-2" x="103.7" y="58.3" width="2.5" height="34.2" rx="0" ry="0"/>
    <rect class="cls-2" x="69.1" y="66.6" width="2.5" height="38.6" rx=".1" ry=".1"/>
    <rect class="cls-2" x="74.1" y="66.6" width="2.3" height="38.6" rx=".1" ry=".1"/>
    <path class="cls-2" d="M120.9,67.1v4.6c0,0,0,.1-.1.1h-2.2c0,0-.1,0-.1-.1v-4.6c0,0,0-.1,0-.1,0,0,0,0,0,0h2.3c0,0,.1,0,.1.2Z"/>
    <path class="cls-2" d="M178.2,67.1c.7,0,1.5,0,2.4,0,0,0,0,0,0,0-.2.2-.3.4-.5.5-.4.3-.7.6-1.1,1-.2.2-.3.2-.5.3-.6,0-1.1,0-1.7,0-.1,0-.2,0,0-.2l1.3-1.6c0,0,.2-.1.3-.2Z"/>
    <path class="cls-2" d="M163.5,70.2c.1.1.2.1.2,0v-2.9c0,0,0-.1.1-.1,0,0,0,0,0,0h2.4c0,0,.1,0,.1.1v9.4c0,0,0,.1-.1.1h-2.2c0,0-.1,0-.1-.1h0s0-.5,0-.5c0,0,0,0,0,0,0,0,0,0,0,0-.3.3-.6.6-1,.7-1.7.5-3.3-.1-4-1.7-.2-.3-.3-.8-.3-1.2,0-.7,0-1.4.2-2,.3-1.2,1.3-2.2,2.6-2.3.7,0,1.9,0,2.3.6ZM162.7,74.6c.7-.2,1.2-.9,1-1.7h0c-.2-.8-.9-1.2-1.6-1.1s-1.2.9-1,1.7c0,0,0,0,0,0,.2.8.9,1.2,1.6,1.1Z"/>
    <rect class="cls-2" x="88.9" y="67.9" width="2.5" height="37.2" rx=".1" ry=".1"/>
    <path class="cls-2" d="M157.6,72.6c.2,2-.7,3.9-2.8,4.3-1.3.3-2.4,0-3.5-.6-.2-.2-.4-.3-.6-.5-.8-1-1-2.1-.8-3.4.3-1.4,1.1-2.3,2.5-2.7.3,0,.7-.1,1.2-.1,1,0,1.8.1,2.6.8.7.6,1.1,1.3,1.3,2.3ZM154,74.7c.7,0,1.3-.8,1.2-1.5,0-.8-.7-1.3-1.5-1.3-.7,0-1.3.8-1.2,1.5,0,.8.7,1.3,1.5,1.3Z"/>
    <path class="cls-2" d="M170.7,70.2c.1,0,.3-.2.4-.3,1-.6,2.3-.6,3.2.1.6.5.8,1,.8,1.7,0,1.7,0,3.3,0,4.8,0,0,0,0,0,0h-2.5c0,0,0,0,0,0,0-1.1,0-2.3,0-3.5,0-.5,0-1-.6-1.2-.8-.2-1.3.3-1.3,1.1,0,1.2,0,2.4,0,3.6,0,0,0,.1-.1.1,0,0,0,0,0,0h-2.4c0,0,0,0,0,0,0-2.2,0-4.5,0-6.8,0,0,0-.1.1-.1,0,0,0,0,0,0h2.4c0,0,.1,0,.1.1,0,0,0,0,0,0,0,.1,0,.3,0,.4,0,0,0,0,.1,0,0,0,0,0,0,0Z"/>
    <path class="cls-2" d="M145.8,73.9l1.2-4.1c0,0,0-.1.1-.1h2.6c.1,0,.2,0,.1.2l-2.6,6.9s0,0,0,0h-3s0,0-.1,0c-.7-2.1-1.5-4.3-2.3-6.4,0-.2-.1-.3-.1-.5,0,0,0-.1.1-.2,0,0,0,0,0,0h2.6c.1,0,.2,0,.2.1l1.1,4s0,0,0,0Z"/>
    <rect class="cls-2" x="176.8" y="69.7" width="2.6" height="7" rx=".1" ry=".1" transform="translate(-.1 .3) rotate(0)"/>
    <rect class="cls-2" x="93.9" y="70.5" width="2.5" height="34.6" rx=".1" ry=".1"/>
    <rect class="cls-2" x="84" y="72.2" width="2.3" height="7.7" rx=".1" ry=".1"/>
    <rect class="cls-2" x="64.2" y="72.9" width="2.5" height="32.3" rx=".1" ry=".1"/>
    <rect class="cls-2" x="98.9" y="74.7" width="2.5" height="30.5" rx="0" ry="0"/>
    <path class="cls-2" d="M120.9,75.9v8.4c0,0,0,.1-.1.1h-2.2c0,0-.1,0-.1-.1h0s0-8.4,0-8.4c0,0,0-.1.1-.1,0,0,0,0,0,0h2.2c0,0,.1,0,.1.2Z"/>
    <rect class="cls-2" x="133.3" y="76.6" width="2.3" height="28.6" rx="0" ry="0"/>
    <rect class="cls-2" x="59.4" y="77" width="2.3" height="28.2" rx="0" ry="0"/>
    <path class="cls-2" d="M81.4,77.3v27.9c0,0,0,.1-.1.1h-2.1c0,0-.1,0-.1-.1h0v-27.9c0,0,0-.1.1-.1,0,0,0,0,0,0h2.1c0,0,.1,0,.1.2Z"/>
    <rect class="cls-2" x="128.3" y="80.6" width="2.5" height="24.7" rx=".1" ry=".1"/>
    <path class="cls-2" d="M145.3,84.6c.7-.6,1.5-.9,2.5-.7,1.1.2,2,1.1,2,2.2,0,1.6,0,3.3,0,4.9,0,0,0,0,0,0h-2.4c0,0-.1,0-.1-.1h0c0-1.1,0-2.3,0-3.6,0-.6-.3-1-.8-1.2-.5-.1-1.1.4-1.1.9,0,1.3,0,2.6,0,4s0,0,0,0h-2.4c0,0-.1,0-.1-.1h0v-9.6s0,0,0,0c0,0,0,0,0,0h2.4c0,0,.1,0,.1.1v3.1s0,0,0,0c0,0,0,0,0,0Z"/>
    <path class="cls-2" d="M170.4,84.5c.1,0,.2,0,.2,0v-2.9s0,0,0,0h2.6c0,0,.1,0,.1.1h0v9.5c0,0,0,.1-.1.1h-2.4c0,0-.1,0-.1-.2v-.5s0,0,0,0c0,0,0,0,0,0-.8.8-1.7,1-2.7.7-1-.2-1.7-.8-2.2-1.6-.5-.9-.4-1.8-.4-2.7,0-1.1,1-2.5,2.1-2.8,1-.3,2.2-.3,3,.4ZM169.2,89c.7,0,1.4-.5,1.5-1.2,0-.8-.5-1.5-1.2-1.5-.7,0-1.4.5-1.5,1.2,0,.8.5,1.5,1.2,1.5Z"/>
    <rect class="cls-2" x="84" y="82.8" width="2.3" height="22.4" rx="0" ry="0"/>
    <path class="cls-2" d="M153.9,84.6s0,0,0,0c0,0,0,0,0,0,.4-.6,1.1-.9,1.8-.8.1,0,.3.1.3.3v1.9s0,0,0,0c-.7-.2-2,0-2,.9,0,1.4,0,2.7,0,4,0,0,0,0,0,0h-2.5c0,0-.1,0-.1-.1v-6.9c0-.1,0-.2.2-.2,0,0,0,0,0,0h2.3c0,0,.1,0,.1.2,0,0,0,0,0,0,0,.2,0,.3,0,.5Z"/>
    <path class="cls-2" d="M161.6,84.6v-.5c0,0,0-.1.2-.1h2.3c.1,0,.2,0,.2.2v6.9s0,0,0,0h-2.4c0,0-.1,0-.1-.1,0,0,0,0,0,0v-.5c0,0,0,0,0,0-.7.7-1.7,1-2.8.7-1.4-.3-2.4-1.6-2.5-3-.1-1.6.2-3,1.7-3.9.9-.6,2.2-.5,3.1,0,.2,0,.3.3.5.4,0,0,0,0,0,0ZM160.2,89c.8,0,1.4-.6,1.4-1.3h0c0-.8-.6-1.4-1.3-1.4h0c-.8,0-1.4.6-1.4,1.3,0,0,0,0,0,0,0,.8.6,1.4,1.3,1.4h0Z"/>
    <rect class="cls-2" x="118.4" y="88.8" width="2.5" height="8.8" rx=".1" ry=".1"/>
    <rect class="cls-2" x="103.7" y="95.3" width="2.5" height="9.9" rx=".1" ry=".1"/>
    <rect class="cls-2" x="108.6" y="95.3" width="2.5" height="9.9" rx="0" ry="0"/>
    <rect class="cls-2" x="113.5" y="95.3" width="2.5" height="9.9" rx="0" ry="0"/>
    <rect class="cls-2" x="123.4" y="95.3" width="2.5" height="9.9" rx="0" ry="0"/>
    <rect class="cls-2" x="157" y="95.3" width="2.3" height="2.7" rx="1.1" ry="1.1" transform="translate(51.7 248.4) rotate(-86.4)"/>
    <path class="cls-2" d="M145,96.4c0,0,.2,0,.3,0,0,0,0,0,0,0,.3-.3.5-.6.9-.6.6,0,1.1,0,1.6,0,0,0,0,0,0,0-.4.5-.8,1-1.2,1.5-.2.2-.4.4-.7.4-.6,0-1.2,0-1.8,0-.2,0-.4,0-.5-.3-.4-.5-.8-1.1-1.2-1.6,0,0,0,0,0,0h1.8c.1,0,.2,0,.3.1l.5.5Z"/>
    <path class="cls-2" d="M164,98.8c.2-.1.3-.3.5-.3.4-.2.9-.2,1.5-.2,1.6,0,2.4,1.3,2.3,2.8,0,1.5,0,2.9,0,4.4,0,0,0,0,0,0h-2.6c0,0-.1,0-.1-.1,0,0,0,0,0,0,0-1.4,0-2.7,0-4,0-.2,0-.4-.2-.5-.4-.3-.8-.3-1.2,0-.2.2-.3.4-.3.6,0,1.4,0,2.7,0,3.9,0,0,0,0,0,0h-2.5c0,0-.1,0-.1-.1v-9.4c0,0,0-.1.1-.1h2.4c0,0,.2,0,.2.2v2.7c0,0,0,.1.1.1,0,0,0,0,0,0Z"/>
    <path class="cls-2" d="M176,104.6c-.6.6-1.4.9-2.3,1-1,0-2.1,0-2.9-.7-.7-.6-1.3-1.3-1.4-2.3,0-.9-.1-1.9.3-2.6.6-1.1,1.6-1.7,2.9-1.9,1.5-.2,3.2.3,3.9,1.7.9,1.6.7,3.4-.6,4.7ZM173.2,103.3c.7,0,1.3-.6,1.3-1.4,0-.8-.6-1.4-1.3-1.4-.7,0-1.3.6-1.3,1.4h0c0,.8.6,1.4,1.3,1.4Z"/>
    <path class="cls-2" d="M145.3,103.1c-.1-.2-.3-.2-.5-.3-.7-.1-1.3-.2-1.8-.6-.8-.4-1.1-1.4-.8-2.3.3-1.1,1.5-1.7,2.6-1.8,1,0,1.9,0,2.7.4,0,0,0,0,0,0,0,.1,0,.3,0,.4-.2.4-.3.8-.5,1.2,0,.1-.1.1-.2,0-.7-.2-1.3-.6-2-.2-.1,0-.2.2,0,.3,0,.1.2.2.4.3.7.2,1.7.3,2.3.9,1.1,1,.6,2.8-.6,3.5-1.4.8-3.4.5-4.7-.3,0,0-.1-.2,0-.3l.7-1.5s0,0,.1,0c0,0,0,0,0,0,.6.4,1.8,1,2.5.4.1,0,.1-.2,0-.3,0,0,0,0,0,0Z"/>
    <path class="cls-2" d="M152.1,102.4l1.1-3.8c0-.1.1-.2.3-.2h2.5c0,0,.2,0,.2.2,0,0,0,0,0,0,0,0,0,0,0,0-.8,2.2-1.7,4.5-2.5,6.7,0,0,0,0,0,0h-2.9c-.1,0-.2,0-.3-.2l-2.4-6.8s0,0,0,0c0,0,0,0,0,0h2.8c0,0,.2,0,.2.1,0,0,0,.2,0,.3.4,1.3.7,2.5,1,3.5,0,.2.1.2.2,0Z"/>
    <path class="cls-2" d="M185.2,98.5v.2l-2.5,6.7c0,0,0,0-.1,0h-3c0,0-.1,0-.1-.1l-2.4-6.8s0-.1,0-.1c0,0,0,0,0,0h2.7c0,0,.2,0,.2.1l1.2,4s0,0,0,0l1.2-4.1c0,0,0-.1.2-.1h2.7Z"/>
    <rect class="cls-2" x="154.6" y="100.6" width="7" height="2.8" rx=".1" ry=".1" transform="translate(55.7 259.7) rotate(-89.8)"/>
    <path class="cls-2" d="M45.6,108h36c0,0,.1,0,.1.1v2.2c0,0,0,.1-.1.1h-36c0,0-.1,0-.1-.1h0s0-2.2,0-2.2c0,0,0-.1.1-.1Z"/>
    <rect class="cls-2" x="45.5" y="112.8" width="36.3" height="2.5" rx="0" ry="0"/>
  </g>
  <rect class="cls-1" width="225" height="150"/>
</svg>