<?xml version="1.0" encoding="UTF-8"?>
<svg id="Vrstva_1" data-name="Vrstva 1" xmlns="http://www.w3.org/2000/svg" version="1.1" xmlns:xlink="http://www.w3.org/1999/xlink" viewBox="0 0 225 150">
  <defs>
    <style>
      .cls-1 {
        fill: none;
        opacity: 0;
      }

      .cls-1, .cls-2 {
        stroke-width: 0px;
      }

      .cls-3 {
        filter: url(#outer-glow-5);
      }

      .cls-2 {
        fill: #fff;
      }
    </style>
    <filter id="outer-glow-5" filterUnits="userSpaceOnUse">
      <feOffset dx="0" dy="0"/>
      <feGaussianBlur result="blur" stdDeviation="11.3"/>
      <feFlood flood-color="#1d1d1b" flood-opacity=".8"/>
      <feComposite in2="blur" operator="in"/>
      <feComposite in="SourceGraphic"/>
    </filter>
  </defs>
  <g class="cls-3">
    <path class="cls-2" d="M33.6,68.1h5.6v20h-5.6v-20Z"/>
    <path class="cls-2" d="M64.1,88.1v-10.6c0,0-5.2,8.6-5.2,8.6h-2.5l-5.1-8.3v10.3h-5.2v-20h4.7l7,11.5,6.8-11.5h4.7v20c0,0-5.1,0-5.1,0Z"/>
    <path class="cls-2" d="M94.1,75.5c0,4.5-3.4,7.4-8.9,7.4h-3.5v5.2h-5.6v-20h9.1c5.4,0,8.9,2.8,8.9,7.4ZM88.4,75.5c0-1.9-1.2-2.9-3.5-2.9h-3.1v5.8h3.1c2.3,0,3.5-1.1,3.5-2.9Z"/>
    <path class="cls-2" d="M98,78.1c0-6,4.7-10.4,11.1-10.4s11.1,4.4,11.1,10.4-4.7,10.4-11.1,10.4-11.1-4.4-11.1-10.4ZM114.5,78.1c0-3.5-2.4-5.7-5.4-5.7s-5.4,2.3-5.4,5.7,2.4,5.7,5.4,5.7,5.4-2.3,5.4-5.7Z"/>
    <path class="cls-2" d="M134.7,82.8h-3.1v5.3h-5.6v-20h9.1c5.4,0,8.9,2.8,8.9,7.4s-1.4,5.1-3.9,6.3l4.3,6.3h-6l-3.6-5.3ZM134.7,72.5h-3.1v5.8h3.1c2.3,0,3.5-1.1,3.5-2.9s-1.2-2.9-3.5-2.9Z"/>
    <path class="cls-2" d="M153.8,72.6h-6.1v-4.5h17.9v4.5h-6.1v15.5h-5.6v-15.5Z"/>
    <path class="cls-2" d="M169.2,78.1c0-6,4.7-10.4,11.1-10.4s11.1,4.4,11.1,10.4-4.7,10.4-11.1,10.4-11.1-4.4-11.1-10.4ZM185.6,78.1c0-3.5-2.4-5.7-5.4-5.7s-5.4,2.3-5.4,5.7,2.4,5.7,5.4,5.7,5.4-2.3,5.4-5.7Z"/>
  </g>
  <rect class="cls-1" width="225" height="150"/>
</svg>