<?xml version="1.0" encoding="UTF-8"?>
<svg id="Vrstva_1" data-name="Vrstva 1" xmlns="http://www.w3.org/2000/svg" version="1.1" viewBox="0 0 180 220">
  <defs>
    <style>
      .cls-1 {
        fill: none;
        opacity: 0;
      }

      .cls-1, .cls-2 {
        stroke-width: 0px;
      }

      .cls-2 {
        fill: #fff;
      }
    </style>
  </defs>
  <g>
    <g>
      <path class="cls-2" d="M87.9,15.1c-21.6-3.1-32.9,6.1-38.6,14.3-3.7,5.4-6,11.7-7,18,.4-.2.7-.4,1.1-.5,1-5.9,3.2-11.8,6.7-17,5.5-8,16.5-16.9,37.6-13.9,21,3,28.9,16.3,31.8,26.9,2.4,8.9,2.1,18.2,0,26.2.3.2.6.4.8.6,2.2-8.3,2.7-18,.2-27.2-3-10.9-11.1-24.5-32.7-27.6Z"/>
      <path class="cls-2" d="M39,200.3c-12.3-3.8-20-10.5-21.6-18.9-2.2-11.8,6.7-27,25.3-43.5-.3-.1-.7-.3-1-.4-18.6,16.6-27.5,32.1-25.2,44.1,1.6,8.6,9.2,15.4,21.3,19.4l-3,2.3,1.1,3.9c-14.6-4.7-23.8-13.3-25.9-24.4-1.9-10.1,1.3-26.2,24.9-48.1-.3-.1-.7-.3-1-.4-23.7,22-26.9,38.4-24.9,48.7,2.2,11.7,12,20.7,27.5,25.5l.9.3-1.4-5.1,4-3.1-.9-.3Z"/>
      <path class="cls-2" d="M169,175c-5.1-10.9-19-19.2-32.5-13.5-7.9,3.3-12.9,9.6-17.2,15.2-5.8,7.3-10.3,13.1-20.1,11.7-8.2-1.2-14.3-7.3-17-17.3-1.1-4-1.6-8.5-1.6-13.2,0,0,0,0-.1,0-.3,0-.6,0-.9.1,0,4.8.5,9.3,1.6,13.3,2.9,10.4,9.2,16.8,17.8,18,10.3,1.5,15.1-4.5,21-12.1,4.3-5.5,9.2-11.6,16.8-14.9,12.9-5.5,26.3,2.5,31.2,13,4.7,10,3.2,25.3-16.2,35.8l.6-4.5-3.5-1.3c13-7.1,17.9-17.2,13.2-27.1-3.7-7.8-13.4-13.7-22.7-9.8-6.1,2.6-10.1,7.6-14.2,12.9-6.1,7.7-13,16.5-27.1,14.5-11.2-1.6-19.7-9.9-23.2-22.8-1.3-4.6-1.9-9.8-1.8-15.3-.3,0-.7-.2-1-.3-.1,5.7.5,11,1.8,15.8,3.6,13.3,12.4,21.8,24,23.5,14.7,2.1,21.8-6.9,28-14.9,4.1-5.2,8-10.1,13.8-12.6,8.8-3.7,18,1.9,21.4,9.3,4.5,9.6-.6,19.5-13.8,26.3l-1,.5,4.9,1.9-.8,5.7.9-.4c20.9-10.9,22.5-27,17.6-37.6Z"/>
      <path class="cls-2" d="M35.2,53.5c.3-9.5,3-19.5,8.7-27.8,9.5-13.8,25.4-19.9,44.9-17.1,19.6,2.8,33.1,14.3,38,32.4,3,10.8,2.4,23.1-1,33.5.3.3.5.5.8.8,3.6-10.7,4.3-23.4,1.2-34.5-5.1-18.5-18.9-30.2-38.9-33.1-19.9-2.8-36.1,3.4-45.8,17.5-6.1,8.9-8.8,19.8-8.9,29.8.3-.5.7-1,1-1.4Z"/>
    </g>
    <g>
      <path class="cls-2" d="M72.5,55.8c-22.8,0-41.4,18.6-41.4,41.4s18.6,41.4,41.4,41.4,41.4-18.6,41.4-41.4-18.6-41.4-41.4-41.4ZM72.5,137.5c-22.3,0-40.4-18.1-40.4-40.4s18.1-40.4,40.4-40.4,40.4,18.1,40.4,40.4-18.1,40.4-40.4,40.4Z"/>
      <path class="cls-2" d="M109.1,62.8c-9.3-8.8-7-22.6-21.4-27.1-10.9-3.4-16.4,8.7-34,10.2-17.2,1.5-20,11.5-25.8,26.9-5.4,14.4-17.2,18.9-13,38.1,4.6,21.1,22.4,21.3,33.8,28.3,11.3,7,19.3,19.8,31.5,17.2,15.2-3.3,16.4-12.1,27.2-23.6,13.5-14.4,26.3-16.5,26.4-35.8,0-20.2-14.6-24.6-24.7-34.2ZM72.5,141.1c-24.3,0-44-19.7-44-44s19.7-44,44-44,44,19.7,44,44-19.7,44-44,44Z"/>
    </g>
    <g>
      <path class="cls-2" d="M81.7,84.3l2.4-14.7c-.8,0-1.2.1-1.3.6,0,.6-.4,1.1-1,1.6-.6.5-1,.9-1.2,1.3-.6.9-.3,1.7.7,2.4,0,0,0,0,0,0l-1.9,2.8c-.4.5-1,.9-1.6.9s-1.7-.6-1.9-1.5l-1.6-6.1s0,0,0,0c.9-.5,1.1-1.1.8-1.8-.1-.3-.4-.7-.8-1.1-.4-.4-.7-.9-.7-1.3s-.3-.6-.9-.6-.9.2-.9.6-.2.9-.7,1.3c-.4.4-.7.8-.9,1.1-.3.8,0,1.4.8,1.8,0,0,0,0,0,0l-1.6,6.1c-.2.9-1,1.5-1.9,1.5h0c-.7,0-1.3-.3-1.6-.9l-1.9-2.8s0,0,0,0c1-.7,1.3-1.5.7-2.4-.2-.4-.6-.8-1.2-1.3-.6-.5-1-1-1-1.6,0-.5-.5-.7-1.3-.6l2.4,14.7h18.3Z"/>
      <path class="cls-2" d="M54.6,85.8v.5c0,27.1,3.1,29.7,17.7,37.8h.2c0,.1.2,0,.2,0,14.6-8.1,17.7-10.7,17.7-37.8v-.5h-35.9ZM72.6,123v-19.4h-16.2c-.6-4.2-.9-9.6-.9-16.7h17.1v16.7h16c-1.7,11.4-6.1,14-16,19.4Z"/>
    </g>
  </g>
  <rect class="cls-1" width="180" height="220"/>
</svg>