<?xml version="1.0" encoding="UTF-8"?>
<svg id="Vrstva_1" data-name="Vrstva 1" xmlns="http://www.w3.org/2000/svg" version="1.1" viewBox="0 0 180 200">
  <defs>
    <style>
      .cls-1 {
        fill: #fff;
        stroke-width: 0px;
      }
    </style>
  </defs>
  <g>
    <path class="cls-1" d="M38.6,176.9c-12.4-3.8-20.2-10.5-21.8-19-2.3-11.9,6.8-27.2,25.5-43.9-.3-.1-.7-.3-1-.4-18.8,16.8-27.8,32.4-25.5,44.5,1.6,8.7,9.3,15.6,21.5,19.5l-3,2.4,1.1,4c-14.7-4.7-24-13.4-26.1-24.6-1.9-10.2,1.3-26.4,25.2-48.5-.3-.1-.7-.3-1-.4-23.9,22.3-27.1,38.8-25.1,49.1,2.2,11.8,12.1,20.9,27.7,25.7l.9.3-1.4-5.1,4-3.1-.9-.3Z"/>
    <path class="cls-1" d="M169.8,151.4c-5.2-11-19.2-19.4-32.8-13.6-8,3.4-13,9.7-17.4,15.3-5.8,7.4-10.4,13.2-20.3,11.8-8.3-1.2-14.4-7.4-17.2-17.5-1.1-4-1.6-8.5-1.6-13.3,0,0,0,0-.1,0-.3,0-.6,0-.9.1,0,4.8.5,9.4,1.6,13.4,2.9,10.5,9.3,16.9,18,18.2,10.4,1.5,15.2-4.5,21.2-12.2,4.3-5.5,9.3-11.8,17-15,13-5.5,26.5,2.5,31.5,13.1,4.7,10.1,3.2,25.5-16.4,36.1l.6-4.6-3.6-1.4c13.1-7.2,18.1-17.3,13.4-27.4-3.7-7.8-13.5-13.8-22.9-9.9-6.2,2.6-10.1,7.7-14.4,13-6.2,7.8-13.1,16.7-27.3,14.6-11.3-1.6-19.9-10-23.4-23-1.3-4.7-1.9-9.9-1.8-15.4-.3,0-.7-.2-1-.3-.1,5.7.5,11.1,1.8,15.9,3.7,13.4,12.5,22,24.3,23.7,14.8,2.1,22-7,28.3-15,4.1-5.3,8-10.2,14-12.7,8.9-3.8,18.1,1.9,21.6,9.4,4.6,9.7-.6,19.7-13.9,26.6l-1,.5,4.9,1.9-.8,5.7.9-.5c21.1-11,22.7-27.3,17.7-37.9Z"/>
  </g>
  <g>
    <path class="cls-1" d="M72.4,31.1c-23,0-41.8,18.7-41.8,41.8s18.7,41.8,41.8,41.8,41.8-18.7,41.8-41.8-18.7-41.8-41.8-41.8ZM72.4,113.5c-22.5,0-40.7-18.3-40.7-40.7s18.3-40.7,40.7-40.7,40.7,18.3,40.7,40.7-18.3,40.7-40.7,40.7Z"/>
    <path class="cls-1" d="M109.3,38.2c-9.4-8.9-7-22.8-21.6-27.3-11-3.4-16.6,8.7-34.3,10.3-17.4,1.5-20.2,11.6-26,27.2-5.4,14.6-17.3,19.1-13.2,38.4,4.6,21.3,22.6,21.5,34.1,28.6,11.4,7,19.5,20,31.8,17.3,15.4-3.3,16.6-12.2,27.5-23.8,13.6-14.5,26.6-16.6,26.6-36.2,0-20.4-14.8-24.9-24.9-34.5ZM72.4,117.2c-24.5,0-44.4-19.9-44.4-44.4s19.9-44.4,44.4-44.4,44.4,19.9,44.4,44.4-19.9,44.4-44.4,44.4Z"/>
  </g>
  <g>
    <path class="cls-1" d="M81.6,59.8l2.4-14.9c-.8,0-1.2.1-1.3.6,0,.6-.4,1.1-1,1.6-.6.5-1.1,1-1.3,1.3-.6.9-.3,1.8.7,2.5,0,0,0,0,0,0l-1.9,2.8c-.4.5-1,.9-1.6.9s-1.7-.6-1.9-1.5l-1.6-6.1s0,0,0,0c.9-.5,1.1-1.1.8-1.8-.1-.3-.4-.7-.9-1.1-.4-.4-.7-.9-.7-1.3s-.3-.6-1-.6-1,.2-1,.6-.2.9-.7,1.3c-.4.4-.7.8-.9,1.1-.3.8,0,1.4.8,1.8,0,0,0,0,0,0l-1.6,6.1c-.2.9-1,1.5-1.9,1.5h0c-.7,0-1.3-.3-1.6-.9l-1.9-2.8s0,0,0,0c1-.7,1.3-1.5.7-2.5-.2-.4-.6-.8-1.3-1.3-.6-.5-1-1-1-1.6,0-.5-.5-.7-1.3-.6l2.4,14.9h18.5Z"/>
    <path class="cls-1" d="M54.2,61.3v.5c0,27.3,3.1,30,17.9,38.1h.2c0,.1.2,0,.2,0,14.8-8.1,17.9-10.8,17.9-38.1v-.5h-36.3ZM72.5,98.8v-19.6h-16.4c-.6-4.2-.9-9.7-.9-16.9h17.2v16.9h16.1c-1.7,11.5-6.1,14.1-16.1,19.6Z"/>
  </g>
</svg>