<?xml version="1.0" encoding="UTF-8"?>
<svg id="Vrstva_1" data-name="Vrstva 1" xmlns="http://www.w3.org/2000/svg" version="1.1" viewBox="0 0 120 165">
  <defs>
    <style>
      .cls-1 {
        fill: #fff;
        stroke-width: 0px;
      }
    </style>
  </defs>
  <path class="cls-1" d="M38.8,14.3h20.9s3.4-.6,6.1-2.5c.2-.2.3-.2.5-.2.3,0,.5.2.6.3l.5.5c.2.3.2.8-.2,1.1-.9,1.1-2.9,3.5-2.9,6.7v95.1c2.8-.6,5.4-1.4,8-2.3V11.6c0-.8-1.2-1.7-2.3-2.5-.9-.6-1.2-1.7-.9-2.8.6-1.1,2.6-2.6,2.6-4s.8-.9,1.5-.9,1.4.3,1.4.9c0,1.4,2,2.9,2.5,4,.5,1.1.2,2.1-.8,2.8-1.1.8-2.3,1.7-2.3,2.5v17c3.2-9.5,15.5-15.6,15.5-15.6l1.2,1.7c-6.6,3.8-6.4,6.1-6.6,8.9,0,8,33.4,40.9,33.4,58.3s-14.7,18.9-21.6,22.5c-.2.2-9.4,6-21.9,10.3v27c0,1.5,2,4.4,5.4,6.4.3,0,.3.5.2.6-1.2,1.1-4.4,6.9-5.8,9.8,0,.3-.3.3-.6.3s-.5,0-.6-.3c-1.2-2.9-4.6-8.7-5.7-9.8-.2-.2-.2-.6.2-.6,3.4-2,5.4-4.9,5.4-6.4v-26.5c-2.6.9-5.2,1.5-8,2.3v17c0,10.4-7.4,17.5-7.4,17.5-2.6,3.7-11.8,11.7-21.9,11.7s-14.6-4.8-15.5-7.5c-.5-1.2,0-2.5.8-3.1.3-.2.5-.2.8-.2s.5,0,.6.2c.8.5.8,1.7.2,3.8h-.2c1.5,2.3,4.9,5.1,13.3,5.1s16.1-7.5,16.1-12.4v-30.4h-2.1c-12.9,0-16.3-6-16.4-9.2,0-1.1.6-2.1,1.2-2.3.2,0,.3-.2.6-.2s.3.2.5.3c.3.3.6.9,0,2.3-.3.8-.2,1.5.2,2.1,1.4,2.5,5.2,5.2,14,5.2h2.1v-50.1c-1.8-2.8-4.3-3.5-6.3-3.5s-2.1.3-2.6.5c-.2,0-.3,0-.5-.2l-.6-.8c-.2-.2-.2-.3-.2-.6l10.1-11v-24.1h-22.7c-11.5,0-13.6,10.4-13.6,20.1,0,19.2,26.4,25.6,26.4,37.3s-4.4,12.7-7.5,16.7c-.5.5-.8,1.1-1.4,1.5-.2.3-.6.9-.9.9-2.5,2.5-6,4.3-10.6,4.3-9.2,0-10.9-4.1-11-5.1-.3-.9,0-1.8.6-2.1.2-.2.3-.2.6-.2s.8,0,1.1.5c1.1,1.1.9,2.3.6,3.2,1.2.9,3.5,2,8.1,2s8.6-2.5,10.9-5.2c.5-.5,2.8-3.8,2.8-6.9,0-4.6-31.7-16.9-31.7-40.2S29.7,14.3,38.8,14.3ZM73.9,112.5c11.5-4.3,19.6-10,19.9-10.3,8.9-6.6,9.8-11,9.8-15.9,0-16.7-24.8-36.5-29.7-49.1v75.3Z"/>
</svg>