<?xml version="1.0" encoding="UTF-8"?>
<svg id="Vrstva_1" data-name="Vrstva 1" xmlns="http://www.w3.org/2000/svg" version="1.1" viewBox="0 0 88 87">
  <defs>
    <style>
      .cls-1 {
        fill: #fff;
        stroke-width: 0px;
      }
    </style>
  </defs>
  <path class="cls-1" d="M16,43.8c0-.7,0-1.4,0-2,0-.7,0-1.4.1-2.1,0-.6.3-1.2.4-1.7,0,0,0-.2,0-.3,0-.5.2-1,.3-1.5,0-.4.2-.8.3-1.2,0-.3.2-.5.3-.8.4-1,.7-1.9,1.2-2.9.3-.7.7-1.4,1.1-2.1.4-.8.9-1.6,1.4-2.4.2-.4.5-.7.9-.9.4-.4.8-.9,1.2-1.3.5-.5.9-1,1.4-1.4.7-.7,1.4-1.3,2.1-1.9.5-.5,1-.9,1.7-1.1.4-.1.7-.4,1.1-.6.3-.2.5-.3.8-.5.3-.2.5-.3.8-.5.3-.2.6-.3,1-.4.3-.1.5-.2.8-.3.4-.1.9-.2,1.3-.3,0,0,0,0,.1,0,.4-.3.8-.4,1.2-.6.4-.1.7-.2,1.1-.3.4-.2.9-.4,1.3-.5.4-.1.9-.3,1.3-.4.2,0,.4-.1.6-.2,0,0,0,0,.1,0,.5,0,1,0,1.4-.1.6,0,1.2-.2,1.8-.2.5,0,1,0,1.4,0,.4,0,.8,0,1.1,0,.4,0,.8.1,1.1.2.3,0,.6,0,.9,0,.4,0,.8,0,1.2.2.2.1.5,0,.7,0,.2,0,.4.1.6.2,0,0,.1,0,.2,0,.6,0,1.2.2,1.8.3,0,0,.1,0,.2,0,0,0,.2,0,.3,0,.4.1.8.2,1.2.4.2,0,.5.1.7.2.3,0,.6.1.9.3.4.3.8.3,1.2.5.5.2.9.4,1.4.6.3.2.6.4.9.6.3.2.7.3,1,.6.4.3.8.7,1.2,1,.3.2.6.4.8.6,0,0,.2.2.3.3.5.4,1.1.8,1.6,1.2.5.4.9.9,1.4,1.4.4.4.9.8,1.4,1.3.5.6,1,1.2,1.5,1.8.4.5.7,1,1,1.5.3.4.5.9.7,1.3.3.5.5,1,.7,1.5.1.2.2.5.3.7.2.5.4.9.6,1.4.2.4.3.9.4,1.3,0,.2.2.4.2.6.2.5.3,1,.4,1.5,0,.3,0,.7.2,1.1.1.6.2,1.1.3,1.7,0,.2,0,.5.1.7.2,1.5.2,3,.1,4.5,0,.5,0,1-.1,1.5,0,0,0,.2,0,.3,0,.3-.1.7-.2,1,0,.4-.1.8-.2,1.2,0,.3-.1.5-.1.8,0,.8-.5,1.6-.7,2.4,0,.3,0,.5-.2.8,0,.3-.2.5-.3.8-.2.6-.4,1.2-.6,1.8-.2.6-.5,1.1-.8,1.6-.6,1-1.1,2-1.8,2.9-.5.8-1.2,1.6-1.8,2.4-.4.5-.8,1-1.3,1.5-.4.4-.9.8-1.3,1.1-.1.1-.2.2-.3.3-.3.3-.7.7-1,1-.4.3-.8.6-1.2.9-.5.5-1.1.7-1.7,1-.2,0-.4.2-.5.3-.5.3-1,.7-1.5,1-.2.2-.5.3-.7.4-.4.2-.8.4-1.2.6-.4.2-.8.2-1.2.4-.3.1-.7.2-1,.3-.4.1-.8.2-1.1.4-.7.3-1.4.3-2.1.5-.2,0-.5,0-.8,0-.5.1-1,.3-1.5.4,0,0,0,0-.1,0-.5,0-.9.2-1.4.2-.6,0-1.2,0-1.9.1-.3,0-.7.1-1,0-.4,0-.9-.1-1.3-.2,0,0,0,0,0,0-.6,0-1.3-.1-1.9-.2-.1,0-.3,0-.4,0-.3-.2-.7-.2-1-.2-.5,0-.9-.1-1.3-.2-.3,0-.6,0-.9-.2-.2,0-.3-.1-.5-.2,0,0-.2,0-.2,0-.2,0-.3,0-.5-.2,0,0-.1,0-.2,0-.2,0-.3-.1-.5-.2-.1,0-.3,0-.4-.1-.4-.1-.7-.2-1.1-.4-.2-.1-.5-.3-.7-.4-.4-.2-.7-.4-1.1-.6-.3-.2-.7-.3-1-.4-.4-.2-.8-.4-1.2-.7-.4-.3-.8-.5-1.2-.8-.3-.2-.7-.5-1-.8-.5-.4-.9-.8-1.4-1.2-.4-.3-.9-.7-1.3-1-.2-.2-.4-.4-.6-.6-.2-.2-.4-.4-.6-.6-.5-.6-1-1.1-1.5-1.7-.2-.3-.5-.6-.7-.9-.5-.7-1-1.4-1.4-2.2-.3-.5-.6-1-.8-1.5-.3-.6-.6-1.3-.9-1.9-.1-.3-.2-.6-.3-.9-.2-.5-.4-1-.5-1.4,0,0,0-.2,0-.3,0-.2-.1-.3-.2-.5,0,0,0,0,0,0,0-.4-.2-.8-.3-1.2-.1-.5-.2-1-.3-1.5,0,0,0,0,0,0,0-.6-.2-1.1-.3-1.7,0-1.2-.1-2.5-.2-3.7,0,0,0,0,0,0ZM58.5,29.4s0,0,0,.1c.3.3.6.6.9.8,0,0,.3,0,.4,0,0,0,0-.1,0-.2,0,0-.2-.1-.3-.2-.2,0-.3-.2-.5-.2-.2-.1-.4-.2-.6-.3,0,0,0-.1-.1-.2-.2-.2-.4-.2-.5.1,0,0,0,.1-.1.2-.3-.3-.4,0-.6.1.1.1.2.2.3.3.3.3.6.1.8-.2,0-.1.2-.2.3-.3ZM28.1,50.3c0-.2-.1-.4-.2-.6-.2-.4-.5-.7-.5-1.2,0,0-.2-.3-.3-.3-.2,0-.5.6-.4.8,0,.2.1.4.2.6,0,0,.1.1.2.1.4,0,.4.1.2.5,0,0,0,.2,0,.3,0,0,.2,0,.3,0,.1,0,.2,0,.3,0-.2.3-.3.6-.3.9h.6s0,0,0,.1c-.1,0-.3.2-.4.2,0,0,0,.1,0,.2,0,0,.1.1.2.1,0,0,.2,0,.3,0,.1,0,.3,0,.4,0,0,0-.1.2-.2.2,0,.2-.2.4-.2.5,0,.2,0,.2.3.2.2,0,.3,0,.5,0,0,0,0,0,0,0-.3.3-.3.6,0,.7.2,0,.3-.1.5-.2,0,0,0,0,0,0,0,.1-.2.3-.3.4.2.1.2.5.6.2,0,0,.2,0,.2,0,0,0,0,.1,0,.2,0,.1-.1.2-.2.3,0,.2.3.3.5.1.2-.1.3,0,.4.1,0,0-.2.2-.3.3.3.2.6.5.8.7.1,0,.2.2.4,0,0,0,.3,0,.3,0,0,0,0,.2,0,.3,0,0,0,.1,0,.1-.1.2,0,.3.1.4,0,0,0,0,.1,0,.1,0,.2-.1.3-.2,0,.1.2.3.2.4,0,.3.2.5.5.6.2-.3.2-.7,0-.9-.2-.2-.4-.4-.7-.6-.3-.3-.7-.6-1.2-.7-.2,0-.2-.2-.3-.3-.1-.3-.3-.6-.5-.8-.1-.2-.4-.3-.5-.5-.2-.5-.5-.9-.9-1.2,0,0-.2-.1-.2-.2,0-.2-.2-.3-.4-.4,0-.2,0-.3,0-.5,0-.2-.2-.4-.3-.6-.1-.2,0-.5-.3-.5ZM61.1,64c-.4.2-.8.4-1.1.7-.4.4-.8.9-1.5,1,0,0-.1,0-.1.1-.2.3-.4.6-.8.7-.5.1-.9.5-1.3.9-.3.2-.5.4-.9.4,0,0-.2,0-.3,0-.4.1-.7.3-1.1.4-.2,0-.3.2-.5.3-.3.2,0,.3,0,.5,0,.4.3.6.8.6.5,0,.6-.3.4-.7,0-.1,0-.2-.2-.4.1,0,.2,0,.2,0,.2.3.5.3.9.3.4,0,.4-.1.3-.4,0-.2-.1-.4.1-.5.2,0,.4.1.4.3,0,.2.2.2.4,0,0,0,.2-.2.2-.3.1-.1.2-.3.3-.4,0,0,.2.1.3.1.2,0,.4,0,.5-.2,0,0,0-.2,0-.4,0-.2,0-.4,0-.6.2,0,.4,0,.5.1.4.1.7.1,1-.2,0,0,.2-.2.3-.2.5-.2.5-.3.4-.8,0-.1,0-.3,0-.5.1,0,.3,0,.4,0,0,0,.1,0,.2,0,.2,0,.4,0,.4-.1,0-.1.1-.3,0-.4,0-.2-.3-.4-.4-.7.1,0,.3,0,.3.1.2.3.5.3.8.3.4,0,.5-.2.3-.6,0-.2-.1-.4,0-.5.2-.2.3,0,.4.2.1,0,.3.1.4,0,.1-.1.2-.3.2-.4,0-.2-.2-.4-.3-.6,0,0,0-.2,0-.3,0,0,.2,0,.3,0,.2,0,.4.3.5.3.2,0,.4,0,.5-.1,0,0,0-.3,0-.4,0-.2-.1-.3-.2-.4,0-.1,0-.3,0-.4.1,0,.3,0,.4,0,.2,0,.3.2.5,0,.4-.3.4-.4,0-.7,0,0,0-.3,0-.4.1,0,.2,0,.3,0,.5.3.5.4.9,0,.2-.2.2-.3,0-.5-.1-.1-.3-.2-.4-.3-.2-.2-.2-.4,0-.5.1-.1.5,0,.6,0,.1.1.2.3.3.4,0,0,.2,0,.2,0,.3-.2.3-.7,0-.9-.3-.1-.4-.3-.3-.6,0-.1,0-.2,0-.4,0,0,.2.1.3.2,0,0,0,0,.2.1.3.2.6.1.7-.2,0-.2,0-.3-.1-.4-.5,0-.4-.4-.5-.7,0,0,0-.2.2-.3,0,0,.2,0,.2.1.2.2.4.4.6.5,0,0,.2,0,.2,0,0,0,0-.2,0-.3,0,0,0-.1-.1-.2-.2-.3-.3-.5-.5-.8,0,0,0-.2,0-.2,0,0,.2,0,.2,0,.1,0,.2.2.4.3.1,0,.3,0,.4,0,.2-.1.2-.6,0-.8-.2-.1-.3-.2-.5-.3-.1,0-.3-.2-.1-.4.1-.2.2-.3.5-.1.1,0,.3,0,.4.2.2.1.3,0,.4,0,0-.1,0-.3-.1-.4-.3-.1-.4-.3-.5-.6,0-.1,0-.3,0-.3,0,0,.2,0,.3,0,.1,0,.2.2.3.2.3.2.5,0,.5-.2,0-.1,0-.3,0-.4,0-.1.2-.3.2-.4,0,0,0-.2,0-.3.2-.6.3-1.3.7-1.8,0-.1,0-.3,0-.3-.2,0-.4-.2-.5,0-.2.2,0,.3.1.4.2.2.2.3,0,.5-.1,0-.2.2-.4.2,0,0,0,0,.1,0,0,.2.1.3,0,.4-.2.4-.5.4-.9.2,0,.2.2.3.3.4.2.2.3.4.3.7,0,0-.1,0-.1,0-.4.2-.6,0-.7-.4,0-.2-.2-.3-.3-.4,0,.1-.2.3-.2.4,0,.2-.1.4-.2.6-.2.4-.5.8-.8,1.1-.2.3-.5.4-.9.4-.1,0-.3,0-.4,0-.3,0-.4,0-.5-.3,0-.1-.1-.3-.2-.4,0,0-.1,0-.2,0,0,0,0,0,0,.1,0,.2-.1.4-.2.6-.2,0-.2-.2-.4-.2-.1,0-.3,0-.4,0,0,0,0,.2,0,.3,0,.1.1.2.1.3.1.3,0,.5-.2.6-.2.2-.3,0-.5-.1-.3-.3-.6-.6-.8-.9-.1-.1-.3-.3-.3-.4-.1-.4-.2-.7-.2-1.1,0-.3,0-.6,0-.9,0-.1-.2-.2-.3-.3,0,.1-.3.2-.3.3-.1.4-.2.9-.3,1.3,0,.5-.3.8-.8,1-.3.1-.5.3-.8.5-.1,0-.2.3-.3.4-.1.1-.3.3-.1.4.1,0,.3.1.5,0,.3,0,.6-.3,1-.4.3,0,.6,0,.8,0,.5.4,1,.8,1.5,1.3.5.6.4.8,0,1.4,0,0-.2,0-.2,0-.3-.2-.5-.3-.7-.5-.2-.2-.6-.2-.7.1,0,.2-.2.3-.3.5-.1.2-.1.4.1.5.1,0,.3,0,.5.1.3,0,.5.2.8.2,0,0,.3,0,.3,0,.3-.5.8-.9,1-1.4.2-.6.6-1.2,1-1.7,0,0,.2-.1.3-.2.1,0,.3-.2.4-.2.2,0,.3-.2.5-.3.1,0,.3-.1.4-.2.2-.4.6-.3,1-.4,0,0,0,0,.1,0,.3.2.3.4,0,.7-.3.3-.5.6-.7,1-.2.3-.3.7-.5,1,0,.2-.2.3-.4.4-.3.2-.3-.2-.4-.3-.3.2-.3.3,0,.6.1.2.1.3,0,.5,0,.1-.2.3-.3.5,0,.1-.2.3-.3.4-.2.2-.4.3-.6.5-.3.3-.6.7-.7,1.1-.2.4-.7.6-.7,1.1,0,0-.1.2-.2.2-.2.1-.3.2-.5.4-.3.3-.6.6-.9.9,0,0-.2.2-.2.2-.3,0-.3.2-.4.4ZM19.4,55.7c0,.2,0,.4,0,.7,0,.5.3.6.7.4.1,0,.3-.1.4-.2,0,.1,0,.2,0,.2-.2.1-.2.3-.2.6,0,.3.1.6.3.9.1.1.2.3.3.5,0,.2.2.4.4.4.1,0,.3.1.4.2,0,0-.1.2-.1.3,0,.2,0,.4.2.5,0,0,.2.1.2,0,.2,0,.4-.1.5,0,0,.1.1.4,0,.6,0,.2,0,.4.1.5.2.2.4.3.4.7,0,.3.3.3.6.3.2,0,.4,0,.7,0,0,.1,0,.2,0,.3-.2.4-.1.7.3.9.2.1.4.3.5.5.1.1.2.4.3.4.1,0,.3-.2.5-.2.1,0,.3,0,.4,0,0,.1,0,.2-.1.3-.2.3-.2.5,0,.7.1,0,.3,0,.5,0,.2,0,.4-.2.5-.3,0,.2,0,.4-.1.5-.2.3,0,.4,0,.6.1.2.3.2.5.1.1,0,.2-.2.3-.2.1,0,.3,0,.4,0,0,.1,0,.2,0,.3,0,.2-.1.3,0,.5.1.2.3.4.6.3,0,0,.2-.1.3-.2,0,0,.2-.1.2-.2,0,.3-.1.6,0,.8,0,.2.3.4.5.5.2.1.3-.2.5-.3,0-.1.2-.2.3-.3,0,0,.2,0,.2,0,0,0,0,.2,0,.2-.1.2-.2.3-.4.4-.1.1-.1.2,0,.3.3.3.8.3,1,0,.1-.2.2-.4.6-.3,0,.2-.2.3-.3.5-.1.1-.2.3,0,.4,0,0,0,.1.1.2.1,0,.3.1.5.1,0,0,.2-.2.2-.3.1-.4.3-.5.7-.3-.2.2-.3.4-.5.5-.1.2-.2.3,0,.5.1.2.3,0,.4,0,0,0,.1,0,.2-.1.2-.1.4-.3.6-.4,0,0,0,0,0,0,0,0,0,.2-.1.3-.2.3,0,.6.3.7.4.1.7,0,.8-.5,0,0,0-.2,0-.2,0,0,.2-.1.2,0,0,0,.1.2.1.2,0,.1,0,.2-.1.4,0,.2,0,.4.2.5.2,0,.4.1.5-.2,0-.1.1-.3.3-.4,0,0,.2,0,.3,0,0,0,0,.2,0,.2,0,0,0,0-.1.1,0,.1-.2.3-.1.4,0,.1.2.2.4.3.2,0,.4.1.6.2.3.1.5,0,.6-.2,0-.2.2-.3.4-.2.2,0,0,.3,0,.4,0,0,0,0,0,0-.2.4,0,.4.3.4.2,0,.5,0,.7,0,.3.1.6.1.9.1.4,0,.6,0,.7-.4,0,0,.2,0,.2-.1,0,0,0,.1,0,.2,0,.4,0,.4.4.4.5,0,.9-.2,1.3.2,0,0,0,0,0,0,0-.4,0-.7.2-.7,0,0,.2,0,.2,0,0,.2.1.4.2.6.1,0,.3,0,.4.1.5.1.6,0,.6-.5,0,0,0,0,0-.1,0,0,.1-.2.2-.2,0,0,.1.2.2.2,0,.2,0,.5.1.6.1.1.4,0,.6,0,0,0,.2,0,.2,0,.3,0,.7,0,1-.1.1,0,.2-.1.2-.3,0-.1.1-.3.2-.4.1,0,.3.2.3.3,0,.2.2.2.3.2.3,0,.6,0,.9.1.2,0,.4,0,.4-.3,0-.2,0-.3,0-.5,0-.2.1-.2.3-.2,0,0,.2,0,.3.1.3.2.7.2,1,.2,0,0,.2-.1.2-.2-.2-.2-.4-.6-.7-.7-.2-.1-.5,0-.8,0-.3,0-.5.1-.8.1-.7,0-1.4.2-2,.6-.2.1-.4.1-.5,0-.1-.2-.3-.2-.4,0,0,0-.2,0-.3.1-.2.1-.3.1-.4-.1,0-.2-.2-.3-.5-.2-.2,0-.5.2-.7.1-.4-.1-.7-.2-1.1-.2-.1,0-.2,0-.3,0-.7,0-1.3-.2-2-.2-.2,0-.4.2-.5.3,0,0-.1.2-.2.3h-.1c0-.2-.1-.3-.1-.4,0-.3-.2-.6-.6-.5-.4,0-.8-.3-1.3,0,0,0-.2,0-.2,0-.2-.1-.4-.3-.6-.4-.1,0-.3-.1-.4-.1-.2,0-.4,0-.6-.1-.2,0-.4-.1-.6-.2-.3-.2-.7-.3-1-.5,0,0-.2-.1-.3-.2-.4-.2-.9-.3-1.3-.5-.6-.3-1.2-.5-1.7-1,0,0-.3,0-.4-.2-.2,0-.5-.2-.5-.3,0-.4-.4-.4-.7-.5-.1,0-.2-.2-.4-.3,0,0-.2-.2-.3-.3-.2-.2-.5-.3-.7-.5,0,0-.1-.1-.2-.1-.3,0-.4-.2-.5-.5,0,0,0-.2-.1-.2-.4-.3-.7-.7-1.1-1-.5-.5-1-.9-1.5-1.4-.1,0-.3-.2-.3-.3,0-.5-.4-.7-.7-1-.3-.4-.8-.6-1.1-1,0-.1-.2-.3-.3-.4-.4-.5-.8-.8-.9-1.5-.1-.5-.5-1-.8-1.5-.2-.4-.3-.4-.7-.2-.1,0-.2,0-.3,0,.1-.1.2-.3.4-.4.2-.1.3-.3.1-.5-.1-.3-.3-.5-.4-.8,0-.2-.2-.4-.2-.6,0-.2-.2-.4-.4-.3-.2,0-.3.2-.4.3-.1.2-.2.4-.2.5,0,.1,0,.3,0,.4,0,0,.3,0,.4,0,0,0,.2,0,.3,0-.1.2-.2.4-.3.5-.2.6,0,1,.6,1ZM34,45.4c0,0-.1-.2-.2-.3-.4.1-.6.3-.5.8,0,.1.1.3.2.4.5,1.3,1.1,2.5,1.8,3.7.5.8,1,1.5,1.9,1.9,0,0,.1,0,.1.2.2.4.6.6,1,.8.6.2,1.2.5,1.7.7.3.1.5.2.8.3.6.2,1.1.3,1.7.4.6.1,1.2.3,1.8.3.9,0,1.7,0,2.6,0,.7,0,1.4-.3,2-.4.2,0,.4-.1.5-.2.4-.2.7-.4,1.1-.6.6-.3,1.2-.7,1.8-1,.2,0,.3-.2.4-.3.5-.4.9-.8,1.2-1.3.3-.4.6-.7.9-1,.2-.2.3-.4.2-.7,0-.2-.2-.5-.3-.8-.1.1-.2.2-.3.4,0,.1,0,.2-.1.3-.4.6-.7,1.1-1.1,1.7,0,0-.1,0-.2.1,0,0,0-.2,0-.3.2-.3.4-.6.5-.9.2-.3.4-.6.6-.9,0-.2,0-.5.1-.7.1-.5.3-1,.5-1.5.1-.5.2-1.1.3-1.6,0-.5,0-.9,0-1.4,0,0,0-.2,0-.3,0-.6,0-1.3,0-1.9,0-.4-.2-.9-.1-1.3,0,0,0-.1,0-.2,0-.4-.2-.8-.2-1.2,0,0,0,0-.1-.2,0,0,0,.1,0,.2,0,.6-.2,1.2-.2,1.8,0,.7-.2,1.5-.3,2.2,0,0,0,.2,0,.2-.1.7-.3,1.4-.4,2.1,0,.3,0,.6-.1.9-.1.6-.2,1.2-.3,1.9,0,.3,0,.7-.1,1,0,.4-.2.8-.2,1.2,0,.4-.2.6-.6.7-.2,0-.5.1-.7.1-.4,0-.8.2-1.2.2-.7,0-1.5,0-2.2.1-.7.2-1.5.2-2.2.2-1.4,0-2.8,0-4.2,0-.2,0-.4,0-.6,0-1,0-2.1,0-3.1.1,0,0-.1,0-.2,0-.2,0-.5,0-.7,0-.3-.2-.6-.5-.8-.7-.2-.1-.1-.3.1-.3,0,0,.2,0,.2-.1,0-.3,0-.6,0-.8,0-.6-.2-1.2-.3-1.7,0-.3,0-.6-.1-.9-.1-.6-.2-1.2-.3-1.8-.1-.5-.2-1-.3-1.5,0-.4-.2-.9-.3-1.3-.1-.5-.2-1.1-.4-1.6,0-.4-.2-.7-.3-1.1,0-.3-.2-.6-.3-1,0,.1-.1.2-.2.2-.4.5-.4,1.2-.5,1.8,0,1.1,0,2.3.1,3.4,0,0,0,0,0,.1,0,.5.1,1,.2,1.5h0ZM37.3,40.6c.2-.4-.2-.5-.4-.7-.1-.1-.3-.2-.4-.4,0-.3-.1-.7-.1-1.1,0,0,0-.2,0-.3,0,0,.2.1.3.2.1.2.3.3.4.6.2-.2.3-.3.4-.5.1-.3.4-.5.8-.6.3,0,.6.2.8.5.1.2.4.3.6.3.1,0,.3-.2.4-.4.2-.3.4-.6.6-.8.2-.2.5-.3.8-.2.6.1,1,0,1.3-.6.1-.3.3-.6.4-.9.1-.4.2-.9,0-1.3-.2-.3-.4-.6-.5-1,0-.4.2-.8.7-.7,0,0,.2.1.2.2,0,.3.2.5.4.7.5.4.8.3,1-.3,0,0,0-.1,0-.2,0-.2.2-.2.3,0,.3.2.4.6.3,1-.3.7-.2,1.4,0,2.1.1.4.2.8.2,1.3,0,.1,0,.3.1.5,0-.1.1-.2.2-.2.3-.4.5-.4.9,0,.2.2.5.4.7.4.3,0,.5.1.8.2.5.2.4.3.8-.1,0,0,.2-.1.3-.2,0,.1,0,.2.1.3.1.6.4,1.1,1,1.3.4.2.7,0,.7-.4,0-.3,0-.6-.2-.8,0-.1-.1-.2-.2-.4,0,0,0,0,0,0,0,0,0,0,0,0,.3.2.4,0,.6-.2.1-.2.2-.3.4-.5.2-.2.3-.1.4,0,0,0,0,0,0,.1.3.4.5.8.8,1.1,0,0,.2,0,.3,0,0,0,0,0,0-.1,0-.2.1-.4.2-.6.2-.3.3-.7.5-1,0-.2.1-.3-.1-.3-.1,0-.2,0-.3-.2-.4-.4-.7-.8-1-1.2-.2-.3-.4-.6-.7-.9-.6-.6-1.3-1.1-2-1.4-.6-.3-1.2-.6-1.8-.9-.6-.4-1.4-.5-2.1-.6-.6-.1-1.2-.2-1.8,0-.9,0-1.7.3-2.5.4-.7,0-1.2.3-1.8.6-.5.2-1,.4-1.4.8-.3.3-.6.5-.9.8-.3.3-.7.5-1,.8-.4.5-.8,1-1.2,1.5-.3.4-.4.8-.7,1.2,0,0-.1.1-.2.1-.2,0-.2.2,0,.3,0,0,.2.1.3.2.2.2.5.4.6.7.2.6.4,1.2.5,1.8.1.6.4,1.2.4,1.8,0,.3.1.6.3.9.2.2.4.4.7.5.4.1.7.3,1,.6,0,0,.1,0,.2,0,.3,0,.5-.2.6-.5,0-.3,0-.6-.2-.9-.2-.2-.5-.2-.7-.1-.2,0-.5.2-.7.2-.1,0-.3,0-.4-.2-.3-.3-.4-.6-.4-.9,0-.4,0-.8.5-.9.2,0,.4,0,.6.1.1,0,.2,0,.3,0,0,0,0-.2-.2-.3-.2-.1-.4-.2-.6-.3ZM52,44.9s0,0,0-.1c-.2-.4-.4-.3-.6,0-.3.4-.8.7-1.3.8-.1,0-.2,0-.3.1-.3.1-.6.2-1,.1-.1,0-.3,0-.4,0-.4,0-.9,0-1.3-.2-.2-.1-.5-.2-.7-.4-.4-.3-.8-.7-1.1-1-.2-.2-.4-.2-.6-.1-.3,0-.4.4-.6.7-.5.6-1.1,1-1.9,1.2-.3,0-.6.2-.9.2-.6,0-1.3,0-1.9,0-.5,0-.9-.2-1.4-.3-.1,0-.2,0-.3-.2,0-.2-.1-.4-.2-.6,0-.2-.1-.4-.2-.5,0,0-.2,0-.3,0,0,0-.1.2-.1.3,0,.5.1,1,.3,1.4.3.8.3,1.6.4,2.4,0,.1,0,.3,0,.4.1.4.3.8.4,1.2.1.4.4.6.8.6,1.2,0,2.4,0,3.6-.1,0,0,0,0,0,0,.9,0,1.7-.2,2.6-.2,1.3,0,2.6,0,3.9-.1,0,0,.1,0,.2,0,.7-.2,1.3-.2,2-.2.3,0,.6-.1.9-.2,0,0,0-.1.1-.2,0,0-.1,0-.2,0-.2,0-.5,0-.7,0-.5.2-1.1.3-1.6.3-.6,0-1.2.2-1.9.2-1.4,0-2.8,0-4.3.1-.7,0-1.4,0-2.1.1-.6,0-1.2,0-1.9,0-.5,0-1.1-.5-1.2-1.1,0-.3,0-.7-.1-1,0,0,0-.1-.1-.2,0-.2-.2-.3-.1-.5.1-.2.3-.1.5,0,0,0,.1,0,.2.1.4.3.8.5,1.2.8.4.3.9.2,1.4.2.7,0,1.4,0,2,0,.5.1,1,0,1.5,0,.6,0,1.2-.2,1.9-.2.3,0,.6,0,.9,0,.3,0,.6,0,.9,0,.9,0,1.8,0,2.7-.2.4,0,.7-.2.8-.6,0-.2,0-.4,0-.6.1-.6.3-1.1.5-1.7,0,0,0,0,.1-.1,0,0,0,0,.1.1,0,0,0,.2,0,.3,0,.4,0,.9-.1,1.3,0,.5,0,1-.1,1.5,0,0,0,.1,0,.2,0,.2,0,.3,0,.5,0,0,0,0,.1.1,0,0,0,0,0-.1.1-.6.2-1.2.3-1.9,0-.3,0-.5,0-.8,0-.4.1-.8.2-1.3,0-.1,0-.2,0-.4,0-.4,0-.7,0-1.1,0,0,0-.2,0-.3-.3.5-.2,1.2-.8,1.5ZM35.3,62.3c0-.5,0-1-.2-1.4-.2-.3-.5-.5-.7-.7-.2-.1-.5-.1-.8-.3-.5-.2-.9-.5-1.3-1-.1-.2-.4-.3-.7-.2-.3.1-.4,0-.5-.2-.3-.4-.6-.8-.9-1.2-.1-.2-.3-.2-.5,0-.4.3-.8.5-1.3.4-.2,0-.4,0-.7,0-.2,0-.5,0-.6-.2-.2-.4-.2-.5.1-.8,0,0,.2-.2.2-.3,0-.2.2-.2.4-.2.3,0,.5,0,.8,0,0,0,.3-.2.3-.2,0-.2-.1-.4-.3-.4-.5-.2-.6-.7-.8-1.1-.1-.3-.3-.5-.4-.7-.1-.2-.4-.1-.4,0,0,.3,0,.6-.1,1,0,.3-.1.6-.2.9,0,.3-.1.5-.2.8,0,.2,0,.3-.1.5-.1.3-.3.3-.6.2-.4-.1-.8-.3-1.2-.4-.2,0-.4,0-.5.3,0,0-.2.2-.2.2-.2.1-.3.3-.5.4,0,0,0,.2,0,.3.3.3.5.7.8,1,0,0,.3.2.3.2.1,0,.2-.2.3-.4,0,0,0,0,0-.1,0-.3.1-.6.5-.7.4,0,.7,0,1.1-.1,0,0,.2,0,.2.1.2.2.3.5.3.8,0,.3,0,.7-.2,1-.2.6-.3.6-.8.6,0,0,0,0,0,0-.1,0-.2.2-.3.2,0,.1.2.3.3.3.4,0,.7.3.9.6,0,0,.1.2.2.2.2.2.6.1.6-.2,0-.3.1-.6.1-1,0-.3,0-.5,0-.8,0-.2,0-.3.2-.4.3-.2.6-.1.9,0,.4,0,.8,0,1.3,0,.4,0,.8-.2,1.3-.3,0,0,.2,0,.3.1.2.2.3.4.5.6.2.2.3.4,0,.6-.3.3-.4.6-.6,1,0,.1-.2.3-.2.4-.2.3-.7.5-.6,1,0,0-.2.2-.3.2,0,0-.2-.1-.2-.2-.1-.6-.4-.7-1-.5-.4.2-.5.3-.5.6,0,.4.4.7.7.6.3-.1.5,0,.7.2.3.4.7.8,1.1,1.1.3.2.7.3,1.1.5,1,.4,2.1-.2,2.5-.9.5-.7.7-1.5.6-2.3ZM44.7,63.6c-.2-.1-.4-.3-.6-.3-.5,0-1.1,0-1.6-.1-.5,0-.9-.2-1.4-.2-.4,0-.7-.3-1.1,0,0,0-.2.1-.2.2,0,.1,0,.2.1.3.3.3.6.5.8.7.3.3.4.6.3,1,0,.3-.1.5-.2.8,0,0-.1.1-.2.2,0,0-.2-.2-.3-.3,0-.2-.2-.4-.2-.6,0-.1-.2-.3-.2-.4-.2-.5-.5-.9-1-1.3-.2-.2-.5-.4-.7-.6-.3-.3-.6-.5-1-.5-.4,0-.5.2-.4.5,0,.1.1.2.2.3.3.4.4.7.1,1.1,0,.1-.2.2-.3.3,0,0,0,.2,0,.2,0,0,.2.1.3,0,.5-.1.9,0,1.3.2.1,0,.2.2.3.3,0,0-.2.2-.3.3-.3.2-.6.4-.9.6-.3.2-.6.3-.9.5-.1,0-.3.1-.3.2,0,.2,0,.3.2.4.1.1.3.2.4.3.4.4.8.7,1.3.9.5.2,1.1.1,1.6,0,.7-.2,1.4,0,2.1,0,.6.1,1.1.3,1.6.6.2.1.5.1.5-.1,0-.3,0-.6,0-.8,0,0-.3,0-.4-.1,0,0-.1,0-.2,0-.4,0-.8-.3-.8-.6,0-.8,0-1.6.2-2.3,0-.2,0-.4.1-.6.1-.4.5-.5.9-.6.3-.1.7,0,.9-.5ZM50.1,68.4c0,0,0-.2,0-.3,0-.2,0-.3.3-.4.4-.2.7-.3,1.1-.6.5-.4,1.1-.6,1.8-.7.5,0,1,0,1.6,0,.3,0,.6,0,.9,0,.2,0,.4,0,.5-.2-.2-.1-.3-.3-.2-.5,0-.2,0-.4.1-.6,0-.2.1-.5-.1-.5-.6,0-1.2-.2-1.7.3-.1.1-.3.1-.5.2-.2,0-.2,0-.2-.2,0-.4,0-.7.2-1.1.1-.2.2-.5.3-.7.3-.6.5-1.2.8-1.9,0-.2,0-.3.1-.5-.2,0-.3,0-.5,0-.7.3-1.3.6-2.1.6-.2,0-.5.2-.6.3,0,.1,0,.4.1.6.4.4.5,1,.8,1.5,0,0,0,.2,0,.3-.2.2-.7.3-.9,0-.3-.3-.6-.7-.9-1,0-.1,0-.3-.1-.5,0,0,0-.2-.1-.2-.3,0-.7-.2-1-.1-.4,0-.8.2-1.2.4-.3,0-.5.2-.8.2-.2,0-.3.2-.2.4,0,.1.2.2.3.3.3.1.7.2,1,.4,0,0,.1,0,.2,0,.5-.2,1,0,1.3.4.1.2.3.4.5.6.1.2.3.4.4.5.3.3,0,.4,0,.6-.1,0-.3.1-.4.2-.1,0-.3.1-.4.2-.4.2-.8.4-1.2.5-.2,0-.3.1-.1.3,0,0,.1.2.2.3.3.3.6.6.9,1ZM23.7,46.8s0,0,0,0c-.1,0-.3,0-.4,0-.4.2-.9.4-1,1,0,0,0,0,0,.1-.1.2-.3.4-.3.6,0,.2-.2.3-.4.3-.4,0-.8,0-1.3.1,0,0-.2,0-.2.1,0,.3-.3.7-.2,1,.1.8.5,1.4,1.1,1.9.5.4,1.1.5,1.7.4.3,0,.5-.1.8-.4.4-.4.9-.4,1.4-.4.1,0,.3,0,.4,0,.5,0,.9,0,1.3.4,0,0,.1,0,.2,0,0,0,0-.2,0-.2-.3-.3-.4-.7-.5-1.1-.1-.5-.3-.9-.4-1.4-.2-.9-.5-1.6-1.1-2.2-.1-.1-.3-.2-.5-.3-.2-.1-.3-.2-.5-.3ZM23,39.2s0,0,0,0c.1,0,.2,0,.4,0,.4,0,.9-.4,1.1-.8.2-.5.4-1,.6-1.5,0-.2,0-.4.1-.6,0-.2,0-.4.2-.6.2-.3.4-.5.6-.8.2-.2,0-.4-.2-.4-.3,0-.6,0-.8.4-.1.3-.4.2-.6,0,0,0-.2-.2-.3-.2-.6-.2-1.2-.4-1.9-.4-.2,0-.4,0-.2-.3,0-.2.1-.4.1-.5,0-.1,0-.3-.1-.4-.1-.1-.2-.2-.4-.3-.1,0-.3,0-.4,0-.2,0-.4.3-.4.4,0,.4,0,.7.2,1.1.1.4,0,.7-.2.9-.2.1-.2.4-.4.5-.3.3-.1.7-.2,1.1,0,.2,0,.5,0,.8,0,.4.2.7.5.9.3.2.7.4,1,.5.4.1.9.2,1.4.3ZM18.8,43.5s0,0,0,0c0,.2,0,.4,0,.6,0,.3.1.6.3.8.3.3.6.5,1,.5.3,0,.6,0,.9.1.6.3,1.2,0,1.7-.1.5-.2,1-.5,1.1-1,0-.2.2-.5.3-.7.1-.5.2-.9,0-1.4-.1-.4-.2-.7-.4-1.1,0,0-.1-.2-.2-.3-.1-.1-.3-.2-.5-.3-.3-.4-.8-.4-1.2-.5-.4-.1-.7,0-1.1.2-.3,0-.6.3-.8.5-.3.4-.5.8-.8,1.2-.3.4-.5.8-.5,1.3,0,0,0,.1,0,.2ZM68.6,35.9c0,0-.2,0-.3,0-.2,0-.3.3-.5.3-.5.1-1,.3-1.5.4-.8,0-1.6,0-2.4.1,0,0-.1,0-.2,0-.3,0-.4.1-.2.4.2.2.4.4.6.7.1.1.2.2.3.4.3.5.6.8,1.2.7.2,0,.4,0,.7,0q.5,0,.4.4s0,0,0,.1c0,.5-.2.7-.5,1-.4.3-.7.6-1,1-.3.4-.3.8-.2,1.3,0,.2.2.2.4,0,.1-.1.3-.2.4-.3.5-.2.7-.4.7-1,0-.5.1-.9.6-1.1.2,0,.2-.2.1-.3-.2-.5,0-.9.3-1.2,0,0,0,0,0-.1.2-.2.3-.2.5,0,.2.3.5.6.8.9.1.2.3.4.4.6.1.3,0,.5-.3.6-.3.2-.6.3-1,.2,0,0-.1,0-.2,0,0,0,0,.2,0,.2.2.2.3.3.5.5.1,0,.3.1.4.1.5,0,.8-.2.8-.7,0,0,0,0,0,0,0-.4,0-.8,0-1.1-.2-.6-.6-1-.9-1.6-.2-.4-.5-.9-.3-1.5.1-.4.2-.8.3-1.2ZM64,33.3c0,0-.1,0-.2,0-.4,0-.8,0-1-.5-.2-.3,0-.6,0-.9,0-.1.3-.1.5-.1.4,0,.7,0,1.1-.3.3-.2.7-.5,1-.7.2-.1.6-.1.8,0,.2.2.4.3.5.5.3.3.5.6.5,1.1,0,.3,0,.6-.1.9,0,.6-.4,1.1-1,1.4-.3.1-.5.4-.8.6,0,0,0,.1,0,.2,0,0,.1,0,.2,0,.5,0,1.1-.2,1.6-.3.2,0,.2,0,.2-.3,0-.2,0-.4,0-.6.2-.7.4-1.3.4-2,0,0,0-.2,0-.3-.3-.9-.9-1.6-1.8-2.1-.3-.1-.5-.3-.8-.4-.1,0-.2-.1-.3-.1-.5,0-1,.1-1.5.3-.6.2-.8.8-.9,1.3,0,.4-.1.8-.2,1.2,0,.1-.1.3,0,.4.3.6.6,1.3,1.3,1.6.8.4,1.6.2,2.1-.5.1-.2.3-.4.3-.7,0-.2,0-.5,0-.8,0-.2,0-.3-.3-.2-.1,0-.3,0-.3.2-.1.7-.6,1-1.3,1.1ZM25.1,27.6c0-.4,0-.7-.1-1.1,0,0-.2-.1-.2-.1-.2,0-.3,0-.5,0-.3,0-.5-.2-.8-.3,0,0-.2,0-.2,0-.1.2,0,.5.3.5.5,0,.7.4.4.8,0,.1,0,.3,0,.4.2.2.2.4.2.6,0,.3,0,.5,0,.8,0,.4-.1.7-.5,1-.2.1-.3.4-.5.6,0,0,0,.2,0,.3.1.1.2.3.4.3.5.3,1,.5,1.5.7.3.1.6.3.6.7,0,0,.1.2.2.2,0,0,.2,0,.2-.1.1-.1.2-.3.3-.4.5-.4,1-.8,1.5-1.2,0,0,.1,0,.2-.1.2-.2.2-.3,0-.4-.2-.1-.4-.2-.6-.3-.5-.3-1-.7-1.5-1-.2-.1-.5-.3-.8-.1-.1,0-.4,0-.4,0,0-.2,0-.4,0-.5.4-.3.2-.8.4-1ZM56.5,59.5h0c.4,0,.7,0,1.1.1.2,0,.4.2.6.4.4.6.8,1.1,1.2,1.7.1.2.1.3,0,.4-.3.2-.5.5-.7.7-.2.2-.3.5-.4.7,0,0,0,.1,0,.2,0,0,.2,0,.2-.1,0-.3.3-.4.5-.5.3-.2.5-.3.7-.5.4-.3.7-.6,1.1-.9.1-.1.3-.2.4-.3.5,0,.9-.2,1.4-.2.2,0,.4,0,.4-.3,0-.3-.2-.3-.4-.3-.2,0-.4,0-.6-.1-.2,0-.4,0-.5,0-.4,0-.6,0-.8-.3-.1-.2-.3-.4-.4-.5-.3-.4-.7-.8-.6-1.4,0-.4.2-.9.2-1.3,0-.1,0-.3,0-.4,0,0-.2,0-.2,0-.7.4-1.3.8-1.9,1.4-.4.3-.8.7-1.3.8-.3,0-.2.3-.3.4.1,0,.2,0,.4.1,0,0,.1,0,.2,0ZM50,20.5s0-.1,0-.1c0-.7-.2-1.3-.9-1.6-.5-.2-1.1-.4-1.6-.5-.7-.2-1.3-.3-2-.5-.1,0-.3,0-.4-.1-.2,0-.2.1-.2.3,0,.2.2.5.4.6.3.3.5.7.5,1.2,0,.5,0,1-.1,1.5,0,.3,0,.6,0,.9,0,.1,0,.3.2.3.4,0,.9.2,1.4.1.6,0,1.2-.1,1.8-.4.8-.4,1.1-.8,1.1-1.6ZM31.7,51.5c-.6,0-.7.1-.6.7,0,0,0,.2,0,.3,0,.4.1.7.3,1,.2.3.4.5.7.7.4.3.9.7,1.3,1.1.4.3.7.3.9-.3.1-.4.2-.9.6-1.1.6-.4,1.2-.6,1.9-.7,0,0,.2,0,.2-.1,0,0,0-.2-.1-.2-.1,0-.3-.1-.4-.2-.2,0-.3-.2-.4-.3-.2-.3-.5-.6-.8-.9-.2-.2-.4,0-.4.2,0,.1,0,.3.2.4.1.2.1.4-.1.5-.2.1-.3,0-.5-.2-.3-.7-.4-1.4-.3-2.2,0-.6-.1-.9-.5-1.2-.2-.1-.3,0-.3.1,0,.8,0,1.5.2,2.3,0,.2,0,.4-.1.6-.1,0-.3,0-.4-.1,0,0,0,0,0,0-.4-.1-.7-.5-1.1-.4ZM52.1,19.5c0,.1.2.2.2.4,0,.2.2.4.1.6-.2.4-.2.8-.3,1.2-.2,1,0,2,.9,2.6.1,0,.2.1.3.2.5.2,1.1.3,1.6.5.3.1.3,0,.3-.2,0-.2,0-.4,0-.6.2-.4.4-.8.7-1.2.3-.4.5-.6.9-.8.3-.2.5-.4.7-.6,0,0,0,0,0,0-.2,0-.5-.1-.7,0,0,0-.3,0-.3,0-.3-.3-.6-.6-.9-.9,0-.1-.2-.3-.3-.3-.3-.1-.6-.2-.9-.4-.7-.3-1.5-.2-2.3-.3,0,0,0,0-.2,0ZM38.3,18.3s0,0-.1,0c0,.2-.2.4-.3.5-.2.3-.4.4-.7.2-.1,0-.3-.1-.5-.2-.8-.1-1.6.4-1.9,1.3,0,.1,0,.2-.2.3-.1.2-.3.4-.4.6,0,.1,0,.3,0,.4.4.3.4.7.6,1,.4.9,1,1.4,2.1,1.1.7-.2,1.4-.5,2.1-.5,0,0,.2-.1.2-.2,0-.4-.2-.5-.4-.6-.2-.1-.2,0-.4.2,0,0,0,0-.2,0,0-.1-.1-.2-.1-.3,0-.5-.2-.9-.3-1.4-.2-.6-.1-1.2.4-1.6,0,0,0-.2,0-.2,0-.2,0-.3,0-.5,0,0,0-.2-.1-.3ZM53.2,58.3c0,.1-.1.2,0,.3,0,.2,0,.3-.2.2-.2,0-.3,0-.3.2,0,0-.1.1-.2.1,0,0-.1,0-.2-.1,0,0,0-.2-.1-.3-.3.1-.2.3-.2.5,0,0,0,.2-.1.2,0,0-.2-.1-.2-.2,0,0,0-.2,0-.3,0-.1,0-.3,0-.4-.5.1-1,.3-1.4.4-.2,0-.4.2-.6.3-.1.2-.3.2-.5.2-.4,0-.9.1-1.3.3-.2,0-.3,0-.5,0,0,0-.2,0-.3,0-.4.3-.7.4-1.2.2,0,0-.2,0-.3,0-.5,0-1,0-1.5.1-.1,0-.2.2-.3.3,0,.1,0,.3.1.5,0,.1.2.2.3.2,0,0,.2-.1.3-.2.1-.1.2-.2.3-.4,0,.1.2.2.3.3,0,0,.2.1.3.1,0,0,.1-.1.2-.2,0,0,0-.2,0-.2,0,0,.1-.1.2-.2,0,0,0,.1.1.2,0,.2.1.3.2.5,0,0,.2,0,.3,0,0,0,0-.1,0-.2,0-.1,0-.2,0-.4,0,0,.1-.2.2-.3,0,0,.2.1.3.2,0,.1,0,.3,0,.4,0,.2,0,.2.2.1.2,0,.2-.2.2-.4,0-.3,0-.5.4-.6,0,.2,0,.4,0,.5,0,.3.3.2.4.2.2,0,0-.2,0-.3,0,0,0-.2,0-.2,0-.1.2-.3.3-.3.2,0,.2.2.2.3,0,0,0,.2,0,.3,0,.1,0,.2,0,.3,0,0,0,0,.1,0,.1-.3.2-.7.3-1,0,0,0,0,.1,0,0,.1,0,.3,0,.4,0,.2.2.3.4.2.2-.1.2-.3.1-.5,0,0,0-.2,0-.3,0,0,0-.1.2-.2,0,0,.2.1.2.2,0,0,0,.2.1.3,0,0,.1.1.2,0,0,0,0-.1.1-.2,0,0,0-.1,0-.2,0-.2,0-.4.2-.4.2,0,.2.2.2.4,0,.3,0,.3.3.2.4-.2.7-.3,1.1-.5.3-.1.5-.2.8-.3.1,0,.2-.2.3-.3,0-.2.2-.1.3,0,0,0,.2.1.3.1.3,0,.5-.3.5-.7,0-.1,0-.2.1-.3.1,0,.2.1.3.2,0,0,0,0,0,0,.1.2.2.1.3,0,.2-.3,0-.5,0-.8,0-.1,0-.3,0-.4.1,0,.2,0,.3.1,0,0,.2.1.3.2.4.2.5.1.7-.2-.1-.2-.3-.3-.3-.5,0,0,0-.2,0-.4.1,0,.3,0,.4,0,.1,0,.2.2.3.3.5-.4.5-.6.3-.9,0,0,0-.2,0-.3,0-.1,0-.3,0-.4-.1,0-.3.1-.4.2,0,0,0,0,0,.1-.3.4-.6.7-1,1-.3.3-.7.4-1.1.6-.4.2-.4.3-.3.7,0,0,0,.2,0,.3,0,0,0,.2-.1.3,0,0-.2,0-.2,0-.1-.2-.2-.4-.3-.6-.3.2-.5.4-.8.6.1,0,.2.1.3.2ZM37.3,55.1c-.2,0-.5,0-.7,0-.5,0-.8.6-.5,1,0,0,0,.2,0,.4,0,.1,0,.3,0,.4.6.7,1.4,1.1,2.2,1.3.6.2,1.3.2,1.9.6,0,0,0,0,.1,0,0,0,.2,0,.3-.1,0,0,0-.2-.1-.2,0-.2-.2-.3-.2-.5,0-.5,0-.9,0-1.4,0-.4.2-.8.4-1.1.1-.1.3-.3.5-.3.1,0,.3,0,.3-.2,0-.2-.1-.3-.3-.3-.3,0-.6-.2-.9-.3-.4-.1-.9-.1-1.3-.5,0,0-.3,0-.4-.1,0,.2,0,.3,0,.5,0,0,0,0,.1.1.3.2.6.5.9.7.2.2.2.6,0,.8-.2.2-.4,0-.6,0,0,0,0,0,0,0-.5-.5-1.1-.8-1.8-.7ZM51.4,55.9c0,.5,0,.9,0,1.3,0,.2.1.3.3.2.3-.2.6-.4.9-.6,0,0,0-.1,0-.2,0-.6,0-1.1.1-1.7,0-.3.1-.4.4-.3.5.2,1.1.4,1.6.5.4,0,.8.1,1.1-.1.2-.2.5-.4.7-.6,0,0,.2-.2.1-.3,0,0-.2-.1-.3-.2-.3,0-.5,0-.8-.2-.2,0-.4-.2-.6-.3-.4-.2-.9-.3-1.3-.4-.6-.2-1.1-.5-1.8-.4-.2,0-.4.1-.4.3,0,.2,0,.4,0,.5,0,.1,0,.3,0,.4,0,.1,0,.3,0,.4,0,.4,0,.9,0,1.3,0,.1,0,.2,0,.3,0,0-.1,0-.2-.2ZM45.9,59.3c.2,0,.4,0,.5-.1.2,0,.4-.1.7-.2.4,0,.8,0,1.1-.2.5,0,1-.2,1.1-.9.1-.6,0-.9-.5-1.1-.4-.2-.9-.4-1.4-.5-.2,0-.5-.1-.8-.2,0,0-.1-.1-.2-.2,0,0,0-.2.1-.2.4-.1.8-.2,1.1-.3.3,0,.5,0,.8.1.2,0,.5.2.7.3,0,0,.1,0,.2,0,0,0,0-.1,0-.2,0-.5.1-.9.3-1.3,0,0,0-.2,0-.2,0,0-.2,0-.2,0-.6.1-1.2.3-1.7.4-.6.1-1.2.3-1.7.6-.2.1-.4.6-.4.8.2.4.4.8.8,1,.5.2,1,.4,1.5.6,0,0,.1,0,.1.2,0,.3,0,.5-.4.5-.7,0-1.3,0-2-.3-.2,0-.3,0-.4.2,0,.2-.1.4-.1.6,0,.5,0,.5.5.5ZM60.8,38.8s0,0,0,0c0-.4-.2-.7-.3-1.1-.1-.5-.3-.9-.4-1.4,0-.3-.2-.6-.4-.8-.2-.2-.3-.2-.5,0-.1.2-.3.3-.4.4,0,0-.2.1-.3.2-.6.3-1.1.6-1.8.4-.1,0-.3,0-.4,0,0,.1,0,.3,0,.4.2.3.4.7.5,1,.1.3.2.3.5.2.2-.1.4-.2.6-.3.4-.2.6,0,.6.4,0,.5-.3,1-.6,1.3-.4.4-.7.9-.6,1.5,0,0,0,.2.1.2,0,0,.2,0,.2,0,.4-.5.9-.9,1.3-1.4.3-.4.3-.4.8-.2,0,0,0,0,0,0,.4.2.8,0,.8-.5,0,0,0-.2,0-.2ZM43.8,19.7c-.3-.1-.5,0-.7.2-.2.3-.8.3-1.1,0-.2-.2-.2-.8,0-1,.2-.3.4-.7.6-1.1,0,0,0,0,0,0-.2,0-.4,0-.5,0-.4.2-.9.2-1.3.2-.4,0-.9.2-1.3-.1,0,0-.1,0-.2,0,.2.2.3.3.5.3.5.2.8.6,1,1.1,0,.2.1.3,0,.4-.1,0-.3,0-.4,0-.3-.1-.5-.4-.8-.5,0,0-.2,0-.3,0,0,0,0,.1,0,.2.1.3.2.7.6.9.1,0,.3.2.2.4,0,0,0,.2.1.2,0,0,.2,0,.3,0,.6-.2,1,0,1,.7,0,.2,0,.4-.2.5-.1,0-.2.2-.4.2-.2.1-.4.3-.2.5.1.2.4.2.6,0,0,0,0,0,.1,0,.5-.4.7-.3,1.2,0,.2.1.3,0,.4,0,.2-.1.1-.3,0-.4,0,0-.1-.1-.2-.2-.2,0-.2-.2-.2-.4,0-.1,0-.2,0-.3,0-.4,0-.4.5-.4.3,0,.6,0,.9,0,.1,0,.2-.1.3-.2,0,0,0-.2,0-.3-.2-.2-.3-.4-.2-.7ZM56.1,52.1c0-.1,0-.2,0-.2,0-.4,0-.9,0-1.3-.1-.5.1-.8.4-1.1.3-.3.8-.3,1.1,0,.1.1.2.3.3.4.2.4.4.7.7,1.1,0,0,.2.1.3,0,.1,0,.2-.2.2-.3.3-.6.7-1.3,1-1.9.2-.3,0-.4-.3-.5,0,0-.1,0-.2,0-.4.2-.8,0-1.2,0-.7-.2-1.1-.7-1.5-1.3,0-.1,0-.3-.1-.4,0,0-.1,0-.2-.1,0,0-.1.2-.1.2,0,.2,0,.3,0,.5,0,.3-.1.6-.2.9,0,.2-.1.4-.2.5-.5.6-1,1.1-1.4,1.6-.1.1-.2.3,0,.3,0,0,.2,0,.2.2.4.3.7.7,1.2,1.1ZM33.7,23s0-.1,0-.2c0-.2-.2-.4-.2-.6,0,0-.1-.2-.1-.1,0,0-.1,0-.2.2,0,0,0,.2,0,.2,0,0-.1.1-.1.1,0,0-.1,0-.2-.1,0,0,0-.1,0-.2,0-.1-.1-.3-.2-.4-.1,0-.3,0-.4.2-.3.2-.6.3-.8.2.1-.3.3-.5.4-.8,0,0,0-.2,0-.3-.1,0-.2,0-.3.1,0,0-.1.2-.2.3-.4.5-.9.8-1.6.9,0,0-.2.1-.2.2,0,0,.1.2.2.2.3,0,.6,0,1,0,.2.3.5.6.8,1,0,0,0,0,0,.1.2.4.5.8.7,1.2.1.2.3.4,0,.6,0,0,0,.2,0,.2,0,0,.1,0,.2,0,.4-.3.7-.5,1.2-.5.3,0,.7-.2,1-.2.2,0,.3-.1.3-.3-.2,0-.5-.2-.7-.1-.4,0-.4-.1-.5-.3-.2-.3-.3-.7-.5-1,0-.1,0-.3,0-.5.1,0,.2,0,.4,0ZM61.2,44.4c.1-.5,0-1-.5-1.3,0,0,0,0-.1-.1-.5-.4-1.1-.8-1.8-.6-.6.2-1,.5-1.2,1-.4.9-.2,1.7.5,2.4.6.7,1.5.7,2.2.6.1,0,.3-.1.4-.2.3-.5.7-1.1.6-1.8ZM29.4,49.3s0,0,.1,0c.1-.2.3-.3.4-.5.3-.6.9-.6,1.4-.8.3,0,.7,0,1,.2.1,0,.3,0,.5,0,0-.1,0-.3,0-.4-.2-.5-.5-.9-.7-1.4-.2-.4-.3-.8-.2-1.2,0-.2,0-.3-.3-.3-.3,0-.4.2-.4.4-.3.9-.9,1.5-1.9.9-.1,0-.3,0-.4,0-.2,0-.4,0-.6.1-.2,0-.3.2-.2.3.1.2.3.5.5.7.3.3.7.6.8,1.1,0,.3,0,.6,0,.9ZM30.8,27.5c0,0,0-.1,0-.2-.2,0-.3-.1-.5-.2-.1,0-.3-.2-.4-.3-.3-.3-.5-.7-.8-1-.3-.3-.5-.7-.5-1.1,0-.1-.1-.3-.2-.4-.1,0-.3.1-.4.2-.3.6-.8.9-1.4,1.1-.3.1-.5.3-.5.7,0,.4,0,.9,0,1.3,0,.2,0,.3.2.4,0,0,0-.2,0-.2,0-.3,0-.5,0-.8,0-.3.2-.4.4-.5.2,0,.4,0,.6.2.3.3.6.5.9.7.3.2.6.4.7.8,0,.1,0,.3,0,.4,0,.1.1.3.2.3.1,0,.3,0,.4-.1.3-.4.6-.8,1.1-1,.1,0,.2-.1.3-.2ZM55,34.2c0,.3.4.9.5.8.2,0,.3-.3.5-.4,0,0,0,0,0-.1.1-.5.3-1,.4-1.5,0-.1.1-.2.2-.3,0,0,.3,0,.3,0,.1.1.2.3.3.4,0,0,.2.1.2.1.1-.1.3-.3.4-.4,0,0-.1-.2-.2-.3-.3-.3-.7-.5-1-.7-.6-.5-1.1-1.2-1.6-2,0-.1-.2-.2-.4-.1-.2,0-.5.1-.7.2-.2,0-.3.2-.1.4.1.1.3.2.4.3.2,0,.3.1.3.3,0,.2,0,.3-.3.4-.6.2-1.2.5-1.8.7,0,0-.2,0-.2.1,0,0,0,.1.1.2.3.2.6.3.8.5.2.1.4,0,.6,0,.4-.4.9-.8,1.3-1.1,0,0,.2-.1.3,0,.2.1.5.2.7.4.3.2.3.4,0,.6-.2.1-.4,0-.7,0,0,0-.2,0-.4,0,0,.1.1.2.2.3,0,.1.2.2.2.3,0,.3-.2.5-.3.8,0,.1-.1.3-.2.4ZM58.8,22.6c0,.2,0,.3,0,.4,0,.6-.3,1.1-.8,1.4-.3.2-.6.4-.9.5-.4.2-.4.6,0,.9.5.3,1.1.7,1.3,1.3,0,.1.2.2.3.2,0,0,.2-.2.2-.3.2-.3.5-.7.7-1,.2-.2.5-.4.7-.6.1-.2.4-.5.3-.6-.3-.4-.6-.8-1-1.2-.3-.3-.7-.6-.9-1.1ZM67.4,50.9s0,0,0,0c0,.2,0,.4,0,.5,0,.1.1.2.2.3,0,0,.2-.2.3-.3.2-.7.3-1.3.4-2,0-.1,0-.4-.2-.4-.3,0-.6-.1-.8-.2,0,0-.2,0-.2.1-.2.2-.4.2-.6,0,0,0-.1-.2-.2-.2-.4-.6-.9-.9-1.6-.9-.4,0-.6.2-.5.6,0,.4,0,.8,0,1.2,0,.1-.1.3-.2.4-.1.1-.3.2-.5.3,0,0,0,.2-.1.3.1,0,.2.1.3.1.4-.1.8-.3,1.2-.4.2,0,.4,0,.5,0,.6-.2,1.2-.2,1.8-.2.2,0,.3,0,.3.3,0,.2,0,.4,0,.6ZM29.4,40.5c-1-.2-1.5.2-1.5,1.2,0,.4,0,.8.1,1.3,0,.1,0,.3.1.4,0,0,.2.1.4.1.2,0,.4-.1.6-.1.4,0,.8,0,1.2.1.4,0,.7.3,1.1.4,0-.2,0-.4,0-.6,0-.6,0-1.2,0-1.8,0-.1,0-.3.1-.4,0,0,0-.2,0-.2,0,0-.1,0-.2,0-.3,0-.5,0-.8.2-.5.2-1.1.4-1.7.5-.1,0-.3,0-.3-.1,0,0,0-.2,0-.3.2-.3.5-.4.9-.5ZM43.7,29.6c.1-.1.1-.3,0-.5,0-.1-.2-.3-.1-.4,0-.2.2-.3.5-.3.2,0,.4.1.6.2,0,0,.2,0,.3,0,.2,0,.3,0,.2-.3,0-.3-.1-.6-.1-.8,0-.2,0-.5,0-.7,0-.1,0-.3-.2-.3-.2,0-.3,0-.4.2,0,.4-.3.7-.7.7-.2,0-.4,0-.4-.3,0-.4.2-.7.4-1,0-.2-.2-.2-.4-.1-.3,0-.7.1-1,.2-.1,0-.3,0-.3,0,0,.1,0,.3,0,.4,0,.2.2.3.3.5,0,.1,0,.3,0,.4,0,0-.3.2-.4.2-.3,0-.5,0-.8-.1,0,0-.2,0-.2.1,0,.2,0,.5,0,.7,0,.2.1.3.3.2.1,0,.3-.2.4-.2.3,0,.5,0,.7.1,0,0,0,.3,0,.5,0,0,0,.1,0,.2,0,.3.1.4.4.3.3,0,.6,0,.9-.1ZM51.1,28.6s0,0,0,0c0,0,.2,0,.2,0,.3,0,.6-.3.6-.7,0,0,0-.2-.1-.2-.3-.2-.7-.4-1-.6-.3-.1-.5,0-.5.2,0,.2-.3.6-.6.7-.2,0-.4,0-.5-.2-.1-.2-.1-.5,0-.7.2-.2,0-.4-.1-.5-.5-.1-.9-.2-1.3-.3,0,0-.3,0-.3.1,0,.2,0,.4,0,.5,0,.4.2.7.2,1.1,0,0,0,0,0,.1-.2.3-.3.5-.5.8-.2.3-.2.5.2.6.2,0,.4.1.5.2.6.2.9,0,.9-.6,0,0,0-.1,0-.2,0-.4.3-.6.6-.5.6,0,1.1,0,1.7,0ZM33.1,32.4c0,.4,0,.4-.4.5-.2,0-.4,0-.6-.1-.4-.1-.8,0-1,.2-.2.2-.4.4-.6.7,0,0,0,.2-.1.3.1,0,.3,0,.4,0,.2,0,.3,0,.5,0,.2,0,.4,0,.6,0,.4,0,.8,0,1.1,0,.3,0,.5,0,.8,0,.4,0,.6-.3.5-.6,0-.2,0-.5-.1-.8,0-.6-.2-1.2-.2-1.8,0-.2,0-.3-.1-.5,0-.1,0-.3-.2-.3-.1,0-.3,0-.4.1-.2.5-.9,1-.4,1.6,0,0,0,.2,0,.4ZM37.4,29.5s0,0,0,0c-.1,0-.2,0-.4,0-.3,0-.4-.2-.4-.4,0-.3.1-.5.5-.5.1,0,.2,0,.3,0,.2,0,.3,0,.5,0,.2,0,.4,0,.6,0,.2,0,.4-.1.4-.4,0-.3,0-.6,0-.9,0,0-.1-.2-.2-.2,0,0-.2,0-.3.1-.3.2-.6.4-.9.6-.3.2-.7.2-1,.4-.3.2-.6.5-.8.9,0,.1,0,.4.1.6,0,.2.3.3.5.3.3.1.6.2.8.3.2,0,.5,0,.7,0,.2,0,.4.2.3.5,0,.1-.2.4-.3.4-.5,0-1.1.2-1.6-.2,0,0-.2,0-.3,0,0,.1,0,.2,0,.3,0,.2.1.3.2.5,0,.1,0,.3.1.4,0,0,.2.1.3,0,.5-.3,1-.5,1.5-.8.4-.2.9-.4,1-1,0-.3,0-.6-.2-.6-.5-.1-1.1-.2-1.6-.3ZM68.7,45.1s0,0-.1,0c0,.2-.1.3,0,.5.2.5,0,.9-.2,1.4-.2.4-.6.5-.9.1-.1-.2-.2-.4-.3-.6-.5-.8-.9-1.5-1.4-2.2,0,0-.2,0-.2-.1,0,0,0,.2,0,.2,0,0,0,.2,0,.2.3.4.2.8.2,1.2,0,.3,0,.5-.3.6-.2.1-.1.2,0,.3.3.2.7.5,1,.7.1,0,.3.2.4.2.2.2.5.4.7.5.4,0,.7.3.9.7.1-.2.3-.3.4-.5.3-.5.5-1,.9-1.4.2-.1.1-.3,0-.4-.4-.2-.5-.7-.7-1,0,0,0-.2-.1-.3ZM29,37.4c0,0,0,.2.1.2,0,0,.2,0,.2,0,.1,0,.3-.1.4-.1.2,0,.5.2.7.3.3.2.7.3,1,.5.2.1.3.1.5,0,.2-.2.2-.5.4-.8.2-.4.5-.7.7-1.1,0,0,0-.1,0-.2,0,0,0,0-.1,0-.2,0-.5,0-.7.1-.3.2-.6.3-.9,0-.3-.2-.6-.4-.9-.6-.2-.2-.4-.4-.7-.6,0,0-.2,0-.3,0,0,0-.1.2-.2.3,0,0,0,.2,0,.3,0,.4,0,.7,0,1.1,0,.2-.1.3-.2.5,0,0-.1.2-.2.3ZM55,36.3s0,0,0,0c0-.2-.2-.4-.3-.6-.3-.4-.7-.8-1-1.2-.3-.3-.7-.6-1-1-.8-.8-1.6-1.5-2.7-1.9-.5-.2-1-.5-1.5-.7-.2,0-.5-.1-.8-.2-.1,0-.2,0-.4,0-.5-.1-.9-.2-1.4-.4,0,0-.1,0-.2,0-.2,0-.4,0-.5,0-.3,0-.6-.1-.8-.1-.4,0-.9.2-1.3.2-.6,0-1.2,0-1.8.1-.2,0-.3.1-.3.4,0,0,0,.2.1.2.3,0,.7,0,1-.1.1,0,.3-.1.4-.1,1.5,0,2.9-.2,4.4.2.3,0,.6,0,.8.2.7.3,1.4.5,2.2.8.2,0,.4.3.7.4.8.4,1.5,1,2.1,1.6.6.6,1.2,1.1,1.6,1.8,0,.2.3.3.4.5,0,0,.2,0,.3.1ZM42.6,58.3s0,0,0,0c.4.1.6-.2.8-.3.3-.2.6-.5.9-.8.2-.2,0-.6-.2-.6q-.5,0-.6-.5c0,0,0-.2,0-.2,0-.1-.2-.3-.3-.3-.3,0-.7,0-1,0-.2,0-.3.2-.5.2-.4.1-.5.3-.3.7,0,.1,0,.2,0,.3-.1.4,0,.8.4,1,.1,0,.2.2.4.2.2,0,.3.2.5.2ZM44.4,38.5c-.1.2-.3.3-.3.4,0,.4-.3.5-.5.7-.1,0-.3.2-.4.3.1.1.2.2.4.4,0,0,0,0,0,0,.3.2.4.3.2.6-.2.3-.3.6-.4.9,0,.3,0,.5.3.7.2.1.4.3.6.4.2.1.4,0,.5,0,.1-.2.3-.3.4-.5.2-.2.2-.3,0-.5-.1-.2-.3-.3-.5-.5-.2-.2-.2-.9,0-1.1,0,0,.1-.1.2-.2.1,0,.3,0,.4-.1.2,0,.3-.2.2-.4,0,0-.2-.2-.3-.2-.5,0-.5,0-.6-.5,0-.1-.1-.2-.3-.4ZM18.3,48.3c-.3-.3-.5-.6-.7-.8-.2-.1-.4-.2-.6,0-.2.1-.1.3-.1.5,0,.2.1.5,0,.7,0,.2,0,.4,0,.6,0,.1,0,.3.1.4,0,.2,0,.4.1.6,0,.2,0,.4,0,.5,0,.3.2.6.5.6.4,0,.4,0,.3.4,0,0,0,0,0,0-.1.3-.3.7-.1,1,.1.3.3.3.5,0,0,0,.1-.2.2-.3.3-.2.3-.4.2-.7,0-.2-.1-.3-.2-.5-.2-.6-.2-1.3-.7-1.8,0,0,0,0,0,0,0,0,.1,0,.2,0,0,0,.2-.1.2-.2,0,0-.2-.2-.3-.2,0,0-.2,0-.2,0-.3,0-.5-.3-.4-.7.3,0,.6.2.9-.1ZM51.4,40s0,0,0,0c.3.2.5.4.8.6.3.2.4.6.3.9-.1.4-.4.6-.7.6-.5,0-.9,0-1.4-.1-.1,0-.3,0-.3.1,0,0,0,.2,0,.3.1.1.1.3.1.4,0,.2.1.5.4.5.4,0,.7.1,1.1.3.2.1.3,0,.4-.2.3-.5.4-1,.8-1.4,0,0,0-.2,0-.3,0-.3,0-.6,0-.8,0-.5,0-.9-.1-1.4,0,0-.1,0-.1.1-.1.3-.3.3-.6.3-.3,0-.5,0-.8,0ZM33.5,43.7c-.6.2-.7.4-.6.9,0,.3.3.4.8.3,0-.5,0-1-.1-1.5,0-.6-.2-1.2-.2-1.8,0-.6,0-1.3,0-1.9,0-.2,0-.3,0-.5,0-.3.2-.5.2-.8,0,0,0-.2-.1-.3-.3-.2-.5,0-.6.3,0,0,0,0,0,.1-.4.3-.3.8-.3,1.2,0,1.1,0,2.3,0,3.4,0,.3.1.5.4.5.1,0,.2,0,.4.2ZM18.5,40.7c-.2-.2-.3-.3-.5-.2-.1,0-.3,0-.4,0-.2,0-.4-.2-.6-.3-.2.2-.2.4-.1.7,0,.2,0,.3.3.2.3-.1.4,0,.4.3,0,.3-.2.4-.5.5-.4.1-.5.2-.5.6,0,.6,0,1.1,0,1.7,0,.3,0,.6,0,.9,0,.2,0,.3.3.4.2,0,.4,0,.6,0,.2,0,.3-.1.3-.3,0-.4,0-.8,0-1.2,0-.4,0-.5-.5-.6-.3,0-.3-.2-.3-.4,0-.2.3-.4.5-.4.3,0,.3,0,.3-.3,0-.4.2-.7.3-1.1,0,0,.1-.1.2-.2,0,0,.1-.1.2-.2ZM58.9,54.5c.4,0,.5-.2.4-.5,0-.2-.1-.4-.2-.5,0-.1,0-.3,0-.4.1,0,.3,0,.4,0,.1,0,.3.1.4.1.1,0,.3-.2.3-.2,0-.2-.1-.4-.2-.5-.1-.2-.3-.3-.4-.5,0,0,0,0,0-.1,0,0,0,0-.1,0-.2.2-.4.5-.6.7-.2.2-.4.3-.6.5-.2.3-.5.6-.7.9,0,0-.1.2-.1.3.1.4.3.7.5,1.1,0,0,0,0,.1,0,.2,0,.6-.4.4-.7,0-.1-.2-.3-.3-.4-.1-.2-.1-.3,0-.4.2-.2.2,0,.3.1.1.1.3.2.4.3ZM23.6,24.7c.1.2.2.4.3.6,0,.3.2.3.5.3.2,0,.4,0,.5.3,0,0,.2.1.3,0,.5-.3,1.1-.4,1.5-.8.4-.4.7-.7,1.1-1.1.1-.1.3-.2.5-.2,0,0,.2,0,.2,0,0-.2,0-.4-.2-.6,0,0-.3,0-.3,0,0,.3-.4.4-.6.5-.2.1-.4.2-.5.5,0,.1-.2.2-.4.3-.3.2-.6.4-.8.6-.3.3-.5.3-.8,0-.2-.2-.6-.3-.9-.5,0,0,0,0-.1,0ZM39.6,31.6s0,0,0-.1c-.2,0-.4,0-.5.2-.6.3-1.1.6-1.7,1-.4.2-.8.5-1.1.8-.4.4-.8.9-1.2,1.3-.1.2-.3.3-.4.5,0,.3-.2.5-.5.5,0,0-.2.1-.2.2,0,.2,0,.4.1.5,0,0,.2.2.3.2.1,0,.2-.1.3-.2.3-.5.5-.9.7-1.4.1-.3.3-.5.5-.7.6-.7,1.4-1.3,2.2-1.8.4-.3.8-.5,1.2-.7.1,0,.2-.2.3-.3ZM40.7,45c.2,0,.3,0,.5-.1.2,0,.4-.2.6-.2.3,0,.5-.1.6-.3.1-.2.2-.3,0-.4-.2,0-.3,0-.5-.1-.1,0-.3-.1-.3-.2,0-.2-.1-.5,0-.7,0-.3-.1-.5-.3-.6,0,0-.2,0-.3,0,0,0-.2.2-.2.3,0,.3,0,.6.2.9,0,.2,0,.3,0,.4-.1,0-.3,0-.4,0,0,0-.3,0-.3,0,0,.1-.1.3,0,.4.2.2.3.7.8.6ZM52.7,25.2s0,0,0,0c0,0,.1.2.2.3,0,.1.1.2.1.4,0,.4,0,.7.5.9.4.1.7.5,1.2.6.2,0,.3,0,.3-.2,0-.2,0-.4.3-.3.2,0,.3.2.2.4-.1.4,0,.8.3,1,.2.1.3,0,.4-.2,0-.2.1-.4.2-.5.1-.2.1-.2,0-.3-.3-.2-.6-.4-.9-.6-.4-.4-.9-.4-1.3,0,0,0,0,.1,0,.2,0,0,0,0-.1,0,0-.2,0-.4-.1-.6,0-.1,0-.3,0-.3-.2-.2-.4-.4-.6-.5-.1,0-.3-.1-.4-.2ZM26.2,54.4c0-.3-.2-.4-.3-.6-.2-.1-.4-.4-.7-.2-.3.2-.6.4-.6.8,0,.2,0,.4-.2.6,0,.2-.2.4,0,.5.2.1.5.2.7.2.5-.2,1-.7,1-1.4ZM53,70.3c.2-.1.4-.2.5-.3.1-.2,0-.4-.1-.5-.1-.1-.2-.2-.3-.4-.1-.2-.3-.2-.5-.2-.5.1-.9.3-1.4.5-.4.1-.5.5-.2.7.2.1.4.2.5.3.2.1.3.3.5,0,0,0,0-.3,0-.4,0,0,0,0,0,0,0,0,0-.2,0-.3,0,0,.1,0,.2.1.2.1.4.3.7.4ZM46.8,43.1c0,0-.2.2-.3.3,0,.2,0,.5.3.5.4,0,.8.2,1.2.2,0,0,.1,0,.2,0,.3,0,.7-.1,1-.2.1,0,.3-.1.4-.2,0,0,0-.3,0-.4-.1,0-.3,0-.4,0-.1,0-.2,0-.3.1-.2,0-.3,0-.3-.3,0-.2,0-.4,0-.6,0-.2,0-.3-.2-.4-.2,0-.2.2-.3.3,0,0,0,.2,0,.3,0,.2,0,.3,0,.5,0,.3-.2.3-.4.2-.1,0-.3-.1-.5-.2ZM45,36.8s0,0,0,0c0,0,0-.1,0-.2-.2-.5-.4-1-.6-1.5,0,0-.2-.2-.2-.2,0,0-.2.2-.2.3,0,.3-.2.6-.3.8-.1.5-.3,1,.3,1.3.2.1.5.3.7.2.2-.1.2-.4.4-.6ZM36,59.1s0,0,.1,0c0-.2.1-.3.2-.5,0,0,.1,0,.2-.1,0,0,0,.1,0,.2,0,.5.2.7.6.8,0,0,.2,0,.2,0,.2.2.4.2.6,0,.2-.1.3,0,.4.2,0,.1.2.2.3.2,0,0,.1-.1.2-.2.3-.4.3-.5-.2-.6-.4-.1-.7-.2-1.1-.3-.1,0-.2,0-.3,0-.3-.4-.7-.6-1.1-.7-.1,0-.3-.1-.4,0-.1.1-.2.3-.2.5,0,.2.2.4.3.5ZM44.6,24c-.3,0-.6-.2-.9,0-.3.2-.5.2-.8.1-.2,0-.5,0-.7,0-.2.2-.7.1-.8-.2,0-.2-.3-.2-.4-.1-.1.1-.3.3-.3.4,0,.2.2.5.3.5.3,0,.6.2.9-.2,0,0,0,0,.1,0,.5,0,1.1,0,1.6,0,.6,0,.7-.1.9-.7ZM60.9,29.2c.4,0,.6-.4.5-.7-.1-.2-.2-.5-.4-.7-.1-.3-.8-.6-1.1-.4-.3.2-.6.6-.6,1,0,.1,0,.3.2.4,0,0,.1-.2.2-.3,0,0,0-.1,0-.1,0-.1.2-.2.3-.3,0,.1.1.2.2.3.2.5.4.8.8.8ZM56.2,44.5c0-.4-.2-.5-.4-.4-.3,0-.6.5-.6.7,0,.6,0,1.1-.1,1.7,0,0-.1.2-.1.3,0,.2-.1.4,0,.6,0,.2.2.2.4,0,.3-.2.5-.5.4-.9,0-.2,0-.5,0-.7,0-.3,0-.5.3-.8.1-.2.2-.4.3-.6ZM26.3,39.9c.2-.5.6-.9.5-1.5,0,0,0-.1.1-.2,0-.1,0-.2,0-.4,0-.2,0-.5,0-.7.4-.8.4-1.7,1-2.4.1-.1,0-.3-.2-.3-.2,0-.4.2-.5.4,0,.3,0,.6-.2.8-.1.4-.4.9-.5,1.3-.1.4-.3.8-.1,1.3,0,0,0,.2,0,.2-.4.4-.2.9-.3,1.3,0,0,0,0,.1,0ZM46.1,66.8c-.3,0-.7.4-.5.7.2.3.5.5.8.8,0,0,.3,0,.4.1.2.1.7,0,.7-.3,0-.3-.2-.7-.4-.9-.3-.2-.7-.3-1-.4ZM47.4,64.1s0-.1,0-.3c0-.4-.3-.6-.7-.5-.2,0-.4.1-.6.2-.5.2-.6.6-.2,1,.2.3.5.4.9.3.5-.1.6-.2.6-.7ZM62.6,39.8c-.5,0-.6.1-.5.5,0,.3.1.5.1.8,0,.5,0,.9,0,1.4,0,.3.1.5.4.7.3.2.4,0,.5-.2.1-.2,0-.2-.1-.3,0,0-.2-.1-.3-.2-.2-.2-.2-.3,0-.5.2-.1.2-.5.1-.7-.3-.3-.3-.9,0-1.2.1-.2,0-.2,0-.3,0,0-.2,0-.2,0ZM39.9,40.2c-.5.6-.6.6-1.3.8-.2,0-.2.2,0,.3.2.2.4.3.6.4,0,0,.2,0,.3,0,.3-.3.6-.6.7-1,0,0,.2-.1.2,0,.1,0,.2,0,.3.1.2.2.3.3.5.5.1.1.2.2.3,0,.2-.3.4-.6.5-.9,0,0,0-.1,0-.2,0,0-.1,0-.2,0-.3.2-.6.6-1,.2,0,0,0,0,0,0-.2,0-.5-.1-.8-.2ZM47.2,38.7c.1-.4-.2-.5-.4-.6-.4-.2-1.1,0-1.1.6,0,.4.3.9.7,1.1.1,0,.3,0,.4,0,.2-.3.5-.6.4-1ZM51.2,31.4c-.3-.4-.3-.8-.1-1.2,0,0,0-.2,0-.3-.2-.2-.3-.4-.6-.6-.1,0-.3-.1-.5-.2-.2,0-.2,0-.2.2,0,.5,0,1.1.4,1.5.3.2.5.5,1,.5ZM40.2,60.5s0,0,0,0c.3.3.3.3.6,0,.1-.2.3-.2.4,0,0,0,0,.1,0,.2,0,0,.2.2.2.2,0,0,.2,0,.2-.2.3-.4,0-.8-.4-.8-.5,0-1,0-1.5-.3-.2,0-.5,0-.4.2,0,.2.2.5.3.7.1.1.3.1.5.2ZM21.4,30.5s-.2,0-.2,0c0,.2,0,.4.2.5.2,0,.3,0,.4-.1.1-.2.2-.3.4-.5.2-.4.5-.7.7-1.1.2-.3.3-.7.5-1,0,0,0-.2,0-.3,0,0,0-.1,0-.2,0,0-.2,0-.2.2,0,.1-.1.3-.2.3-.5,0-.6.5-.7.9,0,.2-.2.5-.2.7,0,.3-.3.6-.6.5ZM42.3,38.8s0,0,0,0c0-.1,0-.2,0-.3,0-.3-.2-.6-.5-.7-.3,0-.6,0-.8.2-.3.3-.1,1,.3,1.2.1,0,.3.1.4.2.3.1.5,0,.5-.3,0-.1,0-.2,0-.4ZM22.8,56.9c.1,0,.3,0,.3-.1.2-.4.5-.7.3-1.2,0-.2,0-.4-.3-.4-.3,0-.5,0-.7.2-.1.2-.2.4-.3.6-.1.4.3,1,.7,1ZM62.6,26.3c-.2,0-.4,0-.6.2-.2,0-.2.2,0,.4,0,.1.2.2.3.3.2.2.4.4.7.6.3.2.7,0,.7-.4,0-.6-.4-1-1-1.1ZM39,39.1h0c0-.1,0-.3,0-.4,0-.2-.1-.4-.3-.4-.2,0-.4,0-.6,0,0,0,0,.2-.1.3,0,.2,0,.3-.1.5-.2.5,0,1,.7,1,.2,0,.3,0,.3-.2,0-.3,0-.5.1-.8ZM51,24.8c-.3,0-.4.1-.4.3,0,.2-.2.4,0,.5.2.1.4.4.7.1,0,0,.3,0,.3,0,0,.4.4.4.6.5.2.1.2-.1.3-.2,0,0,0-.3,0-.3-.4-.1-.6-.5-.8-.8-.2-.3-.3-.3-.6-.1,0,0-.1,0-.1,0ZM49.8,25.4c.2,0,.4,0,.4-.3,0-.3-.2-.2-.3-.2-.2,0-.4,0-.5-.1-.5-.4-1-.5-1.6-.5-.3,0-.4.2-.5.3,0,0,.2.2.3.2.1,0,.2,0,.3,0,.4,0,.8.2,1.2.3.2,0,.4.1.7.2ZM46.8,40.4s0,0,0,0c.1.2.4.4.6.5,0,0,.2,0,.2,0,.2-.2.4-.5.6-.7.2-.2.3-.3.5,0,.2.2.3.4.4.6.2.3.5.3.7,0,.1-.2,0-.2-.1-.3,0,0-.1,0-.2,0,0,0,0,0,0,0-.3-.3-.7-.5-1-.8-.1-.1-.3,0-.4,0-.2.3-.4.5-.6.8,0,.1-.2.2-.3,0-.1,0-.3-.1-.5-.2ZM60,50.9h-.2c0,.2-.1.4,0,.5.1.2.3.4.5.5.1,0,.3,0,.4,0,0,0,.2-.2.1-.2-.2-.3,0-.4.2-.6,0,0,.2-.2.3-.3.2-.3,0-.5-.2-.6-.1,0-.2-.2-.3-.2,0,0-.1-.1-.2-.2-.2.2-.3.4-.1.6.3.3.2.6.2.8,0,.1-.2.3-.3.3,0,0-.2-.2-.3-.3,0,0,0-.1,0-.2ZM31,30.1c.1,0,.3-.1.3-.2.4-.3.7-.6,1.1-.9.2-.1.3-.2.5-.4,0,0,.1-.3.1-.3-.1-.1-.3-.2-.5-.3,0,0-.2.2-.2.3-.1.3,0,.6-.5.7,0,0,0,.1-.1.2-.2.2-.3.4-.6.5,0,0-.2.2-.2.3,0,0,.1.2.2.3ZM35.1,26.5c0,.5.1.6.5.4,0,0,.1,0,.2-.1.2-.1.5-.2.7-.4.2-.1.4-.3.4-.5,0-.1-.5-.5-.7-.4-.2,0-.3.3-.3.6,0,.1,0,.2,0,.3-.1,0-.2,0-.3-.1,0,0,0,0,0,0,0,0-.2-.1-.2-.1,0,0-.2.1-.2.2,0,0,0,.2,0,.2ZM29.9,40.1c0,0,.1,0,.2,0,.3,0,.4-.2.4-.4,0,0-.2-.2-.3-.3-.1,0-.3-.1-.4-.2-.4-.2-.7-.5-1.1-.7,0,0-.2,0-.3,0,0,.1,0,.3,0,.3.2.2.4.3.5.5.1.1.3.3.4.4.1.2.3.3.5.3ZM43.7,60.2c-.1,0-.2,0-.3,0-.4,0-.8-.1-1.2-.2,0,0-.2,0-.2.1,0,.4,0,.6.5.9.1-.2.3-.4.4-.6,0,.2,0,.3.1.4,0,.1.1.2.2.3,0,0,.2-.2.3-.3,0-.2.1-.4.2-.6ZM26.5,45.6c-.5.3-.5.5-.3,1,0,0,0,.2,0,.3,0,.2,0,.3.2.4.3.1.3.2,0,.4,0,0-.1.1-.1.2,0,0,0,.2,0,.2.2.1.6-.1.6-.4,0-.1,0-.3,0-.4,0-.2-.2-.5-.3-.7,0-.3-.1-.6-.2-1ZM34.4,58.1c.1-.2.2-.4.4-.6,0,.2,0,.4.1.5,0,.1.1.3.2.4.2.2.3,0,.4-.1,0-.1,0-.2,0-.3,0-.1,0-.3-.1-.4-.3-.2-.7-.4-1-.6,0,0-.2,0-.2,0-.1.2,0,.7.2,1ZM59,31.7s0,.1,0,.2c.2.3.4.6.6.9.1.2.2.4.4.6,0,0,.1,0,.2.1,0,0,.1-.2,0-.3-.1-.3-.3-.5-.4-.8,0-.1-.1-.2-.1-.3,0-.4,0-.6-.4-.6,0,0,0,0-.1,0-.2-.1-.3,0-.3.2ZM62.4,46.5c.4,0,.5,0,.5-.5,0-.3,0-.7,0-1,0-.2,0-.4.2-.6,0,0,0-.2.1-.3,0,0-.2,0-.2,0,0,0-.2.1-.2.2,0,.3-.2.6-.3.9,0,.3-.2.5-.3.8,0,.1-.2.3-.1.4,0,0,.2.1.3.2ZM61.3,48.1h0c0,.1,0,.2,0,.2,0,.2.3.4.5.4.1,0,.3-.3.3-.3,0-.3,0-.6.2-.9,0,0,0-.2,0-.3,0,0-.2-.2-.3-.2,0,0-.1.2-.2.3,0,0,0,0,0,0,0,.3-.2.4-.4.5-.1,0-.2.2-.3.3ZM18.9,38.5c-.3-.4-.2-.8-.1-1.3,0-.3,0-.3-.3-.4,0,.2,0,.3,0,.4,0,.3-.2.7-.5.7-.2,0-.4,0-.6,0,0,0-.2.2-.2.3,0,0,0,.2.1.2.5,0,1,0,1.6,0ZM56.2,41s0,0,0,0c0-.2,0-.5-.1-.7,0,0-.1,0-.2-.1,0,0-.1.1-.1.2,0,.5,0,1,0,1.5,0,.1,0,.3.1.3,0,0,.3,0,.3,0,0,0,0-.2,0-.3,0-.3,0-.5-.1-.8ZM53.8,18.4c.1,0,.2-.1.3-.2-.1-.1-.2-.2-.3-.3,0,0,0,0-.1,0-.3,0-.6-.1-.7-.4,0,0-.3-.1-.4-.1,0,0-.2,0-.2.1,0,.2.3.7.5.6.2,0,.4,0,.6.1.1,0,.3.1.5.2ZM57.5,28.1c-.1,0-.2-.2-.4-.2-.3.3-.6.5-.8.8,0,0,0,.2,0,.2.2.1.4.3.6.4.2-.4.4-.8.6-1.2ZM29.2,32.6c-.1,0-.2-.2-.3-.1-.2,0-.4,0-.4.2,0,.4,0,.8-.4,1,0,0,0,.2,0,.3,0,0,.2,0,.2,0,.1-.2.2-.3.4-.5.1-.2.2-.3.3-.5,0,0,.1-.2.2-.4ZM50,17s0,0,0,0c0,0-.1,0-.2,0,0,0-.2,0-.2.1,0,0,.2,0,.2.1.4.1.7.2,1.1.3.2,0,.4,0,.6.1.2,0,.2-.1.2-.2,0-.1-.1-.3-.2-.3-.5,0-1,0-1.5-.1ZM72.1,42.2c0,0-.1,0-.1,0,0,.7,0,1.3-.1,2,0,0,0,.2,0,.2,0,0,.2.2.3.2,0,0,.2-.2.1-.2,0-.2,0-.4,0-.6,0-.2-.1-.4-.1-.6,0-.3,0-.7,0-1ZM47,16.6c-.2-.3-3.4-.5-4-.3.1,0,.2,0,.3,0,.9,0,1.8,0,2.6.1,0,0,.1,0,.2,0,.3,0,.6,0,.9,0ZM17.2,39.2s0,0,0,0c0,0-.2.1-.2.2,0,0,0,.3.1.3.4,0,.7.1,1.1.1,0,0,.2-.1.3-.2,0,0-.1-.3-.2-.3-.3,0-.7,0-1,0ZM43.2,18.7c.3.2.5.3.7.1.1-.1.3-.4.2-.5-.1-.2-.4-.4-.6-.5,0,.2.1.4,0,.6,0,.1-.3.2-.4.4ZM30,30.4c-.2.4-.3.7-.5,1,0,.1-.2.3,0,.4.2.1.4,0,.4-.2,0-.3.2-.7.2-1,0,0,0-.2-.1-.3ZM59.9,20.8c0,.3,0,.5.2.6.2.2.4.4.6.6,0,0,.2,0,.3,0,0,0,.1-.2,0-.2,0,0-.2-.1-.2-.2-.1,0-.3-.1-.4-.2-.2-.2-.4-.5-.6-.7ZM26.5,23.4s0,0,0,0c0,0-.1-.2-.2-.2,0,0-.2,0-.3,0,0,0,.1.1.2.2,0,0,.1,0,.2,0ZM69.3,50.6c.4,0,.5-.1.4-.3-.1,0-.3.2-.4.3ZM26.4,45.2s0,0,0,0c-.1,0-.3,0-.4,0,0,0,0,0,0,.1,0,0,.1,0,.1,0,.1,0,.2,0,.3-.1Z"/>
  <path class="cls-1" d="M11.9,48.8c-.2-.8-.4-1.6-.5-2.3-.2-1.5.5-2,1.8-2.3,0,0,.2,0,.2,0,0,0,0,.2,0,.3-.7.4-.5,1.1-.4,1.7.3,1.5.7,2.9,1.1,4.4.7,2.5-.4,4.1-2.5,4.9-1.3.5-2.6.8-4,1.2-.7.2-1.3.3-2,.5-.1,0-.3,0-.4,0-.6-.5-1.3-1-1.9-1.5,0,0-.1-.3-.1-.4.1-1.2.1-2.3,0-3.5-.2-1.6-1-2.9-2.1-4,0,0-.1-.2,0-.3,0-.2.2-.2.4,0,.8.8,1.6,1.5,2.4,2.2.5.5,1.2.8,1.9.9.7,0,1.3,0,2-.2,1-.2,2-.4,3-.6.4,0,.7,0,1.1,0,.1,0,.2,0,.4,0-.3-.6-1.3-1.2-1.9-1.1-1.1.2-2.2.5-3.3.7-1,.2-1.9,0-2.7-.5-.9-.6-1.7-1.3-2.5-1.9,0,0,0-.1-.1-.2.2-.3.3-.3.6-.1.6.5,1.2,1,2,1.1.5,0,1,0,1.4-.3.7-.5.6-1.1,0-1.5,0,0-.1,0-.2-.1,0-.3.2-.3.5-.3,1,.2,1.4.7,1.4,1.7,0,.2,0,.3.3.2.7-.2,1.4-.3,2.1-.2.8,0,1.5.6,2.1,1.1,0,0,.1.1.2.2ZM12.5,51.9c0-.2,0-.4,0-.5,0-.2-.1-.3-.4-.3-.8.2-1.6.3-2.5.5-.1,0-.3.2-.4.3-.4.9-.2,1.8.6,2.4,0,0,.2,0,.3,0,.4-.1.7-.3,1.1-.4.9-.4,1.3-1.1,1.3-2.1ZM4.5,50.4c.1.5.3,1,.4,1.5,0,0,.2.1.3.1,2.3-.5,4.6-.9,6.9-1.4.1,0,.3-.1.3-.2,0-.2,0-.3-.3-.3-.6,0-1.1-.1-1.7,0-.9.1-1.8.4-2.7.6-.6.1-1.3.3-1.9.1-.4-.1-.8-.2-1.2-.4ZM4.9,55.6c.6-.1,1.2-.3,1.8-.4,0,0,.1,0,.2-.2.5-.8.3-1.8-.3-2.4-.2-.3-.5-.4-.9-.3-.2,0-.3,0-.5.1-.3,0-.3.2-.3.4,0,.6,0,1.3,0,1.9,0,.3,0,.5,0,.8ZM9.4,54.6c-.9-.8-1.1-1.7-.6-2.8-.7.1-1.3.3-2,.4.9.8,1.1,1.8.6,2.9.7-.2,1.3-.3,2-.5Z"/>
  <path class="cls-1" d="M69.4,72.2c-.6-.6-1.2-1.1-2-.9-.5,0-.8.4-.8.9,0,0-.1.2-.2.3,0,0-.2-.1-.2-.2-.3-.8,0-1.5.8-1.8.1,0,.3,0,.5-.2-1.3-.9-1.4-2.4-1.5-3.8,0,.3-.2.6-.3.8-.2.5-.5.9-.9,1.2,0,0-.1,0-.2.1-.6.4-.8.9-.6,1.6,0,.2.1.3.1.5,0,0,0,.2,0,.2,0,0-.2,0-.2,0-.5-.8-.9-1.6-.7-2.6.1-.5.4-.8.8-1.1.2-.1.4-.2.6-.3.6-.3,1.1-.8,1.2-1.4,0-.2.1-.3.3-.3,0,0,.2.2.2.3.6,1.7,1.6,3,2.8,4.2.4.4.8.8,1.3,1.2.7.6.9,1.4.9,2.3,0,.7,0,1.5,0,2.3.2-.7.4-1.3.6-2,.3-1.1,0-2-.8-2.8-.7-.7-1.4-1.3-2-2-1.1-1.1-1.9-2.5-2.4-4,0,0,0,0,0-.2.2-.1.4-.1.5.2.4,1.1.9,2.2,1.7,3.1,0,0,.2.2.3.3,0-.3,0-.6,0-.9,0-.8,0-1.6,0-2.4,0-.3,0-.4.4-.3.7.1,1.5.2,2.2.3.2,0,.3.1.2.3,0,1-.2,1.9-.3,2.9,0,0,0,.2,0,.3,0,0,.1.2.2.1,1.2-.2,2.4.1,3.5.5.4.1.9.3,1.3.4.4,0,.5,0,.5-.4,0-.1,0-.3,0-.4,0-.1,0-.3.1-.3.2,0,.3,0,.3.3,0,.3,0,.6,0,.8,0,.5,0,.9,0,1.4,0,.2,0,.3-.3.3-.5,0-1-.2-1.5-.3-.3,0-.6-.2-1-.3,0,.7.2,1.3.3,1.9,0,.3,0,.6.1.8,0,.2,0,.3-.2.4-.6.3-1.3.6-1.8,1-1,.7-1.6,1.7-1.9,2.8,0,.2-.1.3-.4.2-.2,0-.2-.1-.2-.3,0-.9,0-1.9-.2-2.8-.1-.5-.4-1-1-1.2-.5-.1-.8.1-.9.6,0,0-.1.2-.2.3,0,0-.2-.1-.2-.2-.3-.7,0-1.4.8-1.7.1,0,.2,0,.4-.1ZM72.4,73.2c0,0,.1,0,.2,0,.6-.5,1.3-1,2.1-1.2,0,0,.1-.2.1-.2,0-.4,0-.8-.2-1.1,0-.1-.2-.3-.3-.3-.4-.1-.8-.2-1.3-.2-.6,0-1.2,0-1.7.5.7.7,1.1,1.6,1,2.7ZM71,70.1s0,0,0,0c.1-1.2.2-2.4.4-3.6-.6,0-1.1-.2-1.7-.2,0,0-.2.1-.2.2,0,.7,0,1.4,0,2,0,0,0,.1,0,.2.5.5,1,1,1.5,1.5Z"/>
  <path class="cls-1" d="M3.2,31c-.4-1.2-.7-2.3-1.1-3.4.1,0,.2,0,.3-.1,1.2-.3,2.5-.6,3.7-.9.2,0,.3,0,.4.2.2.7.4,1.4.7,2.1,0,.1,0,.2.1.3.3-.2.6-.3.9-.5,1-.5,2-.6,3-.5.5,0,1,0,1.4.1,0,0,.2,0,.3,0,.6,0,.6-.1.4-.6,0-.1-.1-.3-.2-.4.3-.3.4-.2.5,0,.3.6.5,1.1.8,1.7.1.2,0,.3-.2.4-.6.4-1.3.3-1.9.2-.9,0-1.9-.2-2.8,0-.6.1-1.1.5-1.5.9-.3.3-.2.7.2.8.9.3,1.8.7,2.7,1,.2,0,.3,0,.4,0,.2-.2.5-.5.7-.7.1-.1.2-.2,0-.4-.1-.2-.2-.5-.3-.7.3-.2.4-.2.5.1.3.6.5,1.2.8,1.8.1.3,0,.4-.1.6-.5.4-.9.8-1.3,1.3-.8,1.2-1.2,2.5-.7,3.9,0,0,0,.2,0,.3,0,0-.2,0-.3-.1-.7-1-1.1-2.1-.9-3.3,0-.2,0-.3-.2-.3-1.6-.6-2.9-.2-4.1.9-.1,0-.2.2-.3.3-.2.1-.4,0-.5-.1-.3-1-.5-1.9-.8-2.9,0-.1-.2-.3-.3-.3-.4-.1-.9-.3-1.3-.3-1,0-1.6.7-1.3,1.7,0,0,0,.2,0,.2,0,0,0,.2-.2.2,0,0-.2,0-.2,0-.5-.7-.6-1.5-.3-2.4.3-.8.9-1.2,1.7-1.3.2,0,.4,0,.7,0,.1,0,.2,0,.5,0ZM7.4,31.3c-.3-1.1-.6-2-.9-3,0,0-.2-.2-.3-.2-1,.2-2,.5-3,.7,0,0-.1,0-.2.1,0,.2.3.8.4.9.4.1.8.3,1.1.4.9.3,1.8.7,2.8,1ZM3.4,30.3c0,.2.1.4.2.6,0,.2.2.4.4.5.4.1.8.3,1.2.4,1.6.6,3.2,1.2,4.9,1.8,0,0,.3,0,.3,0,.1-.1.2-.3.4-.5-2.5-.9-4.9-1.8-7.4-2.7ZM4.4,33.1s0,0,0,0c.2.5.3,1.1.5,1.6.5-.3,1.1-.6,1.6-.9-.7-.3-1.4-.5-2-.8Z"/>
  <path class="cls-1" d="M32,9.9c.2-.4.3-.7.2-1.1-.4-1.4-.8-2.8-1.2-4.1,0-.3,0-.5,0-.8.6-1,1.2-2,1.7-3,.1-.2.2-.3.4-.2,1,.2,2,.1,2.9-.2.2,0,.4.1.3.4-.2.5-.4.9-.7,1.4,0,0-.2.1-.3.1-.8.1-1.5,0-2.2-.1,0,0-.1,0-.2,0,0,0,0,0,0,0,0,0,0,.2,0,.2.8,2.7,1.7,5.5,2.5,8.2,0,.3.2.3.5.2,1.1-.4,1.9-1.1,2.5-2.1,0-.1.1-.2.2-.3,0,0,.2-.1.2-.1,0,0,.2.2.2.3-.3,1.3-.9,2.4-2,3.2-.8.6-1.8,1-2.8,1-1.3,0-2.4-.4-3.3-1.3-1.5-1.4-2.2-3.2-2.1-5.3.1-1.5.8-2.7,1.7-3.8,0,0,.2,0,.2,0,0,.1,0,.2,0,.3-.4.6-.7,1.3-.9,2-.4,2.1.2,3.9,1.8,5.3,0,0,0,0,0,0ZM32.6,2.2c-.4.5-.6.9-.3,1.5.4,1,.6,2.1,1,3.2.2.5.2,1,0,1.5-.2.5-.5,1-.7,1.5-.1.2,0,.3.1.4.3.1.6.3.9.4.6.2,1.2.3,1.8.1-.9-2.9-1.8-5.8-2.7-8.8Z"/>
  <path class="cls-1" d="M16.4,13.5c.5.5.9.9,1.4,1.3-.4.3-.7.5-1.1.8.2.2.4.4.6.5.8.7,1.5,1.4,2.3,2.1.5.5,1.2.8,1.9.9.3,0,.6.1.9.2.5.2.8.5.7,1,0,.6-.2,1.3-.3,1.9,0,0-.1.2-.2.2-1.1.5-1.8,1.4-2.3,2.4,0,.1-.2.3-.3.3-.2,0-.2-.2-.3-.4-.1-.8-.3-1.6-.4-2.4-.5,0-1,0-1.6.2-.4,0-.7,0-1-.3-1.2-1.2-2.5-2.3-3.7-3.5-.2-.2-.2-.3,0-.5.4-.7.6-1.4.7-2.2,0-.2,0-.3.3-.3.6-.2,1.2-.4,1.8-.6.3,0,.4-.2.4-.5,0-.4.2-.7.3-1.2ZM19,21c0-.4-.1-.8-.2-1.2,0-.2-.1-.3-.2-.4-.8-.7-1.6-1.5-2.3-2.2-.5-.5-.5-.5-1.2-.2-.4.2-.7.3-1.1.5,0,0,0,0,0,.1,1.2,1.1,2.4,2.3,3.6,3.4,0,0,.2.1.2.1.4,0,.8,0,1.2-.1ZM19.8,23.3c0-.1.2-.2.2-.3.4-.6.9-1.2,1.6-1.5.2-.1.5-.2.7-.3,0,0,.1-.2.2-.2,0,0-.2,0-.2,0-1.1,0-2.1-.1-3.1-.8.2,1.1.4,2.2.5,3.3Z"/>
  <path class="cls-1" d="M73.3,25.7c0-.6.2-1.2.2-1.8,0-.2,0-.4.3-.5,1.5-1,3-1.9,4.6-2.9.2-.1.3-.1.5,0,.6.5,1.2.9,1.9,1.2.2,0,.3.2.3.4,0,.7,0,1.3.2,2,0,.1.1.3.3.4.3.2.7.4,1.1.6-.6.4-1.1.7-1.6,1-.2-.4-.3-.8-.4-1.2,0,0-.2,0-.2.1-1,.7-2.1,1.3-3.1,2-.6.4-1,.9-1.3,1.5-.1.3-.2.5-.4.8-.3.6-.8.7-1.4.5-.5-.2-1-.5-1.6-.7,0,0-.1-.1-.2-.2-.2-1.3-1-2.2-1.9-3,0,0-.1-.2-.1-.3,0,0,.2-.1.3-.2,0,0,0,0,.1,0,.8,0,1.6.1,2.4.2,0,0,0,0,.2,0ZM74.7,25.9c.5,0,.9,0,1.4,0,0,0,.1,0,.2,0,1.1-.7,2.2-1.4,3.3-2.1,0,0,.2-.2.1-.3,0-.6-.2-1.2-.3-1.8,0,0-.1,0-.1,0-1.4.9-2.8,1.8-4.2,2.7,0,0-.1.1-.1.2,0,.4-.1.8-.2,1.2ZM72.4,26.1s0,0,0,0c0,0,0,0,0,0,.8.8,1.3,1.8,1.3,2.9,0,0,0,.1.1.2,0,0,.1,0,.2-.2,0,0,0-.1,0-.2.3-.9.6-1.9,1.4-2.5,0,0,0,0,0,0-1,0-2.1-.2-3.1-.3Z"/>
  <path class="cls-1" d="M40.7,79.9c.8-.7,1.5-1.4,2.3-2.1,0,0,0,.1.1.2.4.5.7,1.1,1.1,1.6.1.2.1.3,0,.4-.4.4-.8.7-1.3,1.1,0,0-.2.2-.3.3,0,0,.1.2.2.2.6.7.8,1.5.8,2.4,0,.4,0,.7.1,1.1,0,.3.1.4.4.2,0,0,.1,0,.3-.2,0,.2,0,.4,0,.4-.5.4-1.1.8-1.7,1.2-.5-.5-.5-1.2-.5-1.9-.6.5-1.2.9-1.7,1.4-.4.3-.3.3-.6,0-.4-.4-.8-.7-1.2-1-.3-.2-.3-.2,0-.4.4-.4.4-.9.5-1.3.2-2.3.4-4.5.5-6.8,0-.6,0-1.1-.5-1.5,0,0,0-.2,0-.3,0,0,.2,0,.2,0,.3.2.7.5,1,.8,0,0,.2-.2.3-.3.4-.3.8-.5,1.3-.5,0,0,.2,0,.3,0,0,0,0,.2-.1.2-.7.5-.9,1.1-.9,1.9,0,.9-.2,1.8-.2,2.7,0,0,0,.1,0,.3ZM42,79.2c-.3.3-.6.6-.8.8-.4.3-.6.6-.6,1.1,0,.4,0,.9,0,1.4.8-.7,1.5-1.3,2.3-1.9,0,0,0-.2,0-.2-.2-.4-.5-.8-.8-1.2ZM40.4,84.4s0,.1,0,.2c.2.2.4.4.6.5,0,0,.2,0,.2,0,.3-.2.5-.4.8-.7,0,0,.1-.1.1-.2,0-.6-.2-1.3-.7-1.7,0,0-.2,0-.2,0-.3.3-.8.5-.8,1,0,.3,0,.6,0,.9Z"/>
  <path class="cls-1" d="M11.7,58.9c.8.3,1.6.6,2.3.9.4.2.4.1.2.5-.2.8-.7,1.4-1.5,1.7-1.4.7-2.8,1.4-4.2,2-.1,0-.3.1-.4,0-.5-.6-1.2-1-2-1.3-.2,0-.2-.2-.2-.4.3-.9.3-1.9,0-2.8,0-.2,0-.3.2-.2.4.2.8,0,1.2-.2,1.1-.5,2.2-1.1,3.4-1.6.3-.2.6-.4.7-.7.8-1.2,1.8-1.5,3.1-.9.2,0,.4.2.5.3,0,0,0,.2,0,.2,0,0-.1.1-.2,0-.2,0-.4-.1-.6-.2-.5-.1-.8,0-1.1.5-.1.2-.2.4-.3.6-.3.5-.7.9-1.3,1.2ZM7.7,62.8c0,0,.2,0,.2-.1.7-.3,1.4-.7,2.1-1,.6-.3,1.2-.6,1.8-.8.4-.2.8-.4.9-.9,0-.2,0-.3-.2-.3-.4-.1-.7-.3-1.1-.4,0,0-.2,0-.3,0-1.1.5-2.2,1-3.2,1.6,0,0-.2.1-.2.2,0,.6,0,1.2,0,1.9Z"/>
  <path class="cls-1" d="M83.3,35.2c-.1.5-.3,1-.4,1.5,0,.2-.2.4-.4.4-.9.2-1.8.5-2.7.8-.2,0-.3,0-.4-.2-.3-.6-.8-1-1.4-1.3-.2-.1-.3-.2-.2-.5,0-.4.1-.7.1-1.1,0-.6-.3-1.1-.9-1.4-.1,0-.3-.2-.2-.4.1-.2.3-.2.5-.1.9.3,1.8.6,2.7.9.3,0,.4,0,.4-.3,0-.4.2-.8.3-1.1,0-.1.2-.3.3-.3.8-.3,1.7-.5,2.5-.7.2,0,.3,0,.4.1.4.6.9,1,1.6,1.2.2,0,.2.2.2.4,0,.6-.3,1.3,0,1.9,0,.2.2.4.3.6.2.3.5.2.8,0,.2-.2.3-.4.6-.4.2,0,.4,0,.5.2,0,.1,0,.4-.1.5-.2.2-.5.3-.8.3-.4,0-.9,0-1.3-.2-.7-.2-1.3-.4-2-.6-.1,0-.2,0-.3,0ZM79.2,36.5c.2,0,.2,0,.3,0,.3,0,.6-.2,1-.3.7,0,1-.4,1.1-1.1,0-.2,0-.3-.2-.4-.8-.2-1.5-.5-2.3-.7,0,0-.1,0-.3,0,.6.8.6,1.6.4,2.5ZM84.3,32.8c-.7.2-1.3.4-2,.6,0,0-.1,0-.1.1,0,.3-.2.6-.3.9.8.3,1.7.5,2.6.8-.5-.8-.5-1.6-.2-2.4Z"/>
  <path class="cls-1" d="M28.2,75.3c-.5.1-.9.2-1.4.4,0,0-.2.1-.3.2-.7,1.2-1.3,2.4-1.9,3.5,0,.2,0,.5,0,.7,0,.2,0,.3-.2.4-.4,0-.8.2-1.2.3-.2,0-.2,0-.3-.1-.1-.4-.3-.9-.4-1.3,0-.2,0-.2.1-.3.5,0,.7-.4.9-.8.6-1.1,1.2-2.2,1.8-3.4.1-.2.2-.4.2-.7,0-.3,0-.4-.4-.4,0,0,0,0-.2,0-.1-.2-.1-.4.2-.4.5-.1,1-.3,1.6-.4.2,0,.3,0,.4.2.2.6.3,1.2,0,1.8,0,0,0,0,0,0,0,0,0,0,0,0,.8-.2,1.5-.4,2.3-.6,0,0,.1,0,.2,0,.2,0,.3,0,.3.2,0,.4.1.8.2,1.2.3-.1.6-.2.9-.3.2.2.1.4-.1.4-.6.2-1,.6-1.3,1.1-.6,1.2-1.3,2.3-1.9,3.5,0,.2-.2.4-.2.6,0,.3,0,.4.3.4,0,0,.2,0,.3,0,0,.2,0,.3-.2.4-.5.1-1.1.3-1.6.4-.2,0-.3,0-.3-.2-.2-.6-.2-1.1,0-1.6.6-1.2,1.3-2.3,1.9-3.5,0-.2.2-.4.3-.5.3-.4.2-.9,0-1.4Z"/>
  <path class="cls-1" d="M9.2,65.6c.3-.1.6-.2.8-.4.9-.6,1.7-1.2,2.5-1.8.4-.3.8-.6,1.3-.9,0,0,.3,0,.4,0,.6.4,1.3.7,2,.8.2,0,.3.1.3.3,0,.8.2,1.5.4,2.3,0,.2,0,.3-.1.4-1.5,1.1-3.1,2.2-4.6,3.3-.2.1-.3.1-.4,0-.7-.4-1.3-.7-2.1-.9,0,0-.2-.2-.2-.3,0-.5,0-1-.1-1.4,0-.4-.3-.8-.4-1.2,0-.1-.1-.2,0-.3,0,0,.2,0,.3-.1,0,0,0,0,0,.1ZM11.1,68.5c.1,0,.2-.2.3-.2,1.1-.8,2.2-1.6,3.4-2.4.3-.2.5-.5.4-.9-.1-.4-.2-.9-.3-1.3-.1,0-.1,0-.2,0-1.3.9-2.6,1.8-3.8,2.8,0,0-.1.2-.1.3,0,.5.2,1.1.3,1.7Z"/>
  <path class="cls-1" d="M57.3,5.7c-.2.6-.3,1.1-.5,1.6-.4,1.3-.8,2.6-1.1,3.9,0,.2-.2.4-.4.4-.7.1-1.4.2-2.1.6,0,0-.2,0-.3,0-.3-.3-.5-.5-.7-.8-.4-.4-.8-.7-1.4-1-.3-.1-.3-.2,0-.4.4-.2.5-.6.6-1,.4-1.3.8-2.6,1.1-3.9.1-.4.3-.6.7-.7.6,0,1.2-.3,1.8-.5.2,0,.2,0,.4,0,.5.6,1.1,1.1,1.8,1.6,0,0,.1.2.2.2ZM54.1,4.9c0,0,0,.1,0,.1-.4,1.5-.9,3-1.3,4.6,0,0,0,.2,0,.2.4.4.9.8,1.4,1.2,0-.2,0-.3.1-.4.4-1.3.7-2.6,1.1-3.9.2-.5,0-.8-.3-1.1-.3-.2-.6-.5-.9-.8Z"/>
  <path class="cls-1" d="M44.5,2.9c-.1.3-.3.7-.4,1,0,.7,0,1.4,0,2.1,0,.8.1,1.6.2,2.4,0,.3,0,.6.1.8,0,.4.3.5.6.2,0,0,0,0,.1-.1.2.1.3.3,0,.5-.4.4-.7.8-1.1,1.3-.1.1-.2.2-.4,0-.5-.4-.8-1-.9-1.7-.3.3-.5.5-.7.7-.4.4-.7.8-1.1,1.2,0,0-.2.1-.3,0-.8-.7-1.4-1.5-1.3-2.6,0-.8.3-1.6.8-2.2.4-.6.4-1.1,0-1.7-.2-.3-.3-.6-.5-1-.1-.3,0-.4.3-.4.6,0,1.1-.2,1.4-.7.1-.2.3-.2.5,0,.6.2,1.1.4,1.7.5.2,0,.4,0,.5-.2,0-.2.2-.2.4,0ZM41,6.1c-.6,1.4-.3,3.1.9,3.7.3-.3.5-.6.8-.9,0,0,0-.2,0-.3,0-.5,0-1.1,0-1.6,0-.1,0-.3-.2-.3-.5-.2-1-.5-1.5-.7ZM40.2,3.8c.3.7.6,1.3.9,1.8,0,0,0,0,0,.1.5.2,1,.5,1.5.7,0-.7,0-1.3-.1-1.8,0,0,0-.2-.1-.2-.7-.2-1.4-.4-2.2-.6Z"/>
  <path class="cls-1" d="M19.8,76.5c-.5,0-1.1.1-1.6.2-.3,0-.6,0-.9,0-.2,0-.3,0-.3-.2-.2-1.2,0-2.2,1-3,.7-.5,1.4-.9,2.2-1.1.3,0,.4-.2.5-.5.1-.5.3-1,.4-1.6,0-.4.2-.4.5-.2.4.4.9.5,1.5.4.2,0,.3,0,.4.2.3.5.6,1,.9,1.5.1.2.3.3.6.2.2,0,.3,0,.3.2-.1,0-.3.1-.4.2-.5.2-.9.6-1.2,1-.8,1.1-1.6,2.1-2.3,3.2-.1.2-.2.4-.3.6-.1.3,0,.4.3.4.1,0,.3,0,.3.1,0,0-.1.2-.2.2-.6.1-1.2.2-1.7.3-.2,0-.2,0-.3-.2-.1-.6,0-1.1.2-1.6,0,0,0,0,0-.1,0,0,0,0,0-.1ZM20.5,72.8c-.6.4-1,.7-1.4,1.2-.4.6-.5,1.3-.5,2,0,.2,0,.3.3.2.3,0,.6,0,.9-.1.1,0,.3,0,.4-.2.3-.4.6-.8.9-1.3,0,0,0-.2,0-.3-.2-.5-.5-1-.7-1.6ZM21.4,70.5c-.2.7-.3,1.3-.5,2,0,0,0,.1,0,.2.2.5.4,1,.7,1.5.4-.5.8-1,1.1-1.5,0,0,0-.2,0-.2-.4-.6-.8-1.2-1.3-1.9Z"/>
  <path class="cls-1" d="M79.5,64.7c.2.9.3,1.7.5,2.5,0,.3,0,.3-.3.4-1.5.4-2.6,0-3.5-1.4-.3-.5-.6-1-.8-1.6,0-.2-.2-.3-.4-.3-.6,0-1.2-.2-1.7-.3-.4,0-.4-.2-.2-.5.3-.5.4-1,.2-1.5,0-.2,0-.3.2-.5.5-.3.9-.7,1.3-1,.2-.2.2-.4.1-.6,0,0,0-.2,0-.3,0,0,.2,0,.2.1.4.7,1,1.2,1.6,1.5.9.5,1.9,1.1,2.8,1.7.2.1.5.3.7.4.3.1.4,0,.4-.3,0-.1-.1-.3.1-.3.2,0,.2.1.3.3.1.5.3,1.1.4,1.6,0,.2,0,.3-.2.4-.5.1-1.1.2-1.6-.1,0,0-.1,0-.3-.1ZM75.8,64.3c.3.6,1.1,1.2,1.8,1.5.5.2,1.1.2,1.6,0,0,0,.2-.1.2-.2,0-.4-.1-.7-.2-1.1,0,0-.1-.2-.2-.2-.4-.3-.9-.5-1.4-.8,0,0-.2,0-.2,0-.5.3-1,.6-1.5.9ZM77,63.1c-.5-.3-1-.6-1.5-.9-.2,0-.3,0-.4,0-.4.4-.9.8-1.4,1.1,0,0-.2.2-.3.3.7,0,1.3.2,1.9.3.1,0,.3,0,.3,0,.4-.2.9-.5,1.4-.8Z"/>
  <path class="cls-1" d="M56.5,83.1c.2.1.3.2.1.4-.3.5-.6.9-.9,1.4-.1.2-.2.2-.4,0-.6-.3-1-.8-1.1-1.5-.1.2-.2.3-.3.4-.4.6-.8,1.2-1.2,1.8-.1.2-.2.2-.4,0-1.3-.9-1.8-1.8-1.5-3.6.1-.5.3-1.1.5-1.6,0-.2,0-.4,0-.6-.3-.5-.7-.9-1-1.4-.2-.3-.1-.4.2-.5.5,0,.9-.3,1.2-.8.1-.2.3-.3.5-.2.5.1,1,.2,1.5.2.3,0,.6,0,.7-.4,0,0,.2,0,.3-.1,0,0,0,.2,0,.2-.3.9-.1,1.7.1,2.6.3,1.1.5,2.2.8,3.2,0,.1,0,.3.1.4.2.3.4.3.6,0,0,0,0-.1.1-.2ZM53.4,84.2c.2-.3.5-.7.7-1,0,0,0-.2,0-.3-.1-.5-.2-1-.3-1.5,0,0,0-.2-.1-.2-.6-.2-1.1-.3-1.7-.5-.4,1.5.3,3.2,1.5,3.6ZM50.8,78.5c0,0,0,.1,0,.1.4.5.7,1,1.1,1.5,0,0,0,0,.1.1.5.2,1,.3,1.6.5-.1-.5-.2-.9-.3-1.4-.1-.6-.1-.6-.7-.7-.6,0-1.2-.1-1.8-.2Z"/>
  <path class="cls-1" d="M78.9,46.2c.1,0,.2.1.3.2.5.4,1.1.6,1.8.7,1.3.2,2.5.3,3.8.5.1,0,.3,0,.4,0,.3,0,.4-.2.2-.5,0,0,0-.1-.1-.2.2-.2.3-.2.5,0,.4.5.8,1,1.2,1.5-.6.6-1.2.8-2,.7,0,.1,0,.2.1.2.4.6.8,1.3,1.3,1.9.1.2.1.3,0,.4-1.3.9-2.5,1-3.8.1-.5-.3-1-.8-1.4-1.1-.1-.1-.2-.2-.4-.1-.6.2-1.1.3-1.7.4-.4,0-.5,0-.4-.4,0-.5,0-1-.3-1.4-.2-.2-.1-.4,0-.6.3-.4.5-.9.7-1.4.1-.2.1-.5-.1-.7-.2-.1,0-.3,0-.4ZM85.3,50.3c-.2-.3-.4-.6-.7-.9,0-.1-.3-.2-.4-.3-.5,0-.9-.1-1.4-.2-.2,0-.3,0-.5.2-.2.4-.5.7-.8,1,0,0-.1.2-.2.2,1.4.9,2.8.9,3.8,0ZM82.1,48.8c-.6,0-1.2-.2-1.8-.3,0,0-.3,0-.3.2-.3.6-.6,1.2-.9,1.8,0,0,0,0,0,.2.7-.2,1.3-.3,2-.5,0,0,0,0,.1,0,.3-.4.6-.8,1-1.3Z"/>
  <path class="cls-1" d="M76.2,20.5c-.9-.1-1.8-.3-2.6-.4-.4,0-.8-.1-1.2-.2,0,0-.2,0-.3,0-.3.2-.6.5-.8.8,0,0,0,.2,0,.3.1.4.3.9.4,1.3,0,0,.1.2.2.2.3,0,.6.1,1,.2,0,0,.2.1.2.2,0,.2-.1.2-.3.2-.8-.1-1.7-.3-2.5-.4-.1,0-.2-.2-.3-.3-.1-.7-.4-1.4-.7-2.1-.2-.3,0-.3.2-.4.3,0,.5-.2.7-.3,1.1-1,2.2-1.9,3.3-2.9.5-.5.9-.6,1.5-.3.5.3,1.2.4,1.7.6.2,0,.3.2.2.4-.2.9-.4,1.9-.6,2.8,0,.1-.1.2-.2.3ZM75.5,17.1s0,0,0,0c-.9.8-1.7,1.6-2.7,2.4.6,0,1,.2,1.5.2.7.1.7.1.9-.6.1-.7.2-1.3.3-2Z"/>
  <path class="cls-1" d="M33.8,83.1c.2.2.1.3-.1.4-.8.3-1.6.6-2.4.9,0,0-.3,0-.4,0-.5-.6-1.1-1.1-1.7-1.5-.2-.1-.2-.2,0-.4.2-.2.4-.4.5-.6.5-1.4,1-2.8,1.4-4.2.3-.8.3-.8,1.1-.9.6,0,1.2-.2,1.7-.3.3,0,.4,0,.5.3.3.9.6,1.7.8,2.6,0,.2,0,.3-.2.4-1.1.4-2.2.8-3.3,1.2-.2,0-.3.2-.4.4-.1.4-.4.8-.3,1.1,0,.3.5.5.7.8.3.4.6.5,1.1.2.2-.1.5-.2.7-.3ZM33,77s0,0,0,0c-.4,1.1-.7,2.2-1.1,3.4.7-.3,1.3-.5,2-.7.2,0,.1-.2,0-.3-.2-.6-.4-1.2-.6-1.7,0-.2-.1-.4-.2-.6Z"/>
  <path class="cls-1" d="M65.3,79c.3,0,.3.2.2.4-.3.8-.7,1.5-1,2.3,0,.2-.2.2-.3.2-.8,0-1.5,0-2.3.2-.2,0-.3,0-.3-.3.1-.3,0-.6,0-.8-.5-.9-.9-1.9-1.4-2.8-.3-.6-.6-1.2-.9-1.8,0,0,0-.3,0-.4.5-.7,1-1.4,1.4-2.1.1-.2.2-.2.4-.1.8.4,1.7.8,2.5,1.2.3.1.3.2.2.5-.5,1-.9,2.1-1.4,3.1,0,.2,0,.3,0,.5.2.3.3.6.4.8,0,0,.2.2.3.2.4,0,.8,0,1.3,0,.2,0,.3,0,.4-.3.1-.3.3-.7.5-1ZM60.4,75.2s0,0,0,0c.5,1,1.1,2.1,1.6,3.2.3-.7.6-1.3.8-1.9,0,0,0-.2,0-.2-.8-.4-1.5-.7-2.3-1.1Z"/>
  <path class="cls-1" d="M16,23.1c.3-.1.4,0,.4.2.1.8.2,1.6.3,2.5,0,.2,0,.3-.2.4-.7.3-1.3.8-1.8,1.3-.2.2-.3.2-.4,0,0-.4-.4-.6-.7-.8-1.3-.8-2.6-1.6-3.9-2.3-.5-.3-.5-.3-.5-1,0-.7,0-1.4,0-2,0-.3,0-.3.3-.4.9,0,1.8-.2,2.7-.3.2,0,.4,0,.4.3.1,1.1.3,2.3.5,3.4,0,.2.1.4.3.5.3.1.5.3.7.4.2.1.3,0,.4,0,.3-.2.6-.5.9-.6.3-.1.3-.3.3-.6,0-.3,0-.6-.1-1ZM12.9,24.4c-.1-.8-.2-1.4-.3-2.1,0,0-.2-.2-.2-.1-.6,0-1.3.1-1.9.2-.2,0-.4,0-.6,0,0,0,0,0,0,0,1,.6,2,1.2,3.1,1.8Z"/>
  <path class="cls-1" d="M84.7,53.8c0-.1,0-.3-.1-.4.2-.2.4-.1.5.1.2.4.4.9.6,1.3,0,.2,0,.3-.1.4-.6.3-1.1.6-1.4,1.1-.1.2-.3.1-.3,0-.2-.4-.6-.6-1-.7-2.2-.7-4.4-1.3-6.6-2-.6-.2-1.2-.2-1.7.1,0,0-.2,0-.2,0,0,0,0-.2,0-.3.2-.2.4-.4.6-.5.1,0,.2-.1.3-.2-.2-.4-.3-.7-.5-1.1-.1-.4-.1-.7,0-1.2.1.1.2.2.3.3.2.7.8,1.1,1.5,1.4,1.2.4,2.3.7,3.5,1.1,1.2.4,2.3.7,3.5,1.1.3,0,.5,0,.7-.1.1-.1.3-.2.5-.3Z"/>
  <path class="cls-1" d="M59.4,12.7c.2.3.1.4-.1.5-.4.1-.9.3-1.3.4-.2,0-.3,0-.4-.2-.2-.6-.5-1.1-1-1.5-.2-.1-.1-.3,0-.3.4-.2.7-.6.8-1,.8-2.1,1.7-4.2,2.5-6.3.2-.6.4-1.2,0-1.8,0,0,0-.2,0-.2,0,0,.2,0,.2,0,.2.2.3.5.5.7,0,0,0,.2.2.3.2,0,.4-.2.6-.3.4-.2.9-.2,1.4,0,0,0,.1,0,.2.1,0,0-.1.2-.2.2-.8.2-1.3.8-1.6,1.5-.9,2.2-1.8,4.5-2.7,6.7,0,.1,0,.3,0,.5,0,0,0,.2.1.3.1.3.2.5.6.3Z"/>
  <path class="cls-1" d="M55.7,73.9c.1-.2.3-.5.4-.7.2-.4.5-.6.9-.8,0,0,.2,0,.2,0,0,0,0,.2,0,.3-.5.6-.5,1.3-.2,2,.8,2.4,1.5,4.7,2.3,7,0,.1.2.2.3.3,0,0,.2,0,.3.1.3.1.5.2.6-.2.3.1.4.2.2.5-.2.4-.5.8-.7,1.2-.1.2-.2.2-.4.1-.5-.3-1.1-.5-1.7-.5-.2,0-.3-.1-.2-.3.2-.4.1-.8,0-1.2-.7-2.2-1.5-4.4-2.2-6.6-.2-.6-.5-1-1.1-1.3,0,0,0-.1-.1-.2,0,0,.2-.1.3-.1.4,0,.7.2,1.1.3Z"/>
  <path class="cls-1" d="M45,79.7c-.2-.1-.2-.3,0-.4.4-.5.8-.9,1.2-1.4.5.4,1,.7,1.2,1.4.5-.6.9-1.1,1.4-1.6.3.3.5.6.8.9q.5.5,0,1.1c-.2.2-.4.4-.6.7-.3-.4-.6-.8-1-1.2-.5.4-.7.8-.6,1.4.1,1.2.2,2.4.3,3.7,0,.2,0,.4.3.5.2.1.4.2.6.4.2-.2.4-.5.6-.7.2.2.3.3,0,.5-.5.5-.9,1-1.3,1.5-.2.2-.3.2-.4,0-.5-.4-1-.8-1.6-.9-.2,0-.2-.2,0-.3.3-.3.4-.7.3-1.1-.1-1.4-.2-2.7-.3-4.1,0,0,0-.1,0-.2-.1-.4-.3-.4-.6-.1,0,0,0,0-.1.1Z"/>
  <path class="cls-1" d="M17,67.1c0-.3,0-.4.3-.4.6,0,1.1,0,1.7,0,.2,0,.2,0,.2.2,0,.5,0,1.1-.4,1.6h2.2c0,.4-.1.8-.2,1.2q-.1.8-.9.8c-.2,0-.4,0-.5,0-.2,0-.3-.1-.2-.3,0-.4.2-.8.3-1.2-.5,0-.9,0-1.3.3-.9.9-1.9,1.8-2.9,2.7-.2.2-.2.3-.2.5,0,.2,0,.5.1.6.1.1.4,0,.6.1,0,0,.2,0,.2.2,0,.2-.1.2-.3.2-.7,0-1.4,0-2.1-.1-.2,0-.2-.1-.2-.3,0-.3,0-.6,0-.9,0-.3-.1-.6-.2-.9,0-.3,0-.4.2-.4.4,0,.7-.2,1-.4.9-.9,1.9-1.8,2.8-2.6.1-.1.2-.2.3-.3,0-.1.1-.3,0-.4,0,0-.2,0-.4-.1,0,0,0,0-.1,0Z"/>
  <path class="cls-1" d="M46.4,4.1c-.2-.2-.2-.3,0-.4.4-.4.9-.7,1.3-1.1.1,0,.2-.1.3,0,.4.4.7.8.7,1.5.6-.5,1.1-.9,1.7-1.4.3.5.6,1,.9,1.5,0,0,0,.2,0,.2-.3.3-.7.6-1.1,1-.3-.5-.5-.9-.8-1.4-.4.3-.8.5-.8,1.1,0,1-.2,2-.3,3,0,.2,0,.5,0,.7-.1.4,0,.7.4,1,.2.2.3.2.5,0,.1-.1.3-.2.5-.4.2.2.2.3,0,.5-.5.4-1.1.8-1.6,1.2-.2.1-.3.1-.4,0-.4-.5-.8-.9-1.4-1.2-.2,0-.2-.2,0-.3.4-.3.5-.8.6-1.3.1-1.2.2-2.4.3-3.6,0-.1,0-.3,0-.4,0-.2-.1-.3-.2-.4,0,0-.3,0-.4.1,0,0,0,0-.1,0Z"/>
  <path class="cls-1" d="M71.5,15.4c0-.6,0-1,.1-1.6-.5,0-.9,0-1.2.4-.8,1-1.7,2.1-2.5,3.1-.2.2-.2.4-.2.6.2.7,0,.6.8.6,0,0,.2,0,.3,0,0,.3,0,.4-.3.4-.7,0-1.4,0-2,.1-.2,0-.2-.1-.3-.3,0-.4-.1-.8-.2-1.1,0-.2-.2-.4-.3-.6,0-.2,0-.3.1-.3.5,0,.9-.4,1.2-.7.8-.9,1.5-1.9,2.3-2.8.1-.1.2-.3.3-.5.1-.3,0-.5-.3-.5,0,0-.2,0-.2,0,0-.2,0-.3.2-.3.6,0,1.1-.1,1.7-.2.2,0,.3,0,.3.3,0,.5,0,1-.2,1.5.4,0,.8,0,1.2,0,.2,0,.5,0,.7,0,.2,0,.2,0,.2.2,0,.5,0,1-.1,1.5,0,0,0,.2-.2.2-.5,0-.9.1-1.4.2Z"/>
  <path class="cls-1" d="M82.8,57.9c.2-.1.4,0,.4.1.2.6.5,1.3.7,1.9,0,.2,0,.3-.1.3-.6.2-1.1.5-1.6,1-.1.2-.3.1-.3,0-.2-.4-.5-.6-.9-.8-1.2-.5-2.3-1-3.5-1.4-.2,0-.3-.1-.5-.1-.4,0-.5,0-.4.4,0,0,0,.1,0,.2-.2.1-.3.2-.4,0-.2-.5-.4-1-.7-1.6,0-.2,0-.2.1-.3.5-.2,1-.4,1.6-.3-.3-.7-.6-1.3-.8-2,.3,0,.6-.1.8-.2.3,0,.5-.1.8-.2,0,0,.3,0,.3,0,.2.4.4.9.6,1.3-.5.1-1,.2-1.5.3.2.5.3.9.9,1.1,1.2.4,2.3.9,3.5,1.4.3.1.5.1.8,0,.5-.3.5-.2.3-.8,0-.1,0-.3-.1-.4Z"/>
  <path class="cls-1" d="M26.7,14.4c.3,0,.3.1.3.4-.1.5-.3,1.1-.4,1.6,0,.2-.1.2-.3.2-.5,0-1-.3-1.3-.8-.7-1-1.4-2.1-2.1-3.2-.2-.3-.4-.6-.6-1-.2-.3-.4-.5-.8-.6-.2,0-.3-.2-.2-.4.1-.4.2-.8.3-1.2,0-.2.1-.3.3-.2.4,0,.9.2,1.3.3.2,0,.2.1.2.3-.2.5,0,.9.3,1.3.7,1,1.3,2.1,2,3.1.1.2.3.4.5.6.2.2.4.2.5-.1,0,0,0-.2,0-.3Z"/>
  <path class="cls-1" d="M19.9,12.4c-.1.3,0,.5.2.7.9,1.1,1.7,2.2,2.6,3.3.1.2.3.3.4.4.3.3.5.2.5-.2,0-.2,0-.3.3-.2,0,0,0,.2,0,.2,0,.5-.2,1.1-.2,1.6,0,.2-.1.3-.4.3-.6,0-1.1-.3-1.5-.8-.5-.7-1.1-1.4-1.6-2-.4-.5-.9-1.1-1.3-1.6-.2-.3-.5-.5-.9-.5-.2,0-.3,0-.2-.3,0-.4.1-.9.2-1.3,0,0,.2-.2.2-.2.5,0,.9,0,1.4.1.4,0,.2.3.2.5Z"/>
  <path class="cls-1" d="M62.6,13.9c.1.3,0,.4-.2.4-.5.1-1,.3-1.5.4-.2,0-.3,0-.4-.2-.2-.6-.2-1.2.1-1.7.5-.9,1-1.9,1.4-2.8.2-.5.5-.9.7-1.4.2-.3.2-.5.1-.8-.1-.4,0-.4.3-.5.4-.1.7-.2,1.1-.3.2,0,.2,0,.3.2.1.4.3.9.4,1.3,0,.2,0,.3-.2.3-.5,0-.7.5-.9.9-.6,1.1-1.2,2.2-1.7,3.3-.1.2-.2.5-.3.7,0,.3,0,.4.3.3.1,0,.2,0,.3,0Z"/>
  <path class="cls-1" d="M78.1,31.9c0,.3-.2.3-.4.2-.5-.2-1-.4-1.5-.6-.2,0-.2-.2-.2-.3.2-.6.6-1,1.1-1.3.9-.4,1.9-.9,2.8-1.3.5-.2.9-.4,1.4-.6.4-.1.6-.4.8-.7,0-.2.2-.3.4-.2.4.2.8.3,1.2.5.2,0,.2.2.2.4-.2.4-.3.8-.4,1.2,0,.2-.1.3-.3.2-.4-.2-.8-.1-1.2,0-1.2.6-2.4,1.1-3.6,1.6-.2,0-.4.2-.5.3-.3.2-.2.4,0,.5,0,0,.2,0,.3.1Z"/>
  <path class="cls-1" d="M80.3,41.8c.7-.6,1.3-1.1,1.9-1.6,0,0,.2,0,.2,0,.6.5,1.3,1.1,1.9,1.6-.5.4-.9.8-1.3,1.1-.2.2-.4.3-.6.5,0,0-.2,0-.3,0-.6-.5-1.3-1.1-1.9-1.6Z"/>
  <path class="cls-1" d="M9.4,41.8c-.7.6-1.3,1.1-1.9,1.6,0,0-.2,0-.2,0-.6-.5-1.3-1.1-1.9-1.7.5-.4.9-.8,1.4-1.2q.6-.5,1.3,0c.5.4.9.8,1.4,1.2Z"/>
  <path class="cls-1" d="M23.8,65.7c-.2,0-.3.1-.4.2-.6.3-1.2.6-1.9.8-.2,0-.3,0-.5,0-.2-.2-.6-.4-.7-.7,0-.3.1-.6.3-.9.2-.5.4-1,.5-1.6,0,0,0,0,0,0,.2,0,.3.2.3.4,0,.5,0,1,0,1.5,0,.2,0,.3.3.3.5,0,.9,0,1.4,0,.2,0,.4,0,.6.3Z"/>
  <path class="cls-1" d="M52.6,72.1c-.2.7-.4,1.3-.7,1.9-.1.4-.3.8-.4,1.3,0,0,0,.2,0,.2-.1,0-.2.1-.3.1,0,0-.1-.2-.1-.2,0-.9,0-1.8,0-2.6,0,0,0-.3.1-.3.5-.1,1-.2,1.6-.4Z"/>
  <path class="cls-1" d="M34.2,74.7c.3-.5.6-1,.8-1.5.2-.4.4-.7.6-1.1,0,0,.2-.2.2-.2.5.1,1,.3,1.5.5-.2.2-.3.3-.5.4-.7.6-1.4,1.2-2.1,1.8-.2.2-.4.2-.6,0Z"/>
  <path class="cls-1" d="M65.1,6.1c.4-.4.7-.9,1-1.3,0,0,.2,0,.2,0,.2.1.5.2.7.4-.2.1-.3.2-.4.3-.4.2-.7.5-1.1.7-.2.1-.3.1-.5,0Z"/>
  <path class="cls-1" d="M21.2,8.3c-.2-.5-.4-1.1-.6-1.6,0,0,0-.2,0-.2.2-.1.4-.3.7-.4,0,.1,0,.2,0,.3,0,.5,0,1,0,1.5,0,.1,0,.3-.2.4,0,0,0,0-.1,0Z"/>
  <path class="cls-1" d="M84.9,27.4c.5-.1,1.1-.2,1.6-.3,0,0,.2,0,.2.1.1.2.2.4.3.7-.3,0-.5,0-.8,0-.4,0-.7,0-1.1-.1-.1,0-.2-.1-.3-.2,0,0,0,0,0-.1Z"/>
  <path class="cls-1" d="M17.6,8.6c.1.6.2,1.2.3,1.8,0,0,0,.1,0,.1,0,0-.1.2-.2.3,0-.1-.2-.2-.2-.3-.2-.4-.4-.8-.6-1.2,0,0,0-.3,0-.3.2-.2.4-.3.6-.5Z"/>
  <path class="cls-1" d="M38.9,14.2c.3-.2.6,0,.9,0-.3.3-.6.3-.9,0Z"/>
  <path class="cls-1" d="M50.3,37.9c0,0-.1,0-.2,0-.1,0-.2,0-.3,0,0,0,0,0,0,0,.1,0,.2,0,.4,0,0,0,0,0,.1,0,0,0,0,0,0,0Z"/>
  <path class="cls-1" d="M51,52.3c-.3.2-.5.4-.8.5-.2,0-.4.2-.6.2-.4.2-.8.3-1.3.5-.8.3-1.6.4-2.4.6-.5,0-.9,0-1.4.1-.2,0-.4-.1-.5,0-.5.2-1,0-1.5-.2-.1,0-.2,0-.3,0-.4,0-.7-.1-1-.3-.4-.2-.9-.4-1.4-.6-.4-.2-.8-.4-1.2-.6,0,0,0-.1-.2-.3.2,0,.4,0,.5.1.8.3,1.6.7,2.3,1,.6.2,1.2.2,1.7.4.6.2,1.2,0,1.8.3,0,0,0,0,0,0,.5,0,1.1,0,1.6-.1,1-.2,2-.5,3-.8.2,0,.5-.3.7-.4.2-.1.5-.2.7-.3,0,0,.1,0,.2,0,0,0,0,0,0,.1Z"/>
  <path class="cls-1" d="M35.6,49.4c-.3-.2-.4-.4-.5-.7-.1-.5-.4-.9-.6-1.4-.2-.6-.5-1.2-.5-1.9,0,0,0,0,0,0,.1.3.2.6.3.9.4.8.5,1.8,1.1,2.5.1.2,0,.4.1.6h0Z"/>
  <path class="cls-1" d="M35.6,49.4c.1.1.3.3.4.4,0,0,0,0,0,0-.2,0-.3-.2-.3-.5,0,0,0,0,0,0Z"/>
  <path class="cls-1" d="M44.5,44.5c.2.1.4.2.5.4.4.3.8.6,1.2,1,.2.2.4.3.7.3.2,0,.5,0,.7.1.5.2,1,.2,1.6,0,.2,0,.4,0,.6,0,.2,0,.4-.1.6-.3.2-.2.5-.3.7,0-.3.4-.7.6-1.1.8-.4.1-.9.3-1.3.4,0,0-.1,0-.1,0-.5-.1-1.1-.2-1.6-.4-.4-.1-.7-.4-1.1-.5-.1,0-.3-.1-.4-.2,0,0-.2-.2-.3-.3-.1-.2-.2-.3-.5-.3-.2,0-.4,0-.5.3,0,0,0,.2-.1.2-.5.4-1,.9-1.6,1.1,0,0-.2.1-.3.2-.4.3-.9.4-1.4.4-.3,0-.6,0-.8,0-.6,0-1.1-.2-1.5-.5-.2,0-.4-.1-.5-.2-.1,0-.2-.1-.3-.2-.1-.1-.2-.3,0-.4.1-.2.3-.2.4,0,.4.3.9.4,1.4.4.4,0,.8.2,1.2.2.3,0,.7,0,1-.1.5,0,1-.2,1.4-.6.1-.1.3-.2.4-.3.2-.1.3-.3.5-.4.3-.2.6-.4.6-.9Z"/>
  <path class="cls-1" d="M33,63.8c-.1.1-.2.2-.3.3,0,0-.1,0-.2,0-.3.4-.6.2-.9,0-.3-.2-.7-.3-1-.5-.3-.2-.3-.3,0-.5.2-.2.3-.4.4-.6.2-.2.4-.3.6,0,.3.3.7.5,1,.8.1,0,.2.3.3.5Z"/>
  <path class="cls-1" d="M32.8,60.8c.6,0,1,.3,1.3.7.1.2,0,.4-.1.5-.2.1-.5.3-.7.4-.2,0-.4,0-.6-.1-.2,0-.3-.1-.5-.2-.1,0-.3,0-.3-.1,0-.1,0-.3,0-.4.1-.2.3-.5.5-.6,0,0,.3-.1.3-.1Z"/>
  <path class="cls-1" d="M38.4,67.6c-.2,0-.3,0-.5-.1,0-.2,0-.4.2-.5.4-.3.8-.5,1.2-.7,0,0,.2,0,.3.1.1,0,.2.2.3.2.2,0,.2.2.1.3-.2.2-.4.3-.6.4-.2,0-.4.1-.7.2-.1,0-.3,0-.4,0,0,0,0,0,0,0Z"/>
  <path class="cls-1" d="M23.5,48.3c0,0,.1,0,.2,0,.2.3.5.5.7.8.2.3,0,.9-.4,1,0,0-.3,0-.4,0-.3-.2-.5-.4-.7-.6-.3-.3-.2-.6.1-.8,0,0,.2-.1.2-.2,0,0,.2-.1.3-.2Z"/>
  <path class="cls-1" d="M21.2,49.9c.3,0,.6.2.7.6,0,.1,0,.2.1.3.1.2,0,.3,0,.5-.1.1-.3.2-.5,0-.3-.2-.6-.3-.9-.5-.1,0-.2-.3-.2-.5,0-.1.2-.2.3-.3.1,0,.3,0,.4,0Z"/>
  <path class="cls-1" d="M21.3,36.1c-.2.1-.4.2-.5.3-.1,0-.3,0-.4,0,0-.2,0-.4,0-.5.2-.3.5-.6.7-.9.1-.1.3-.2.5,0,.2.1.4.2.5.3.1.1.4.3.4.4,0,.4,0,.8-.3,1.1-.2.2-.5,0-.6-.2,0-.2-.1-.4-.2-.6Z"/>
  <path class="cls-1" d="M24.7,36.8c0,.3-.2.4-.4.5-.2,0-.4,0-.6-.2,0-.1-.3-.2-.5-.2-.3,0-.4-.1-.4-.4,0,0,0,0,0-.1,0-.5.3-.7.8-.6.2,0,.4,0,.6.2.3.2.4.5.4.9Z"/>
  <path class="cls-1" d="M21.3,41.9c.6,0,1.1,0,1.7.2.1,0,.2,0,.3.2.4.3.5,1.2.1,1.6,0,.1-.3.2-.4.2-.9,0-1.8,0-2.6-.4-.3-.2-.7-.4-1-.5-.2-.1-.2-.2,0-.5.3-.5.7-.7,1.3-.7.2,0,.4,0,.6,0,0,0,0,0,0,0Z"/>
  <path class="cls-1" d="M47,19.2c.2,0,.6,0,.9.1.2,0,.3.3.2.5-.2.3-.4.6-.5.9,0,.2,0,.5,0,.7,0,.1,0,.4,0,.4-.1,0-.3,0-.4,0-.1,0-.3,0-.4,0-.6,0-.7-.3-.6-.8,0-.4.1-.8.1-1.3,0-.5,0-.6.6-.5Z"/>
  <path class="cls-1" d="M33.6,54.2c-.5,0-.8-.3-1.2-.6-.2-.2-.5-.3-.5-.6,0-.1,0-.3,0-.4,0,0,.3-.1.4,0,.2,0,.4.2.6.4.2.1.4.2.5.3.5.2.5.3.3.7,0,0,0,.2-.2.3Z"/>
  <path class="cls-1" d="M53.4,22s0,0,.2,0c.3.2.5.3.8.3.4,0,.6.4.7.8,0,0,0,.1,0,.2,0,.2-.7.7-.9.6-.6-.2-1.1-.5-1.4-1.1-.2-.4.2-.9.6-.9Z"/>
  <path class="cls-1" d="M54.7,20.6c.7,0,1.3.5,1.4,1.1,0,0,0,.2-.2.3-.1,0-.3.1-.5.1,0,0-.1,0-.2-.1-.2-.2-.4-.4-.7-.2-.1,0-.3,0-.4,0-.2-.1-.4-.2-.4-.5,0-.2.3-.5.6-.6.1,0,.3,0,.3,0Z"/>
  <path class="cls-1" d="M35.9,22.4c0-.3.3-.7.6-.8.7-.2.9-.1,1.2.5.2.3.1.4-.1.5-.2,0-.3.2-.5.2-.2,0-.4,0-.6,0-.1,0-.3,0-.4-.2-.1,0-.2-.2-.2-.2Z"/>
  <path class="cls-1" d="M37.4,20.5c0,.5-.2.6-.7.5,0,0-.2,0-.3,0-.4,0-.5,0-.6-.4,0-.3,0-.6.4-.7.4-.2.7-.1,1,0,0,0,.2.2.2.3,0,.1,0,.3,0,.4Z"/>
  <path class="cls-1" d="M37,56.5c0-.3.2-.5.5-.4.2,0,.4,0,.5,0,.7,0,1,.4,1.2,1,0,.2-.2.4-.4.4-.5-.2-1.1-.4-1.6-.6-.2,0-.4-.2-.3-.5Z"/>
  <path class="cls-1" d="M60.2,38c0,.2,0,.4-.2.6,0,0-.1.1-.2.2-.3,0-.7-.3-.7-.6,0-.1,0-.3,0-.4,0-.4.2-.6.6-.6.4,0,.3.3.4.5,0,.1,0,.2,0,.4,0,0,0,0,0,0Z"/>
  <path class="cls-1" d="M60.3,45.3c-.7-.2-1.4-.3-2.1-.6-.1,0-.2-.3-.2-.4,0-.1.1-.3.2-.3.6-.3,1.2-.2,1.8,0,.2,0,.4.2.7.3.3.1.4.3.4.6,0,.3-.3.4-.7.5Z"/>
</svg>