<?xml version="1.0" encoding="UTF-8"?>
<svg id="Vrstva_1" data-name="Vrstva 1" xmlns="http://www.w3.org/2000/svg" version="1.1" viewBox="0 0 122 41">
  <defs>
    <style>
      .cls-1 {
        fill: #fff;
        stroke-width: 0px;
      }
    </style>
  </defs>
  <path class="cls-1" d="M8.7,12.7c-1.6-.4-3-1-4.4-1.9-1.9-1.3-3.1-3.2-3.6-5.5-.3-1.6-.3-3.1,0-4.7,0,0,0,0,0,0,0,0,0,0,0,0,.9.2,1.8.5,2.7,1,3.1,1.5,5.1,3.9,5.4,7.4.1,1.3,0,2.5-.1,3.7,0,0,0,0-.1,0Z"/>
  <path class="cls-1" d="M18.6.5c.1,0,.2,0,.2.1.2,1,.2,2.1.1,3.1-.2,3.6-1.9,6.2-5.1,7.9-1,.5-2,.9-3,1.1,0,0,0,0-.1,0-.2-1-.2-2.1-.2-3.2.2-3.8,2.1-6.4,5.5-8,.8-.4,1.6-.7,2.5-.9Z"/>
  <path class="cls-1" d="M112.7,14.2v4.8c0,0,0,0,0,0h5.3c0,0,0,0,0,0h0v-2.4c0,0,0,0,0,0h3.4c0,0,0,0,0,0v6.8c0,0,0,0,0,0h-15.8c0,0,0,0,0,0v-3.4c0,0,0,0,0,0h2.3c0,0,0,0,0,0V4.7c0,0,0,0,0,0h-2.3c0,0,0,0,0,0V1.1c0,0,0,0,0,0h15.8c0,0,0,0,0,0v6.8c0,0,0,0,0,0h-3.4c0,0,0,0,0,0v-2.5c0,0,0,0,0,0h-5.3c0,0,0,0,0,0v4.5c0,0,0,0,0,0h5.6c0,0,0,0,0,0v3.9c0,0,0,0,0,0h-5.6c0,0,0,0,0,0Z"/>
  <path class="cls-1" d="M43.6,4.7c0,5.2,0,10.4,0,15.5,0,.6,0,1.1-.2,1.5-.5,1.1-1.5,1.7-2.7,1.7-2.6,0-5,0-7.2,0-1.2,0-2.3-.6-2.7-1.8-.1-.4-.2-1-.2-2,0-2.2,0-4.4,0-6.7,0,0,0,0,0,0h4.2c0,0,.1,0,.1.1v5.7c0,0,0,.1.1.1h4.1s0,0,0,0h0V4.7c0,0,0,0,0,0h-3.8c0,0-.1,0-.1,0V1.1c0,0,0,0,.1,0h10.4s0,0,0,0h0s0,3.4,0,3.4c0,0,0,.1-.1.1h-2c0,0,0,0,0,0Z"/>
  <path class="cls-1" d="M61.5,19.7V5.3s0,0,0,0h-2.4s0,0,0,0v3.7s0,0,0,0h-3.5s0,0,0,0V1.1s0,0,0,0h16.7s0,0,0,0v7.8s0,0,0,0h-3.5s0,0,0,0v-3.7s0,0,0,0h-2.4s0,0,0,0v14.4s0,0,0,0h2.5s0,0,0,0v3.5s0,0,0,0h-9.6s0,0,0,0v-3.5s0,0,0,0h2.5s0,0,0,0Z"/>
  <path class="cls-1" d="M90.1,5.4h-4.6c0,0-.1,0-.1.1v2.4c0,0,0,0,0,0h-3.4s0,0,0,0V1.1s0,0,0,0h14c0,0,.1,0,.1.1s0,0,0,0c0,.8,0,1.6,0,2.4,0,.2,0,.4-.1.6-2.6,5-5.2,10-7.8,14.9,0,0,0,0,0,0h4.3s0,0,0,0h0s0-2.4,0-2.4c0,0,0-.1.1-.1h3.4c0,0,.1,0,.1.1v6.8s0,0,0,0h-14.1s0,0,0,0h0v-2.6c0,0,0-.2,0-.2l8.2-15s0,0,0,0c0,0,0,0,0,0Z"/>
  <path class="cls-1" d="M8.9,23.2c-1.7-.4-3.4-1.2-4.7-2.2C1.2,18.8.1,15.2.9,11.7c0,0,0-.1.1,0,1.9.2,3.5.7,4.9,1.7,3.1,2.1,3.7,6.3,3.1,9.8,0,0,0,0-.1,0,0,0,0,0,0,0Z"/>
  <path class="cls-1" d="M18,17.9c-1.3,2.8-4.3,4.5-7.3,5.3,0,0,0,0,0,0,0,0,0,0,0,0-.4-2.5-.3-5.3,1-7.6,1.4-2.5,4.1-3.6,6.9-3.9,0,0,.1,0,.2.1.4,2.1.2,4.3-.7,6.2Z"/>
  <path class="cls-1" d="M65.7,32.7l.3-.2c.1,0,.3-.1.4,0h.1c.1.1.1.2,0,.3l-.7.5c-.1,0-.3,0-.4,0l-.7-.5c-.1,0-.1-.2,0-.2h.1c.1-.1.3-.1.4,0l.3.2c0,0,.1,0,.2,0Z"/>
  <path class="cls-1" d="M1.1,39.3c0,.1,0,.2.2.2h.9c.1,0,.2,0,.2-.2,0-.4.2-.9-.3-1.1-.5-.2-.9-.3-1.4-.5-.4-.2-.6-.6-.6-1,0-.5,0-1,0-1.5,0-.4.3-.7.7-.7h1.1c0,0,.1,0,.2,0l.2.2c0,0,.1,0,.2,0h0c0-.2,0-.2.1-.2h.6c0,0,.1,0,.1.1v1.6c0,.1,0,.2-.2.2h-.7c-.1,0-.2,0-.2-.2v-.4c0-.1,0-.2-.2-.2h-.8c-.2,0-.3,0-.3.3v.5c0,.2,0,.3.2.3.4.2.9.3,1.3.5.4.2.6.5.7,1,0,.5,0,1,0,1.6,0,.5-.3.8-.8.8-.4,0-.7,0-1.1,0,0,0-.1,0-.2,0h-.2c0-.2-.1-.2-.2-.2,0,0,0,0,0,0,0,0,0,.1-.1.1H.3c0,0-.1,0-.1-.1v-1.7c0,0,0-.1.1-.1h.8c0,0,0,0,0,0v.6Z"/>
  <path class="cls-1" d="M8.9,39.6h.5s0,0,0,0h0v.8s0,0,0,0h-2.2s0,0,0,0h0v-.8s0,0,0,0h.5s0,0,0,0h0v-3.8s0,0,0,0h-.7s0,0,0,0h0v.9s0,0,0,0h-.7s0,0,0,0h0v-2s0,0,0,0h4.5s0,0,0,0h0v2s0,0,0,0h-.7s0,0,0,0v-.9s0,0,0,0h-.7s0,0,0,0v3.8s0,0,0,0Z"/>
  <path class="cls-1" d="M14.8,38.5v1.9c0,.1,0,.2-.2.2h-1.3c-.1,0-.2,0-.2-.2,0-.2,0-.4,0-.6,0,0,0-.1,0-.1h.3s0,0,0,0v-4.1c0-.5.4-.9.9-.9h1.6c.5,0,.8.4.8.8s0,0,0,0v4.2c0,0,0,0,0,0h.3c0,0,.1,0,.1.1v.7c0,0,0,.1-.1.1h-1.4c0,0-.1,0-.1-.1v-1.9s0,0,0,0h-1s0,0,0,0ZM16,35.6s0,0,0,0h-1.2s0,0,0,0h0v1.7s0,0,0,0h1.2s0,0,0,0h0v-1.7Z"/>
  <path class="cls-1" d="M20.9,35.7v.9c0,0,0,.1-.1.1h-.7c0,0-.1,0-.1-.1v-1.9c0,0,0-.1.1-.1h4.4s0,0,0,0h0v2c0,0,0,0,0,0h-.7c0,0,0,0,0,0v-.9c0,0,0-.1-.1-.1h-.7c0,0,0,0,0,0v3.8c0,0,0,.1.1.1h.4c0,0,.1,0,.1.2v.7c0,0,0,.1,0,.1,0,0,0,0,0,0h-2c-.1,0-.2,0-.2-.2,0,0,0,0,0,0v-.6c0,0,0-.1.1-.1h.4c0,0,0,0,0-.1,0,0,0,0,0,0,0-.1,0-.3,0-.4,0-1.1,0-2.3,0-3.4,0,0,0,0,0,0h-.7c0,0,0,0,0,0Z"/>
  <path class="cls-1" d="M30.3,39.3v-.6s0,0,0,0h.7s0,0,0,0v1.7s0,0,0,0h-3.8s0,0,0,0v-.8s0,0,0,0h.5s0,0,0,0v-4s0,0,0,0c0,0,0,0,0,0h-.5s0,0,0,0v-.8s0,0,0,0h3.8s0,0,0,0h0s0,1.7,0,1.7c0,0,0,0,0,0h-.7s0,0,0,0v-.5s0,0,0,0c0,0,0,0,0,0h-1.3s0,0,0,0v1.1s0,0,0,0h1.7s0,0,0,0v.9s0,0,0,0h-1.7s0,0,0,0h0s0,1.2,0,1.2c0,0,0,0,0,0h1.3s0,0,0,0Z"/>
  <path class="cls-1" d="M35.4,36.8c0,0,.2,0,.2,0,0,0,0,0,.1,0l1-2.2c0,0,0,0,.1,0h1.2c.1,0,.2,0,.2.2v.6c0,.1,0,.2-.2.2h-.5c0,0-.1,0-.1,0l-.5,1.2s0,0,0,0c0,0,0,0,0,0,.5,0,.7.4.7,1,0,.6,0,1.1,0,1.6,0,0,0,0,0,0h.4c.1,0,.2,0,.2.2v.6c0,.1,0,.2-.2.2h-1.8c0,0,0,0,0,0v-.8c0,0,0,0,0,0h.3c0,0,0,0,0,0v-1.4c0,0,0,0,0,0h-1.1c0,0,0,0,0,0v1.4c0,0,0,0,0,0h.2c0,0,.1,0,.1.1,0,0,0,0,0,0v.7c0,0,0,.1-.1.1h-1.8c0,0-.1,0-.1-.1v-.7c0,0,0-.1.1-.1h.3c0,0,.1,0,.1-.1v-3.9c0,0,0-.1-.1-.1h-.3c0,0-.1,0-.1-.1v-.7c0,0,0-.1.1-.1h1.8c0,0,.1,0,.1.1v.6c0,.1,0,.2-.2.2h-.2c0,0-.1,0-.1.1v1.2c0,0,0,0,0,.1Z"/>
  <path class="cls-1" d="M47.1,34.7v-.2s0,0,0,0h.6c0,0,.1,0,.1.1v1.6c0,.1,0,.2-.2.2h-.7c0,0-.1,0-.1-.1v-.5c0-.1,0-.2-.1-.2h-.8c-.2,0-.2,0-.2.2v.5c0,.1,0,.3.2.3.5.2,1,.4,1.4.5.4.2.6.5.6.9,0,.5,0,1,0,1.6,0,.5-.3.8-.8.8-.4,0-.7,0-1,0,0,0-.1,0-.2,0h-.2c0-.2,0-.2-.2-.1,0,0,0,0-.1.1,0,0,0,0,0,0h-.5c0,0-.1,0-.1-.1v-1.7c0,0,0,0,0,0h.7c0,0,0,0,0,0v.6c0,0,0,.1.1.1h.9c.2,0,.3-.1.3-.3v-.6c0-.1,0-.3-.2-.3l-1.5-.6c-.3-.1-.6-.5-.6-.8,0-.5,0-1,0-1.5,0-.5.3-.9.8-.8.4,0,.7,0,1,0,0,0,.2,0,.2,0l.2.2c0,0,.1,0,.1,0Z"/>
  <path class="cls-1" d="M54.2,39.8c0,.4-.3.7-.7.7h-2.4c-.4,0-.7-.3-.7-.7v-4.6c0-.4.3-.7.7-.7h2.4c.4,0,.7.3.7.7v4.6ZM53.2,35.7s0,0,0,0h-1.6s0,0,0,0h0v3.6s0,0,0,0h1.6s0,0,0,0h0v-3.6Z"/>
  <path class="cls-1" d="M60.1,37.7c.5.3.4,1.3.4,1.9,0,.6-.3,1-.9.9-1,0-1.9,0-2.7,0,0,0-.1,0-.1-.1v-.7c0,0,0-.1.1-.1h.2c0,0,.1,0,.1-.1v-3.9s0,0,0,0h-.3c0,0,0,0,0,0v-.8c0,0,0,0,0,0,.9,0,1.8,0,2.8,0,.5,0,.9.4.9.9,0,.6.2,1.8-.4,2.1,0,0,0,0,0,.1ZM59.4,36.7v-.8c0-.2-.1-.3-.3-.3h-.9s0,0,0,0v1.2c0,0,0,0,0,0h.9c.2,0,.3-.1.3-.3ZM59.4,39v-.8c0-.2-.1-.3-.3-.3h-.8c0,0-.1,0-.1.1h0v1.1c0,0,0,.1.1.1h.8c.2,0,.3-.1.3-.3Z"/>
  <path class="cls-1" d="M64.1,39.5v-4s0,0,0,0c0,0,0,0,0,0h-.4s0,0,0,0h0s0-.8,0-.8c0,0,0,0,0,0h3.8s0,0,0,0v1.7s0,0,0,0h-.7s0,0,0,0c0,0,0,0,0,0v-.5s0,0,0,0c0,0,0,0,0,0h-1.3s0,0,0,0h0s0,1.1,0,1.1c0,0,0,0,0,0h1.7s0,0,0,0h0v.9s0,0,0,0h-1.7s0,0,0,0v1.2s0,0,0,0h1.3s0,0,0,0v-.5s0,0,0,0h.7s0,0,0,0h0v1.7s0,0,0,0h-3.8s0,0,0,0h0v-.8s0,0,0,0c0,0,0,0,0,0h.4s0,0,0,0c0,0,0,0,0,0Z"/>
  <path class="cls-1" d="M73,35.6h-.7s0,0,0,0h0v3.8s0,0,0,0h.5s0,0,0,0h0v.8s0,0,0,0h-2.2s0,0,0,0h0v-.8s0,0,0,0h.5s0,0,0,0h0v-3.8s0,0,0,0h-.7s0,0,0,0h0v.9s0,0,0,0h-.7s0,0,0,0h0v-2s0,0,0,0h4.5s0,0,0,0h0v2s0,0,0,0h-.7s0,0,0,0h0v-.9s0,0,0,0h0Z"/>
  <path class="cls-1" d="M77,39.5v-3.9s0,0,0,0h-.4s0,0,0,0h0v-.8s0,0,0,0h1.8s0,0,0,0h0v.8s0,0,0,0h-.4s0,0,0,0v3.9s0,0,0,0h.4s0,0,0,0h0v.8s0,0,0,0h-1.8s0,0,0,0c0,0,0,0,0,0v-.8s0,0,.1,0h.3s0,0,0-.1Z"/>
  <path class="cls-1" d="M81.9,35.8v3.5s0,0,0,0h1s0,0,0,0v-.8s0,0,0,0h.8c0,0,0,0,0,0v1.3c0,.4-.3.7-.7.7,0,0,0,0,0,0h-1.7c-.4,0-.8-.3-.8-.8,0-1.5,0-3,0-4.5,0-.4.3-.8.7-.7.4,0,1.1-.1,1.4.2,0,0,0,0,.1,0,0,0,0,0,0-.1,0-.1,0-.2.1-.2h.6s0,0,0,0v1.8c0,0,0,0,0,0h-.8c0,0,0,0,0,0v-.6c0-.1,0-.2-.2-.2h-.8c-.1,0-.2,0-.2.2Z"/>
  <path class="cls-1" d="M89.6,39.3v-.5s0,0,0,0h.7s0,0,0,0v1.7s0,0,0,0h-3.8s0,0,0,0v-.8s0,0,0,0h.4s0,0,0,0v-4s0,0,0,0c0,0,0,0,0,0h-.4s0,0,0,0h0s0-.8,0-.8c0,0,0,0,0,0,0,0,0,0,0,0h3.8s0,0,0,0v1.7s0,0,0,0h-.7s0,0,0,0v-.5s0,0,0,0c0,0,0,0,0,0h-1.3s0,0,0,0v1.1s0,0,0,0h1.7s0,0,0,0v.9s0,0,0,0h-1.7s0,0,0,0v1.2s0,0,0,0h1.3s0,0,0,0c0,0,0,0,0,0Z"/>
  <path class="cls-1" d="M97.5,40.2v.2c0,0,0,0,0,0h-.6c0,0,0,0,0,0v-1.7c0,0,0,0,.1,0h.7c0,0,.1,0,.1.1,0,0,0,0,0,0v.6c0,.1,0,.2.1.2h.9c.2,0,.3,0,.3-.3,0-.4.1-.8-.4-1-.5-.2-.9-.3-1.4-.5-.3-.1-.5-.4-.5-.7v-1.7c0-.4.3-.7.7-.7.4,0,1.3-.1,1.6.3,0,0,0,0,.1,0,0,0,0,0,0,0,0,0,0,0,0-.1,0,0,0-.1.1-.1h.6c0,0,.1,0,.1.1v1.6c0,0,0,.1-.1.1h-.7c-.1,0-.2,0-.2-.2v-.4c0-.1,0-.2-.2-.2h-.8c-.2,0-.2,0-.2.3v.6c0,.1,0,.2.2.3.5.2,1,.4,1.4.6.4.2.6.6.6,1,0,.6,0,1.1,0,1.6,0,.4-.3.7-.7.7,0,0,0,0,0,0-.3,0-.6,0-1,0-.3,0-.5-.1-.6-.3,0,0-.1,0,0,0Z"/>
  <path class="cls-1" d="M107.2,39.6h.2c0,0,.1,0,.1.1v.8s0,0,0,0h-1.9c0,0-.1,0-.1-.1v-.7c0,0,0-.1.1-.1h.3s0,0,0,0h0v-3.9s0,0,0,0h-.3c0,0-.1,0-.1-.1v-.7c0,0,0-.1.1-.1.9,0,1.9,0,3,0,.5,0,.8.4.8.8,0,.7,0,1.3,0,1.8,0,.5-.3.7-.6.8-.1,0-.2,0-.1.2.2.4.3.9.4,1.3,0,0,0,.1.2.1h.5c.1,0,.2,0,.2.2v.7c0,0,0,.1-.1.1h-1.4c0,0-.1,0-.1,0l-.6-2.3c0,0,0,0,0,0,0,0-.2,0-.3,0,0,0,0,0,0,.1v1.3c0,0,0,.1.1.1ZM106.8,35.6v1.3s0,0,0,0h.9c.2,0,.3-.2.3-.4h0s0-.6,0-.6c0-.2-.2-.4-.3-.4h-.9s0,0,0,0Z"/>
  <path class="cls-1" d="M118.9,39.8c0,.4-.3.7-.7.7h-2.4c-.4,0-.7-.3-.7-.7v-4.6c0-.4.3-.7.7-.7h2.4c.4,0,.7.3.7.7v4.6ZM117.9,35.7s0,0,0,0h-1.7s0,0,0,0v3.6s0,0,0,0h1.7s0,0,0,0h0v-3.6Z"/>
  <rect class="cls-1" x="102.1" y="39.9" width=".8" height=".8" rx="0" ry="0" transform="translate(61.7 142.7) rotate(-89.7)"/>
  <rect class="cls-1" x="111.9" y="39.9" width=".8" height=".8" rx="0" ry="0" transform="translate(-.1 .4) rotate(-.2)"/>
  <rect class="cls-1" x="121" y="39.9" width=".8" height=".8" rx="0" ry="0"/>
</svg>