<?xml version="1.0" encoding="UTF-8"?>
<svg id="Vrstva_1" data-name="Vrstva 1" xmlns="http://www.w3.org/2000/svg" version="1.1" viewBox="0 0 95 93">
  <defs>
    <style>
      .cls-1 {
        fill: #fff;
        stroke-width: 0px;
      }
    </style>
  </defs>
  <g>
    <path class="cls-1" d="M47.5,75.6c-17.6,0-32-14.3-32-32V.3h63.9v43.4c0,17.6-14.3,32-32,32ZM16.7,1.4v42.3c0,17,13.8,30.8,30.8,30.8h0c17,0,30.8-13.8,30.8-30.8V1.4H16.7Z"/>
    <g>
      <rect class="cls-1" x="43.1" y="37.4" width="4.4" height="2.7"/>
      <rect class="cls-1" x="33" y="37.4" width="4.4" height="2.7"/>
      <rect class="cls-1" x="38" y="37.4" width="4.4" height="2.7"/>
      <rect class="cls-1" x="48.1" y="37.4" width="4.4" height="2.7"/>
      <rect class="cls-1" x="55.7" y="34.1" width="4.4" height="2.7"/>
      <rect class="cls-1" x="65.7" y="34.1" width="4.4" height="2.7"/>
      <rect class="cls-1" x="53.1" y="37.4" width="4.4" height="2.7"/>
      <rect class="cls-1" x="60.7" y="34.1" width="4.4" height="2.7"/>
      <rect class="cls-1" x="63.2" y="37.4" width="4.4" height="2.7"/>
      <rect class="cls-1" x="58.2" y="37.4" width="4.4" height="2.7"/>
      <rect class="cls-1" x="20.4" y="40.8" width="4.4" height="2.7"/>
      <rect class="cls-1" x="73.3" y="37.4" width="1.8" height="2.7"/>
      <rect class="cls-1" x="70.8" y="34.1" width="4.4" height="2.7"/>
      <polygon class="cls-1" points="67.1 28.5 67.1 31.5 59.6 31.5 59.6 28.5 51.5 28.5 51.5 31.5 44 31.5 44 28.5 36 28.5 36 31.5 28.4 31.5 28.4 28.5 20.4 28.5 20.4 33.4 75.1 33.4 75.1 28.5 67.1 28.5"/>
      <rect class="cls-1" x="22.9" y="37.4" width="4.4" height="2.7"/>
      <rect class="cls-1" x="68.3" y="37.4" width="4.4" height="2.7"/>
      <rect class="cls-1" x="27.9" y="37.4" width="4.4" height="2.7"/>
      <rect class="cls-1" x="20.4" y="37.4" width="1.8" height="2.7"/>
      <rect class="cls-1" x="20.4" y="34.1" width="4.4" height="2.7"/>
      <rect class="cls-1" x="45.6" y="40.8" width="4.4" height="2.7"/>
      <rect class="cls-1" x="50.6" y="40.8" width="4.4" height="2.7"/>
      <rect class="cls-1" x="70.8" y="40.8" width="4.4" height="2.7"/>
      <rect class="cls-1" x="65.7" y="40.8" width="4.4" height="2.7"/>
      <rect class="cls-1" x="55.7" y="40.8" width="4.4" height="2.7"/>
      <rect class="cls-1" x="60.7" y="40.8" width="4.4" height="2.7"/>
      <polygon class="cls-1" points="59.1 7.1 59.1 12.1 72.7 12.1 72.7 7.1 69.2 7.1 69.2 10.2 67.6 10.2 67.6 7.1 64.2 7.1 64.2 10.2 62.5 10.2 62.5 7.1 59.1 7.1"/>
      <path class="cls-1" d="M60.2,30.8h6.2v-3h5.1v-15h-11.3v18ZM63.7,14.8h4.3v6.5h-4.3v-6.5Z"/>
      <path class="cls-1" d="M35.3,30.8V12.8h-11.3v15h5.1v3h6.2ZM27.5,21.3v-6.5h4.3v6.5h-4.3Z"/>
      <polygon class="cls-1" points="22.9 7.1 22.9 12.1 36.4 12.1 36.4 7.1 33 7.1 33 10.2 31.4 10.2 31.4 7.1 27.9 7.1 27.9 10.2 26.3 10.2 26.3 7.1 22.9 7.1"/>
      <rect class="cls-1" x="50.6" y="34.1" width="4.4" height="2.7"/>
      <rect class="cls-1" x="40.5" y="34.1" width="4.4" height="2.7"/>
      <rect class="cls-1" x="35.5" y="34.1" width="4.4" height="2.7"/>
      <rect class="cls-1" x="40.5" y="40.8" width="4.4" height="2.7"/>
      <rect class="cls-1" x="30.5" y="34.1" width="4.4" height="2.7"/>
      <rect class="cls-1" x="45.6" y="34.1" width="4.4" height="2.7"/>
      <rect class="cls-1" x="25.4" y="34.1" width="4.4" height="2.7"/>
      <rect class="cls-1" x="35.5" y="40.8" width="4.4" height="2.7"/>
      <rect class="cls-1" x="30.5" y="40.8" width="4.4" height="2.7"/>
      <rect class="cls-1" x="25.4" y="40.8" width="4.4" height="2.7"/>
    </g>
    <g>
      <path class="cls-1" d="M49.1,50.6s0,0,0,0h.3s.2,0,.2,0v-.7c0,0-.4-.6-.4-.6l-.6.4c.2.3.3.6.3.9h.2Z"/>
      <path class="cls-1" d="M45.9,50.6s0,0,0,0h.2c0-.2,0-.3,0-.5,0-.2.1-.3.2-.4h-.2c0-.1,0-.1,0-.1l-.3-.2h0c0,0-.5.5-.5.5v.7c0,0,0,0,0,0h.1s.3,0,.3,0h0Z"/>
      <path class="cls-1" d="M43.5,52.6s0,0,0,0l.3-.2s0,0,0,0h0c0,0-.4-.7-.4-.7l-.7-.2-.2.7c.3,0,.6.3.8.5h.2Z"/>
      <path class="cls-1" d="M46.4,51.3h-.2c0,.1,0,.1,0,.1l-.3.2s0,0,0,0h0c0,0,0,0,0,0l.4.6.7.2.2-.7s0,0,0,0c-.3,0-.5-.3-.7-.5Z"/>
      <path class="cls-1" d="M47,49.1h0s0,.2,0,.2c.3-.1.6-.1.9,0,0,0,0,0,0,0l.2-.6-.7-.3-.7.3s0,0,0,0v.4c.1,0,.1,0,.1,0Z"/>
      <path class="cls-1" d="M41.5,53.2c0,.1,0,.3,0,.4,0,.1.1.2.2.3,0,0,0,0,0,0,.2.1.4.2.6,0,0,0,.1,0,.2,0,0,0,0,0,0,0,.2-.2.3-.5.2-.7,0,0,0,0,0,0,0,0,0,0,0,0,0-.3-.3-.5-.6-.5h0c0,0-.1,0-.2,0-.2,0-.4.2-.4.4Z"/>
      <path class="cls-1" d="M40.8,53.4h-.7s0,0,0,0v.7c0,0,.4.6.4.6l.6-.4c0-.1-.2-.3-.2-.4,0-.2,0-.3,0-.5Z"/>
      <path class="cls-1" d="M41.8,52.2v-.5c-.1,0-.2,0-.2,0h0s0,0,0,0l-.7.2-.4.6s0,0,0,0l.6.4c.2-.3.4-.4.7-.5,0,0,0,0,0,0Z"/>
      <path class="cls-1" d="M42.6,54.7c-.3,0-.6,0-.9,0v.2c0,0,0,0,0,0v.3c-.1,0-.1,0-.1,0h0c0,0,0,0,0,0l.7.3.7-.3-.2-.7s0,0,0,0Z"/>
      <path class="cls-1" d="M44.2,53.4h-.7c0,.3,0,.6-.3.9h.2c0,.1,0,.1,0,.1l.3.2s0,0,0,0h0c0,0,.5-.5.5-.5v-.7Z"/>
      <path class="cls-1" d="M54.9,53.4h-.7c0,.2,0,.3,0,.5,0,.2-.1.3-.2.4h.2q0,.1,0,.1l.3.2s0,0,0,0h0c0,0,.5-.5.5-.5v-.7c0,0,0,0,0,0Z"/>
      <path class="cls-1" d="M54.2,52.6s0,0,0,0l.3-.2s0,0,0,0h0c0,0,0,0,0,0l-.4-.6-.7-.2-.2.7s0,0,0,0c.3,0,.5.3.7.5h.2Z"/>
      <path class="cls-1" d="M53.6,55.3v-.3c-.1,0-.1,0-.1,0v-.2c-.4.1-.7.1-1,0,0,0,0,0,0,0l-.2.6.7.3.7-.3h0s0,0,0,0c0,0,0,0,0,0Z"/>
      <path class="cls-1" d="M37.4,45.4v16.6c0,5.6,4.5,10.1,10.1,10.1h0c5.6,0,10.1-4.5,10.1-10.1v-16.6h-20.3ZM55.5,54.6l-.5.6c0,.1-.2.2-.3.2h0c0,.2,0,.4-.1.4,0,0-.1,0-.2,0s-.1,0-.2,0h0c0,0-.2.2-.3.2l-.7.3c0,0-.2,0-.3,0s-.2,0-.3,0l-.7-.3c0,0-.2,0-.2-.2l-3.8,3.9v3c.2-.5.6-1.1,1-1.6,1.4-1.9,3.5-2.7,3.6-2.7.1,0,.2,0,.3,0,0,0,.1.2.1.3,0,0-.3,2.3-1.7,4.1-.9,1.1-2,1.9-2.7,2.3.2,0,.3.2.4.3.4.5.9.8,1.5.9l1.4.4c.2,0,.3.2.2.4,0,.2-.2.3-.3.3s0,0,0,0l-1.2-.3c0,.1.2.3.3.3.2,0,.2.3.1.5,0,.1-.2.2-.3.2s-.1,0-.2,0c-.5-.3-.8-1-1-1.3,0,0,0,0,0,0,0,.1,0,.2,0,.3,0,.2,0,.4-.3.4,0,0,0,0,0,0-.2,0-.3-.1-.3-.3,0-.3,0-.7,0-.9-.2-.1-.3-.3-.5-.4-.1-.2-.3-.3-.5-.3v1.3c0,.2.4.6.8.7.2,0,.3.2.3.4,0,.2-.2.3-.3.3s0,0,0,0c-.2,0-.4-.1-.6-.3v.7c0,.2-.2.3-.3.3s-.3-.2-.3-.3v-.7c-.2.1-.4.2-.6.3,0,0,0,0,0,0-.2,0-.3-.1-.3-.3,0-.2,0-.4.3-.4.4,0,.8-.5.8-.7v-1.3c-.2,0-.4.1-.5.3-.1.2-.3.3-.5.4,0,.2.1.5,0,.9,0,.2-.2.3-.3.3s0,0,0,0c-.2,0-.3-.2-.3-.4,0-.1,0-.2,0-.3,0,0,0,0,0,0-.1.3-.4,1-1,1.3,0,0-.1,0-.2,0-.1,0-.2,0-.3-.2,0-.2,0-.4.1-.5.1,0,.2-.2.3-.3l-1.2.3s0,0,0,0c-.1,0-.3,0-.3-.3,0-.2,0-.4.2-.4l1.4-.4c.6-.2,1.1-.5,1.5-.9.1-.1.3-.2.4-.3-.7-.4-1.9-1.2-2.7-2.3-1.4-1.9-1.7-4-1.7-4.1,0-.1,0-.2.1-.3,0,0,.2,0,.3,0,0,0,2.1.8,3.6,2.7.4.5.7,1.1,1,1.6v-3l-3.8-3.9c0,0-.1.1-.2.2l-.7.3c0,0-.2,0-.3,0s-.2,0-.3,0l-.7-.3c-.1,0-.2-.1-.3-.2h0c0,0-.1,0-.2,0s-.1,0-.2,0c-.1,0-.2-.2-.1-.4h0c-.1-.1-.2-.2-.3-.3l-.5-.6c-.1-.1-.2-.3-.2-.5v-.7c0-.1.1-.3.2-.4h0c-.1-.1-.2-.3-.1-.4s.2-.2.3-.2h0c0-.1,0-.3,0-.4l.4-.6c0-.2.2-.3.4-.3l.7-.2c.1,0,.3,0,.4,0h0c0-.2.2-.3.3-.3h0c.1,0,.3,0,.3.2h0c.1,0,.3,0,.4,0l.7.2c.2,0,.3.2.4.3l.4.6c0,.1.1.2,0,.4h0c.1,0,.3.1.3.2,0,.1,0,.3-.1.4h0c0,.2.1.3.1.4v.7c0,.2,0,.4-.1.5l-.5.6c0,0-.1.1-.2.2l3,3.2v-5.3s0,0-.1,0-.1,0-.2,0l-.7-.2c-.2,0-.3-.2-.4-.3l-.4-.6c0-.1-.1-.3,0-.4h0c-.1,0-.3-.1-.3-.2s0-.3.1-.4h0c0-.1-.1-.3-.1-.4v-.7c0-.2,0-.4.1-.5l.5-.6c0-.1.2-.2.3-.2h0c0-.2,0-.4.1-.4.1,0,.3,0,.4,0h0c0,0,.2-.2.3-.2l.7-.3c.2,0,.4,0,.5,0l.7.3c.1,0,.2.1.3.3h0c.1-.1.3-.1.4,0,.1,0,.2.2.1.4h0c.1.1.2.2.3.3l.5.6c.1.1.2.3.2.5v.7c0,.1-.1.3-.2.4h0c.1.1.2.3.1.4,0,.1-.2.2-.3.2h0c0,.1,0,.3,0,.4l-.4.6c0,.2-.2.3-.4.3l-.7.2c0,0-.1,0-.2,0s0,0-.1,0v5.3l3-3.2c0,0-.2,0-.2-.2l-.5-.6c-.1-.1-.2-.3-.2-.5v-.7c0-.1.1-.3.2-.4h0c-.1-.1-.2-.3-.1-.4,0-.1.2-.2.3-.2h0c0-.1,0-.3,0-.4l.4-.6c0-.2.2-.3.4-.3l.7-.2c.1,0,.3,0,.4,0h0c0-.2.2-.3.3-.3h0c.1,0,.3,0,.3.2h0c.1,0,.3,0,.4,0l.7.2c.2,0,.3.2.4.3l.4.6c0,.1.1.3,0,.4h0c.1,0,.3.1.3.2s0,.3-.1.4h0c0,.1.1.3.1.4v.7c0,.2,0,.4-.1.5Z"/>
      <path class="cls-1" d="M48.2,50.8s0,0,0,0c0,0,0,0,0,0,0-.3,0-.6-.2-.7,0,0,0,0,0,0,0,0-.1,0-.2,0-.2,0-.4,0-.6,0-.1,0-.2.2-.2.3,0,.1,0,.3,0,.4,0,.2.2.4.4.4,0,0,.1,0,.2,0,.3,0,.5-.2.6-.5Z"/>
      <path class="cls-1" d="M52.3,53.2s0,0,0,0c0,0,0,0,0,0,0,.3,0,.6.2.7,0,0,.1,0,.2,0,.2,0,.4,0,.6,0,0,0,0,0,0,0,.1,0,.2-.2.2-.3,0-.1,0-.3,0-.4,0-.2-.2-.4-.4-.4,0,0-.1,0-.2,0h0c-.3,0-.5.2-.6.5Z"/>
      <path class="cls-1" d="M48.1,52.4h0c0,0,.7,0,.7,0l.4-.6-.6-.4c-.2.3-.4.5-.8.5v.2c0,0,0,0,0,0v.3q.1,0,.1,0Z"/>
      <path class="cls-1" d="M52.5,51.9s0,0,0,0v-.3c-.1,0-.1,0-.1,0h0c0,0-.7,0-.7,0l-.4.6.6.4c.2-.3.4-.5.8-.5v-.2Z"/>
      <path class="cls-1" d="M50.9,53.4v.7c0,0,.4.6.4.6l.6-.4c-.2-.3-.3-.6-.3-.9h-.7Z"/>
    </g>
  </g>
  <g>
    <g>
      <path class="cls-1" d="M2.9,84.7l1.9,5.3h0l2-5.3h2.4v.9h-.3c-.2,0-.3.2-.3.4l.4,5.6h.6v1h-2.6v-.9h.4c.2,0,.3-.2.3-.5l-.2-4.5h0l-1.9,4.9h-1.1l-1.9-4.9h0l-.3,4.8h.6v1H0v-.9h.4c.2,0,.3-.1.3-.4l.4-5.6h-.6v-1h2.3Z"/>
      <path class="cls-1" d="M11.6,91.7h.3c.3,0,.4-.1.4-.4v-5.6h-.6v-1h5.4v1.8h-1.2c0,0,0-.5,0-.5,0-.2,0-.3-.3-.3h-1.9v2.3h2.8v1.1h-2.8v2.4h2c.2,0,.3,0,.3-.3v-.6h1.2v2h-5.5v-.9ZM14.6,83l1.4-1,.5.4-1.3,1.4c-.2.3-.4.4-.6.4s-.4,0-.6-.3l-1.3-1.4.5-.4,1.4,1Z"/>
      <path class="cls-1" d="M23.1,90.4c0-.8-.7-1-1.5-1.3-1.1-.3-2.3-.8-2.3-2.3s1.1-2.3,2.8-2.3,1.6.1,2.2.4v1.9h-1.2c0,0,0-.7,0-.7,0-.2,0-.3-.2-.4-.2,0-.6,0-.8,0-.6,0-1.3.2-1.3,1s.6,1,1.6,1.3c1.1.3,2.2.8,2.2,2.3s-1.1,2.5-3,2.5-1.7-.1-2.4-.4v-1.9h1.2c0,0,0,.7,0,.7,0,.2,0,.3.2.4.2,0,.6.1.9.1.8,0,1.5-.2,1.5-1.2Z"/>
      <path class="cls-1" d="M28.9,85.7h-1.1c-.2,0-.3.1-.3.3v.7h-1.1v-2.1h6.5v2h-1.2c0,0,0-.6,0-.6,0-.2,0-.3-.3-.3h-1.1v5.9h.8v1h-3.2v-.9h.5c.3,0,.3-.1.3-.4v-5.5Z"/>
      <path class="cls-1" d="M38,92.7c-2.1,0-3.4-1.4-3.4-4.1s1.8-4.1,3.5-4.1,3.3,1.1,3.3,4.1-1.4,4.1-3.5,4.1ZM38.1,91.5c1.5,0,1.9-1.4,1.9-2.8s-.3-2.9-1.9-2.9-2,1.4-2,2.8.3,2.9,2,2.9Z"/>
    </g>
    <g>
      <path class="cls-1" d="M52.1,90.4c0-.8-.7-1-1.5-1.3-1.1-.3-2.3-.8-2.3-2.3s1.1-2.3,2.8-2.3,1.6.1,2.2.4v1.9h-1.2c0,0,0-.7,0-.7,0-.2,0-.3-.2-.4-.2,0-.6,0-.8,0-.6,0-1.3.2-1.3,1s.6,1,1.6,1.3c1.1.3,2.2.8,2.2,2.3s-1.1,2.5-3,2.5-1.7-.1-2.4-.4v-1.9h1.2c0,0,0,.7,0,.7,0,.2,0,.3.2.4.2,0,.6.1.9.1.8,0,1.5-.2,1.5-1.2ZM51,83l1.4-1,.5.4-1.3,1.4c-.2.3-.4.4-.6.4s-.4,0-.6-.3l-1.3-1.4.5-.4,1.4,1Z"/>
      <path class="cls-1" d="M59,91h0l1.7-5.4h-.6v-1h2.5v.9h-.3c-.2,0-.3.1-.4.4l-2.2,6.6h-1.7l-2.3-6.9h-.6v-1h2.8v.9h-.3c-.3,0-.4.2-.3.5l1.6,5Z"/>
      <path class="cls-1" d="M65,85.6h-.6v-1h2.7v.9h-.4c-.2,0-.3.1-.3.4v5.6h.6v1h-2.8v-.9h.4c.2,0,.3-.1.3-.4v-5.6Z"/>
      <path class="cls-1" d="M69.9,85.6h-.6v-1h2.7v.9h-.4c-.2,0-.3.1-.3.4v2h3.4v-2.3h-.6v-1h2.7v.9h-.3c-.2,0-.3.1-.3.4v5.6h.6v1h-2.7v-.9h.4c.2,0,.3-.1.3-.4v-2.2h-3.4v2.5h.6v1h-2.7v-.9h.3c.2,0,.3-.1.3-.4v-5.6Z"/>
      <path class="cls-1" d="M82.5,92.7c-2.1,0-3.4-1.4-3.4-4.1s1.8-4.1,3.5-4.1,3.3,1.1,3.3,4.1-1.4,4.1-3.5,4.1ZM82.6,91.5c1.5,0,1.9-1.4,1.9-2.8s-.3-2.9-1.9-2.9-2,1.4-2,2.8.3,2.9,2,2.9Z"/>
      <path class="cls-1" d="M91.3,91h0l1.7-5.4h-.6v-1h2.5v.9h-.3c-.2,0-.3.1-.4.4l-2.2,6.6h-1.7l-2.3-6.9h-.6v-1h2.8v.9h-.3c-.3,0-.4.2-.3.5l1.6,5Z"/>
    </g>
  </g>
</svg>