<?xml version="1.0" encoding="UTF-8"?>
<svg id="Vrstva_1" data-name="Vrstva 1" xmlns="http://www.w3.org/2000/svg" version="1.1" viewBox="0 0 140 81">
  <defs>
    <style>
      .cls-1 {
        fill: #fff;
        stroke-width: 0px;
      }
    </style>
  </defs>
  <rect class="cls-1" x="68.1" y=".2" width="2.5" height="57.8" rx="0" ry="0"/>
  <rect class="cls-1" x="73.1" y="7.1" width="2.5" height="11.8" rx=".1" ry=".1"/>
  <rect class="cls-1" x="63.2" y="7.2" width="2.5" height="6.9" rx=".1" ry=".1"/>
  <rect class="cls-1" x="78" y="11.3" width="2.5" height="46.7" rx="0" ry="0"/>
  <rect class="cls-1" x="58.4" y="14.6" width="2.3" height="6.7" rx=".1" ry=".1"/>
  <rect class="cls-1" x="63.2" y="16.3" width="2.5" height="41.8" rx="0" ry="0"/>
  <rect class="cls-1" x="73.1" y="23.4" width="2.5" height="4.8" rx=".1" ry=".1" transform="translate(0 .1) rotate(0)"/>
  <rect class="cls-1" x="58.4" y="23.8" width="2.5" height="34.2" rx="0" ry="0"/>
  <rect class="cls-1" x="23.8" y="32.1" width="2.5" height="38.6" rx=".1" ry=".1"/>
  <rect class="cls-1" x="28.7" y="32.1" width="2.3" height="38.6" rx=".1" ry=".1"/>
  <path class="cls-1" d="M75.6,32.6v4.6c0,0,0,.1-.1.1h-2.2c0,0-.1,0-.1-.1v-4.6c0,0,0-.1,0-.1,0,0,0,0,0,0h2.3c0,0,.1,0,.1.2Z"/>
  <path class="cls-1" d="M132.9,32.6c.7,0,1.5,0,2.4,0,0,0,0,0,0,0-.2.2-.3.4-.5.5-.4.3-.7.6-1.1,1-.2.2-.3.2-.5.3-.6,0-1.1,0-1.7,0-.1,0-.2,0,0-.2l1.3-1.6c0,0,.2-.1.3-.2Z"/>
  <path class="cls-1" d="M118.1,35.7c.1.1.2.1.2,0v-2.9c0,0,0-.1.1-.1,0,0,0,0,0,0h2.4c0,0,.1,0,.1.1v9.4c0,0,0,.1-.1.1h-2.2c0,0-.1,0-.1-.1h0s0-.5,0-.5c0,0,0,0,0,0,0,0,0,0,0,0-.3.3-.6.6-1,.7-1.7.5-3.3-.1-4-1.7-.2-.3-.3-.8-.3-1.2,0-.7,0-1.4.2-2,.3-1.2,1.3-2.2,2.6-2.3.7,0,1.9,0,2.3.6ZM117.4,40.1c.7-.2,1.2-.9,1-1.7h0c-.2-.8-.9-1.2-1.6-1.1s-1.2.9-1,1.7h0c.2.8.9,1.2,1.6,1.1Z"/>
  <rect class="cls-1" x="43.6" y="33.4" width="2.5" height="37.2" rx=".1" ry=".1"/>
  <path class="cls-1" d="M112.3,38.1c.2,2-.7,3.9-2.8,4.3-1.3.3-2.4,0-3.5-.6-.2-.2-.4-.3-.6-.5-.8-1-1-2.1-.8-3.4.3-1.4,1.1-2.3,2.5-2.7.3,0,.7-.1,1.2-.1,1,0,1.8.1,2.6.8.7.6,1.1,1.3,1.3,2.3ZM108.6,40.2c.7,0,1.3-.8,1.2-1.5,0-.8-.7-1.3-1.5-1.3-.7,0-1.3.8-1.2,1.5,0,.8.7,1.3,1.5,1.3Z"/>
  <path class="cls-1" d="M125.3,35.8c.1,0,.3-.2.4-.3,1-.6,2.3-.6,3.2.1.6.5.8,1,.8,1.7,0,1.7,0,3.3,0,4.8,0,0,0,0,0,0h-2.5c0,0,0,0,0,0,0-1.1,0-2.3,0-3.5,0-.5,0-1-.6-1.2-.8-.2-1.3.3-1.3,1.1,0,1.2,0,2.4,0,3.6,0,0,0,.1-.1.1,0,0,0,0,0,0h-2.4c0,0,0,0,0,0,0-2.2,0-4.5,0-6.8,0,0,0-.1.1-.1,0,0,0,0,0,0h2.4c0,0,.1,0,.1.1,0,0,0,0,0,0,0,.1,0,.3,0,.4,0,0,0,0,.1,0,0,0,0,0,0,0Z"/>
  <path class="cls-1" d="M100.5,39.4l1.2-4.1c0,0,0-.1.1-.1h2.6c.1,0,.2,0,.1.2l-2.6,6.9s0,0,0,0h-3s0,0-.1,0c-.7-2.1-1.5-4.3-2.3-6.4,0-.2-.1-.3-.1-.5,0,0,0-.1.1-.2,0,0,0,0,0,0h2.6c.1,0,.2,0,.2.1l1.1,4s0,0,0,0Z"/>
  <rect class="cls-1" x="131.5" y="35.2" width="2.6" height="7" rx=".1" ry=".1" transform="translate(0 .2) rotate(0)"/>
  <rect class="cls-1" x="48.5" y="36.1" width="2.5" height="34.6" rx=".1" ry=".1"/>
  <rect class="cls-1" x="38.6" y="37.7" width="2.3" height="7.7" rx=".1" ry=".1"/>
  <rect class="cls-1" x="18.8" y="38.4" width="2.5" height="32.3" rx=".1" ry=".1"/>
  <rect class="cls-1" x="53.6" y="40.2" width="2.5" height="30.5" rx="0" ry="0"/>
  <path class="cls-1" d="M75.6,41.4v8.4c0,0,0,.1-.1.1h-2.2c0,0-.1,0-.1-.1h0s0-8.4,0-8.4c0,0,0-.1.1-.1,0,0,0,0,0,0h2.2c0,0,.1,0,.1.2Z"/>
  <rect class="cls-1" x="87.9" y="42.1" width="2.3" height="28.6" rx="0" ry="0"/>
  <rect class="cls-1" x="14" y="42.5" width="2.3" height="28.2" rx="0" ry="0"/>
  <path class="cls-1" d="M36,42.8v27.9c0,0,0,.1-.1.1h-2.1c0,0-.1,0-.1-.1h0v-27.9c0,0,0-.1.1-.1,0,0,0,0,0,0h2.1c0,0,.1,0,.1.2Z"/>
  <rect class="cls-1" x="83" y="46.1" width="2.5" height="24.7" rx=".1" ry=".1"/>
  <path class="cls-1" d="M100,50.1c.7-.6,1.5-.9,2.5-.7,1.1.2,2,1.1,2,2.2,0,1.6,0,3.3,0,4.9,0,0,0,0,0,0h-2.4c0,0-.1,0-.1-.1h0c0-1.1,0-2.3,0-3.6,0-.6-.3-1-.8-1.2-.5-.1-1.1.4-1.1.9,0,1.3,0,2.6,0,4s0,0,0,0h-2.4c0,0-.1,0-.1-.1h0v-9.6s0,0,0,0c0,0,0,0,0,0h2.4c0,0,.1,0,.1.1v3.1s0,0,0,0c0,0,0,0,0,0Z"/>
  <path class="cls-1" d="M125,50c.1,0,.2,0,.2,0v-2.9s0,0,0,0h2.6c0,0,.1,0,.1.1h0v9.5c0,0,0,.1-.1.1h-2.4c0,0-.1,0-.1-.2v-.5s0,0,0,0c0,0,0,0,0,0-.8.8-1.7,1-2.7.7-1-.2-1.7-.8-2.2-1.6-.5-.9-.4-1.8-.4-2.7,0-1.1,1-2.5,2.1-2.8,1-.3,2.2-.3,3,.4ZM123.8,54.5c.7,0,1.4-.5,1.5-1.2,0-.8-.5-1.5-1.2-1.5-.7,0-1.4.5-1.5,1.2,0,.8.5,1.5,1.2,1.5Z"/>
  <rect class="cls-1" x="38.6" y="48.3" width="2.3" height="22.4" rx="0" ry="0"/>
  <path class="cls-1" d="M108.6,50.2s0,0,0,0c0,0,0,0,0,0,.4-.6,1.1-.9,1.8-.8.1,0,.3.1.3.3v1.9s0,0,0,0c-.7-.2-2,0-2,.9,0,1.4,0,2.7,0,4,0,0,0,0,0,0h-2.5c0,0-.1,0-.1-.1v-6.9c0-.1,0-.2.2-.2,0,0,0,0,0,0h2.3c0,0,.1,0,.1.2,0,0,0,0,0,0,0,.2,0,.3,0,.5Z"/>
  <path class="cls-1" d="M116.2,50.1v-.5c0,0,0-.1.2-.1h2.3c.1,0,.2,0,.2.2v6.9s0,0,0,0h-2.4c0,0-.1,0-.1-.1,0,0,0,0,0,0v-.5c0,0,0,0,0,0-.7.7-1.7,1-2.8.7-1.4-.3-2.4-1.6-2.5-3-.1-1.6.2-3,1.7-3.9.9-.6,2.2-.5,3.1,0,.2,0,.3.3.5.4,0,0,0,0,0,0ZM114.8,54.5c.8,0,1.4-.6,1.4-1.3h0c0-.8-.6-1.4-1.3-1.4h0c-.8,0-1.4.6-1.4,1.3h0c0,.8.6,1.4,1.3,1.4h0Z"/>
  <rect class="cls-1" x="73.1" y="54.3" width="2.5" height="8.8" rx=".1" ry=".1"/>
  <rect class="cls-1" x="58.4" y="60.8" width="2.5" height="9.9" rx=".1" ry=".1"/>
  <rect class="cls-1" x="63.2" y="60.8" width="2.5" height="9.9" rx="0" ry="0"/>
  <rect class="cls-1" x="68.1" y="60.8" width="2.5" height="9.9" rx="0" ry="0"/>
  <rect class="cls-1" x="78" y="60.8" width="2.5" height="9.9" rx="0" ry="0"/>
  <rect class="cls-1" x="111.6" y="60.8" width="2.3" height="2.7" rx="1.1" ry="1.1" transform="translate(43.6 170.8) rotate(-86.4)"/>
  <path class="cls-1" d="M99.6,62c0,0,.2,0,.3,0,0,0,0,0,0,0,.3-.3.5-.6.9-.6.6,0,1.1,0,1.6,0,0,0,0,0,0,0-.4.5-.8,1-1.2,1.5-.2.2-.4.4-.7.4-.6,0-1.2,0-1.8,0-.2,0-.4,0-.5-.3-.4-.5-.8-1.1-1.2-1.6,0,0,0,0,0,0h1.8c.1,0,.2,0,.3.1l.5.5Z"/>
  <path class="cls-1" d="M118.6,64.3c.2-.1.3-.3.5-.3.4-.2.9-.2,1.5-.2,1.6,0,2.4,1.3,2.3,2.8,0,1.5,0,2.9,0,4.4,0,0,0,0,0,0h-2.6c0,0-.1,0-.1-.1,0,0,0,0,0,0,0-1.4,0-2.7,0-4,0-.2,0-.4-.2-.5-.4-.3-.8-.3-1.2,0-.2.2-.3.4-.3.6,0,1.4,0,2.7,0,3.9,0,0,0,0,0,0h-2.5c0,0-.1,0-.1-.1v-9.4c0,0,0-.1.1-.1h2.4c0,0,.2,0,.2.2v2.7c0,0,0,.1.1.1,0,0,0,0,0,0Z"/>
  <path class="cls-1" d="M130.6,70.2c-.6.6-1.4.9-2.3,1-1,0-2.1,0-2.9-.7-.7-.6-1.3-1.3-1.4-2.3,0-.9-.1-1.9.3-2.6.6-1.1,1.6-1.7,2.9-1.9,1.5-.2,3.2.3,3.9,1.7.9,1.6.7,3.4-.6,4.7ZM127.8,68.8c.7,0,1.3-.6,1.3-1.4,0-.8-.6-1.4-1.3-1.4-.7,0-1.3.6-1.3,1.4h0c0,.8.6,1.4,1.3,1.4Z"/>
  <path class="cls-1" d="M100,68.7c-.1-.2-.3-.2-.5-.3-.7-.1-1.3-.2-1.8-.6-.8-.4-1.1-1.4-.8-2.3.3-1.1,1.5-1.7,2.6-1.8,1,0,1.9,0,2.7.4,0,0,0,0,0,0,0,.1,0,.3,0,.4-.2.4-.3.8-.5,1.2,0,.1-.1.1-.2,0-.7-.2-1.3-.6-2-.2-.1,0-.2.2,0,.3,0,.1.2.2.4.3.7.2,1.7.3,2.3.9,1.1,1,.6,2.8-.6,3.5-1.4.8-3.4.5-4.7-.3,0,0-.1-.2,0-.3l.7-1.5s0,0,.1,0c0,0,0,0,0,0,.6.4,1.8,1,2.5.4.1,0,.1-.2,0-.3,0,0,0,0,0,0Z"/>
  <path class="cls-1" d="M106.7,67.9l1.1-3.8c0-.1.1-.2.3-.2h2.5c0,0,.2,0,.2.2,0,0,0,0,0,0,0,0,0,0,0,0-.8,2.2-1.7,4.5-2.5,6.7,0,0,0,0,0,0h-2.9c-.1,0-.2,0-.3-.2l-2.4-6.8s0,0,0,0c0,0,0,0,0,0h2.8c0,0,.2,0,.2.1,0,0,0,.2,0,.3.4,1.3.7,2.5,1,3.5,0,.2.1.2.2,0Z"/>
  <path class="cls-1" d="M139.9,64v.2l-2.5,6.7c0,0,0,0-.1,0h-3c0,0-.1,0-.1-.1l-2.4-6.8s0-.1,0-.1c0,0,0,0,0,0h2.7c0,0,.2,0,.2.1l1.2,4s0,0,0,0l1.2-4.1c0,0,0-.1.2-.1h2.7Z"/>
  <rect class="cls-1" x="109.3" y="66.1" width="7" height="2.8" rx=".1" ry=".1" transform="translate(45 180) rotate(-89.8)"/>
  <path class="cls-1" d="M.3,73.6h36c0,0,.1,0,.1.1v2.2c0,0,0,.1-.1.1H.3c0,0-.1,0-.1-.1H.1s0-2.2,0-2.2c0,0,0-.1.1-.1Z"/>
  <rect class="cls-1" x=".1" y="78.4" width="36.3" height="2.5" rx="0" ry="0"/>
</svg>