<?xml version="1.0" encoding="UTF-8"?>
<svg id="Vrstva_1" data-name="Vrstva 1" xmlns="http://www.w3.org/2000/svg" version="1.1" viewBox="0 0 158 21">
  <defs>
    <style>
      .cls-1 {
        fill: #fff;
        stroke-width: 0px;
      }
    </style>
  </defs>
  <path class="cls-1" d="M.1.5h5.6v20H.1V.5Z"/>
  <path class="cls-1" d="M30.6,20.5v-10.6c0,0-5.2,8.6-5.2,8.6h-2.5l-5.1-8.3v10.3h-5.2V.5h4.7l7,11.5L31.1.5h4.7v20c0,0-5.1,0-5.1,0Z"/>
  <path class="cls-1" d="M60.6,7.9c0,4.5-3.4,7.4-8.9,7.4h-3.5v5.2h-5.6V.5h9.1c5.4,0,8.9,2.8,8.9,7.4ZM54.9,7.9c0-1.9-1.2-2.9-3.5-2.9h-3.1v5.8h3.1c2.3,0,3.5-1.1,3.5-2.9Z"/>
  <path class="cls-1" d="M64.5,10.5c0-6,4.7-10.4,11.1-10.4s11.1,4.4,11.1,10.4-4.7,10.4-11.1,10.4-11.1-4.4-11.1-10.4ZM81,10.5c0-3.5-2.4-5.7-5.4-5.7s-5.4,2.3-5.4,5.7,2.4,5.7,5.4,5.7,5.4-2.3,5.4-5.7Z"/>
  <path class="cls-1" d="M101.2,15.2h-3.1v5.3h-5.6V.5h9.1c5.4,0,8.9,2.8,8.9,7.4s-1.4,5.1-3.9,6.3l4.3,6.3h-6l-3.6-5.3ZM101.2,5h-3.1v5.8h3.1c2.3,0,3.5-1.1,3.5-2.9s-1.2-2.9-3.5-2.9Z"/>
  <path class="cls-1" d="M120.3,5h-6.1V.5h17.9v4.5h-6.1v15.5h-5.6V5Z"/>
  <path class="cls-1" d="M135.7,10.5c0-6,4.7-10.4,11.1-10.4s11.1,4.4,11.1,10.4-4.7,10.4-11.1,10.4-11.1-4.4-11.1-10.4ZM152.1,10.5c0-3.5-2.4-5.7-5.4-5.7s-5.4,2.3-5.4,5.7,2.4,5.7,5.4,5.7,5.4-2.3,5.4-5.7Z"/>
</svg>